<?xml version="1.0" encoding="UTF-8"?>
<svg width="1316px" height="1262px" viewBox="0 0 1316 1262" version="1.1" xmlns="http://www.w3.org/2000/svg" xmlns:xlink="http://www.w3.org/1999/xlink">
    <!-- Generator: Sketch 53.2 (72643) - https://sketchapp.com -->
    <title>Illustration 1</title>
    <desc>Created with Sketch.</desc>
    <defs>
        <path d="M78.1010289,86.3309627 C71.2310289,90.2709627 59.5000289,91.2509627 49.2810289,90.6609627 L46.9310289,119.700963 L13.5610289,105.970963 C13.5610289,105.970963 16.7610289,73.9309627 18.1510289,61.6309627 C11.4410289,55.5409627 0.0210289214,52.7209627 2.89213793e-05,42.3809627 C-0.00897107862,38.8109627 2.08002892,32.6109627 9.80002892,32.6009627 C20.1700289,32.5909627 18.6910289,45.0009627 18.6910289,45.0009627 C30.4010289,49.5609627 42.3910289,10.1809627 49.3110289,1.25096271 C53.0900289,-3.61903729 82.1110289,7.30096271 82.1110289,7.30096271 L99.5610289,11.9709627 C99.5610289,11.9709627 100.170029,73.6609627 78.1010289,86.3309627" id="path-1"></path>
        <path d="M326.125385,87.8257692 L331.649423,108.799808 C331.649423,108.799808 375.537885,89.9276923 399.210962,98.2748077 L320.763846,147.423846 L300.981154,88.7661538 L326.125385,87.8257692 Z M60.0290385,24.7971154 L35.5165385,49.3115385 C35.5165385,49.3115385 37.7434615,62.6605769 37.8521154,78.1230769 C38.0098077,100.505769 34.9203846,122.420192 34.9203846,122.420192 L0.000192307692,42.4817308 L51.5136538,-1.13686838e-13 L60.0290385,24.7971154 Z" id="path-3"></path>
        <path d="M276.000577,76.3916346 L301.740962,71.5925962 L311.457308,108.823365 L290.721731,117.757981 L276.000577,76.3916346 Z M30.9626923,0 L33.6569231,31.0673077 L15.3242308,49.3346154 L0.768461538,24.9192308 L30.9626923,0 Z" id="path-5"></path>
        <path d="M170.349216,319.820569 C130.390279,399.349311 61.6028846,466.770192 61.6028846,466.770192 L0.0163461538,375.442308 C0.0163461538,375.442308 82.063987,303.404229 120.785268,144.328191 C114.276346,118.1925 109.650385,96.6636538 108.026346,82.8655769 C102.699423,37.6828846 129.573462,7.25980769 136.785,0.000192307692 L140.093263,0.000192307692 L221.121154,0 C222.852874,6.44226959 229.718188,42.5572651 227.343311,95.7586714 C234.496538,119.529038 242.871538,148.221346 252.573462,182.663654 C307.804231,378.721346 333.419615,465.182885 333.419615,465.182885 L228.420577,502.634808 C228.420577,502.634808 198.280996,412.383299 170.349214,319.820563 L170.349216,319.820569 Z" id="path-7"></path>
        <polygon id="path-9" points="0.218 140 45.603 140 45.603 0 0.218 0"></polygon>
        <path d="M227.310745,228.596757 L206.52335,237.361828 C206.576656,234.175983 207.069616,231.143532 208.1967,228.4934 C210.3477,223.4344 221.6497,222.0134 221.6497,222.0134 C221.6497,222.0134 224.118318,224.855267 227.310745,228.596757 L227.310745,228.596757 Z M233.744388,236.222913 C237.415845,240.638571 240.658112,244.685097 241.3007,245.9464 C242.9147,249.1174 245.8997,264.8144 245.7577,267.9154 C245.6147,271.0164 236.3137,284.9524 236.3137,284.9524 C230.5427,283.5384 234.3117,276.3414 234.3117,276.3414 C234.3117,276.3414 229.1417,280.7124 226.9937,280.6394 C206.7527,279.9494 207.8377,269.7014 208.3157,268.4184 C209.3907,265.5364 214.7937,268.8314 214.7937,268.8314 C214.7937,268.8314 209.569963,258.233986 207.42313,246.810818 L233.744388,236.222913 L233.744388,236.222913 Z M137.6576,22.6301 C120.1446,20.9861 112.3396,6.3341 109.4906,0.7341 C115.7096,0.6641 121.7056,1.4011 127.5166,1.7401 C139.1916,2.4181 148.0906,2.7271 155.4046,4.0421 C155.8906,5.7961 159.5216,24.6731 137.6576,22.6301 Z M36.7625631,229.353669 L39.5883,238.3898 C39.5883,238.3898 40.3453,243.4508 40.4793,249.3698 C40.6123,255.2878 40.5413,258.8758 43.8583,268.0128 C46.1703,274.3798 37.0133,271.7838 34.6873,268.1418 C32.2873,264.3848 32.2593,249.7938 27.5013,252.2908 C22.7443,254.7868 20.0333,269.2468 19.7553,283.0878 C19.7123,285.2628 17.9483,286.8958 16.7473,287.4228 C14.8003,288.2778 12.8883,279.5418 12.8883,279.5418 C12.8883,279.5418 11.6353,282.4528 8.7993,280.9608 C7.7963,280.4338 5.2213,274.3838 5.2213,274.3838 C5.2213,274.3838 3.0763,271.3318 2.1063,268.0398 C0.3923,262.2278 -0.4627,251.6308 0.2553,248.5968 C1.17216233,244.720445 3.64387067,237.637551 5.77478187,231.810044 L36.7625631,229.353669 Z" id="path-11"></path>
        <path d="M189.6351,24.7962 L234.5061,5.8762 L237.9101,14.9382 L192.2701,33.2972 L189.6351,24.7962 Z M0.3187,4.7581 L50.9357,0.3741 L50.9357,9.9131 L0.4747,13.9131 L0.3187,4.7581 Z" id="path-13"></path>
        <path d="M71.0284832,116.942427 L70.1668389,87.1290528 C70.1668389,87.1290528 106.314221,90.0136908 114.047275,85.9877276 C114.047275,85.9877276 123.498181,37.1858626 112.226134,10.160881 L111.997812,9.10853742 L35.7164698,0.165887117 L31.4399414,44.0368098 C28.8704112,36.4406871 7.66365101,27.8273595 2.12049664,38.7049055 C-9.89269128,62.2750405 33.0608658,78.1455436 33.0608658,78.1455436 L28.6991879,117.300169" id="path-15"></path>
        <path d="M182.330961,15.8791131 L182.047748,40.3298346 C182.047748,40.3298346 236.83074,48.9636944 255.401827,69.897215 L146.256126,69.897215 L150.827843,-1.13686838e-13 L182.330961,15.8791131 Z M42.5209953,13.8199992 L42.2367748,41.2828826 C42.2367748,41.2828826 65.3110425,44.2970525 74.7034205,69.8974158 L0.000806299213,69.8974158 L5.45542047,39.763749 L21.9825386,30.5545662 L42.5209953,13.8199992 Z" id="path-17"></path>
        <path d="M145.788674,2.59347133 L177.291792,12.0667202 L177.00858,36.5164377 L143.248831,34.9983082 L145.788674,2.59347133 Z M5.97860787,0.533453858 L37.481726,10.0077068 L37.1975055,37.4695861 L0.415143307,35.9504525 L5.97860787,0.533453858 Z" id="path-19"></path>
        <path d="M185.837948,469.257961 L185.111483,491.949926 L143.556838,491.949926 L144.285481,469.18992 C139.630081,467.321258 136.303834,462.826851 136.190387,457.516599 L129.501624,117.625148 L57.2270866,460.774553 C56.2087126,465.601588 52.6310058,469.350289 48.0874604,470.73195 L45.3703559,491.949926 L1.7999622,491.949926 L5.54978897,468.52389 C1.92160908,465.7098 -0.181090682,461.080999 0.54223622,456.136828 L67.0820787,1.33553525 L127.213142,1.33532685 L127.209728,1.16181008 L200.039546,1.16181008 L195.674104,456.881033 C195.613596,462.873595 191.447488,467.886853 185.837948,469.257961 Z" id="path-21"></path>
        <polygon id="path-23" points="76.5923351 0.428732993 83.5716043 1.56834402 7.46062992 465.042069 0.460752953 463.87292"></polygon>
        <path d="M316.9268,62.6815971 L316.4268,54.0525062 C316.4268,54.0525062 316.4368,48.0479314 317.2168,41.5661718 C317.9968,35.0844123 322.4968,27.4196323 317.7368,15.9771396 C312.9768,4.54458827 324.3568,12.4380194 326.8768,17.8759372 C328.9768,22.4091924 327.8668,31.942946 330.4468,35.4323595 C332.6268,34.249339 334.0768,32.7084299 334.0768,32.7084299 L358.6068,1.07505748 C359.3968,0.0113331378 360.8568,-0.306790029 362.0268,0.319514956 L363.3468,1.03529208 C364.7368,1.7908346 365.1768,3.56039472 364.2868,4.85277009 C359.4968,11.8415384 344.6568,32.3406 345.0568,32.5493683 L345.7068,33.3347349 L374.5168,3.13291672 C375.4168,2.12884047 376.9268,1.94989619 378.0368,2.71538006 L379.7668,3.90834194 C381.0268,4.7732393 381.2968,6.50303402 380.3568,7.69599589 C374.6268,15.0525941 353.1268,38.4048229 353.5368,38.6334739 L354.3968,39.4586059 L381.2168,15.9075501 C382.1668,14.8537672 383.7868,14.734471 384.8868,15.619251 L386.1968,16.6829754 C387.3468,17.6075208 387.5168,19.2876088 386.5768,20.4209226 L361.2468,44.1012158 L361.9768,45.244471 L383.9668,29.8850868 C384.9768,28.9903654 386.4968,28.9903654 387.5168,29.8751455 L388.1268,30.4219196 C389.2068,31.3762891 389.3268,33.0166117 388.3868,34.1201015 C385.1668,37.9077554 375.1668,44.2503361 367.3068,52.0741777 C361.2068,58.1483419 358.2168,63.904383 349.6968,70.7241484 C346.0968,73.6170809 342.8868,75.128166 339.8268,76.7287232 L316.9268,62.6815971 Z M119.2173,42.8834006 C119.2173,42.8834006 136.1643,42.8505941 148.3953,42.8098346 C160.6253,42.7680809 176.0053,47.9087525 176.0053,47.9087525 C176.0053,47.9087525 184.0083,65.8787349 156.2083,64.2513361 C128.4083,62.621949 119.2173,42.8834006 119.2173,42.8834006 Z M0.0103004754,178.939112 C-0.604699525,156.303655 26.5243005,115.601784 26.5243005,115.601784 L74.0103005,136.72715 L54.4713005,178.327719 L108.1993,253.197012 L86.0813005,271.204772 C86.0813005,271.204772 0.736300475,205.627657 0.0103004754,178.939112 Z" id="path-25"></path>
        <path d="M101.928724,177.8146 L115.140528,195.533709 L75.345528,230.201181 C75.345528,230.201181 2.31852799,176.706782 0.0635279902,134.764231 C-1.37247201,108.049838 22.012528,69.9158173 22.012528,69.9158173 C22.012528,69.9158173 51.364528,23.0314214 85.294528,7.20877038 C92.2575386,3.96157113 109.139441,1.25303092 119.373328,0.1356 C122.510256,-0.206918937 120.634707,1.01463229 121.711654,3.08211642 C122.83675,5.24203507 126.26145,8.44255377 128.630599,10.8347683 C133.561751,15.813929 143.280013,19.5841662 148.500228,20.3559799 C152.478215,20.9441291 160.166732,21.8565321 163.864974,21.3600659 C167.563216,20.8635997 171.584334,19.1949828 172.658919,18.2036391 C173.733504,17.2122953 175.332015,15.9719324 176.161328,14.0613294 C176.990641,12.1507264 176.94847,12.6980227 176.94847,10.9354839 C176.94847,9.17294504 176.85747,9.43360234 176.684798,8.59480102 C176.512126,7.7559997 176.512126,7.25172954 176.410384,6.81829458 C175.960142,4.90020079 176.161328,5.16095191 176.161328,5.16095191 C196.190837,11.2069502 206.336737,13.4445144 213.63346,22.2400197 L269.397228,61.3511463 L307.551228,11.5937006 L356.781228,44.6288032 C356.781228,44.6288032 313.192228,125.79097 281.602228,134.764032 C256.155415,141.992136 230.376373,119.513066 221.312393,110.496881 L232.081528,165.134058 C233.807528,174.567404 225.542528,178.137342 218.178528,177.803313 L101.928724,177.8146 Z" id="path-27"></path>
    </defs>
    <g id="Scene" stroke="none" stroke-width="1" fill="none" fill-rule="evenodd">
        <g id="Illustration-1" transform="translate(-186.000000, -96.000000)">
            <g id="Background-Object-/-Tree-/-3" transform="translate(78.000000, 315.000000)">
                <g id="Group-12" transform="translate(234.000000, 30.000000)">
                    <path d="M476.9312,238.9651 C476.9312,370.3901 370.3902,476.9301 238.9652,476.9301 C107.5402,476.9301 0.9992,370.3901 0.9992,238.9651 C0.9992,107.5401 107.5402,1.0001 238.9652,1.0001 C370.3902,1.0001 476.9312,107.5401 476.9312,238.9651" id="Fill-1" fill="#ECF6FF"></path>
                    <path d="M238.9654,170.1907 L238.9654,656.9197" id="Stroke-4" stroke="#B6D4FF" stroke-width="8"></path>
                    <path d="M238.9654,395.8709 L291.9394,342.8979" id="Stroke-6" stroke="#B6D4FF" stroke-width="8"></path>
                    <path d="M240.9654,236.8621 L268.2414,209.5861" id="Stroke-8" stroke="#B6D4FF" stroke-width="8"></path>
                    <path d="M238.9654,316.8392 L188.1964,266.0712" id="Stroke-10" stroke="#B6D4FF" stroke-width="8"></path>
                </g>
            </g>
            <g id="Background-Object-/-Tree-/-4" transform="translate(864.000000, 315.000000)">
                <g id="Group-12" transform="translate(308.000000, 24.000000)">
                    <path d="M329.7899,409.1801 C329.7899,522.4901 255.7999,573.3401 164.8909,573.3401 C73.9899,573.3401 -0.0001,522.4901 -0.0001,409.1801 C-0.0001,198.1101 89.9899,1.0001 164.8909,1.0001 C239.7999,1.0001 329.7899,198.1101 329.7899,409.1801" id="Fill-1" fill="#ECF6FF"></path>
                    <path d="M164.8954,225.7275 L164.8954,667.3885" id="Stroke-4" stroke="#CCE3FF" stroke-width="8" stroke-linecap="square"></path>
                    <path d="M167.8954,498.9775 L229.1314,437.7405" id="Stroke-6" stroke="#CCE3FF" stroke-width="8" stroke-linecap="square"></path>
                    <path d="M166.8954,301.9628 L204.9474,263.9108" id="Stroke-8" stroke="#CCE3FF" stroke-width="8" stroke-linecap="square"></path>
                    <path d="M162.8954,409.5527 L106.4394,353.0967" id="Stroke-10" stroke="#CCE3FF" stroke-width="8" stroke-linecap="square"></path>
                </g>
            </g>
            <g id="Background-Object-/-Tree-/-5" transform="translate(606.000000, 0.000000)">
                <g id="Group-12" transform="translate(300.000000, 186.000000)">
                    <path d="M344.2196,520.1799 C344.2196,634.7199 269.4696,698.6199 172.1106,698.6199 C74.7496,698.6199 -0.0004,634.7199 -0.0004,520.1799 C-0.0004,279.0199 109.8506,0.9999 172.1106,0.9999 C234.3696,0.9999 344.2196,279.0199 344.2196,520.1799" id="Fill-1" fill="#CCE3FF"></path>
                    <path d="M172.1102,349.8098 L172.1102,878.4798" id="Stroke-4" stroke="#ECF6FF" stroke-width="8" stroke-linecap="square"></path>
                    <path d="M174.1669,629.8703 L235.0819,568.9553" id="Stroke-6" stroke="#ECF6FF" stroke-width="8" stroke-linecap="square"></path>
                    <path d="M167.0106,513.8073 L117.1646,463.9613" id="Stroke-8" stroke="#ECF6FF" stroke-width="8" stroke-linecap="square"></path>
                    <path d="M175.1102,435.7233 L213.1622,397.6703" id="Stroke-10" stroke="#ECF6FF" stroke-width="8" stroke-linecap="square"></path>
                </g>
            </g>
            <g id="Background-Object-/-Sofa-/-4" transform="translate(102.000000, 397.000000)">
                <g id="Group-17" transform="translate(254.000000, 426.000000)">
                    <polygon id="Fill-1" fill="#CCE3FF" points="708.0219 201.2463 750.4589 398.9253 778.5319 398.9253 736.0949 201.2463"></polygon>
                    <polygon id="Fill-2" fill="#D7EBFF" points="25.785 201.245 752.422 201.245 752.422 170.666 25.785 170.666"></polygon>
                    <polygon id="Fill-3" fill="#D7EBFF" points="598.347 311.987 740.018 311.987 740.018 281.407 598.347 281.407"></polygon>
                    <polygon id="Fill-4" fill="#CCE3FF" points="175.9212 0 144.0752 170.666 182.5062 170.666 214.3522 0"></polygon>
                    <polygon id="Fill-5" fill="#CCE3FF" points="729.8244 0 697.9784 170.666 736.4084 170.666 768.2544 0"></polygon>
                    <polygon id="Fill-6" fill="#B6D4FF" points="582.025 201.246 752.422 201.246 752.422 170.667 582.025 170.667"></polygon>
                    <polygon id="Fill-7" fill="#CCE3FF" points="806.5814 111.25 800.8844 141.836 762.4474 141.836 768.1554 111.25"></polygon>
                    <polygon id="Fill-8" fill="#D7EBFF" points="768.1556 111.25 762.4476 141.836 115.7106 141.836 121.4186 111.25"></polygon>
                    <polygon id="Fill-9" fill="#CCE3FF" points="816.9573 55.627 811.2603 86.202 772.8233 86.202 778.5313 55.627"></polygon>
                    <polygon id="Fill-10" fill="#D7EBFF" points="778.5316 55.627 772.8236 86.202 126.0866 86.202 131.7946 55.627"></polygon>
                    <polygon id="Fill-11" fill="#CCE3FF" points="788.9067 0.0036 783.2107 30.5796 821.6357 30.5796 827.3327 0.0036"></polygon>
                    <polygon id="Fill-12" fill="#D7EBFF" points="142.1802 0.0036 136.4722 30.5796 783.2102 30.5796 788.9072 0.0036"></polygon>
                    <polygon id="Fill-13" fill="#CCE3FF" points="598.347 201.2463 555.91 398.9253 583.984 398.9253 626.42 201.2463"></polygon>
                    <polygon id="Fill-14" fill="#CCE3FF" points="152.1117 201.2454 194.5487 398.9244 222.6207 398.9244 180.1847 201.2454"></polygon>
                    <polygon id="Fill-15" fill="#D7EBFF" points="42.436 311.986 184.108 311.986 184.108 281.407 42.436 281.407"></polygon>
                    <polygon id="Fill-16" fill="#CCE3FF" points="42.4359 201.2454 -0.0001 398.9244 28.0739 398.9244 70.5089 201.2454"></polygon>
                </g>
            </g>
            <g id="Background-Object-/-Streetlight-/-1" transform="translate(826.000000, 4.000000)">
                <g id="Group-11" transform="translate(300.000000, 91.000000)">
                    <polygon id="Fill-1" fill="#D7EBFF" points="305.369 803.774 321.369 803.774 321.369 91.911 305.369 91.911"></polygon>
                    <path d="M140.9729,110.028 L14.3529,68.054 C9.0639,66.301 6.1699,60.538 7.9239,55.249 L14.2399,36.195 C15.9939,30.906 21.7559,28.013 27.0449,29.766 L153.6649,71.74 C158.9539,73.493 161.8479,79.256 160.0939,84.545 L153.7779,103.599 C152.0249,108.888 146.2619,111.781 140.9729,110.028" id="Fill-2" fill="#ECF6FF"></path>
                    <polygon id="Fill-4" fill="#CCE3FF" points="282.704 1067.7 344.034 1067.7 344.034 831.773 282.704 831.773"></polygon>
                    <polygon id="Fill-6" fill="#CCE3FF" points="295.703 875.772 331.035 875.772 331.035 795.047 295.703 795.047"></polygon>
                    <polygon id="Fill-7" fill="#CCE3FF" points="298.668 108.928 328.072 108.928 328.072 74.7 298.668 74.7"></polygon>
                    <path d="M98.0461,53.6437 C98.0461,53.6437 313.3691,101.2527 313.3691,216.9697" id="Stroke-8" stroke="#DCEEFF" stroke-width="15" stroke-linejoin="bevel"></path>
                    <path d="M155.1115,97.1554 L16.3025,51.1404 C3.8805,47.0234 -2.9135,33.4894 1.2035,21.0674 L2.4505,17.3054 C6.5685,4.8834 20.1015,-1.9116 32.5245,2.2064 L171.3335,48.2204 C183.7555,52.3384 190.5495,65.8714 186.4315,78.2944 L185.1845,82.0564 C181.0665,94.4784 167.5335,101.2734 155.1115,97.1554" id="Fill-9" fill="#CCE3FF"></path>
                </g>
            </g>
            <g id="Person-/-Girl-/-1" transform="translate(1171.000000, 953.500000) scale(-1, 1) translate(-1171.000000, -953.500000) translate(916.000000, 481.000000)">
                <g id="Girl-/-Head-/-1" transform="translate(93.000000, -10.000000)">
                    <g id="Group-23" transform="translate(87.000000, 48.000000)">
                        <path d="M137.8864,68.1934 C137.9434,105.3594 107.1334,135.5324 69.0704,135.5874 C31.0064,135.6434 0.1044,105.5594 0.0474,68.3944 C-0.0096,31.2284 30.8004,1.0554 68.8644,0.9994 C106.9274,0.9444 137.8294,31.0274 137.8864,68.1934" id="Fill-1" fill="#19141E"></path>
                        <polygon id="Fill-4" fill="#19141E" points="-0.0003 68.5108 0.1047 143.5638 137.9447 143.3468 137.8397 68.2938"></polygon>
                        <path d="M80.0192,136.151 C80.0192,136.151 67.0882,136.533 61.5772,133.522 L79.3322,144.67 L80.0192,136.151 Z" id="Fill-7" fill="#CF3E83"></path>
                        <g id="Face-color" transform="translate(30.739471, 45.488937)">
                            <mask id="mask-2" fill="white">
                                <use xlink:href="#path-1"></use>
                            </mask>
                            <use id="Mask" fill="#5E93D1" xlink:href="#path-1"></use>
                            <g id="Colors-/-Skin-/-Rose" mask="url(#mask-2)" fill="#E576C6" fill-rule="nonzero">
                                <g transform="translate(0.260529, 9.511063)" id="Color">
                                    <rect x="0" y="0" width="99" height="110"></rect>
                                </g>
                            </g>
                        </g>
                        <polygon id="Fill-11" fill="#2437A8" points="108.1286 90.4698 115.5286 108.4098 106.9426 108.2378"></polygon>
                        <path d="M100.2497,91.2481 C100.0647,94.8321 97.9577,97.6241 95.5417,97.4851 C93.1257,97.3461 91.3167,94.3281 91.5017,90.7441 C91.6857,87.1601 93.7937,84.3671 96.2097,84.5061 C98.6247,84.6461 100.4347,87.6641 100.2497,91.2481" id="Fill-13" fill="#0D0B6D"></path>
                        <path d="M122.9362,90.6754 C122.7522,94.2594 120.6442,97.0514 118.2282,96.9124 C115.8132,96.7734 114.0032,93.7554 114.1882,90.1714 C114.3732,86.5874 116.4802,83.7944 118.8962,83.9344 C121.3122,84.0734 123.1212,87.0914 122.9362,90.6754" id="Fill-15" fill="#0D0B6D"></path>
                        <path d="M104.8366,116.8311 C104.8366,116.8311 99.2426,118.6361 93.6376,112.4041" id="Stroke-17" stroke="#1C295E" stroke-width="3"></path>
                        <path d="M79.9978,136.1505 C79.9978,136.1505 67.0668,136.5325 61.5558,133.5225 L79.3108,144.6695 L79.9978,136.1505 Z" id="Fill-19" fill="#000000" opacity="0.39515904"></path>
                        <path d="M51.2057,90.8541 C51.2057,90.8541 106.9427,87.7691 133.2197,53.7691 C149.4057,32.8231 56.0227,27.2561 56.0227,27.2561 L51.2057,90.8541 Z" id="Fill-21" fill="#19141E"></path>
                    </g>
                </g>
                <g id="Girl-/-Legs-/-1" transform="translate(4.000000, 286.000000)">
                    <g id="Group-16" transform="translate(37.000000, 51.000000)">
                        <g id="Shoes-color" transform="translate(0.000000, 390.393654)">
                            <mask id="mask-4" fill="white">
                                <use xlink:href="#path-3"></use>
                            </mask>
                            <use id="Mask" fill="#0D0B6D" xlink:href="#path-3"></use>
                            <g id="Colors-/-Wear-/-Dark-Plum" mask="url(#mask-4)" fill="#0D0B6D" fill-rule="nonzero">
                                <g transform="translate(-11.538462, 20.183269)" id="Color">
                                    <rect x="0" y="0" width="411" height="127"></rect>
                                </g>
                            </g>
                        </g>
                        <g id="Skin-color" transform="translate(20.192308, 390.371058)">
                            <mask id="mask-6" fill="white">
                                <use xlink:href="#path-5"></use>
                            </mask>
                            <use id="Mask" fill="#CF3E83" xlink:href="#path-5"></use>
                            <g id="Colors-/-Skin-/-Pink" mask="url(#mask-6)" fill="#CF3E83" fill-rule="nonzero">
                                <g transform="translate(-4.807692, 0.975096)" id="Color">
                                    <rect x="0" y="0" width="335" height="116"></rect>
                                </g>
                            </g>
                        </g>
                        <g id="Pants-color" transform="translate(22.115385, 0.960962)">
                            <mask id="mask-8" fill="white">
                                <use xlink:href="#path-7"></use>
                            </mask>
                            <use id="Mask" fill="#0D0B6D" xlink:href="#path-7"></use>
                            <g id="Colors-/-Wear-/-Dark-Plum" mask="url(#mask-8)" fill="#0D0B6D" fill-rule="nonzero">
                                <g transform="translate(-2.884615, 0.000577)" id="Color">
                                    <rect x="0" y="0" width="337" height="503"></rect>
                                </g>
                            </g>
                        </g>
                        <g id="Overlay" transform="translate(129.448071, 0.961154)" fill="#FFFFFF" opacity="0.14687965">
                            <path d="M226.086929,465.182692 L121.087891,502.634615 C121.087891,502.634615 89.5484678,408.191346 61.0965447,313.442308 C43.3282755,254.336538 25.2696217,191.740385 13.452314,144.326923 C6.94366011,118.192308 2.31769857,96.6634615 0.693660112,82.8653846 C-4.63326297,37.6826923 22.2407755,7.25961538 29.452314,0 L88.904237,0 C93.8475063,13.3557692 103.808083,42 120.010968,95.7596154 C127.163852,119.528846 135.538852,148.221154 145.240775,182.663462 C200.471545,378.721154 226.086929,465.182692 226.086929,465.182692" id="Fill-13"></path>
                        </g>
                    </g>
                </g>
                <g id="Girl-/-Body-/-1" transform="translate(102.000000, 169.000000)">
                    <g id="Group-35" transform="translate(10.000000, 12.000000)">
                        <path d="M217.3021,238.4094 C217.3021,238.4094 178.4691,176.3484 176.5311,160.9554 C174.4781,144.6464 176.3211,123.5864 176.3211,123.5864 L202.5441,107.9764 L209.1791,146.7944 L237.4761,235.6064" id="Fill-1" fill="#E576C6"></path>
                        <path d="M9.057,234.8655 C9.057,234.8655 7.828,144.9115 13.543,130.0975 C19.258,115.2835 29.602,95.4225 29.602,95.4225 L60.279,115.9325 L43.825,142.5775 L32.484,233.4565" id="Fill-8" fill="#E576C6"></path>
                        <path d="M148.9066,26.8601 L153.4966,157.9801 L132.1966,157.6601 L134.0366,27.3501 L133.2976,26.8101 L134.0666,26.8601 C134.0666,26.8601 122.0076,14.3601 117.3266,9.6601 C120.4066,9.8701 123.4466,10.1001 126.4366,10.2601 C134.5766,10.6801 141.5166,10.9601 147.5876,11.4201 C148.3466,12.4501 150.0366,15.2601 149.8376,19.7601 C149.6666,23.4301 149.3966,25.2101 149.1966,26.0701 C149.0566,26.6701 148.9466,26.8201 148.9166,26.8501 L148.9066,26.8601 Z" id="Fill-10" fill="#CE3D29"></path>
                        <path d="M96.5316,81.0256 L77.0446,110.5506" id="Stroke-14" stroke="#FF9929" stroke-width="3"></path>
                        <g id="Shirt-color" transform="translate(116.000000, 18.477000)">
                            <mask id="mask-10" fill="white">
                                <use xlink:href="#path-9"></use>
                            </mask>
                            <use id="Mask" fill="#FCBDA4" xlink:href="#path-9"></use>
                            <g id="Colors-/-Wear-/-Cream" mask="url(#mask-10)" fill="#FCBDA4" fill-rule="nonzero">
                                <g transform="translate(-12.000000, 3.523000)" id="Color">
                                    <rect x="0" y="0" width="70" height="136"></rect>
                                </g>
                            </g>
                        </g>
                        <g id="Skin-color" transform="translate(0.000000, 8.000000)">
                            <mask id="mask-12" fill="white">
                                <use xlink:href="#path-11"></use>
                            </mask>
                            <use id="Mask" fill="#E576C6" xlink:href="#path-11"></use>
                            <g id="Colors-/-Skin-/-Rose" mask="url(#mask-12)" fill="#E576C6" fill-rule="nonzero">
                                <g transform="translate(-11.000000, -8.000000)" id="Color">
                                    <rect x="0" y="0" width="265" height="296"></rect>
                                </g>
                            </g>
                        </g>
                        <path d="M32.771794,269.595947 C33.322263,272.30071 33.8658385,274.85587 34.6873,276.1418 C37.0133,279.7838 46.1703,282.3798 43.8583,276.0128 C40.5413,266.8758 40.6123,263.2878 40.4793,257.3698 C40.3453,251.4508 39.5883,246.3898 39.5883,246.3898 L36.6676363,237.050112 L37.7462,228.0398 L0.2862,231.0998 C0.2862,231.0998 1.5572,151.9998 16.7362,108.9198 C30.0172,71.2498 54.2462,30.3398 73.1662,18.4298 C74.2972,17.7198 75.4272,17.0498 76.5472,16.4398 L72.8172,11.3698 L113.8472,-0.0002 C113.8472,-0.0002 112.5872,4.9298 116.8972,9.2298 C117.0262,9.3698 117.1772,9.5098 117.3262,9.6598 C122.0072,14.3598 134.0672,26.8598 134.0672,26.8598 L133.2972,26.8098 L134.0362,27.3498 L132.1962,157.6598 L129.6372,339.7098 L24.7572,336.5498 L32.771794,269.595947 L32.771794,269.595947 Z" id="Path" fill="#CE3D29"></path>
                        <path d="M218.9261,248.7073 C218.9261,248.7073 221.7671,259.4363 231.5141,262.7793 C234.9221,263.9483 234.0711,277.7483 242.4251,276.0973" id="Stroke-6" stroke="#000000" stroke-width="3" opacity="0.146600632"></path>
                        <g id="Sleeve-color" transform="translate(4.000000, 226.000000)">
                            <mask id="mask-14" fill="white">
                                <use xlink:href="#path-13"></use>
                            </mask>
                            <use id="Mask" fill="#FCBDA4" xlink:href="#path-13"></use>
                            <g id="Colors-/-Wear-/-Cream" mask="url(#mask-14)" fill="#FCBDA4" fill-rule="nonzero">
                                <g transform="translate(-3.000000, -4.000000)" id="Color">
                                    <rect x="0" y="0" width="241" height="37"></rect>
                                </g>
                            </g>
                        </g>
                        <path d="M241.8265,230.47 L191.3065,251.77 L170.8375,59.54 L164.3475,25.3 L171.8165,24.54 L178.6375,20.92 C179.4565,21.56 180.2665,22.25 181.0665,22.99 C207.3065,47.07 211.1375,134.99 211.1375,134.99 L241.8265,230.47 Z" id="Fill-12" fill="#CE3D29"></path>
                        <path d="M191.307,251.7698 L190.017,252.3198 L170.117,185.6598 L176.067,158.3098 L153.496,157.9798 L148.907,26.8598 L148.916,26.8498 C148.947,26.8198 149.057,26.6698 149.197,26.0698 C149.397,25.2098 149.666,23.4298 149.837,19.7598 C150.036,15.2598 148.347,12.4498 147.587,11.4198 C147.367,11.1298 147.227,10.9798 147.227,10.9798 L147.967,3.9998 L180.327,20.0298 L178.637,20.9198 L171.817,24.5398 L164.347,25.2998 L170.837,59.5398 L191.307,251.7698 Z" id="Fill-20" fill="#CE3D29"></path>
                        <path d="M148.9164,26.8499 L149.1964,26.0699 C149.0574,26.6699 148.9464,26.8199 148.9164,26.8499" id="Fill-21" fill="#CE3D29"></path>
                        <polygon id="Fill-22" fill="#CE3D29" points="200.6771 339.7097 159.8571 339.7097 153.4961 157.9807 176.0671 158.3097 170.1161 185.6597 190.0171 252.3197 191.3071 251.7697"></polygon>
                        <path d="M72.8158,11.3674 C72.8158,11.3674 86.3258,28.6864 101.7568,31.7634 C116.3578,34.6754 134.0678,26.8574 134.0678,26.8574" id="Stroke-24" stroke="#000000" stroke-width="3" opacity="0.204589844"></path>
                        <path d="M180.3275,20.0344 C180.3275,20.0344 179.1405,28.6304 173.5275,30.7844 C163.6915,34.5574 150.8745,26.2064 150.8745,26.2064" id="Stroke-25" stroke="#000000" stroke-width="3" opacity="0.204589844"></path>
                        <path d="M191.3314,251.9509 L179.9264,88.4769" id="Stroke-26" stroke="#000000" stroke-width="3" opacity="0.201264881"></path>
                        <path d="M167.4027,95.9421 C167.2987,99.3801 164.9127,102.0981 162.0717,102.0131 C159.2307,101.9271 157.0117,99.0701 157.1167,95.6321 C157.2197,92.1941 159.6067,89.4761 162.4467,89.5621 C165.2877,89.6471 167.5067,92.5041 167.4027,95.9421" id="Fill-27" fill="#000000" opacity="0.201264881"></path>
                        <path d="M164.8402,50.0828 C164.7362,53.5208 162.3502,56.2388 159.5102,56.1538 C156.6692,56.0678 154.4502,53.2108 154.5542,49.7728 C154.6572,46.3348 157.0442,43.6168 159.8852,43.7028 C162.7262,43.7878 164.9442,46.6448 164.8402,50.0828" id="Fill-28" fill="#000000" opacity="0.201264881"></path>
                        <path d="M169.9642,141.8015 C169.8602,145.2395 167.4742,147.9575 164.6332,147.8725 C161.7932,147.7865 159.5742,144.9295 159.6782,141.4915 C159.7812,138.0535 162.1682,135.3355 165.0082,135.4215 C167.8492,135.5065 170.0682,138.3635 169.9642,141.8015" id="Fill-29" fill="#000000" opacity="0.201264881"></path>
                        <polyline id="Stroke-32" stroke="#000000" stroke-width="3" opacity="0.19656808" points="96.5316 74.78 77.0446 133.092 68.3726 224.887 4.3186 230.758"></polyline>
                        <path d="M69.7885,209.8982 L11.9625,214.9892" id="Stroke-33" stroke="#000000" stroke-width="3" opacity="0.201264881"></path>
                        <path d="M191.3314,238.4094 L228.1674,221.7594" id="Stroke-34" stroke="#000000" stroke-width="3" opacity="0.201264881"></path>
                    </g>
                </g>
            </g>
            <g id="Person-/-Man-/-6" transform="translate(0.000000, 397.000000)">
                <g id="Man-/-Head-/-6" transform="translate(245.000000, 69.000000)">
                    <g id="Group-30" transform="translate(38.000000, 45.000000)">
                        <path d="M119.749349,44.0756712 C119.749349,58.4116957 110.531295,70.0328736 99.1604899,70.0328736 C87.7905906,70.0328736 78.5725369,58.4116957 78.5725369,44.0756712 C78.5725369,29.7396466 87.7905906,18.1184687 99.1604899,18.1184687 C110.531295,18.1184687 119.749349,29.7396466 119.749349,44.0756712" id="Fill-1" fill="#19141E"></path>
                        <g id="Face-color" transform="translate(0.000000, 29.963190)">
                            <mask id="mask-16" fill="white">
                                <use xlink:href="#path-15"></use>
                            </mask>
                            <use id="Mask" fill="#E576C6" xlink:href="#path-15"></use>
                            <g id="Colors-/-Skin-/-Rose" mask="url(#mask-16)" fill="#E576C6" fill-rule="nonzero">
                                <rect id="Color" x="0" y="0" width="118" height="118"></rect>
                            </g>
                        </g>
                        <polygon id="Fill-5" fill="#000000" opacity="0.398925781" points="70.1671107 117.09188 45.7919094 111.853769 70.0502315 128.277229"></polygon>
                        <polygon id="Fill-7" fill="#405FD3" points="89.6518691 73.4425031 98.0744195 94.0807853 87.9802248 94.2097178"></polygon>
                        <path d="M80.6697483,74.2369816 C81.1716946,77.0162945 79.3297148,79.6766626 76.5572315,80.178773 C73.7838423,80.6817914 71.1291443,78.8358773 70.628104,76.0574724 C70.1261577,73.2781595 71.9672315,70.6177914 74.7406208,70.114773 C77.5140101,69.6126626 80.167802,71.4576687 80.6697483,74.2369816" id="Fill-9" fill="#0D0B6D"></path>
                        <path d="M108.973812,74.2369816 C109.475758,77.0162945 107.633779,79.6766626 104.861295,80.178773 C102.087906,80.6817914 99.4332081,78.8358773 98.9321678,76.0574724 C98.4302215,73.2781595 100.271295,70.6177914 103.044685,70.114773 C105.818074,69.6126626 108.471866,71.4576687 108.973812,74.2369816" id="Fill-11" fill="#0D0B6D"></path>
                        <path d="M37.1043424,81.4879338 C29.8717759,69.0818063 19.4075036,65.2983098 14.7104567,64.1887592 C12.8372338,58.7621026 11.4090766,52.4684651 10.4056913,45.7749472 C7.71475168,27.8605914 20.7109933,11.5161252 31.2083758,6.8228 C41.8344161,2.07318037 60.1563624,-4.50873374 86.9751544,4.42574479 C105.005356,10.4365423 116.530188,-3.95396074 127.139919,2.19212515 C145.269785,12.6974012 128.406564,58.6899902 82.4349866,47.006162 C49.5511611,38.6482479 48.7058255,40.7447632 48.424047,46.820027 C47.5123303,66.4574532 44.4569009,78.0100505 37.1043424,81.4879338 Z" id="Combined-Shape" fill="#19141E"></path>
                        <g id="Group-21" transform="translate(75.201342, 94.601055)">
                            <path d="M0.428104027,0.375720245 C0.428104027,0.375720245 3.66901007,6.27756074 10.6736074,6.13773252" id="Fill-18" fill="#FFFFFF"></path>
                            <path d="M0.428104027,0.375720245 C0.428104027,0.375720245 3.66901007,6.27756074 10.6736074,6.13773252" id="Stroke-20" stroke="#252535" stroke-width="4"></path>
                        </g>
                        <path d="M87.2058322,74.4839509 C87.2058322,80.9451043 81.9788859,86.1823067 75.5315034,86.1823067 C69.0850268,86.1823067 63.8580805,80.9451043 63.8580805,74.4839509 C63.8580805,68.0227975 69.0850268,62.7846871 75.5315034,62.7846871 C81.9788859,62.7846871 87.2058322,68.0227975 87.2058322,74.4839509 Z" id="Stroke-22" stroke="#252535" stroke-width="4"></path>
                        <path d="M116.599953,74.4839509 C116.599953,80.9451043 111.373007,86.1823067 104.92653,86.1823067 C98.4791477,86.1823067 93.2522013,80.9451043 93.2522013,74.4839509 C93.2522013,68.0227975 98.4791477,62.7846871 104.92653,62.7846871 C111.373007,62.7846871 116.599953,68.0227975 116.599953,74.4839509 Z" id="Stroke-24" stroke="#252535" stroke-width="4"></path>
                        <path d="M92.3014027,75.0261939 L87.2538523,75.0261939" id="Stroke-26" stroke="#252535" stroke-width="4"></path>
                        <path d="M63.8579899,74.4839509 L35.0205403,74.4839509" id="Stroke-28" stroke="#252535" stroke-width="4"></path>
                    </g>
                </g>
                <g id="Man-/-Legs-/-6" transform="translate(53.000000, 249.000000)">
                    <g id="Group-23" transform="translate(149.000000, 180.241620)">
                        <g id="Shoes" transform="translate(0.000000, 461.395360)">
                            <mask id="mask-18" fill="white">
                                <use xlink:href="#path-17"></use>
                            </mask>
                            <use id="Mask" fill="#0D0B6D" xlink:href="#path-17"></use>
                            <g id="Colors-/-Skin-/--Light-Blue" mask="url(#mask-18)" fill="#5E93D1" fill-rule="nonzero">
                                <g transform="translate(-9.070866, 34.938467)" id="Color">
                                    <rect x="0" y="0" width="264" height="38"></rect>
                                </g>
                            </g>
                        </g>
                        <g id="Leg-skin" transform="translate(5.039370, 465.208154)">
                            <mask id="mask-20" fill="white">
                                <use xlink:href="#path-19"></use>
                            </mask>
                            <use id="Mask" fill="#CF3E83" xlink:href="#path-19"></use>
                            <g id="Colors-/-Skin-/-Pink" mask="url(#mask-20)" fill="#CF3E83" fill-rule="nonzero">
                                <g transform="translate(-5.039370, -7.028378)" id="Color">
                                    <rect x="0" y="0" width="182" height="60"></rect>
                                </g>
                            </g>
                        </g>
                        <g id="Pants" transform="translate(1.007874, 0.000000)">
                            <mask id="mask-22" fill="white">
                                <use xlink:href="#path-21"></use>
                            </mask>
                            <use id="Mask" fill="#2F2F3D" xlink:href="#path-21"></use>
                            <g id="Colors-/-Wear-/-Cream" mask="url(#mask-22)" fill="#FCBDA4" fill-rule="nonzero">
                                <g transform="translate(-1.007874, 1.335234)" id="Color">
                                    <rect x="0" y="0" width="201" height="493"></rect>
                                </g>
                            </g>
                        </g>
                        <polygon id="Fill-15" fill="#000000" opacity="0.197823661" points="130.140019 123.011109 142.891641 66.440702 133.297688 237.947172"></polygon>
                        <g id="Pants-line" transform="translate(7.055118, 1.335234)">
                            <mask id="mask-24" fill="white">
                                <use xlink:href="#path-23"></use>
                            </mask>
                            <use id="Mask" fill="#EFEFEF" xlink:href="#path-23"></use>
                            <g id="Colors-/-Wear-/-White" mask="url(#mask-24)" fill="#EFEFEF" fill-rule="nonzero">
                                <g transform="translate(-2.015748, 0.000000)" id="Color">
                                    <rect x="0" y="0" width="86" height="465"></rect>
                                </g>
                            </g>
                        </g>
                    </g>
                </g>
                <g id="Man-/-Body-/-6" transform="translate(186.000000, 212.000000)">
                    <g id="Group-18">
                        <g id="Skin-color" transform="translate(0.155800, 0.000000)">
                            <mask id="mask-26" fill="white">
                                <use xlink:href="#path-25"></use>
                            </mask>
                            <use id="Mask" fill="#E576C6" xlink:href="#path-25"></use>
                            <g id="Colors-/-Skin-/-Rose" mask="url(#mask-26)" fill="#E576C6" fill-rule="nonzero">
                                <g transform="translate(58.844200, 0.000000)" id="Color">
                                    <rect x="0" y="0" width="331" height="285"></rect>
                                </g>
                            </g>
                        </g>
                        <g id="Sweater-color" transform="translate(-0.000228, 42.747801)">
                            <mask id="mask-28" fill="white">
                                <use xlink:href="#path-27"></use>
                            </mask>
                            <use id="Mask" fill="#72A065" xlink:href="#path-27"></use>
                            <g id="Colors-/-Wear-/-Green" mask="url(#mask-28)" fill="#72A065" fill-rule="nonzero">
                                <g transform="translate(0.000228, 0.000000)" id="Color">
                                    <rect x="0" y="0" width="357" height="231"></rect>
                                </g>
                            </g>
                        </g>
                        <polygon id="Fill-9" fill="#000000" opacity="0.201241629" points="221.1431 153.277508 214.4781 126.95381 232.4741 162.92857"></polygon>
                        <polyline id="Stroke-16" stroke="#000000" stroke-width="5" opacity="0.200590588" points="96.9864 214.218275 65.9094 170.170146 103.4484 113.274812"></polyline>
                    </g>
                </g>
            </g>
        </g>
    </g>
</svg>