<?xml version="1.0" encoding="UTF-8"?>
<svg width="1337px" height="1039px" viewBox="0 0 1337 1039" version="1.1" xmlns="http://www.w3.org/2000/svg" xmlns:xlink="http://www.w3.org/1999/xlink">
    <!-- Generator: Sketch 53.2 (72643) - https://sketchapp.com -->
    <title>Illustration 14</title>
    <desc>Created with Sketch.</desc>
    <defs>
        <path d="M70.9785373,116.289892 L70.1174967,86.6007605 C70.1174967,86.6007605 106.240456,89.4733772 113.968091,85.4641916 C113.968091,85.4641916 123.41147,36.8666048 112.148226,9.95424551 L111.920064,8.90628743 L35.691267,0 L30.9487943,43.1591641 C28.3810646,35.5956012 7.65901023,27.5461976 2.11883456,38.3784132 C-9.88593571,61.8503234 33.0375237,77.6546886 33.0375237,77.6546886 L28.6798075,116.647048" id="path-1"></path>
        <polygon id="path-3" points="0.0211864865 0.509679169 85.9066757 0.509679169 85.9066757 29.9830844 0.0211864865 29.9830844"></polygon>
        <path d="M289.578149,83.5983788 L295.669425,103.218352 C295.669425,103.218352 343.235177,83.714298 367.702796,91.1148219 L285.252396,138.843015 L263.787482,84.9597754 L289.578149,83.5983788 Z M67.2234362,24.7195454 L40.5521981,49.1584444 C40.5521981,49.1584444 44.5143314,65.4193766 46.1843505,80.7564417 C48.60176,102.958013 47.115741,122.999828 47.115741,122.999828 L0.875664762,42.3497183 L57.9585981,1.27897692e-13 L67.2234362,24.7195454 Z" id="path-5"></path>
        <path d="M240.619253,89.2315276 L266.117272,86.9366766 L271.136091,103.241187 L250.032168,112.036228 L240.619253,89.2315276 Z M33.0348343,2.7000624e-13 L35.9665676,30.9713365 L16.018339,49.1819768 L0.18032,24.8433087 L33.0348343,2.7000624e-13 Z" id="path-7"></path>
        <path d="M132.540954,110.131242 L98.6756076,0.000261471815 L185.585817,0.000261471815 L231.333025,0.000610100902 C231.418903,26.9400512 228.246217,71.3118182 211.450522,121.83776 L264.775036,372.998521 C265.438146,376.152108 264.316908,379.301167 262.041251,381.33934 L270.144594,410.110436 L237.02547,419.752645 L229.136538,392.941896 L228.930084,393.009831 C224.233703,394.56123 219.178084,391.955228 217.73237,387.248735 L165.047247,215.898223 C159.105866,224.65741 152.631768,233.399176 145.59517,242.079932 C101.04176,297.041308 73.2744076,326.682624 58.993379,340.942425 C53.895399,346.042035 45.9644838,346.291001 40.5858509,342.124342 L20.2207238,358.893686 L4.54747351e-13,331.078314 L20.1258062,314.505266 C16.9000806,309.332806 17.4311283,302.607388 21.55376,298.017469 C42.074141,275.120382 99.8238552,205.194975 132.540808,110.131667 L132.540954,110.131242 Z" id="path-9"></path>
        <polygon id="path-11" points="126.784762 386.280941 112.83581 391.232346 56.8647619 197.167964 22.3340952 77.4478645 3.55271368e-13 0.000784415445 28.3097143 0.000784415445 33.2864762 19.5318574 71.6382095 169.957464"></polygon>
        <path d="M285.216537,65.7313782 C274.180118,87.4016409 235.438085,158.537498 207.8186,147.191531 C187.1396,138.695654 162.3836,68.2621906 162.3836,68.2621906 L202.6246,44.3134809 L220.7066,92.7159208 L257.627928,52.6054152 C256.374235,44.6573319 255.370014,34.2675516 257.8693,30.6048578 C262.1243,24.3706378 283.6523,5.16295749 283.6523,5.16295749 L287.571948,37.7069615 L288.256612,34.9634797 C288.255921,34.8106965 288.292724,34.6453309 288.3703,34.4665748 C288.377756,34.4494131 288.385493,34.4321988 288.393508,34.4149325 L289.978345,28.064411 C289.313031,27.7286469 289.04079,27.25013 289.3284,26.5877575 C289.561846,26.0501254 290.070971,25.4608743 290.782649,24.8415272 L296.1936,3.15957684 C296.1936,3.15957684 297.969276,3.94940708 300.572631,5.13282269 C304.759977,4.26932449 319.923564,14.5777435 320.153653,14.7343755 L320.1566,14.7362777 C323.2446,16.7305123 315.9006,49.6910548 309.9356,55.8139317 C305.6919,60.169928 292.487002,63.9258449 285.216537,65.7313782 L285.216537,65.7313782 Z M38.6859101,212.706451 L41.1509,217.385606 C41.1509,217.385606 43.3819,221.209049 45.7179,227.882677 C48.0529,234.55531 47.0829,238.638222 52.1349,249.119387 C57.8699,261.017193 47.6119,256.111137 43.9339,250.917777 C41.0629,246.863694 41.3889,241.385017 37.6669,238.929504 C36.4199,240.919762 33.5699,243.764976 31.9799,260.931697 C31.6949,264.010533 33.0909,273.997612 33.0909,273.997612 C33.1209,276.989958 33.5049,283.230143 30.0979,284.182524 C29.2539,284.419128 28.1549,283.485636 28.1549,283.485636 C28.1549,283.485636 28.4849,287.390598 25.0039,288.168011 C23.6349,288.473211 20.9159,280.041953 20.9159,280.041953 C20.9159,280.041953 20.5019,284.323692 17.9019,284.799882 C17.1669,284.93409 8.4889,260.506208 8.4889,260.506208 L9.0109,266.023656 L10.1629,271.674319 C10.1629,271.674319 10.0699,274.716372 7.6269,275.254199 C6.6569,275.467938 4.7949,270.394867 3.0499,264.426082 C0.3359,255.138873 0.3909,248.160046 1.1899,241.219991 C2.1539,232.833469 1.7249,230.01609 5.4579,219.731765 C5.9043173,218.501808 6.50350333,217.089486 7.17268594,215.637288 C5.12447241,197.956588 -0.647281686,146.202808 0.0601,130.3145 C0.9171,111.043195 21.3351,68.2625883 21.3351,68.2625883 L62.7881,91.4368669 L39.9401,133.06726 L38.6859101,212.706451 L38.6859101,212.706451 Z M137.858,21.0061871 C113.848,19.5945156 103.718,4.67255074 101.408,0.636363059 C116.642,-0.415431662 118.234,-0.261340753 138.526,1.84026042 C146.756,2.69322816 152.528,4.44389972 158.118,5.97486746 C159.328,10.0806446 161.048,22.3582106 137.858,21.0061871 Z" id="path-13"></path>
        <path d="M189.244745,43.7138035 L189.3883,43.6858663 L205.7423,81.283054 L182.400673,94.8875062 L177.5277,176.9749 L44.5377,176.9749 L42.3077,96.0224956 L0.2577,64.5780088 C0.2577,64.5780088 20.0877,24.8126129 54.0177,8.98598534 C64.9877,3.86619062 75.048,1.45024399 84.408,0.525698534 C85.1754049,0.449927119 84.5697696,0.471310759 84.6629639,0.833279696 C84.715857,1.03871793 84.901062,1.34487933 85.1159668,1.69222584 C85.3308716,2.03957235 85.3308716,1.92704652 86.3843994,3.48086772 C87.4379272,5.03468891 88.9994954,6.58357045 91.354248,8.98598534 C93.3073684,10.9786385 96.0053096,12.9296279 98.6523437,14.4088883 C101.666006,16.0930338 104.623858,17.2176477 106.521729,18.0160252 C108.234577,18.7365692 109.678711,19.1145249 111.074585,19.446065 C115.01748,20.3825591 118.087169,20.6726104 124.349121,20.998943 C125.109071,21.0385467 129.509325,20.7128092 130.283203,20.5590058 C131.387031,20.3396267 132.375977,20.1414254 133.624146,19.8010265 C134.872314,19.4606275 137.974173,18.0131188 140.027588,15.4633363 C140.89856,14.3818263 141.725934,10.8248193 141.471191,8.2042827 C141.216449,5.58374605 140.073661,5.57818342 141.118,5.86420293 C159.488,10.8647015 176.8487,21.1740792 186.9977,39.4562199 C187.815831,40.9289577 188.563411,42.3474911 189.244745,43.7138035 Z" id="path-15"></path>
        <polygon id="path-17" points="0.8872 0.233621701 45.1692 0.233621701 45.1692 72.5965021 0.8872 72.5965021"></polygon>
        <polygon id="path-19" points="0.9044 0.233621701 20.0754 0.233621701 20.0754 72.5965021 0.9044 72.5965021"></polygon>
    </defs>
    <g id="Scene" stroke="none" stroke-width="1" fill="none" fill-rule="evenodd">
        <g id="Illustration-14" transform="translate(-252.000000, -175.000000)">
            <g id="Background-Object-/-Bedside-table-/-1" transform="translate(472.500000, 680.000000) scale(-1, 1) translate(-472.500000, -680.000000) translate(0.000000, 55.000000)">
                <g id="Group-39" transform="translate(252.000000, 232.000000)">
                    <polygon id="Fill-1" fill="#DCEEFF" points="340.0567 0.5005 319.5327 205.5035 103.3387 205.5035 123.8627 0.5005"></polygon>
                    <polygon id="Stroke-2" stroke="#DCEEFF" stroke-width="5" points="340.0567 0.5005 319.5327 205.5035 103.3387 205.5035 123.8627 0.5005"></polygon>
                    <polygon id="Fill-4" fill="#FFFFFF" points="332.4073 0.5005 311.8843 205.5035 91.6713 205.5035 112.1943 0.5005"></polygon>
                    <polygon id="Stroke-5" stroke="#DCEEFF" stroke-width="5" points="332.4073 0.5005 311.8843 205.5035 91.6713 205.5035 112.1943 0.5005"></polygon>
                    <polygon id="Fill-7" fill="#DCEEFF" points="286.3712 39.7027 273.6972 166.3007 137.7072 166.3007 150.3812 39.7027"></polygon>
                    <polygon id="Fill-8" fill="#B6D4FF" points="33.757 788.557 416.498 788.557 416.498 754.47 33.757 754.47"></polygon>
                    <polygon id="Fill-9" fill="#DCEEFF" points="23.757 788.557 42.082 788.557 42.082 486.855 23.757 486.855"></polygon>
                    <polygon id="Fill-10" fill="#DCEEFF" points="279.017 788.557 297.563 788.557 297.563 486.855 279.017 486.855"></polygon>
                    <polygon id="Fill-11" fill="#CCE3FF" points="23.757 766.075 42.082 766.075 42.082 754.471 23.757 754.471"></polygon>
                    <polygon id="Fill-12" fill="#CCE3FF" points="279.017 766.075 297.564 766.075 297.564 754.471 279.017 754.471"></polygon>
                    <path d="M340.3341,101.8179 C344.3251,136.4949 331.3471,166.1249 331.3471,166.1249 C331.3471,166.1249 311.8971,139.5319 307.9051,104.8549 C303.9151,70.1779 316.8941,40.5479 316.8941,40.5479 C316.8941,40.5479 336.3431,67.1409 340.3341,101.8179" id="Fill-13" fill="#CCE3FF"></path>
                    <path d="M331.9132,129.6412 C349.2672,160.7912 348.7702,192.6482 348.7702,192.6482 C348.7702,192.6482 320.1372,173.9982 302.7832,142.8482 C285.4292,111.6972 285.9262,79.8412 285.9262,79.8412 C285.9262,79.8412 314.5592,98.4912 331.9132,129.6412" id="Fill-15" fill="#CCE3FF"></path>
                    <path d="M356.3429,105.5386 C351.9049,140.1716 332.1139,166.5586 332.1139,166.5586 C332.1139,166.5586 319.5179,136.7936 323.9559,102.1606 C328.3949,67.5276 348.1859,41.1426 348.1859,41.1426 C348.1859,41.1426 360.7809,70.9056 356.3429,105.5386" id="Fill-17" fill="#CCE3FF"></path>
                    <path d="M370.7921,130.5699 C356.5021,162.9639 329.7721,183.7849 329.7721,183.7849 C329.7721,183.7849 326.2101,152.0889 340.4991,119.6959 C354.7891,87.3029 381.5201,66.4809 381.5201,66.4809 C381.5201,66.4809 385.0811,98.1769 370.7921,130.5699" id="Fill-19" fill="#CCE3FF"></path>
                    <polygon id="Fill-21" fill="#ECF6FF" points="293.3712 139.9673 375.3972 139.9673 366.7372 204.5933 302.0312 204.5933"></polygon>
                    <polygon id="Fill-23" fill="#DCEEFF" points="14.59 754.919 307.325 754.919 307.325 229.804 14.59 229.804"></polygon>
                    <polygon id="Fill-25" fill="#CCE3FF" points="33.757 728.488 288.158 728.488 288.158 650.63 33.757 650.63"></polygon>
                    <polygon id="Fill-26" fill="#CCE3FF" points="33.757 629.417 288.158 629.417 288.158 551.559 33.757 551.559"></polygon>
                    <polygon id="Fill-27" fill="#CCE3FF" points="33.757 530.346 288.158 530.346 288.158 452.488 33.757 452.488"></polygon>
                    <polygon id="Fill-28" fill="#CCE3FF" points="33.757 431.276 288.158 431.276 288.158 353.418 33.757 353.418"></polygon>
                    <polygon id="Fill-29" fill="#CCE3FF" points="33.757 332.206 288.158 332.206 288.158 254.347 33.757 254.347"></polygon>
                    <polygon id="Fill-30" fill="#B6D4FF" points="307.325 754.919 424.028 754.919 424.028 229.804 307.325 229.804"></polygon>
                    <polygon id="Fill-31" fill="#CCE3FF" points="0 229.804 319.526 229.804 319.526 204.723 0 204.723"></polygon>
                    <polygon id="Fill-32" fill="#B6D4FF" points="319.235 229.804 440.787 229.804 440.787 204.723 319.235 204.723"></polygon>
                    <path d="M146.2218,293.2759 C146.2218,301.4139 152.8198,308.0109 160.9578,308.0109 C169.0958,308.0109 175.6938,301.4139 175.6938,293.2759 C175.6938,285.1369 169.0958,278.5409 160.9578,278.5409 C152.8198,278.5409 146.2218,285.1369 146.2218,293.2759" id="Fill-33" fill="#B6D4FF"></path>
                    <path d="M146.2218,392.3462 C146.2218,400.4852 152.8198,407.0812 160.9578,407.0812 C169.0958,407.0812 175.6938,400.4852 175.6938,392.3462 C175.6938,384.2082 169.0958,377.6112 160.9578,377.6112 C152.8198,377.6112 146.2218,384.2082 146.2218,392.3462" id="Fill-34" fill="#B6D4FF"></path>
                    <path d="M146.2218,491.4175 C146.2218,499.5555 152.8198,506.1525 160.9578,506.1525 C169.0958,506.1525 175.6938,499.5555 175.6938,491.4175 C175.6938,483.2785 169.0958,476.6815 160.9578,476.6815 C152.8198,476.6815 146.2218,483.2785 146.2218,491.4175" id="Fill-35" fill="#B6D4FF"></path>
                    <path d="M146.2218,590.4878 C146.2218,598.6258 152.8198,605.2228 160.9578,605.2228 C169.0958,605.2228 175.6938,598.6258 175.6938,590.4878 C175.6938,582.3488 169.0958,575.7528 160.9578,575.7528 C152.8198,575.7528 146.2218,582.3488 146.2218,590.4878" id="Fill-36" fill="#B6D4FF"></path>
                    <path d="M146.2218,689.5581 C146.2218,697.6971 152.8198,704.2931 160.9578,704.2931 C169.0958,704.2931 175.6938,697.6971 175.6938,689.5581 C175.6938,681.4201 169.0958,674.8231 160.9578,674.8231 C152.8198,674.8231 146.2218,681.4201 146.2218,689.5581" id="Fill-37" fill="#B6D4FF"></path>
                </g>
            </g>
            <g id="Background-Object-/-Closet-/-1" transform="translate(945.000000, 0.000000)">
                <g id="Group-36" transform="translate(302.000000, 174.000000)">
                    <polygon id="Fill-1" fill="#DCEEFF" points="0 900.576 26.534 900.576 26.534 814.374 0 814.374"></polygon>
                    <polygon id="Fill-2" fill="#DCEEFF" points="221.017 900.576 247.551 900.576 247.551 814.374 221.017 814.374"></polygon>
                    <polygon id="Fill-3" fill="#B6D4FF" points="94.112 900.576 120.645 900.576 120.645 814.374 94.112 814.374"></polygon>
                    <polygon id="Fill-4" fill="#B6D4FF" points="315.128 900.576 341.662 900.576 341.662 814.374 315.128 814.374"></polygon>
                    <polygon id="Fill-5" fill="#B6D4FF" points="93.959 829.669 341.508 829.669 341.508 97.411 93.959 97.411"></polygon>
                    <polygon id="Fill-6" fill="#DCEEFF" points="0.499 829.669 248.05 829.669 248.05 97.411 0.499 97.411"></polygon>
                    <path d="M168.9657,47.6177 C168.9657,68.6577 157.8507,87.1177 141.1787,97.4107 L79.9747,97.4107 C63.3017,87.1177 52.1867,68.6577 52.1867,47.6177 C52.1867,37.8267 54.5957,28.6087 58.8417,20.5137 L162.3117,20.5137 C166.5567,28.6087 168.9657,37.8267 168.9657,47.6177" id="Fill-7" fill="#DCEEFF"></path>
                    <polygon id="Fill-9" fill="#DCEEFF" points="184.488 97.398 209.723 97.398 209.723 1 184.488 1"></polygon>
                    <polygon id="Fill-11" fill="#CCE3FF" points="159.252 97.398 184.487 97.398 184.487 1 159.252 1"></polygon>
                    <polygon id="Fill-12" fill="#CCE3FF" points="209.723 97.398 234.958 97.398 234.958 1 209.723 1"></polygon>
                    <path d="M302.748,97.398 L234.958,97.398 L234.958,1 L302.748,1 C305.58,1 307.876,3.295 307.876,6.128 L307.876,92.27 C307.876,95.102 305.58,97.398 302.748,97.398" id="Fill-13" fill="#B6D4FF"></path>
                    <polygon id="Fill-14" fill="#CCE3FF" points="257.197 39.314 285.638 39.314 285.638 29.769 257.197 29.769"></polygon>
                    <polygon id="Fill-15" fill="#CCE3FF" points="22.659 805.54 225.985 805.54 225.985 594.779 22.659 594.779"></polygon>
                    <polygon id="Fill-16" fill="#B6D4FF" points="22.66 805.54 92.807 805.54 92.807 594.779 22.66 594.779"></polygon>
                    <polygon id="Fill-17" fill="#CCE3FF" points="22.659 568.624 225.985 568.624 225.985 357.864 22.659 357.864"></polygon>
                    <polygon id="Fill-18" fill="#B6D4FF" points="22.66 568.624 92.807 568.624 92.807 357.864 22.66 357.864"></polygon>
                    <polygon id="Fill-19" fill="#CCE3FF" points="22.659 331.708 225.985 331.708 225.985 120.948 22.659 120.948"></polygon>
                    <polygon id="Fill-20" fill="#B6D4FF" points="22.66 331.708 92.807 331.708 92.807 120.948 22.66 120.948"></polygon>
                    <polygon id="Fill-21" fill="#DCEEFF" points="71.343 805.54 91.467 805.54 91.467 728.666 71.343 728.666"></polygon>
                    <polygon id="Fill-22" fill="#CCE3FF" points="51.219 805.54 71.343 805.54 71.343 728.666 51.219 728.666"></polygon>
                    <polygon id="Fill-23" fill="#CCE3FF" points="91.467 805.54 111.591 805.54 111.591 728.666 91.467 728.666"></polygon>
                    <path d="M164.6112,805.5396 L111.5902,805.5396 L111.5902,728.6656 L164.6112,728.6656 C167.4442,728.6656 169.7402,730.9616 169.7402,733.7936 L169.7402,800.4106 C169.7402,803.2436 167.4442,805.5396 164.6112,805.5396" id="Fill-24" fill="#B6D4FF"></path>
                    <polygon id="Fill-25" fill="#CCE3FF" points="120.208 747.476 161.123 747.476 161.123 739.865 120.208 739.865"></polygon>
                    <polygon id="Fill-26" fill="#CCE3FF" points="129.325 759.219 152.006 759.219 152.006 751.608 129.325 751.608"></polygon>
                    <path d="M141.7811,299.0679 C140.2211,312.1779 133.5811,323.7379 123.8821,331.7079 L60.4511,331.7079 C50.7521,323.7379 44.1111,312.1779 42.5421,299.0679 L141.7811,299.0679 Z" id="Fill-27" fill="#DCEEFF"></path>
                    <path d="M141.7811,271.8199 C138.8291,296.5969 117.7391,315.8199 92.1631,315.8199 C66.5861,315.8199 45.4971,296.5969 42.5441,271.8199 L141.7811,271.8199 Z" id="Fill-28" fill="#DCEEFF"></path>
                    <path d="M141.7811,244.6119 C140.2211,257.7219 133.5811,269.2819 123.8821,277.2519 L60.4511,277.2519 C50.7521,269.2819 44.1111,257.7219 42.5421,244.6119 L141.7811,244.6119 Z" id="Fill-29" fill="#DCEEFF"></path>
                    <path d="M141.7811,217.3629 C138.8291,242.1409 117.7391,261.3639 92.1631,261.3639 C66.5861,261.3639 45.4971,242.1409 42.5441,217.3629 L141.7811,217.3629 Z" id="Fill-30" fill="#DCEEFF"></path>
                    <path d="M109.1054,517.9938 C109.1054,537.2888 107.0484,554.9368 103.6184,568.6238 L67.6744,568.6238 C64.2514,554.9368 62.1864,537.2888 62.1864,517.9938" id="Fill-31" fill="#ECF6FF"></path>
                    <path d="M107.327,526.4723 C115.477,528.0813 120.78,535.9933 119.171,544.1433 C117.561,552.2933 109.65,557.5963 101.5,555.9873" id="Stroke-32" stroke="#ECF6FF" stroke-width="8"></path>
                    <path d="M181.1054,517.9938 C181.1054,537.2888 179.0484,554.9368 175.6184,568.6238 L139.6744,568.6238 C136.2514,554.9368 134.1864,537.2888 134.1864,517.9938" id="Fill-33" fill="#ECF6FF"></path>
                    <path d="M171.535,526.4723 C179.685,528.0813 184.988,535.9933 183.379,544.1433 C181.769,552.2933 173.858,557.5963 165.708,555.9873" id="Stroke-34" stroke="#ECF6FF" stroke-width="8"></path>
                </g>
            </g>
            <g id="Background-Object-/-Clock" transform="translate(905.000000, 308.000000) scale(-1, 1) translate(-905.000000, -308.000000) translate(655.000000, 133.000000)">
                <g id="Group-14" transform="translate(172.000000, 104.000000)">
                    <path d="M155.4015,71.763 C155.4015,110.844 123.7195,142.526 84.6375,142.526 C45.5565,142.526 13.8755,110.844 13.8755,71.763 C13.8755,32.681 45.5565,1 84.6375,1 C123.7195,1 155.4015,32.681 155.4015,71.763" id="Fill-1" fill="#CCE3FF"></path>
                    <path d="M141.5265,71.763 C141.5265,110.844 109.8435,142.526 70.7625,142.526 C31.6815,142.526 0.0005,110.844 0.0005,71.763 C0.0005,32.681 31.6815,1 70.7625,1 C109.8435,1 141.5265,32.681 141.5265,71.763" id="Fill-4" fill="#DCEEFF"></path>
                    <path d="M124.3869,71.7577 C124.3869,99.3797 103.5099,122.1177 76.6849,125.0647 C74.7379,125.2797 72.7689,125.3867 70.7689,125.3867 C41.1469,125.3867 17.1389,101.3797 17.1389,71.7577 C17.1389,42.1467 41.1469,18.1387 70.7689,18.1387 C72.7689,18.1387 74.7379,18.2467 76.6849,18.4617 C103.5099,21.4087 124.3869,44.1467 124.3869,71.7577" id="Fill-6" fill="#CCE3FF"></path>
                    <path d="M124.3869,71.7577 C124.3869,99.3797 103.5099,122.1177 76.6849,125.0647 C49.8479,122.1177 28.9709,99.3797 28.9709,71.7577 C28.9709,44.1467 49.8479,21.4087 76.6849,18.4617 C103.5099,21.4087 124.3869,44.1467 124.3869,71.7577" id="Fill-8" fill="#ECF6FF"></path>
                    <path d="M73.089,41.9427 L90.464,79.8377" id="Stroke-10" stroke="#CCE3FF" stroke-width="8"></path>
                    <path d="M92.1193,63.951 L54.0593,105.321" id="Stroke-12" stroke="#CCE3FF" stroke-width="8"></path>
                </g>
            </g>
            <g id="Background-Object-/-Picture-/-1" transform="translate(878.000000, 73.000000)">
                <g id="Group-8" transform="translate(183.000000, 122.000000)">
                    <polygon id="Fill-1" fill="#DCEEFF" points="7.865 105.747 133.12 105.747 133.12 0.499 7.865 0.499"></polygon>
                    <polygon id="Stroke-2" stroke="#DCEEFF" stroke-width="5" points="7.865 105.747 133.12 105.747 133.12 0.499 7.865 0.499"></polygon>
                    <polygon id="Fill-4" fill="#FFFFFF" points="0.5 105.889 125.754 105.889 125.754 0.641 0.5 0.641"></polygon>
                    <polygon id="Stroke-5" stroke="#DCEEFF" stroke-width="5" points="0.5 105.889 125.754 105.889 125.754 0.641 0.5 0.641"></polygon>
                    <polygon id="Fill-7" fill="#DCEEFF" points="21.833 84.145 102.636 84.145 102.636 22.102 21.833 22.102"></polygon>
                </g>
            </g>
            <g id="Background-Object-/-Picture-/-2" transform="translate(876.000000, 230.000000)">
                <g id="Group-8" transform="translate(184.000000, 93.000000)">
                    <polygon id="Fill-1" fill="#DCEEFF" points="7.008 163.055 132.262 163.055 132.262 0.5 7.008 0.5"></polygon>
                    <polygon id="Stroke-2" stroke="#DCEEFF" stroke-width="5" points="7.008 163.055 132.262 163.055 132.262 0.5 7.008 0.5"></polygon>
                    <polygon id="Fill-4" fill="#FFFFFF" points="0.5 163.055 123.321 163.055 123.321 0.5 0.5 0.5"></polygon>
                    <polygon id="Stroke-5" stroke="#DCEEFF" stroke-width="5" points="0.5 163.055 123.321 163.055 123.321 0.5 0.5 0.5"></polygon>
                    <polygon id="Fill-7" fill="#DCEEFF" points="26.072 132.364 92.092 132.364 92.092 30.894 26.072 30.894"></polygon>
                </g>
            </g>
            <g id="Background-Object-/-Flower-/-1" transform="translate(486.000000, 500.000000)">
                <g id="Group-24" transform="translate(362.000000, 135.000000)">
                    <path d="M156.8544,55.3337 C156.8544,85.8937 138.2744,110.6667 115.3544,110.6667 C92.4344,110.6667 73.8544,85.8937 73.8544,55.3337 C73.8544,24.7737 92.4344,0.0007 115.3544,0.0007 C138.2744,0.0007 156.8544,24.7737 156.8544,55.3337" id="Fill-1" fill="#CCE3FF"></path>
                    <path d="M115.6645,345.9631 L115.6645,58.1471" id="Stroke-3" stroke="#DCEEFF" stroke-width="9"></path>
                    <path d="M70.9711,136.6169 C90.5681,156.2149 94.5401,184.0159 79.8421,198.7149 C65.1441,213.4119 37.3421,209.4409 17.7441,189.8439 C-1.8529,170.2459 -5.8239,142.4439 8.8731,127.7459 C23.5721,113.0479 51.3731,117.0199 70.9711,136.6169" id="Fill-5" fill="#CCE3FF"></path>
                    <path d="M210.9008,176.8811 C226.7038,192.6841 222.4338,222.5761 201.3628,243.6471 C180.2928,264.7171 150.4008,268.9871 134.5978,253.1841" id="Fill-8" fill="#CCE3FF"></path>
                    <path d="M189.6108,204.7185 L116.8928,277.6445" id="Stroke-10" stroke="#DCEEFF" stroke-width="9"></path>
                    <path d="M168.5986,134.9797 L115.4566,187.4967" id="Stroke-12" stroke="#DCEEFF" stroke-width="9"></path>
                    <path d="M60.2778,250.2575 L115.7948,306.3995" id="Stroke-14" stroke="#DCEEFF" stroke-width="9"></path>
                    <path d="M41.1411,160.3908 L115.3541,235.4878" id="Stroke-16" stroke="#DCEEFF" stroke-width="9"></path>
                    <path d="M137.9184,444.8088 L93.4114,444.8088 C59.2264,444.8088 31.2574,416.8398 31.2574,382.6548 L31.2574,324.1688 L200.0724,324.1688 L200.0724,382.6548 C200.0724,416.8398 172.1034,444.8088 137.9184,444.8088" id="Fill-18" fill="#ECF6FF"></path>
                    <path d="M200.0722,356.676 L31.2572,356.676" id="Stroke-20" stroke="#DCEEFF" stroke-width="9"></path>
                    <path d="M200.0722,389.2819 L31.2572,389.2819" id="Stroke-22" stroke="#DCEEFF" stroke-width="9"></path>
                </g>
            </g>
            <g id="Person-/-Man-/-7" transform="translate(447.000000, 330.000000)">
                <g id="Man-/-Head-/-7" transform="translate(245.000000, 69.000000)">
                    <g id="Group-25" transform="translate(38.000000, 42.000000)">
                        <g id="Face-color" transform="translate(-0.000186, 32.602799)">
                            <mask id="mask-2" fill="white">
                                <use xlink:href="#path-1"></use>
                            </mask>
                            <use id="Mask" fill="#5E93D1" xlink:href="#path-1"></use>
                        </g>
                        <polygon id="Fill-4" fill="#000000" opacity="0.400274368" points="70.1175824 119.203107 45.7603662 113.986826 70.0007851 130.341844"></polygon>
                        <polygon id="Fill-6" fill="#2437A8" points="90.2102486 70.6867168 98.6268973 91.2389922 88.5397757 91.3673874"></polygon>
                        <path d="M80.6133135,76.5273425 C81.1149081,79.2950731 79.2742189,81.9434503 76.502773,82.4443725 C73.7322324,82.9452946 71.0793946,81.1070731 70.5787054,78.3402467 C70.0771108,75.5725162 71.9168946,72.9232347 74.6883405,72.4223126 C77.4597865,71.9222946 80.1117189,73.759612 80.6133135,76.5273425" id="Fill-8" fill="#0D0B6D"></path>
                        <path d="M107.086734,76.5273425 C107.588328,79.2950731 105.747639,81.9434503 102.976193,82.4443725 C100.205653,82.9452946 97.5528149,81.1070731 97.0521257,78.3402467 C96.5505311,75.5725162 98.3903149,72.9232347 101.161761,72.4223126 C103.933207,71.9222946 106.585139,73.759612 107.086734,76.5273425" id="Fill-10" fill="#0D0B6D"></path>
                        <g id="Group-15" transform="translate(79.675676, 96.806371)">
                            <path d="M0.0685391892,0.380483832 C0.0685391892,0.380483832 3.59418784,6.09045389 10.5775797,5.60671138" id="Fill-12" fill="#FFFFFF"></path>
                            <path d="M0.0685391892,0.380483832 C0.0685391892,0.380483832 3.59418784,6.09045389 10.5775797,5.60671138" id="Stroke-14" stroke="#252535" stroke-width="4"></path>
                        </g>
                        <path d="M31.4090657,76.221773 C25.7169887,70.3276804 19.5219947,67.8304843 15.7643143,66.7933074 L16.4811851,51.9185922 L52.2890635,45.6823826 C49.8215504,62.2768115 40.2369777,71.330499 31.4090657,76.221773 L31.4090657,76.221773 Z" id="Path" fill="#EACB47"></path>
                        <g id="Ear-color" transform="translate(9.959459, 66.005988)"></g>
                        <path d="M114.261438,48.3600557 C111.035478,45.2948461 90.0092486,44.3454449 64.7339514,46.2894569 C58.8551541,46.7415527 53.2190054,47.3111934 48.0074919,47.9712533 C30.7785324,50.1322713 18.1019514,53.2065228 16.0385324,55.9100557 C13.7496676,22.1294569 34.4644378,2.01119341 61.5858568,0.139516766 C79.3788838,-1.09018383 95.5150189,5.84496587 105.173884,20.2939479 C110.116492,27.6992772 113.368708,37.0847862 114.261438,48.3600557" id="Fill-18" fill="#393954"></path>
                        <g id="Group-24" transform="translate(47.986486, 19.045892)">
                            <mask id="mask-4" fill="white">
                                <use xlink:href="#path-3"></use>
                            </mask>
                            <g id="Clip-23"></g>
                            <path d="M66.6825649,29.9830844 L66.6735108,29.9830844 C66.6391054,29.7479946 66.5005784,29.5219467 66.2751324,29.3139826 C63.049173,26.2487731 42.0229432,25.2993719 16.7476459,27.2433838 C10.8679432,27.6954796 5.2327,28.2651204 0.0211864865,28.9251802 C7.43464595,21.8905695 20.9958081,10.7690126 36.9934162,5.77787485 C43.8346595,3.64398263 50.7718757,2.08877305 57.1875784,1.24787485 C72.7605514,-0.813682036 85.2551459,1.30212635 85.8798757,9.37655749 C86.6856865,19.8832641 69.3707135,28.6810485 66.6825649,29.9830844" id="Fill-22" fill="#161629" mask="url(#mask-4)"></path>
                        </g>
                    </g>
                </g>
                <g id="Man-/-Legs-/-7" transform="translate(53.000000, 249.000000)">
                    <g id="Group-21" transform="translate(84.000000, 181.237430)">
                        <g id="Shoes" transform="translate(0.000000, 314.077678)">
                            <mask id="mask-6" fill="white">
                                <use xlink:href="#path-5"></use>
                            </mask>
                            <use id="Mask" fill="#0D0B6D" xlink:href="#path-5"></use>
                            <g id="Colors-/-Wear-/-Dark-Grey" mask="url(#mask-6)" fill="#2F2F3D" fill-rule="nonzero">
                                <g transform="translate(-14.019048, 15.376809)" id="Color">
                                    <rect x="0" y="0" width="382" height="124"></rect>
                                </g>
                            </g>
                        </g>
                        <g id="Legs-skin" transform="translate(24.533333, 314.054494)">
                            <mask id="mask-8" fill="white">
                                <use xlink:href="#path-7"></use>
                            </mask>
                            <use id="Mask" fill="#CF3E83" xlink:href="#path-7"></use>
                            <g id="Colors-/-Skin-/-Pink" mask="url(#mask-8)" fill="#CF3E83" fill-rule="nonzero">
                                <g transform="translate(-11.390476, 15.399993)" id="Color">
                                    <rect x="0" y="0" width="302" height="97"></rect>
                                </g>
                            </g>
                        </g>
                        <g id="Pants" transform="translate(28.547074, 0.000000)">
                            <mask id="mask-10" fill="white">
                                <use xlink:href="#path-9"></use>
                            </mask>
                            <use id="Mask" fill="#101016" xlink:href="#path-9"></use>
                            <g id="Colors-/-Wear-/-Dark-Grey" mask="url(#mask-10)" fill="#2F2F3D" fill-rule="nonzero">
                                <g transform="translate(0.452926, 0.000000)" id="Color">
                                    <rect x="0" y="0" width="279" height="423"></rect>
                                </g>
                            </g>
                        </g>
                        <g id="Overlay" transform="translate(127.222682, 0.000261)" fill="#FFFFFF" opacity="0.0987490699">
                            <path d="M130.460931,392.941634 L130.254476,393.009569 C125.558095,394.560969 120.502476,391.954966 119.056762,387.248474 L66.3714286,215.897278 L33.8656381,110.131929 L-4.26325641e-14,1.13686838e-13 L86.9102095,1.13686838e-13 L112.774476,121.83715 L166.099429,372.99826 C166.762538,376.151847 165.6413,379.300906 163.365644,381.339079 L171.468987,410.110175 L138.349863,419.752384 L130.460931,392.941634 Z" id="Mask"></path>
                        </g>
                        <g id="Pants-line" transform="translate(148.663063, 0.000000)">
                            <mask id="mask-12" fill="white">
                                <use xlink:href="#path-11"></use>
                            </mask>
                            <use id="Mask" fill="#EFEFEF" xlink:href="#path-11"></use>
                            <g id="Colors-/-Wear-/-Red" mask="url(#mask-12)" fill="#CE3D29" fill-rule="nonzero">
                                <g transform="translate(0.289318, 0.000000)" id="Color">
                                    <rect x="0" y="0" width="126" height="391"></rect>
                                </g>
                            </g>
                        </g>
                    </g>
                </g>
                <g id="Man-/-Body-/-5" transform="translate(186.000000, 212.000000)">
                    <g id="Group-36" transform="translate(17.000000, 20.876833)">
                        <g id="Skin-color" transform="translate(0.000000, 20.766168)">
                            <mask id="mask-14" fill="white">
                                <use xlink:href="#path-13"></use>
                            </mask>
                            <use id="Mask" fill="#E576C6" xlink:href="#path-13"></use>
                            <g id="Colors-/-Skin-/-Rose" mask="url(#mask-14)" fill="#E576C6" fill-rule="nonzero">
                                <g transform="translate(0.000000, 0.110665)" id="Color">
                                    <rect x="0" y="0" width="321" height="288"></rect>
                                </g>
                            </g>
                        </g>
                        <g id="T-Shirt" transform="translate(17.000000, 20.876833)">
                            <mask id="mask-16" fill="white">
                                <use xlink:href="#path-15"></use>
                            </mask>
                            <use id="Mask" fill="#5E93D1" xlink:href="#path-15"></use>
                            <g id="Colors-/-Wear-/-White" mask="url(#mask-16)" fill="#EFEFEF" fill-rule="nonzero">
                                <rect id="Color" x="0" y="0" width="206" height="177"></rect>
                            </g>
                        </g>
                        <polyline id="Stroke-16" stroke="#000000" stroke-width="5" opacity="0.200520833" points="59.3058 116.895054 69.9728 124.113467 95.6138 94.3411152"></polyline>
                        <g id="Group-22" transform="translate(270.000000, 0.760513)">
                            <mask id="mask-18" fill="white">
                                <use xlink:href="#path-17"></use>
                            </mask>
                            <g id="Clip-21"></g>
                            <path d="M32.8337402,63.5072983 L30.9762,72.5965021 L0.8872,72.5965021 L15.0802,0.233422874 L45.1692,0.233422874 C44.3892632,4.20993452 42.5522842,13.5757805 39.6582632,28.3309609 L33.7416992,25.5964397 L31.8989258,25.0871174 L30.4483,25.1683144 L29.8194916,25.5964397 L29.8194916,27.3546217 L36.2513428,36.5790091 L31.3311941,38.7166661 L23.7609863,42.6768194 L21.5737305,44.1870778 L20.7262883,44.9696921 L20.0343,45.5878712 L19.5932617,46.1186751 L19.3284,46.5934126 L19.2145833,47.2098935 L19.3284,47.4826981 L19.4599915,47.6924895 L19.6513977,47.881954 L22.1326904,48.7561442 L27.7929688,47.2098935 L33.387207,47.2098935 L25.920166,48.7561442 L21,51.6917527 L19.3284,53.2632916 L18.3836,54.4180997 L18.3836,55.4746161 L20.0343,56.2153577 L30.4483,55.0232789 L27,56.8939878 L24.7148437,58.3070214 L22.6201172,59.3846481 L21,61.4690305 L21,62.4976301 L21.5737305,63.1017321 L23.0282,63.8730589 L25.2460937,63.8730589 L29.7142474,63.8730589 L32.8337402,63.5072983 Z" id="Fill-20" fill="#5E93D1" mask="url(#mask-18)"></path>
                        </g>
                        <g id="Group-25" transform="translate(265.000000, 0.760513)">
                            <mask id="mask-20" fill="white">
                                <use xlink:href="#path-19"></use>
                            </mask>
                            <g id="Clip-24"></g>
                            <polygon id="Fill-23" fill="#020101" mask="url(#mask-20)" points="5.8834 72.5965021 0.9044 72.5965021 15.0974 0.233422874 20.0754 0.233422874"></polygon>
                        </g>
                        <path d="M290.2574,9.39596657 C289.8414,11.5094974 288.6084,13.0494123 287.5034,12.833685 C286.3994,12.6189519 285.8404,10.7310897 286.2564,8.61755894 C286.6724,6.50303402 287.9054,4.9641132 289.0104,5.17884633 C290.1154,5.39457361 290.6734,7.28243578 290.2574,9.39596657" id="Fill-34" fill="#020101"></path>
                    </g>
                </g>
            </g>
        </g>
    </g>
</svg>