<?xml version="1.0" encoding="UTF-8"?>
<svg width="1499px" height="1201px" viewBox="0 0 1499 1201" version="1.1" xmlns="http://www.w3.org/2000/svg" xmlns:xlink="http://www.w3.org/1999/xlink">
    <!-- Generator: Sketch 53.2 (72643) - https://sketchapp.com -->
    <title>Illustration 12</title>
    <desc>Created with Sketch.</desc>
    <defs>
        <path d="M108.368738,483.612783 L110.845122,460.7208 L125.390156,325.8612 C126.105481,319.2312 132.016845,314.4412 138.613728,315.1612 L189.521001,320.7312 C196.107949,321.4512 200.866845,327.4012 200.15152,334.0312 L186.371625,461.760832 C204.195061,465.880884 217.488109,481.94085 217.498044,501.1308 L217.498044,501.1518 L217.498044,513.3108 L105.162265,513.3108 L3.77298193e-12,513.3108 L1.31142857,501.1308 L5.68285714,460.7208 L20.2278916,325.8612 C20.9432162,319.2312 26.8545799,314.4412 33.451463,315.1612 L84.3587357,320.7312 C90.9456838,321.4512 95.7045799,327.4012 94.9892552,334.0312 L81.2093598,461.760832 C93.2027795,464.533221 103.144854,472.711964 108.368738,483.612783 Z M56.5366155,58.3918012 C48.8172607,52.6264875 43.7786472,43.4010735 43.744389,33.0386 C43.6857721,15.6076 57.8064799,1.2986 75.1242916,1.2406 L146.311019,0.9996 C163.628831,0.9416 177.844915,15.1546 177.902538,32.5846 C177.961155,50.0146 163.839454,64.3236 146.522636,64.3826 L79.3565666,64.6090415 L79.4800777,39.8266879 C79.5117309,33.4754932 74.4221633,28.3010048 68.1122101,28.2691447 C61.8022569,28.2372845 56.6613691,33.3601174 56.6297158,39.7113121 L56.5366155,58.3918012 Z M92.6882942,247.3105 C92.6882942,263.1905 79.8978916,276.0635 64.1220019,276.0635 C48.3451188,276.0635 35.5547162,263.1905 35.5547162,247.3105 C35.5547162,231.4305 48.3451188,218.5575 64.1220019,218.5575 C79.8978916,218.5575 92.6882942,231.4305 92.6882942,247.3105 Z M197.731736,247.3105 C197.731736,263.1905 184.941333,276.0635 169.165444,276.0635 C153.38856,276.0635 140.598158,263.1905 140.598158,247.3105 C140.598158,231.4305 153.38856,218.5575 169.165444,218.5575 C184.941333,218.5575 197.731736,231.4305 197.731736,247.3105 Z" id="path-1"></path>
        <path d="M253.929236,251.799746 L242.739164,261.788854 C242.227555,261.215736 241.419496,260.248435 240.412149,258.939366 C238.764812,256.798617 237.122145,254.428321 235.581599,251.873929 C231.421919,244.976727 228.717641,237.996318 228.24512,231.063732 C227.609807,221.742761 231.195621,213.455547 239.381416,207.482697 C247.574511,201.504437 256.114171,200.99006 263.422529,205.697687 C268.633083,209.054028 272.648834,214.620937 275.95263,221.787731 C277.621038,225.406945 279.001729,229.227383 280.12669,233.040781 C280.51939,234.37196 280.85356,235.61208 281.131192,236.733468 C281.303342,237.428805 281.421801,237.946981 281.488122,238.2598 L266.814278,241.3708 C266.781963,241.218378 266.701001,240.864225 266.570794,240.338303 C266.344497,239.424259 266.067504,238.396326 265.739656,237.284986 C264.805908,234.11976 263.664553,230.961574 262.33038,228.067405 C260.112179,223.25555 257.62252,219.804215 255.299696,218.307984 C253.367375,217.063293 251.549278,217.172804 248.222944,219.599932 C244.332618,222.438548 242.915296,225.714137 243.210398,230.043706 C243.493567,234.198208 245.389126,239.091116 248.426411,244.127264 C249.655325,246.164937 250.979938,248.076295 252.29988,249.791587 C252.756394,250.384837 253.17599,250.906963 253.546075,251.34998 C253.751808,251.596256 253.883716,251.748754 253.929236,251.799746 Z M68.6986403,108.235995 L68.0091,109.5992 C61.8591,121.7562 46.8831,126.6712 34.7271,120.5222 L32.6781,119.4862 C20.5221,113.3372 15.6071,98.3602 21.7561,86.2032 L56.5461,17.4242 C61.2258369,8.17053024 71.0216366,3.1128431 80.7946813,3.9367343 C85.4132311,2.04400652 90.4603371,0.9994 95.7395,0.9994 L163.4325,0.9994 C172.944886,0.9994 181.704031,4.39097585 188.560203,10.0246428 C197.600329,12.0281686 205.185559,19.0394483 207.4044,28.6193 L224.8024,103.7083 C227.8764,116.9793 219.5334,130.3533 206.2624,133.4283 L204.0254,133.9463 C191.385285,136.875119 178.651729,129.445725 174.811787,117.264982 C171.203503,118.352485 167.382957,118.9374 163.4325,118.9374 L95.7395,118.9374 C85.3175085,118.9374 75.7999275,114.866413 68.6986403,108.235995 L68.6986403,108.235995 Z M16.0359453,258.704077 L1.06205467,259.588723 C1.05197991,259.418193 1.0396332,259.150041 1.02818916,258.791811 C0.839021591,252.870341 1.37320748,245.787861 3.28966459,238.793157 C7.35953697,223.938897 16.7509104,214.322653 32.1425997,214.929228 C40.810895,215.271139 47.280032,218.887862 50.7385689,225.321582 C53.4322024,230.332396 53.9768029,236.351918 53.0285151,243.165805 C52.4377429,247.410777 51.2786279,251.820742 49.720391,256.272551 C48.9308553,258.528216 48.0868056,260.655049 47.2398108,262.598922 C46.7216956,263.788009 46.3068527,264.673479 46.0465563,265.197732 L32.6114437,258.527068 C32.6384626,258.472651 32.7108486,258.322793 32.8220735,258.085387 C33.0202967,257.662285 33.2446168,257.166858 33.4885047,256.607129 C34.1942466,254.987435 34.9029337,253.201689 35.5626188,251.317 C36.817351,247.73229 37.7335428,244.246549 38.1717004,241.098184 C39.2942982,233.031799 37.7516703,230.162136 31.5516599,229.917583 C24.3556321,229.633993 20.1807253,233.908865 17.7564863,242.756877 C16.9397517,245.737802 16.426692,248.999125 16.1748403,252.33829 C15.9997949,254.659122 15.9694429,256.713356 16.0205409,258.312864 C16.0275731,258.532991 16.0337026,258.666116 16.0359453,258.704077 Z" id="path-3"></path>
        <path d="M42.0938,139.5387 C19.2058,139.5387 0.4788,120.8117 0.4788,97.9237 L0.4788,75.4617 C0.4788,52.5737 19.2058,33.8467 42.0938,33.8467 L46.0938,33.8467 C68.9828,33.8467 87.7098,52.5737 87.7098,75.4617 L87.7098,97.9237 C87.7098,120.8117 68.9828,139.5387 46.0938,139.5387 L42.0938,139.5387 Z M68.3248,10.3849 C68.3248,4.6499 72.9738,0.0009 78.7098,0.0009 C84.4448,0.0009 89.0948,4.6499 89.0948,10.3849 C89.0948,16.1199 84.4448,20.7699 78.7098,20.7699 C72.9738,20.7699 68.3248,16.1199 68.3248,10.3849 Z" id="path-5"></path>
    </defs>
    <g id="Scene" stroke="none" stroke-width="1" fill="none" fill-rule="evenodd">
        <g id="Illustration-12" transform="translate(-362.000000, -95.000000)">
            <g id="Background-Object-/-Ladder" transform="translate(1702.500000, 845.000000) scale(-1, 1) translate(-1702.500000, -845.000000) translate(1230.000000, 487.000000)">
                <g id="Group-39" transform="translate(314.000000, 45.000000)">
                    <path d="M42.7692,624.2056 L93.0772,0.2056" id="Stroke-1" stroke="#CCE3FF" stroke-width="18"></path>
                    <path d="M295.7341,624.2056 L245.4261,0.2056" id="Stroke-3" stroke="#CCE3FF" stroke-width="18"></path>
                    <path d="M60.1897,26.6832 L272.5797,26.6832" id="Stroke-5" stroke="#CCE3FF" stroke-width="18"></path>
                    <path d="M45.7692,163.2984 L286.9992,163.2984" id="Stroke-7" stroke="#CCE3FF" stroke-width="18"></path>
                    <path d="M34.3845,326.9908 L298.3845,326.9908" id="Stroke-9" stroke="#CCE3FF" stroke-width="18"></path>
                    <path d="M15.0002,474.6832 L317.7692,474.6832" id="Stroke-11" stroke="#CCE3FF" stroke-width="18"></path>
                    <path d="M212.2761,274.7598 L142.4941,274.7598 C139.3321,274.7598 136.7691,272.1968 136.7691,269.0358 L136.7691,159.3048 C136.7691,156.1438 139.3321,153.5808 142.4941,153.5808 L212.2761,153.5808 C215.4371,153.5808 218.0001,156.1438 218.0001,159.3048 L218.0001,269.0358 C218.0001,272.1968 215.4371,274.7598 212.2761,274.7598" id="Fill-14" fill="#CCE3FF"></path>
                    <path d="M165.6599,427.3804 L95.8789,427.3804 C92.7169,427.3804 90.1539,424.8174 90.1539,421.6554 L90.1539,322.5404 C90.1539,319.3794 92.7169,316.8164 95.8789,316.8164 L165.6599,316.8164 C168.8219,316.8164 171.3849,319.3794 171.3849,322.5404 L171.3849,421.6554 C171.3849,424.8174 168.8219,427.3804 165.6599,427.3804" id="Fill-16" fill="#CCE3FF"></path>
                    <path d="M24.7692,624.2056 L75.0772,0.2056" id="Stroke-18" stroke="#DCEEFF" stroke-width="30"></path>
                    <path d="M277.7341,624.2056 L227.4261,0.2056" id="Stroke-20" stroke="#DCEEFF" stroke-width="30"></path>
                    <path d="M45.1897,26.6832 L257.5797,26.6832" id="Stroke-22" stroke="#DCEEFF" stroke-width="18"></path>
                    <path d="M30.7692,163.2984 L271.9992,163.2984" id="Stroke-24" stroke="#DCEEFF" stroke-width="18"></path>
                    <path d="M19.3845,326.9908 L283.3845,326.9908" id="Stroke-26" stroke="#DCEEFF" stroke-width="18"></path>
                    <path d="M0.0002,474.6832 L302.7692,474.6832" id="Stroke-28" stroke="#DCEEFF" stroke-width="18"></path>
                    <path d="M153.2312,393.7305 L84.3072,393.7305 C80.9092,393.7305 78.1542,390.9755 78.1542,387.5765 L78.1542,322.9705 C78.1542,319.5715 80.9092,316.8155 84.3072,316.8155 L159.3842,316.8155 L159.3842,387.5765 C159.3842,390.9755 156.6292,393.7305 153.2312,393.7305" id="Fill-30" fill="#ECF6FF"></path>
                    <polygon id="Fill-32" fill="#DCEEFF" points="78.154 380.611 159.384 380.611 159.384 360.246 78.154 360.246"></polygon>
                    <path d="M165.3825,316.8213 C162.0715,316.8213 159.3825,319.5013 159.3825,322.8213 L159.3825,316.8213 L165.3825,316.8213 Z" id="Fill-34" fill="#ECF6FF"></path>
                    <path d="M199.8464,237.8794 L130.9234,237.8794 C127.5244,237.8794 124.7694,235.1244 124.7694,231.7254 L124.7694,159.7344 C124.7694,156.3354 127.5244,153.5804 130.9234,153.5804 L205.9994,153.5804 L205.9994,231.7254 C205.9994,235.1244 203.2444,237.8794 199.8464,237.8794" id="Fill-35" fill="#ECF6FF"></path>
                    <polygon id="Fill-36" fill="#DCEEFF" points="124.77 223.501 206 223.501 206 214.171 124.77 214.171"></polygon>
                    <polygon id="Fill-37" fill="#DCEEFF" points="124.77 205.06 206 205.06 206 195.73 124.77 195.73"></polygon>
                    <path d="M211.9978,153.586 C208.6878,153.586 205.9978,156.523 205.9978,160.162 L205.9978,153.586 L211.9978,153.586 Z" id="Fill-38" fill="#ECF6FF"></path>
                </g>
            </g>
            <g id="Background-Object-/-Door-/-1" transform="translate(1285.500000, 625.000000) scale(-1, 1) translate(-1285.500000, -625.000000) translate(813.000000, 0.000000)">
                <g id="Group-24" transform="translate(272.000000, 94.000000)">
                    <polygon id="Fill-1" fill="#DCEEFF" points="0 1061.36 388.308 1061.36 388.308 224.437 0 224.437"></polygon>
                    <polygon id="Fill-2" fill="#CCE3FF" points="46.154 1061.36 355.077 1061.36 355.077 261.36 46.154 261.36"></polygon>
                    <polygon id="Fill-3" fill="#DCEEFF" points="158.34 976.58 242.891 976.58 242.891 785.042 158.34 785.042"></polygon>
                    <polygon id="Fill-4" fill="#DCEEFF" points="158.34 531.425 242.891 531.425 242.891 339.888 158.34 339.888"></polygon>
                    <polygon id="Fill-5" fill="#DCEEFF" points="158.34 754.002 242.891 754.002 242.891 562.464 158.34 562.464"></polygon>
                    <path d="M75.0984,608.476 L131.9424,608.476" id="Stroke-6" stroke="#B6D4FF" stroke-width="14"></path>
                    <polygon id="Fill-7" fill="#B6D4FF" points="388.308 1061.36 400.923 1061.36 400.923 224.437 388.308 224.437"></polygon>
                    <polygon id="Fill-8" fill="#B6D4FF" points="33.538 1061.36 46.153 1061.36 46.153 261.36 33.538 261.36"></polygon>
                    <path d="M72.1174,675.4389 L72.1174,675.4389 C64.8074,675.4389 58.8824,669.5139 58.8824,662.2049 L58.8824,601.8019 C58.8824,594.4929 64.8074,588.5679 72.1174,588.5679 C79.4274,588.5679 85.3524,594.4929 85.3524,601.8019 L85.3524,662.2049 C85.3524,669.5139 79.4274,675.4389 72.1174,675.4389" id="Fill-9" fill="#B6D4FF"></path>
                    <path d="M400.9231,195.4584 C400.9231,88.7254 314.3991,2.2004 207.6651,2.2004 C100.9311,2.2004 14.4071,88.7254 14.4071,195.4584 L400.9231,195.4584 Z" id="Fill-11" fill="#B6D4FF"></path>
                    <path d="M386.5163,194.2582 C386.5163,87.5252 299.9913,0.9992 193.2583,0.9992 C86.5243,0.9992 0.0003,87.5252 0.0003,194.2582 L386.5163,194.2582 Z" id="Fill-14" fill="#DCEEFF"></path>
                    <path d="M386.5163,195.4584 C386.5163,88.7254 299.9913,2.2004 193.2583,2.2004 C86.5243,2.2004 0.0003,88.7254 0.0003,195.4584 L386.5163,195.4584 Z" id="Fill-17" fill="#DCEEFF"></path>
                    <path d="M335.842,163.0551 L33.859,163.0551 C49.502,90.4221 111.162,36.2141 184.851,36.2141 C258.54,36.2141 320.199,90.4221 335.842,163.0551" id="Fill-19" fill="#B6D4FF"></path>
                    <path d="M351.4489,163.0551 L49.4659,163.0551 C65.1089,90.4221 126.7689,36.2141 200.4579,36.2141 C274.1469,36.2141 335.8059,90.4221 351.4489,163.0551" id="Fill-21" fill="#FFFFFF"></path>
                </g>
            </g>
            <g id="Background-Object-/-Pluteus-/-3" transform="translate(641.000000, 450.000000) scale(-1, 1) translate(-641.000000, -450.000000) translate(141.000000, 275.000000)">
                <g id="Group-29" transform="translate(254.000000, 76.000000)">
                    <polygon id="Fill-1" fill="#DCEEFF" points="201.5303 130.663 298.0173 130.663 311.0473 0.5 214.5603 0.5"></polygon>
                    <polygon id="Stroke-2" stroke="#DCEEFF" stroke-width="5" points="201.5303 130.663 298.0173 130.663 311.0473 0.5 214.5603 0.5"></polygon>
                    <polygon id="Fill-4" fill="#FFFFFF" points="196.3223 130.663 294.6043 130.663 307.6353 0.5 209.3523 0.5"></polygon>
                    <polygon id="Stroke-5" stroke="#DCEEFF" stroke-width="5" points="196.3223 130.663 294.6043 130.663 307.6353 0.5 209.3523 0.5"></polygon>
                    <polygon id="Fill-7" fill="#DCEEFF" points="215.1465 113.4765 279.2215 113.4765 288.8105 17.6865 224.7355 17.6865"></polygon>
                    <polygon id="Fill-8" fill="#DCEEFF" points="456.3555 39.2128 447.3255 129.3938 328.7615 129.3938 337.7925 39.2128"></polygon>
                    <polygon id="Stroke-9" stroke="#DCEEFF" stroke-width="5" points="456.3555 39.2128 447.3255 129.3938 328.7615 129.3938 337.7925 39.2128"></polygon>
                    <polygon id="Fill-10" fill="#FFFFFF" points="453.7031 39.2128 444.6731 129.3938 323.9031 129.3938 332.9341 39.2128"></polygon>
                    <polygon id="Stroke-11" stroke="#DCEEFF" stroke-width="5" points="453.7031 39.2128 444.6731 129.3938 323.9031 129.3938 332.9341 39.2128"></polygon>
                    <polygon id="Fill-12" fill="#CCE3FF" points="428.2393 56.9042 422.7523 111.7022 349.3673 111.7022 354.8543 56.9042"></polygon>
                    <path d="M55.5517,95.6874 L55.5517,95.6874 C55.5517,102.5904 61.1487,108.1874 68.0527,108.1874 L180.5217,108.1874 L180.5217,83.1864 L68.0527,83.1864 C61.1487,83.1864 55.5517,88.7834 55.5517,95.6874" id="Fill-13" fill="#CCE3FF"></path>
                    <path d="M131.1973,95.6874 L131.1973,95.6874 C131.1973,99.6834 134.4363,102.9234 138.4333,102.9234 L180.2193,102.9234 C180.3863,102.9234 180.5213,102.7894 180.5213,102.6234 L180.5213,88.7504 C180.5213,88.5844 180.3863,88.4504 180.2193,88.4504 L138.4333,88.4504 C134.4363,88.4504 131.1973,91.6904 131.1973,95.6874" id="Fill-15" fill="#DCEEFF"></path>
                    <path d="M39.8545,108.1874 L39.8545,133.1884 L162.6135,133.1884 C169.5175,133.1884 175.1145,127.5914 175.1145,120.6884 C175.1145,113.7844 169.5175,108.1874 162.6135,108.1874 L39.8545,108.1874 Z" id="Fill-17" fill="#CCE3FF"></path>
                    <path d="M39.8545,113.5214 L39.8545,127.8554 L90.3285,127.8554 C94.2865,127.8554 97.4955,124.6464 97.4955,120.6884 C97.4955,116.7294 94.2865,113.5214 90.3285,113.5214 L39.8545,113.5214 Z" id="Fill-19" fill="#DCEEFF"></path>
                    <polygon id="Fill-21" fill="#DCEEFF" points="0 149.797 423.178 149.797 423.178 132.02 0 132.02"></polygon>
                    <polygon id="Fill-23" fill="#CCE3FF" points="423.178 149.797 492.795 149.797 492.795 132.02 423.178 132.02"></polygon>
                    <polygon id="Fill-24" fill="#B6D4FF" points="103.1406 149.7968 136.1876 201.6428 136.1876 149.7968"></polygon>
                    <polygon id="Fill-25" fill="#CCE3FF" points="84.8525 149.7968 117.8995 201.6428 136.1875 201.6428 103.1405 149.7968"></polygon>
                    <polygon id="Fill-26" fill="#B6D4FF" points="345.5176 149.7968 378.5646 201.6428 378.5646 149.7968"></polygon>
                    <polygon id="Fill-27" fill="#CCE3FF" points="327.2295 149.7968 360.2765 201.6428 378.5645 201.6428 345.5175 149.7968"></polygon>
                </g>
            </g>
            <g id="Background-Object-/-Flower-/-1" transform="translate(0.000000, 575.000000)">
                <g id="Group-24" transform="translate(362.000000, 135.000000)">
                    <path d="M156.8544,55.3337 C156.8544,85.8937 138.2744,110.6667 115.3544,110.6667 C92.4344,110.6667 73.8544,85.8937 73.8544,55.3337 C73.8544,24.7737 92.4344,0.0007 115.3544,0.0007 C138.2744,0.0007 156.8544,24.7737 156.8544,55.3337" id="Fill-1" fill="#CCE3FF"></path>
                    <path d="M115.6645,345.9631 L115.6645,58.1471" id="Stroke-3" stroke="#DCEEFF" stroke-width="9"></path>
                    <path d="M70.9711,136.6169 C90.5681,156.2149 94.5401,184.0159 79.8421,198.7149 C65.1441,213.4119 37.3421,209.4409 17.7441,189.8439 C-1.8529,170.2459 -5.8239,142.4439 8.8731,127.7459 C23.5721,113.0479 51.3731,117.0199 70.9711,136.6169" id="Fill-5" fill="#CCE3FF"></path>
                    <path d="M210.9008,176.8811 C226.7038,192.6841 222.4338,222.5761 201.3628,243.6471 C180.2928,264.7171 150.4008,268.9871 134.5978,253.1841" id="Fill-8" fill="#CCE3FF"></path>
                    <path d="M189.6108,204.7185 L116.8928,277.6445" id="Stroke-10" stroke="#DCEEFF" stroke-width="9"></path>
                    <path d="M168.5986,134.9797 L115.4566,187.4967" id="Stroke-12" stroke="#DCEEFF" stroke-width="9"></path>
                    <path d="M60.2778,250.2575 L115.7948,306.3995" id="Stroke-14" stroke="#DCEEFF" stroke-width="9"></path>
                    <path d="M41.1411,160.3908 L115.3541,235.4878" id="Stroke-16" stroke="#DCEEFF" stroke-width="9"></path>
                    <path d="M137.9184,444.8088 L93.4114,444.8088 C59.2264,444.8088 31.2574,416.8398 31.2574,382.6548 L31.2574,324.1688 L200.0724,324.1688 L200.0724,382.6548 C200.0724,416.8398 172.1034,444.8088 137.9184,444.8088" id="Fill-18" fill="#ECF6FF"></path>
                    <path d="M200.0722,356.676 L31.2572,356.676" id="Stroke-20" stroke="#DCEEFF" stroke-width="9"></path>
                    <path d="M200.0722,389.2819 L31.2572,389.2819" id="Stroke-22" stroke="#DCEEFF" stroke-width="9"></path>
                </g>
            </g>
            <g id="Background-Object-/-Flower-/-3" transform="translate(334.000000, 580.000000)">
                <g id="Group-16" transform="translate(387.000000, 135.000000)">
                    <path d="M163.0419,56.1488 C163.0419,56.1488 86.3679,225.3798 77.2129,409.3798 C77.2129,409.3798 120.1269,222.9188 163.0419,56.1488" id="Fill-1" fill="#DCEEFF"></path>
                    <path d="M25.8553,186.2006 C25.8553,186.2006 81.0423,187.6366 89.4443,371.6366 C89.4443,371.6366 65.8933,232.7646 25.8553,186.2006" id="Fill-3" fill="#DCEEFF"></path>
                    <path d="M82.2098,0.9994 C82.2098,0.9994 114.4258,195.6734 82.7158,393.7654 C82.7158,393.7654 84.5998,186.8714 82.2098,0.9994" id="Fill-5" fill="#DCEEFF"></path>
                    <path d="M125.6669,445.8588 L45.9899,445.8588 C45.3919,445.8588 44.7959,445.8478 44.2019,445.8258 C7.8709,444.4678 -12.3421,398.5138 8.2339,365.3598 L26.4869,335.9518 L145.1699,335.9518 L163.4219,365.3598 C183.9989,398.5138 163.7859,444.4678 127.4549,445.8258 C126.8609,445.8478 126.2659,445.8588 125.6669,445.8588" id="Fill-8" fill="#ECF6FF"></path>
                    <path d="M-0.0001,403.5893 L171.6569,403.5893" id="Stroke-11" stroke="#B6D4FF" stroke-width="9"></path>
                    <path d="M3.9842,375.1669 L168.2252,375.1669" id="Stroke-14" stroke="#B6D4FF" stroke-width="9"></path>
                </g>
            </g>
            <g id="Background-Object-/-Pluteus-/-4" transform="translate(641.000000, 239.000000) scale(-1, 1) translate(-641.000000, -239.000000) translate(141.000000, 64.000000)">
                <g id="Group-7" transform="translate(254.000000, 140.000000)">
                    <polygon id="Fill-1" fill="#DCEEFF" points="0 17.7762 423.177 17.7762 423.177 0.0002 0 0.0002"></polygon>
                    <polygon id="Fill-2" fill="#CCE3FF" points="423.177 17.7762 492.795 17.7762 492.795 0.0002 423.177 0.0002"></polygon>
                    <polygon id="Fill-3" fill="#B6D4FF" points="103.1409 17.7759 136.1869 69.6219 136.1869 17.7759"></polygon>
                    <polygon id="Fill-4" fill="#CCE3FF" points="84.8529 17.7759 117.8989 69.6219 136.1869 69.6219 103.1409 17.7759"></polygon>
                    <polygon id="Fill-5" fill="#B6D4FF" points="345.5172 17.7759 378.5642 69.6219 378.5642 17.7759"></polygon>
                    <polygon id="Fill-6" fill="#CCE3FF" points="327.2292 17.7759 360.2762 69.6219 378.5642 69.6219 345.5172 17.7759"></polygon>
                </g>
            </g>
            <g id="Person-/-Robot-/-4" transform="translate(1057.000000, 910.000000) scale(-1, 1) translate(-1057.000000, -910.000000) translate(782.000000, 431.000000)">
                <g id="Robot-/-Legs-/-4" transform="translate(51.000000, 337.000000)">
                    <g id="Group-35" transform="translate(91.402597, 14.000000)">
                        <path d="M168.066526,257.4883 L155.051591,378.1243" id="Stroke-1" stroke="#19141E" stroke-width="23" stroke-linecap="round"></path>
                        <path d="M66.2709565,257.4883 L53.2560214,378.1243" id="Stroke-2" stroke="#19141E" stroke-width="23" stroke-linecap="round"></path>
                        <path d="M149.573197,41.2251 L167.583483,241.0781" id="Stroke-3" stroke="#19141E" stroke-width="23" stroke-linecap="round"></path>
                        <path d="M56.6295171,39.7113121 C56.6611704,33.3601174 61.8020582,28.2372845 68.1120114,28.2691447 C74.4219646,28.3010048 79.5115322,33.4754932 79.479879,39.8266879 L78.4863725,239.172688 C78.4547192,245.523883 73.3138314,250.646715 67.0038782,250.614855 C60.6939251,250.582995 55.6043574,245.408507 55.6360106,239.057312 L56.6295171,39.7113121 Z" id="Stroke-8" fill="#19141E" fill-rule="nonzero"></path>
                        <g id="Legs-color" transform="translate(-0.000199, 0.000000)">
                            <mask id="mask-2" fill="white">
                                <use xlink:href="#path-1"></use>
                            </mask>
                            <use id="Mask" fill="#6CA1FF" xlink:href="#path-1"></use>
                            <g id="Colors-/-Skin-/-Yellow" mask="url(#mask-2)" fill="#F6B852" fill-rule="nonzero">
                                <g transform="translate(0.000199, 0.000000)" id="Color">
                                    <rect x="0" y="0" width="218" height="514"></rect>
                                </g>
                            </g>
                        </g>
                        <path d="M112.259249,501.041221 C112.255999,494.76422 110.831545,488.822106 108.292208,483.523204 L110.768592,460.631221 L125.313626,325.771621 C126.028951,319.141621 131.940314,314.351621 138.537197,315.071621 L189.44447,320.641621 C196.031418,321.361621 200.790314,327.311621 200.07499,333.941621 L186.295094,461.671253 C204.118531,465.791305 217.411579,481.851271 217.421514,501.041221 L217.421514,513.221221 L-1.49213975e-13,513.221221 L1.31142857,501.041221 L112.259249,501.041221 Z" id="Path" fill="#000000" opacity="0.39718192"></path>
                        <path d="M197.714747,247.253 C197.714747,263.133 184.924344,276.006 169.148455,276.006 C153.371571,276.006 140.581169,263.133 140.581169,247.253 C140.581169,231.373 153.371571,218.5 169.148455,218.5 C184.924344,218.5 197.714747,231.373 197.714747,247.253" id="Fill-23" fill="#000000" opacity="0.401204427"></path>
                        <path d="M45.2507435,342.306 C45.2507435,346.893 41.5568864,350.611 36.9996721,350.611 C32.4424578,350.611 28.7476071,346.893 28.7476071,342.306 C28.7476071,337.719 32.4424578,334 36.9996721,334 C41.5568864,334 45.2507435,337.719 45.2507435,342.306 Z M42.3343052,369.3905 C42.3343052,373.9775 38.6404481,377.6965 34.0832338,377.6965 C29.5260195,377.6965 25.8311688,373.9775 25.8311688,369.3905 C25.8311688,364.8035 29.5260195,361.0855 34.0832338,361.0855 C38.6404481,361.0855 42.3343052,364.8035 42.3343052,369.3905 Z" id="Shape" fill="#000000" opacity="0.596656436"></path>
                        <path d="M36.6136948,471.926 C36.6136948,477.961 31.753461,482.853 25.7586429,482.853 C19.7628312,482.853 14.9025974,477.961 14.9025974,471.926 C14.9025974,465.892 19.7628312,461 25.7586429,461 C31.753461,461 36.6136948,465.892 36.6136948,471.926" id="Fill-25" fill="#000000" opacity="0.396019345"></path>
                    </g>
                </g>
                <g id="Robot-/-Body-/-4" transform="translate(46.000000, 152.000000)">
                    <g id="Group-18" transform="translate(74.000000, 65.000000)">
                        <path d="M199.8381,113.6274 L244.6701,210.4384" id="Stroke-1" stroke="#19141E" stroke-width="16" stroke-linecap="round"></path>
                        <polygon id="Fill-8" fill="#19141E" points="112.201 135 146.971 135 146.971 107 112.201 107"></polygon>
                        <path d="M31.3176,220.4594 L40.9346,114.9144" id="Stroke-12" stroke="#19141E" stroke-width="16" stroke-linecap="round"></path>
                        <g id="Body-color">
                            <mask id="mask-4" fill="white">
                                <use xlink:href="#path-3"></use>
                            </mask>
                            <use id="Mask" fill="#6CA1FF" fill-rule="nonzero" xlink:href="#path-3"></use>
                            <g id="Colors-/-Skin-/-Yellow" mask="url(#mask-4)" fill="#F6B852" fill-rule="nonzero">
                                <g transform="translate(-1.000000, -1.000000)" id="Color">
                                    <rect x="0" y="0" width="282" height="279"></rect>
                                </g>
                            </g>
                        </g>
                        <path d="M130.3557,80.2821 L163.5857,80.2821 C170.1867,80.2821 175.5857,74.8821 175.5857,68.2821 L175.5857,48.7951 C175.5857,42.1951 170.1867,36.7951 163.5857,36.7951 L130.3557,36.7951 C123.7547,36.7951 118.3557,42.1951 118.3557,48.7951 L118.3557,68.2821 C118.3557,74.8821 123.7547,80.2821 130.3557,80.2821" id="Fill-11" fill="#19141E"></path>
                        <g id="Overlay" transform="translate(1.000000, 4.000000)" fill="#000000" fill-rule="nonzero" opacity="0.399181548">
                            <path d="M252.75567,247.263185 L241.565599,257.252293 C241.053989,256.679175 240.245931,255.711874 239.238583,254.402805 C237.591246,252.262056 235.94858,249.89176 234.408034,247.337368 C230.248354,240.440166 227.544076,233.459757 227.071554,226.527171 C226.436241,217.2062 230.022055,208.918986 238.20785,202.946136 C246.400946,196.967876 254.940605,196.453499 262.248963,201.161126 C267.459517,204.517467 271.475268,210.084376 274.779064,217.25117 C276.447473,220.870383 277.828164,224.690822 278.953124,228.50422 C279.345825,229.835399 279.679995,231.075518 279.957626,232.196907 C280.129776,232.892244 280.248235,233.41042 280.314556,233.723239 L265.640713,236.834239 C265.608398,236.681816 265.527435,236.327664 265.397229,235.801742 C265.170932,234.887698 264.893939,233.859765 264.566091,232.748425 C263.632342,229.583199 262.490987,226.425013 261.156814,223.530844 C258.938613,218.718989 256.448955,215.267654 254.12613,213.771423 C252.193809,212.526732 250.375713,212.636243 247.049378,215.063371 C243.159053,217.901987 241.741731,221.177576 242.036832,225.507145 C242.320001,229.661647 244.215561,234.554555 247.252845,239.590703 C248.48176,241.628376 249.806372,243.539734 251.126314,245.255026 C251.582828,245.848276 252.002424,246.370402 252.37251,246.813419 C252.578243,247.059695 252.710151,247.212192 252.75567,247.263185 Z M189.505724,104.356526 C188.480766,108.411615 190.143011,112.829754 193.896413,115.130357 C198.519413,117.963357 204.563413,116.512357 207.396413,111.889357 C210.229413,107.266357 208.778413,101.222357 204.155413,98.3893572 C201.382923,96.6903599 198.099356,96.532506 195.304023,97.6752965 C199.721018,91.278749 202.313713,83.5378627 202.313713,75.2207572 L202.313713,36.6677572 C202.313713,24.3495788 196.626492,13.2950505 187.748417,6 C196.788543,8.00352582 204.373772,15.0148055 206.592613,24.5946572 L223.990613,99.6836572 C227.064613,112.954657 218.721613,126.328657 205.450613,129.403657 L203.213613,129.921657 C190.573498,132.850476 177.839943,125.421082 174,113.240339 C179.841319,111.479807 185.126355,108.402117 189.505724,104.356526 L189.505724,104.356526 Z M55.4416368,13.5746117 C61.5896368,1.41761173 76.5676368,-3.49738827 88.7236368,2.65161173 L90.7716368,3.68761173 C102.927637,9.83661173 107.843637,24.8136117 101.694637,36.9706117 L66.9046368,105.749612 C60.7546368,117.906612 45.7786368,122.821612 33.6226368,116.672612 L31.5736368,115.636612 C19.4176368,109.487612 14.5026368,94.5106117 20.6516368,82.3536117 L55.4416368,13.5746117 Z M54.2473368,94.7729117 C55.8143368,89.5829117 52.8793368,84.1039117 47.6893368,82.5359117 C42.4993368,80.9679117 37.0203368,83.9029117 35.4523368,89.0939117 C33.8843368,94.2839117 36.8203368,99.7619117 42.0103368,101.330912 C47.2003368,102.897912 52.6793368,99.9629117 54.2473368,94.7729117 Z M86.8938368,30.2309117 C88.4618368,25.0409117 85.5258368,19.5629117 80.3358368,17.9939117 C75.1458368,16.4259117 69.6668368,19.3619117 68.0988368,24.5519117 C66.5308368,29.7419117 69.4668368,35.2199117 74.6568368,36.7889117 C79.8468368,38.3569117 85.3258368,35.4209117 86.8938368,30.2309117 Z M15.0435035,254.801975 L0.0696128003,255.68662 C0.0595380417,255.516091 0.0471913351,255.247938 0.0357472979,254.889708 C-0.153420274,248.968239 0.38076561,241.885759 2.29722272,234.891055 C6.36709511,220.036795 15.7584685,210.42055 31.1501578,211.027125 C39.8184532,211.369037 46.2875901,214.985759 49.746127,221.41948 C52.4397605,226.430293 52.984361,232.449816 52.0360732,239.263703 C51.445301,243.508675 50.286186,247.91864 48.7279492,252.370448 C47.9384134,254.626114 47.0943638,256.752946 46.247369,258.696819 C45.7292537,259.885906 45.3144109,260.771377 45.0541144,261.295629 L31.6190019,254.624966 C31.6460207,254.570548 31.7184067,254.420691 31.8296316,254.183285 C32.0278549,253.760182 32.2521749,253.264755 32.4960629,252.705027 C33.2018047,251.085332 33.9104918,249.299586 34.5701769,247.414897 C35.8249091,243.830187 36.741101,240.344447 37.1792585,237.196082 C38.3018563,229.129696 36.7592284,226.260033 30.559218,226.01548 C23.3631903,225.73189 19.1882834,230.006763 16.7640444,238.854774 C15.9473099,241.8357 15.4342502,245.097023 15.1823984,248.436188 C15.007353,250.75702 14.9770011,252.811254 15.028099,254.410762 C15.0351312,254.630889 15.0412607,254.764013 15.0435035,254.801975 Z" id="Shape"></path>
                        </g>
                        <g id="Overlay-parts" transform="translate(36.000000, 21.550000)" fill="#000000" opacity="0.601771763">
                            <path d="M19.2171225,77.2011225 C17.6491225,82.3911225 12.1701225,85.3261225 6.98012252,83.7591225 C1.79012252,82.1901225 -1.14587748,76.7121225 0.42212252,71.5221225 C1.99012252,66.3311225 7.46912252,63.3961225 12.6591225,64.9641225 C17.8491225,66.5321225 20.7841225,72.0111225 19.2171225,77.2011225 Z M51.8636225,12.6591225 C50.2956225,17.8491225 44.8166225,20.7851225 39.6266225,19.2171225 C34.4366225,17.6481225 31.5006225,12.1701225 33.0686225,6.98012252 C34.6366225,1.79012252 40.1156225,-1.14587748 45.3056225,0.42212252 C50.4956225,1.99112252 53.4316225,7.46912252 51.8636225,12.6591225 Z M172.388167,94.3978904 C169.555167,99.0208904 163.511167,100.47189 158.888167,97.6388904 C154.266167,94.8058904 152.815167,88.7618904 155.648167,84.1388904 C158.480167,79.5168904 164.524167,78.0648904 169.147167,80.8978904 C173.770167,83.7308904 175.221167,89.7748904 172.388167,94.3978904 Z" id="Shape"></path>
                        </g>
                    </g>
                </g>
                <g id="Robot-/-Head-/-1" transform="translate(159.000000, 40.000000)">
                    <g id="Group-23" transform="translate(44.000000, 27.000000)">
                        <path d="M97.859,95.3082 L111.21,95.3082 C116.519,95.3082 120.863,90.9642 120.863,85.6542 C120.863,80.3452 116.519,76.0002 111.21,76.0002 L97.859,76.0002 C92.549,76.0002 88.205,80.3452 88.205,85.6542 C88.205,90.9642 92.549,95.3082 97.859,95.3082" id="Fill-1" fill="#19141E"></path>
                        <path d="M45.6570924,113.554324 C47.6723508,108.098803 55.317156,104.878188 62.7322428,106.360879 C70.1473297,107.84357 74.5247556,113.468103 72.5094973,118.923624 L62.3429076,146.445676 C60.3276492,151.901197 59.6503906,153.464844 50.5,153.464844 C46.6263673,153.464844 40.7197266,153.464844 37.378418,153.464844 C32.5987291,153.464844 31.1309687,150.376192 35.4905027,141.076376 L45.6570924,113.554324 Z" id="Stroke-4" fill="#19141E" fill-rule="nonzero"></path>
                        <g id="Face-color" transform="translate(15.000000, 0.000000)">
                            <mask id="mask-6" fill="white">
                                <use xlink:href="#path-5"></use>
                            </mask>
                            <use id="Mask" fill="#6CA1FF" xlink:href="#path-5"></use>
                            <g id="Colors-/-Skin-/-Yellow" mask="url(#mask-6)" fill="#F6B852" fill-rule="nonzero">
                                <g transform="translate(0.000000, -3.000000)" id="Color">
                                    <rect x="0" y="0" width="89" height="144"></rect>
                                </g>
                            </g>
                        </g>
                        <path d="M89.536855,19.8975041 C82.7284711,25.82627 78.8529409,32.3824358 77.6838159,41.3125355 C77.4687367,42.9553705 75.9625995,44.1127952 74.3197645,43.8977159 C72.6769295,43.6826367 71.5195048,42.1764995 71.7345841,40.5336645 C73.0809673,30.249617 77.4933825,22.6313602 84.9403068,15.9501028 C86.0412606,17.6813582 87.6407879,19.06456 89.536855,19.8975041 Z" id="Path" fill="#19141E" fill-rule="nonzero"></path>
                        <path d="M72.7184,78.3805 C73.2424,81.3465 71.2634,84.1745 68.2974,84.6985 C65.3324,85.2225 62.5034,83.2435 61.9794,80.2775 C61.4554,77.3125 63.4344,74.4835 66.4004,73.9595 C69.3654,73.4355 72.1954,75.4145 72.7184,78.3805" id="Fill-12" fill="#19141E"></path>
                        <path d="M101.0284,78.4967 C101.5524,81.4627 99.5724,84.2907 96.6074,84.8147 C93.6414,85.3387 90.8134,83.3597 90.2894,80.3937 C89.7654,77.4287 91.7444,74.5997 94.7104,74.0757 C97.6754,73.5517 100.5044,75.5317 101.0284,78.4967" id="Fill-14" fill="#19141E"></path>
                        <g id="Overlay" transform="translate(78.068700, 72.492300)" fill="#000000" opacity="0.403971354">
                            <polygon id="Fill-16" points="1.051 0 14.811 21.834 7.531753e-13 22.192"></polygon>
                        </g>
                        <path d="M9.6539,93.2423 L22.6069,93.2423 L22.6069,73.9343 L9.6539,73.9343 C4.3439,73.9343 -9.99999993e-05,78.2793 -9.99999993e-05,83.5883 C-9.99999993e-05,88.8983 4.3439,93.2423 9.6539,93.2423" id="Fill-18" fill="#19141E"></path>
                        <path d="M76.3214,104.8707 C69.7694,105.9807 63.6444,102.2387 62.9794,98.3167" id="Stroke-21" stroke="#19141E" stroke-width="4"></path>
                    </g>
                </g>
            </g>
        </g>
    </g>
</svg>