<?xml version="1.0" encoding="UTF-8"?>
<svg width="1543px" height="1000px" viewBox="0 0 1543 1000" version="1.1" xmlns="http://www.w3.org/2000/svg" xmlns:xlink="http://www.w3.org/1999/xlink">
    <!-- Generator: Sketch 53.2 (72643) - https://sketchapp.com -->
    <title>Illustration 16</title>
    <desc>Created with Sketch.</desc>
    <defs>
        <path d="M174.950374,16.3229859 L174.675738,41.4556269 C174.675738,41.4556269 227.665076,50.3302414 245.628752,71.8471218 L140.057228,71.8471218 L144.479248,2.13162821e-14 L174.950374,16.3229859 Z M44.3172815,10.5670962 L44.0263212,40.4599314 C44.0263212,40.4599314 67.6622815,43.7432522 77.2822152,71.6080135 L0.763506623,71.6080135 L8.41585762,38.8072852 L11.4099636,8.90680773 L44.3172815,10.5670962 Z" id="path-1"></path>
        <path d="M136.797225,6.33068576 L167.268351,16.0679243 L166.993715,41.2005653 L134.341828,39.6396266 L136.797225,6.33068576 Z M4.36642053,-7.10542736e-15 L36.6351623,10.3123212 L36.344202,40.2051564 L0.733738411,38.5525102 L4.36642053,-7.10542736e-15 Z" id="path-3"></path>
        <path d="M188.905196,77.6297271 L168.265298,275.889954 L112.760066,275.889954 L122.154338,77.6297271 L53.9832119,77.6297271 C24.1689073,77.6297271 -4.26325641e-13,53.8545487 -4.26325641e-13,24.5272433 L-4.26325641e-13,0.925927131 L79.6830695,0.925927131 L263.743765,0.925927131 C302.337772,0.925927131 332.20201,34.5042589 327.427573,72.5304061 L300.763897,275.889954 L244.309924,275.889954 L246.909361,77.6297271 L188.905196,77.6297271 Z" id="path-5"></path>
        <path d="M72.1341716,118.030352 L71.2909763,88.8035934 C71.2909763,88.8035934 107.589201,91.6314725 115.164645,87.6847253 C115.164645,87.6847253 120.922337,52.1702308 115.447781,26.9899121 L85.6430473,0 L37.5418639,3.55153846 L32.0823964,47.2132088 C29.5652367,39.7665495 6.65251479,30.431967 1.15221893,47.1366593 C-5.94038462,68.6773187 34.9403846,79.9968462 34.9403846,79.9968462 L30.6684911,118.381945" id="path-7"></path>
        <path d="M285.216537,65.7313782 C274.180118,87.4016409 235.438085,158.537498 207.8186,147.191531 C187.1396,138.695654 162.3836,68.2621906 162.3836,68.2621906 L202.6246,44.3134809 L220.7066,92.7159208 L257.627928,52.6054152 C256.374235,44.6573319 255.370014,34.2675516 257.8693,30.6048578 C262.1243,24.3706378 283.6523,5.16295749 283.6523,5.16295749 L287.571948,37.7069615 L288.256612,34.9634797 C288.255921,34.8106965 288.292724,34.6453309 288.3703,34.4665748 C288.377756,34.4494131 288.385493,34.4321988 288.393508,34.4149325 L289.978345,28.064411 C289.313031,27.7286469 289.04079,27.25013 289.3284,26.5877575 C289.561846,26.0501254 290.070971,25.4608743 290.782649,24.8415272 L296.1936,3.15957684 C296.1936,3.15957684 297.969276,3.94940708 300.572631,5.13282269 C304.759977,4.26932449 319.923564,14.5777435 320.153653,14.7343755 L320.1566,14.7362777 C323.2446,16.7305123 315.9006,49.6910548 309.9356,55.8139317 C305.6919,60.169928 292.487002,63.9258449 285.216537,65.7313782 L285.216537,65.7313782 Z M38.6859101,212.706451 L41.1509,217.385606 C41.1509,217.385606 43.3819,221.209049 45.7179,227.882677 C48.0529,234.55531 47.0829,238.638222 52.1349,249.119387 C57.8699,261.017193 47.6119,256.111137 43.9339,250.917777 C41.0629,246.863694 41.3889,241.385017 37.6669,238.929504 C36.4199,240.919762 33.5699,243.764976 31.9799,260.931697 C31.6949,264.010533 33.0909,273.997612 33.0909,273.997612 C33.1209,276.989958 33.5049,283.230143 30.0979,284.182524 C29.2539,284.419128 28.1549,283.485636 28.1549,283.485636 C28.1549,283.485636 28.4849,287.390598 25.0039,288.168011 C23.6349,288.473211 20.9159,280.041953 20.9159,280.041953 C20.9159,280.041953 20.5019,284.323692 17.9019,284.799882 C17.1669,284.93409 8.4889,260.506208 8.4889,260.506208 L9.0109,266.023656 L10.1629,271.674319 C10.1629,271.674319 10.0699,274.716372 7.6269,275.254199 C6.6569,275.467938 4.7949,270.394867 3.0499,264.426082 C0.3359,255.138873 0.3909,248.160046 1.1899,241.219991 C2.1539,232.833469 1.7249,230.01609 5.4579,219.731765 C5.9043173,218.501808 6.50350333,217.089486 7.17268594,215.637288 C5.12447241,197.956588 -0.647281686,146.202808 0.0601,130.3145 C0.9171,111.043195 21.3351,68.2625883 21.3351,68.2625883 L62.7881,91.4368669 L39.9401,133.06726 L38.6859101,212.706451 L38.6859101,212.706451 Z M137.858,21.0061871 C113.848,19.5945156 103.718,4.67255074 101.408,0.636363059 C116.642,-0.415431662 118.234,-0.261340753 138.526,1.84026042 C146.756,2.69322816 152.528,4.44389972 158.118,5.97486746 C159.328,10.0806446 161.048,22.3582106 137.858,21.0061871 Z" id="path-9"></path>
        <path d="M189.244745,43.7138035 L189.3883,43.6858663 L205.7423,81.283054 L182.400673,94.8875062 L177.5277,176.9749 L44.5377,176.9749 L42.3077,96.0224956 L0.2577,64.5780088 C0.2577,64.5780088 20.0877,24.8126129 54.0177,8.98598534 C64.9877,3.86619062 75.048,1.45024399 84.408,0.525698534 C85.1754049,0.449927119 84.5697696,0.471310759 84.6629639,0.833279696 C84.715857,1.03871793 84.901062,1.34487933 85.1159668,1.69222584 C85.3308716,2.03957235 85.3308716,1.92704652 86.3843994,3.48086772 C87.4379272,5.03468891 88.9994954,6.58357045 91.354248,8.98598534 C93.3073684,10.9786385 96.0053096,12.9296279 98.6523437,14.4088883 C101.666006,16.0930338 104.623858,17.2176477 106.521729,18.0160252 C108.234577,18.7365692 109.678711,19.1145249 111.074585,19.446065 C115.01748,20.3825591 118.087169,20.6726104 124.349121,20.998943 C125.109071,21.0385467 129.509325,20.7128092 130.283203,20.5590058 C131.387031,20.3396267 132.375977,20.1414254 133.624146,19.8010265 C134.872314,19.4606275 137.974173,18.0131188 140.027588,15.4633363 C140.89856,14.3818263 141.725934,10.8248193 141.471191,8.2042827 C141.216449,5.58374605 140.073661,5.57818342 141.118,5.86420293 C159.488,10.8647015 176.8487,21.1740792 186.9977,39.4562199 C187.815831,40.9289577 188.563411,42.3474911 189.244745,43.7138035 Z" id="path-11"></path>
        <polygon id="path-13" points="0.8872 0.233621701 45.1692 0.233621701 45.1692 72.5965021 0.8872 72.5965021"></polygon>
        <polygon id="path-15" points="0.9044 0.233621701 20.0754 0.233621701 20.0754 72.5965021 0.9044 72.5965021"></polygon>
    </defs>
    <g id="Scene" stroke="none" stroke-width="1" fill="none" fill-rule="evenodd">
        <g id="Illustration-16" transform="translate(-223.000000, -194.000000)">
            <g id="Background-Object-/-Pluteus-/-3" transform="translate(583.000000, 125.000000)">
                <g id="Group-29" transform="translate(254.000000, 76.000000)">
                    <polygon id="Fill-1" fill="#DCEEFF" points="201.5303 130.663 298.0173 130.663 311.0473 0.5 214.5603 0.5"></polygon>
                    <polygon id="Stroke-2" stroke="#DCEEFF" stroke-width="5" points="201.5303 130.663 298.0173 130.663 311.0473 0.5 214.5603 0.5"></polygon>
                    <polygon id="Fill-4" fill="#FFFFFF" points="196.3223 130.663 294.6043 130.663 307.6353 0.5 209.3523 0.5"></polygon>
                    <polygon id="Stroke-5" stroke="#DCEEFF" stroke-width="5" points="196.3223 130.663 294.6043 130.663 307.6353 0.5 209.3523 0.5"></polygon>
                    <polygon id="Fill-7" fill="#DCEEFF" points="215.1465 113.4765 279.2215 113.4765 288.8105 17.6865 224.7355 17.6865"></polygon>
                    <polygon id="Fill-8" fill="#DCEEFF" points="456.3555 39.2128 447.3255 129.3938 328.7615 129.3938 337.7925 39.2128"></polygon>
                    <polygon id="Stroke-9" stroke="#DCEEFF" stroke-width="5" points="456.3555 39.2128 447.3255 129.3938 328.7615 129.3938 337.7925 39.2128"></polygon>
                    <polygon id="Fill-10" fill="#FFFFFF" points="453.7031 39.2128 444.6731 129.3938 323.9031 129.3938 332.9341 39.2128"></polygon>
                    <polygon id="Stroke-11" stroke="#DCEEFF" stroke-width="5" points="453.7031 39.2128 444.6731 129.3938 323.9031 129.3938 332.9341 39.2128"></polygon>
                    <polygon id="Fill-12" fill="#CCE3FF" points="428.2393 56.9042 422.7523 111.7022 349.3673 111.7022 354.8543 56.9042"></polygon>
                    <path d="M55.5517,95.6874 L55.5517,95.6874 C55.5517,102.5904 61.1487,108.1874 68.0527,108.1874 L180.5217,108.1874 L180.5217,83.1864 L68.0527,83.1864 C61.1487,83.1864 55.5517,88.7834 55.5517,95.6874" id="Fill-13" fill="#CCE3FF"></path>
                    <path d="M131.1973,95.6874 L131.1973,95.6874 C131.1973,99.6834 134.4363,102.9234 138.4333,102.9234 L180.2193,102.9234 C180.3863,102.9234 180.5213,102.7894 180.5213,102.6234 L180.5213,88.7504 C180.5213,88.5844 180.3863,88.4504 180.2193,88.4504 L138.4333,88.4504 C134.4363,88.4504 131.1973,91.6904 131.1973,95.6874" id="Fill-15" fill="#DCEEFF"></path>
                    <path d="M39.8545,108.1874 L39.8545,133.1884 L162.6135,133.1884 C169.5175,133.1884 175.1145,127.5914 175.1145,120.6884 C175.1145,113.7844 169.5175,108.1874 162.6135,108.1874 L39.8545,108.1874 Z" id="Fill-17" fill="#CCE3FF"></path>
                    <path d="M39.8545,113.5214 L39.8545,127.8554 L90.3285,127.8554 C94.2865,127.8554 97.4955,124.6464 97.4955,120.6884 C97.4955,116.7294 94.2865,113.5214 90.3285,113.5214 L39.8545,113.5214 Z" id="Fill-19" fill="#DCEEFF"></path>
                    <polygon id="Fill-21" fill="#DCEEFF" points="0 149.797 423.178 149.797 423.178 132.02 0 132.02"></polygon>
                    <polygon id="Fill-23" fill="#CCE3FF" points="423.178 149.797 492.795 149.797 492.795 132.02 423.178 132.02"></polygon>
                    <polygon id="Fill-24" fill="#B6D4FF" points="103.1406 149.7968 136.1876 201.6428 136.1876 149.7968"></polygon>
                    <polygon id="Fill-25" fill="#CCE3FF" points="84.8525 149.7968 117.8995 201.6428 136.1875 201.6428 103.1405 149.7968"></polygon>
                    <polygon id="Fill-26" fill="#B6D4FF" points="345.5176 149.7968 378.5646 201.6428 378.5646 149.7968"></polygon>
                    <polygon id="Fill-27" fill="#CCE3FF" points="327.2295 149.7968 360.2765 201.6428 378.5645 201.6428 345.5175 149.7968"></polygon>
                </g>
            </g>
            <g id="Background-Object-/-Pluteus-/-2" transform="translate(583.000000, 323.000000)">
                <g id="Group-21" transform="translate(254.000000, 101.000000)">
                    <path d="M460.5146,36.4915 C457.0356,65.6915 432.1816,88.3455 402.0406,88.3455 C371.8996,88.3455 347.0456,65.6915 343.5666,36.4915 L460.5146,36.4915 Z" id="Fill-1" fill="#ECF6FF"></path>
                    <g id="Group-5" transform="translate(117.000000, 0.924000)" fill="#ECF6FF">
                        <path d="M117.125,0.0758 C113.646,29.2758 88.792,51.9298 58.65,51.9298 C28.51,51.9298 3.656,29.2758 0.177,0.0758 L117.125,0.0758 Z" id="Fill-3"></path>
                    </g>
                    <path d="M234.125,36.4915 C230.646,65.6915 205.792,88.3455 175.65,88.3455 C145.51,88.3455 120.656,65.6915 117.177,36.4915 L234.125,36.4915 Z" id="Fill-6" fill="#ECF6FF"></path>
                    <polygon id="Fill-8" fill="#DCEEFF" points="270.8193 44.7151 318.5643 44.7151 305.7083 87.0051 283.6753 87.0051"></polygon>
                    <polygon id="Fill-10" fill="#DCEEFF" points="39.4346 44.7151 87.1796 44.7151 74.3236 87.0051 52.2906 87.0051"></polygon>
                    <polygon id="Fill-12" fill="#DCEEFF" points="270.8193 17.0994 318.5643 17.0994 305.7083 59.3904 283.6753 59.3904"></polygon>
                    <polygon id="Fill-14" fill="#DCEEFF" points="0 97.078 423.178 97.078 423.178 79.302 0 79.302"></polygon>
                    <polygon id="Fill-16" fill="#CCE3FF" points="423.178 97.078 492.795 97.078 492.795 79.302 423.178 79.302"></polygon>
                    <polygon id="Fill-17" fill="#B6D4FF" points="103.1406 97.0784 136.1876 148.9244 136.1876 97.0784"></polygon>
                    <polygon id="Fill-18" fill="#CCE3FF" points="84.8525 97.0784 117.8995 148.9244 136.1875 148.9244 103.1405 97.0784"></polygon>
                    <polygon id="Fill-19" fill="#B6D4FF" points="345.5176 97.0784 378.5646 148.9244 378.5646 97.0784"></polygon>
                    <polygon id="Fill-20" fill="#CCE3FF" points="327.2295 97.0784 360.2765 148.9244 378.5645 148.9244 345.5175 97.0784"></polygon>
                </g>
            </g>
            <g id="Background-Object-/-Bedside-table-/-2" transform="translate(647.000000, 519.000000)">
                <g id="Group-20" transform="translate(302.000000, 180.000000)">
                    <polygon id="Fill-1" fill="#DCEEFF" points="0 356.057 26.535 356.057 26.535 269.855 0 269.855"></polygon>
                    <polygon id="Fill-2" fill="#DCEEFF" points="221.016 356.057 247.551 356.057 247.551 269.855 221.016 269.855"></polygon>
                    <polygon id="Fill-3" fill="#B6D4FF" points="93.548 356.057 120.083 356.057 120.083 269.855 93.548 269.855"></polygon>
                    <polygon id="Fill-4" fill="#B6D4FF" points="314.564 356.057 341.098 356.057 341.098 269.855 314.564 269.855"></polygon>
                    <polygon id="Fill-5" fill="#B6D4FF" points="93.959 285.15 341.508 285.15 341.508 112.072 93.959 112.072"></polygon>
                    <polygon id="Fill-6" fill="#DCEEFF" points="0 285.15 247.55 285.15 247.55 112.072 0 112.072"></polygon>
                    <polygon id="Fill-7" fill="#ECF6FF" points="22.967 262.743 224.583 262.743 224.583 134.477 22.967 134.477"></polygon>
                    <path d="M158.5198,134.4774 L158.5198,134.4774 C158.5198,143.5974 151.1258,150.9914 142.0058,150.9914 L105.5438,150.9914 C96.4238,150.9914 89.0308,143.5974 89.0308,134.4774 L158.5198,134.4774 Z" id="Fill-8" fill="#CCE3FF"></path>
                    <polygon id="Fill-10" fill="#CCE3FF" points="234.035 112.385 285.522 112.385 285.522 38.538 234.035 38.538"></polygon>
                    <polygon id="Fill-12" fill="#DCEEFF" points="268.0295 112.3846 185.8295 112.3846 216.8595 0.9996 299.0595 0.9996"></polygon>
                    <polygon id="Fill-13" fill="#ECF6FF" points="251.0295 112.3846 168.8295 112.3846 199.8595 0.9996 282.0595 0.9996"></polygon>
                    <polygon id="Fill-14" fill="#CCE3FF" points="240.6956 95.1971 188.7406 95.1971 210.1936 18.1871 262.1486 18.1871"></polygon>
                    <polygon id="Fill-15" fill="#CCE3FF" points="119.655 112.385 156.068 112.385 156.068 60.159 119.655 60.159"></polygon>
                    <polygon id="Fill-16" fill="#DCEEFF" points="140.6975 112.3846 82.5635 112.3846 104.5095 33.6116 162.6425 33.6116"></polygon>
                    <polygon id="Fill-17" fill="#ECF6FF" points="128.6741 112.3846 70.5401 112.3846 92.4861 33.6116 150.6191 33.6116"></polygon>
                    <polygon id="Fill-18" fill="#DCEEFF" points="119.7893 96.2498 88.4153 96.2498 101.3703 49.7448 132.7453 49.7448"></polygon>
                </g>
            </g>
            <g id="Background-Object-/-Flower-/-3" transform="translate(354.000000, 475.000000)">
                <g id="Group-16" transform="translate(387.000000, 135.000000)">
                    <path d="M163.0419,56.1488 C163.0419,56.1488 86.3679,225.3798 77.2129,409.3798 C77.2129,409.3798 120.1269,222.9188 163.0419,56.1488" id="Fill-1" fill="#DCEEFF"></path>
                    <path d="M25.8553,186.2006 C25.8553,186.2006 81.0423,187.6366 89.4443,371.6366 C89.4443,371.6366 65.8933,232.7646 25.8553,186.2006" id="Fill-3" fill="#DCEEFF"></path>
                    <path d="M82.2098,0.9994 C82.2098,0.9994 114.4258,195.6734 82.7158,393.7654 C82.7158,393.7654 84.5998,186.8714 82.2098,0.9994" id="Fill-5" fill="#DCEEFF"></path>
                    <path d="M125.6669,445.8588 L45.9899,445.8588 C45.3919,445.8588 44.7959,445.8478 44.2019,445.8258 C7.8709,444.4678 -12.3421,398.5138 8.2339,365.3598 L26.4869,335.9518 L145.1699,335.9518 L163.4219,365.3598 C183.9989,398.5138 163.7859,444.4678 127.4549,445.8258 C126.8609,445.8478 126.2659,445.8588 125.6669,445.8588" id="Fill-8" fill="#ECF6FF"></path>
                    <path d="M-0.0001,403.5893 L171.6569,403.5893" id="Stroke-11" stroke="#B6D4FF" stroke-width="9"></path>
                    <path d="M3.9842,375.1669 L168.2252,375.1669" id="Stroke-14" stroke="#B6D4FF" stroke-width="9"></path>
                </g>
            </g>
            <g id="Background-Object-/-Closet-/-2" transform="translate(1015.000000, 0.000000)">
                <g id="Group-45" transform="translate(195.000000, 194.000000)">
                    <path d="M411.1961,153.2466 L393.5071,153.2466 C378.2411,153.2466 365.8661,140.8716 365.8661,125.6056 L365.8661,79.1076 C365.8661,74.5106 369.5921,70.7846 374.1891,70.7846 L430.5131,70.7846 C435.1111,70.7846 438.8381,74.5106 438.8381,79.1076 L438.8381,125.6056 C438.8381,140.8716 426.4631,153.2466 411.1961,153.2466" id="Fill-1" fill="#DCEEFF"></path>
                    <polygon id="Fill-3" fill="#DCEEFF" points="383.433 112.015 421.27 112.015 421.27 37.504 383.433 37.504"></polygon>
                    <path d="M201.3543,105.5513 L201.3543,105.5513 C201.3543,112.4553 206.9513,118.0513 213.8553,118.0513 L326.3243,118.0513 L326.3243,93.0513 L213.8553,93.0513 C206.9513,93.0513 201.3543,98.6473 201.3543,105.5513" id="Fill-5" fill="#CCE3FF"></path>
                    <path d="M276.9998,105.5513 L276.9998,105.5513 C276.9998,109.5483 280.2388,112.7883 284.2358,112.7883 L326.0218,112.7883 C326.1888,112.7883 326.3238,112.6533 326.3238,112.4873 L326.3238,98.6153 C326.3238,98.4493 326.1888,98.3143 326.0218,98.3143 L284.2358,98.3143 C280.2388,98.3143 276.9998,101.5543 276.9998,105.5513" id="Fill-6" fill="#DCEEFF"></path>
                    <path d="M185.6571,118.0518 L185.6571,143.0528 L308.4161,143.0528 C315.3201,143.0528 320.9171,137.4558 320.9171,130.5518 C320.9171,123.6488 315.3201,118.0518 308.4161,118.0518 L185.6571,118.0518 Z" id="Fill-7" fill="#CCE3FF"></path>
                    <path d="M185.6571,123.3853 L185.6571,137.7193 L236.1311,137.7193 C240.0901,137.7193 243.2981,134.5103 243.2981,130.5523 C243.2981,126.5933 240.0901,123.3853 236.1311,123.3853 L185.6571,123.3853 Z" id="Fill-8" fill="#DCEEFF"></path>
                    <path d="M232.8192,77.8086 L240.8032,-0.0004 L265.7702,-0.0004 L273.7552,77.8086 C274.5912,85.9626 268.1932,93.0506 259.9972,93.0506 L246.5772,93.0506 C238.3812,93.0506 231.9822,85.9626 232.8192,77.8086" id="Fill-9" fill="#DCEEFF"></path>
                    <polygon id="Fill-10" fill="#E6F4FF" points="27.875 813.794 398.228 813.794 398.228 154.225 27.875 154.225"></polygon>
                    <polygon id="Fill-11" fill="#E6F4FF" points="27.876 861.077 49.2 861.077 49.2 154.225 27.876 154.225"></polygon>
                    <polygon id="Fill-12" fill="#B6D4FF" points="49.2 861.077 70.523 861.077 70.523 813.794 49.2 813.794"></polygon>
                    <polygon id="Fill-13" fill="#B6D4FF" points="179.01 861.077 200.333 861.077 200.333 813.794 179.01 813.794"></polygon>
                    <polygon id="Fill-14" fill="#B6D4FF" points="398.229 861.077 419.552 861.077 419.552 813.794 398.229 813.794"></polygon>
                    <polygon id="Fill-15" fill="#C5E0FC" points="485.392 861.077 506.715 861.077 506.715 813.794 485.392 813.794"></polygon>
                    <polygon id="Fill-16" fill="#E6F4FF" points="376.905 861.077 398.228 861.077 398.228 154.225 376.905 154.225"></polygon>
                    <polygon id="Fill-17" fill="#B6D4FF" points="506.715 861.73 528.038 861.73 528.038 813.794 506.715 813.794"></polygon>
                    <polygon id="Fill-18" fill="#C5E0FC" points="157.687 861.077 179.01 861.077 179.01 813.794 157.687 813.794"></polygon>
                    <polygon id="Fill-19" fill="#CCE3FF" points="49.199 784.52 198.919 784.52 198.919 657.95 49.199 657.95"></polygon>
                    <polygon id="Fill-20" fill="#CCE3FF" points="227.189 784.521 376.909 784.521 376.909 657.951 227.189 657.951"></polygon>
                    <polygon id="Fill-21" fill="#CCE3FF" points="49.199 629.681 198.919 629.681 198.919 503.121 49.199 503.121"></polygon>
                    <polygon id="Fill-22" fill="#CCE3FF" points="227.189 629.681 376.909 629.681 376.909 503.121 227.189 503.121"></polygon>
                    <polygon id="Fill-23" fill="#CCE3FF" points="49.2 474.849 376.905 474.849 376.905 348.285 49.2 348.285"></polygon>
                    <polygon id="Fill-24" fill="#B6D4FF" points="49.2 474.849 150.579 474.849 150.579 348.285 49.2 348.285"></polygon>
                    <polygon id="Fill-25" fill="#CCE3FF" points="49.2 320.015 376.905 320.015 376.905 193.451 49.2 193.451"></polygon>
                    <polygon id="Fill-26" fill="#B6D4FF" points="49.2 320.015 150.579 320.015 150.579 193.451 49.2 193.451"></polygon>
                    <polygon id="Fill-27" fill="#B6D4FF" points="398.228 813.794 528.038 813.794 528.038 154.225 398.228 154.225"></polygon>
                    <path d="M393.9793,163.6851 L19.6923,163.6851 C8.8163,163.6851 0.0003,154.8681 0.0003,143.9931 L0.0003,142.8081 L393.9793,142.8081 L393.9793,163.6851 Z" id="Fill-28" fill="#E6F4FF"></path>
                    <path d="M535.9998,163.6851 L393.9788,163.6851 L393.9788,142.8081 L555.6918,142.8081 L555.6918,143.9931 C555.6918,154.8681 546.8758,163.6851 535.9998,163.6851" id="Fill-29" fill="#B6D4FF"></path>
                    <polygon id="Fill-30" fill="#CCE3FF" points="27.875 172.818 398.228 172.818 398.228 163.685 27.875 163.685"></polygon>
                    <polygon id="Fill-31" fill="#DCEEFF" points="122.624 320.015 142.748 320.015 142.748 243.141 122.624 243.141"></polygon>
                    <polygon id="Fill-32" fill="#CCE3FF" points="102.5 320.015 122.624 320.015 122.624 243.141 102.5 243.141"></polygon>
                    <polygon id="Fill-33" fill="#CCE3FF" points="142.748 320.015 162.872 320.015 162.872 243.141 142.748 243.141"></polygon>
                    <path d="M215.8924,320.0147 L162.8714,320.0147 L162.8714,243.1407 L215.8924,243.1407 C218.7244,243.1407 221.0214,245.4367 221.0214,248.2687 L221.0214,314.8867 C221.0214,317.7187 218.7244,320.0147 215.8924,320.0147" id="Fill-34" fill="#B6D4FF"></path>
                    <polygon id="Fill-35" fill="#CCE3FF" points="171.489 261.952 212.404 261.952 212.404 254.341 171.489 254.341"></polygon>
                    <polygon id="Fill-36" fill="#CCE3FF" points="180.606 273.695 203.287 273.695 203.287 266.084 180.606 266.084"></polygon>
                    <path d="M340.4158,430.7305 L340.4158,432.3685 C340.4158,439.8865 334.3198,445.9825 326.8018,445.9825 L208.8468,445.9825 L208.8468,417.1165 L326.8018,417.1165 C334.3198,417.1165 340.4158,423.2115 340.4158,430.7305" id="Fill-37" fill="#B6D4FF"></path>
                    <path d="M260.7752,431.0752 L260.7752,432.0232 C260.7752,436.3762 257.2472,439.9052 252.8932,439.9052 L209.0102,439.9052 C208.9202,439.9052 208.8462,439.8322 208.8462,439.7412 L208.8462,423.3572 C208.8462,423.2662 208.9202,423.1932 209.0102,423.1932 L252.8932,423.1932 C257.2472,423.1932 260.7752,426.7222 260.7752,431.0752" id="Fill-38" fill="#DCEEFF"></path>
                    <path d="M356.9422,445.9825 L356.9422,474.8485 L228.1532,474.8485 C220.6342,474.8485 214.5392,468.7535 214.5392,461.2345 L214.5392,459.5965 C214.5392,452.0785 220.6342,445.9825 228.1532,445.9825 L356.9422,445.9825 Z" id="Fill-39" fill="#B6D4FF"></path>
                    <path d="M356.9422,452.1407 L356.9422,468.6917 L304.0622,468.6917 C299.7522,468.6917 296.2562,465.1967 296.2562,460.8847 L296.2562,459.9467 C296.2562,455.6357 299.7522,452.1407 304.0622,452.1407 L356.9422,452.1407 Z" id="Fill-40" fill="#DCEEFF"></path>
                    <path d="M160.6991,667.9512 L87.4191,667.9512 C81.8951,667.9512 77.4181,663.4732 77.4181,657.9502 L170.7001,657.9502 C170.7001,663.4732 166.2221,667.9512 160.6991,667.9512" id="Fill-41" fill="#B6D4FF"></path>
                    <path d="M338.6893,667.9512 L265.4083,667.9512 C259.8853,667.9512 255.4083,663.4732 255.4083,657.9502 L348.6903,657.9502 C348.6903,663.4732 344.2123,667.9512 338.6893,667.9512" id="Fill-42" fill="#B6D4FF"></path>
                    <path d="M338.6893,513.1211 L265.4083,513.1211 C259.8853,513.1211 255.4083,508.6431 255.4083,503.1211 L348.6903,503.1211 C348.6903,508.6431 344.2123,513.1211 338.6893,513.1211" id="Fill-43" fill="#B6D4FF"></path>
                    <path d="M160.6991,513.1211 L87.4191,513.1211 C81.8951,513.1211 77.4181,508.6431 77.4181,503.1211 L170.7001,503.1211 C170.7001,508.6431 166.2221,513.1211 160.6991,513.1211" id="Fill-44" fill="#B6D4FF"></path>
                </g>
            </g>
            <g id="Background-Object-/-Closet-/-3" transform="translate(472.500000, 660.000000) scale(-1, 1) translate(-472.500000, -660.000000) translate(0.000000, 35.000000)">
                <g id="Group-55" transform="translate(224.000000, 230.000000)">
                    <path d="M377.0155,71.7797 L375.2415,71.7797 C350.7305,71.7797 330.8595,51.9097 330.8595,27.3987 L330.8595,0.9997 L421.3975,0.9997 L421.3975,27.3987 C421.3975,51.9097 401.5275,71.7797 377.0155,71.7797" id="Fill-1" fill="#DCEEFF"></path>
                    <polygon id="Fill-4" fill="#B6D4FF" points="49.3534 789.4257 28.8674 789.4257 28.8674 739.8317 59.9214 739.8317"></polygon>
                    <polygon id="Fill-6" fill="#ECF6FF" points="8.38 739.832 364.199 739.832 364.199 84.814 8.38 84.814"></polygon>
                    <polygon id="Fill-8" fill="#ECF6FF" points="28.8671 789.4257 8.3801 789.4257 8.3801 739.8317 38.4741 739.8317"></polygon>
                    <polygon id="Fill-9" fill="#CCE3FF" points="380.6698 789.4257 364.1988 789.4257 364.1988 739.8317 388.3938 739.8317"></polygon>
                    <polygon id="Fill-10" fill="#ECF6FF" points="343.7128 789.4257 364.1988 789.4257 364.1988 739.8317 334.1058 739.8317"></polygon>
                    <polygon id="Fill-11" fill="#B6D4FF" points="174.0702 789.4257 153.5832 789.4257 153.5832 739.8317 181.7562 739.8317"></polygon>
                    <polygon id="Fill-12" fill="#B6D4FF" points="470.0477 789.4257 451.1787 789.4257 444.0997 739.8317 470.0477 739.8317"></polygon>
                    <polygon id="Fill-13" fill="#CCE3FF" points="488.9159 789.4257 470.0479 789.4257 463.8539 739.8317 488.9159 739.8317"></polygon>
                    <polygon id="Fill-14" fill="#C5E0FC" points="153.5829 789.4257 133.0969 789.4257 125.4109 739.8317 153.5829 739.8317"></polygon>
                    <polygon id="Fill-15" fill="#B6D4FF" points="23.427 461.154 349.152 461.154 349.152 345.393 23.427 345.393"></polygon>
                    <polygon id="Fill-16" fill="#CCE3FF" points="23.427 461.154 124.194 461.154 124.194 345.393 23.427 345.393"></polygon>
                    <polygon id="Fill-17" fill="#B6D4FF" points="23.427 588.059 349.152 588.059 349.152 472.297 23.427 472.297"></polygon>
                    <polygon id="Fill-18" fill="#CCE3FF" points="23.427 588.059 124.194 588.059 124.194 472.297 23.427 472.297"></polygon>
                    <polygon id="Fill-19" fill="#B6D4FF" points="23.427 714.965 349.152 714.965 349.152 599.203 23.427 599.203"></polygon>
                    <polygon id="Fill-20" fill="#CCE3FF" points="23.427 714.965 124.194 714.965 124.194 599.203 23.427 599.203"></polygon>
                    <polygon id="Fill-21" fill="#B6D4FF" points="23.427 211.894 349.152 211.894 349.152 96.133 23.427 96.133"></polygon>
                    <polygon id="Fill-22" fill="#CCE3FF" points="23.427 211.894 124.194 211.894 124.194 96.133 23.427 96.133"></polygon>
                    <polygon id="Fill-23" fill="#B6D4FF" points="23.427 334.249 349.152 334.249 349.152 223.83 23.427 223.83"></polygon>
                    <polygon id="Fill-24" fill="#CCE3FF" points="23.427 334.249 124.194 334.249 124.194 223.83 23.427 223.83"></polygon>
                    <polygon id="Fill-25" fill="#CCE3FF" points="364.199 739.832 488.916 739.832 488.916 84.814 364.199 84.814"></polygon>
                    <polygon id="Fill-26" fill="#E6F4FF" points="0 84.814 352.426 84.814 352.426 63.564 0 63.564"></polygon>
                    <polygon id="Fill-27" fill="#CCE3FF" points="352.426 84.814 497.083 84.814 497.083 63.564 352.426 63.564"></polygon>
                    <path d="M304.7372,557.4355 L304.7372,557.4365 C304.7372,563.0735 300.1672,567.6435 294.5292,567.6435 L212.5192,567.6435 L212.5192,547.2285 L294.5292,547.2285 C300.1672,547.2285 304.7372,551.7985 304.7372,557.4355" id="Fill-28" fill="#CCE3FF"></path>
                    <path d="M248.9169,557.4355 L248.9169,557.4365 C248.9169,560.7005 246.2709,563.3455 243.0079,563.3455 L212.6419,563.3455 C212.5739,563.3455 212.5199,563.2905 212.5199,563.2225 L212.5199,551.6495 C212.5199,551.5815 212.5739,551.5265 212.6419,551.5265 L243.0079,551.5265 C246.2709,551.5265 248.9169,554.1715 248.9169,557.4355" id="Fill-29" fill="#DCEEFF"></path>
                    <path d="M316.3212,567.6435 L316.3212,588.0595 L226.7162,588.0595 C221.0792,588.0595 216.5082,583.4895 216.5082,577.8515 C216.5082,572.2135 221.0792,567.6435 226.7162,567.6435 L316.3212,567.6435 Z" id="Fill-30" fill="#CCE3FF"></path>
                    <path d="M316.3212,571.9989 L316.3212,583.7039 L279.6382,583.7039 C276.4062,583.7039 273.7862,581.0839 273.7862,577.8519 C273.7862,574.6189 276.4062,571.9989 279.6382,571.9989 L316.3212,571.9989 Z" id="Fill-31" fill="#DCEEFF"></path>
                    <path d="M315.9403,526.8124 L315.9403,547.2284 L232.2153,547.2284 C226.5783,547.2284 222.0073,542.6584 222.0073,537.0204 C222.0073,531.3824 226.5783,526.8124 232.2153,526.8124 L315.9403,526.8124 Z" id="Fill-32" fill="#CCE3FF"></path>
                    <path d="M315.9403,531.1679 L315.9403,542.8729 L285.1373,542.8729 C281.9053,542.8729 279.2843,540.2529 279.2843,537.0209 C279.2843,533.7879 281.9053,531.1679 285.1373,531.1679 L315.9403,531.1679 Z" id="Fill-33" fill="#DCEEFF"></path>
                    <polygon id="Fill-34" fill="#DCEEFF" points="100.833 461.38 156.971 461.38 156.971 382.895 100.833 382.895"></polygon>
                    <polygon id="Fill-35" fill="#DCEEFF" points="100.833 380.123 156.971 380.123 156.971 375.273 100.833 375.273"></polygon>
                    <path d="M159.0936,393.703 L98.7096,393.703 C95.3696,393.703 92.6626,390.995 92.6626,387.655 L92.6626,386.17 C92.6626,382.83 95.3696,380.123 98.7096,380.123 L159.0936,380.123 C162.4336,380.123 165.1406,382.83 165.1406,386.17 L165.1406,387.655 C165.1406,390.995 162.4336,393.703 159.0936,393.703" id="Fill-36" fill="#E6F4FF"></path>
                    <polygon id="Fill-37" fill="#ECF6FF" points="56.368 714.965 143.08 714.965 143.08 654.16 56.368 654.16"></polygon>
                    <polygon id="Fill-38" fill="#CCE3FF" points="143.08 714.965 207.004 714.965 207.004 654.16 143.08 654.16"></polygon>
                    <path d="M126.0565,684.5624 L74.1915,684.5624 C74.1915,679.2394 78.5055,674.9244 83.8285,674.9244 L116.4185,674.9244 C121.7415,674.9244 126.0565,679.2394 126.0565,684.5624" id="Fill-39" fill="#CCE3FF"></path>
                    <polygon id="Fill-40" fill="#ECF6FF" points="179.676 714.965 266.388 714.965 266.388 654.16 179.676 654.16"></polygon>
                    <polygon id="Fill-41" fill="#CCE3FF" points="266.387 714.965 330.311 714.965 330.311 654.16 266.387 654.16"></polygon>
                    <path d="M249.3641,684.5624 L197.4991,684.5624 C197.4991,679.2394 201.8131,674.9244 207.1361,674.9244 L239.7261,674.9244 C245.0491,674.9244 249.3641,679.2394 249.3641,684.5624" id="Fill-42" fill="#CCE3FF"></path>
                    <polygon id="Fill-43" fill="#ECF6FF" points="79.788 211.894 166.5 211.894 166.5 151.09 79.788 151.09"></polygon>
                    <polygon id="Fill-44" fill="#CCE3FF" points="166.5 211.894 230.424 211.894 230.424 151.09 166.5 151.09"></polygon>
                    <path d="M149.4764,181.4926 L97.6114,181.4926 L97.6114,181.4926 C97.6114,176.1696 101.9254,171.8546 107.2484,171.8546 L139.8384,171.8546 C145.1614,171.8546 149.4764,176.1696 149.4764,181.4926 Z" id="Fill-45" fill="#CCE3FF"></path>
                    <path d="M263.7274,319.0067 L271.7114,241.1977 L296.6794,241.1977 L304.6644,319.0067 C305.5004,327.1597 299.1024,334.2487 290.9054,334.2487 L277.4854,334.2487 C269.2894,334.2487 262.8904,327.1597 263.7274,319.0067" id="Fill-46" fill="#CCE3FF"></path>
                    <polygon id="Fill-47" fill="#DCEEFF" points="70.058 588.059 90.182 588.059 90.182 511.185 70.058 511.185"></polygon>
                    <polygon id="Fill-48" fill="#ECF6FF" points="49.933 588.059 70.057 588.059 70.057 511.185 49.933 511.185"></polygon>
                    <polygon id="Fill-49" fill="#ECF6FF" points="90.182 588.059 110.306 588.059 110.306 511.185 90.182 511.185"></polygon>
                    <path d="M163.326,588.0595 L110.306,588.0595 L110.306,511.1855 L163.326,511.1855 C166.158,511.1855 168.454,513.4815 168.454,516.3135 L168.454,582.9305 C168.454,585.7635 166.158,588.0595 163.326,588.0595" id="Fill-50" fill="#DCEEFF"></path>
                    <polygon id="Fill-51" fill="#CCE3FF" points="118.923 529.996 159.838 529.996 159.838 522.385 118.923 522.385"></polygon>
                    <polygon id="Fill-52" fill="#CCE3FF" points="128.039 541.739 150.721 541.739 150.721 534.128 128.039 534.128"></polygon>
                    <path d="M229.2128,467.4726 L229.2128,467.4726 C204.7008,467.4726 184.8308,447.6016 184.8308,423.0906 L184.8308,410.3496 L273.5948,410.3496 L273.5948,423.0906 C273.5948,447.6016 253.7248,467.4726 229.2128,467.4726" id="Fill-53" fill="#ECF6FF"></path>
                    <path d="M275.6552,298.8651 C275.6552,313.8161 267.7572,326.9341 255.9092,334.2491 L212.4162,334.2491 C200.5682,326.9341 192.6702,313.8161 192.6702,298.8651 C192.6702,291.9081 194.3822,285.3571 197.3992,279.6041 L270.9262,279.6041 C273.9432,285.3571 275.6552,291.9081 275.6552,298.8651" id="Fill-54" fill="#DCEEFF"></path>
                </g>
            </g>
            <g id="Person-/-Man-/-8" transform="translate(1082.500000, 894.500000) scale(-1, 1) translate(-1082.500000, -894.500000) translate(743.000000, 380.000000)">
                <g id="Man-/-Legs-/-8" transform="translate(53.000000, 249.000000)">
                    <g id="Group-33" transform="translate(0.000000, 0.995810)">
                        <path d="M289.817838,355.881482 C276.549858,355.881482 265.79393,371.413491 265.79393,390.572723 C265.79393,409.732911 276.549858,425.264919 289.817838,425.264919 C303.085818,425.264919 313.841745,409.732911 313.841745,390.572723 C313.841745,371.413491 303.085818,355.881482 289.817838,355.881482" id="Fill-1" fill="#202128"></path>
                        <path d="M289.969752,392.383852 L289.969752,8.55629392" id="Stroke-3" stroke="#202128" stroke-width="20"></path>
                        <polygon id="Fill-5" fill="#3D3E44" points="119.546258 197.69143 309.913974 197.69143 309.913974 0.432343741 119.546258 0.432343741"></polygon>
                        <polyline id="Stroke-7" stroke="#202128" stroke-width="20" stroke-linejoin="round" points="118.26056 392.383852 118.26056 8.55629392 48.0776788 29.7283157"></polyline>
                        <path d="M206.643821,284.168674 L372.99147,496.977919" id="Stroke-8" stroke="#202128" stroke-width="7"></path>
                        <path d="M372.991374,284.168674 L206.643725,496.977919" id="Stroke-9" stroke="#202128" stroke-width="7"></path>
                        <path d="M189.950288,390.573105 L389.685387,390.573105" id="Stroke-10" stroke="#202128" stroke-width="7"></path>
                        <path d="M289.817838,235.522794 L289.817838,545.623226" id="Stroke-11" stroke="#202128" stroke-width="7"></path>
                        <path d="M289.969752,221.607704 C224.656374,221.607704 171.709288,298.065996 171.709288,392.384329 C171.709288,486.700752 224.656374,563.159044 289.969752,563.159044 C355.283129,563.159044 408.230215,486.700752 408.230215,392.384329 C408.230215,298.065996 355.283129,221.607704 289.969752,221.607704 M289.969752,248.355735 C312.447632,248.355735 334.282136,262.008694 351.450712,286.801253 C360.679818,300.12846 367.971109,315.803761 373.12293,333.392502 C378.577235,352.014863 381.342798,371.861902 381.342798,392.384329 C381.342798,412.904845 378.577235,432.751884 373.12293,451.374246 C367.971109,468.962987 360.679818,484.639243 351.450712,497.965495 C334.282136,522.758053 312.447632,536.411013 289.969752,536.411013 C267.490911,536.411013 245.657368,522.758053 228.488791,497.965495 C219.259685,484.639243 211.968394,468.962987 206.816573,451.374246 C201.362268,432.751884 198.596705,412.904845 198.596705,392.384329 C198.596705,371.861902 201.362268,352.014863 206.816573,333.392502 C211.968394,315.803761 219.259685,300.12846 228.488791,286.801253 C245.657368,262.008694 267.490911,248.355735 289.969752,248.355735" id="Fill-12" fill="#868B9B"></path>
                        <path d="M118.108166,235.522794 L118.108166,545.623226" id="Stroke-13" stroke="#202128" stroke-width="7"></path>
                        <path d="M442.481232,473.367719 L442.481232,190.208286" id="Stroke-14" stroke="#202128" stroke-width="20"></path>
                        <path d="M446.943487,462.443536 C427.683454,462.443536 412.071467,484.98926 412.071467,512.801481 C412.071467,540.612746 427.683454,563.159426 446.943487,563.159426 C466.20352,563.159426 481.815507,540.612746 481.815507,512.801481 C481.815507,484.98926 466.20352,462.443536 446.943487,462.443536 M446.943487,484.415133 C450.65395,484.415133 459.729414,494.361579 459.729414,512.801481 C459.729414,531.240427 450.65395,541.187829 446.943487,541.187829 C443.233023,541.187829 434.15756,531.240427 434.15756,512.801481 C434.15756,494.361579 443.233023,484.415133 446.943487,484.415133" id="Fill-15" fill="#202128"></path>
                        <polygon id="Fill-16" fill="#202128" points="164.643179 297.689899 442.481424 297.689899 442.481424 254.782236 164.643179 254.782236"></polygon>
                        <polygon id="Fill-17" fill="#3D3E44" points="122.391523 297.689899 273.010993 297.689899 273.010993 254.782236 122.391523 254.782236"></polygon>
                        <g id="Shoes" transform="translate(325.529801, 429.196784)">
                            <mask id="mask-2" fill="white">
                                <use xlink:href="#path-1"></use>
                            </mask>
                            <use id="Mask" fill="#0D0B6D" xlink:href="#path-1"></use>
                            <g id="Colors-/-Wear-/-Dark-Plum" mask="url(#mask-2)" fill="#0D0B6D" fill-rule="nonzero">
                                <g transform="translate(-4.801325, 6.373483)" id="Color">
                                    <rect x="0" y="0" width="251" height="67"></rect>
                                </g>
                            </g>
                        </g>
                        <g id="Skin-legs" transform="translate(333.211921, 429.451559)">
                            <mask id="mask-4" fill="white">
                                <use xlink:href="#path-3"></use>
                            </mask>
                            <use id="Mask" fill="#CF3E83" xlink:href="#path-3"></use>
                            <g id="Colors-/-Skin-/-Pink" mask="url(#mask-4)" fill="#CF3E83" fill-rule="nonzero">
                                <g transform="translate(-5.761589, 20.448010)" id="Color">
                                    <rect x="0" y="0" width="173" height="24"></rect>
                                </g>
                            </g>
                        </g>
                        <polygon id="Fill-24" fill="#202128" points="316.739536 524.5581 579.178974 524.5581 579.178974 501.043715 316.739536 501.043715"></polygon>
                        <polygon id="Fill-25" fill="#3D3E44" points="306.367715 524.559056 394.21947 524.559056 394.21947 501.044671 306.367715 501.044671"></polygon>
                        <path d="M118.26056,221.607704 C52.9471821,221.607704 9.60264897e-05,298.065996 9.60264897e-05,392.384329 C9.60264897e-05,486.700752 52.9471821,563.159044 118.26056,563.159044 C183.573937,563.159044 236.521023,486.700752 236.521023,392.384329 C236.521023,298.065996 183.573937,221.607704 118.26056,221.607704 M118.26056,248.355735 C140.73844,248.355735 162.572944,262.008694 179.74152,286.801253 C188.969666,300.12846 196.261917,315.803761 201.413738,333.392502 C206.868043,352.014863 209.633606,371.861902 209.633606,392.384329 C209.633606,412.904845 206.868043,432.751884 201.413738,451.374246 C196.261917,468.962987 188.969666,484.639243 179.74152,497.965495 C162.572944,522.758053 140.73844,536.411013 118.26056,536.411013 C95.7817185,536.411013 73.9481755,522.758053 56.7795993,497.965495 C47.5504934,484.639243 40.259202,468.962987 35.1073808,451.374246 C29.6530762,432.751884 26.8875132,412.904845 26.8875132,392.384329 C26.8875132,371.861902 29.6530762,352.014863 35.1073808,333.392502 C40.259202,315.803761 47.5504934,300.12846 56.7795993,286.801253 C73.9481755,262.008694 95.7817185,248.355735 118.26056,248.355735" id="Fill-26" fill="#BFC4D6"></path>
                        <path d="M263.08656,473.367719 L262.806162,257.871252" id="Stroke-27" stroke="#3D3E44" stroke-width="20"></path>
                        <path d="M275.234295,462.443536 C255.974262,462.443536 240.362275,484.98926 240.362275,512.801481 C240.362275,540.612746 255.974262,563.159426 275.234295,563.159426 C294.493368,563.159426 310.106315,540.612746 310.106315,512.801481 C310.106315,484.98926 294.493368,462.443536 275.234295,462.443536 M275.234295,484.415133 C278.944758,484.415133 288.020222,494.361579 288.020222,512.801481 C288.020222,531.240427 278.944758,541.187829 275.234295,541.187829 C271.523831,541.187829 262.448368,531.240427 262.448368,512.801481 C262.448368,494.361579 271.523831,484.415133 275.234295,484.415133" id="Fill-28" fill="#3D3E44"></path>
                        <path d="M117.219152,354.743354 C103.951172,354.743354 93.195245,370.276317 93.195245,389.434595 C93.195245,408.594782 103.951172,424.127746 117.219152,424.127746 C130.487132,424.127746 141.24306,408.594782 141.24306,389.434595 C141.24306,370.276317 130.487132,354.743354 117.219152,354.743354" id="Fill-29" fill="#202128"></path>
                        <path d="M45.5040728,297.69009 L188.93404,481.180627" id="Stroke-30" stroke="#202128" stroke-width="7"></path>
                        <path d="M187.879765,301.314448 L42.8644007,486.832104" id="Stroke-31" stroke="#202128" stroke-width="7"></path>
                        <path d="M21.9325464,390.573105 L209.061288,390.573105" id="Stroke-32" stroke="#202128" stroke-width="7"></path>
                        <g id="Pants" transform="translate(216.508526, 180.241620)">
                            <mask id="mask-6" fill="white">
                                <use xlink:href="#path-5"></use>
                            </mask>
                            <use id="Mask" fill="#18181C" xlink:href="#path-5"></use>
                            <g id="Colors-/-Wear-/-Blue" mask="url(#mask-6)" fill="#2437A8" fill-rule="nonzero">
                                <g transform="translate(0.491474, -24.895251)" id="Color">
                                    <rect x="0" y="0" width="327" height="309"></rect>
                                </g>
                            </g>
                        </g>
                        <g id="Overlay" transform="translate(216.508526, 181.167547)" fill="#FFFFFF" fill-opacity="0.1">
                            <path d="M-4.26325641e-13,5.68434189e-14 L149.979934,5.68434189e-14 C175.012119,5.68434189e-14 194.583278,21.2417578 192.127881,45.7477306 L168.265298,274.964027 L112.760066,274.964027 L122.154338,76.7038 L53.9832119,76.7038 C24.1689073,76.7038 -4.26325641e-13,52.9286216 -4.26325641e-13,23.6013162 L-4.26325641e-13,5.68434189e-14 Z" id="Mask"></path>
                        </g>
                    </g>
                </g>
                <g id="Man-/-Head-/-8" transform="translate(245.000000, 69.000000)">
                    <g id="Head" transform="translate(36.000000, 31.000000)">
                        <path d="M120.06645,46.2797505 C120.06645,46.2797505 145.429763,79.4265527 110.993669,88.225289 L120.06645,46.2797505 Z" id="Fill-1" fill="#19141E"></path>
                        <g id="Face-color" transform="translate(0.674556, 42.195214)">
                            <mask id="mask-8" fill="white">
                                <use xlink:href="#path-7"></use>
                            </mask>
                            <use id="Mask" fill="#5E93D1" xlink:href="#path-7"></use>
                            <g id="Colors-/-Skin-/-Rose" mask="url(#mask-8)" fill="#E576C6" fill-rule="nonzero">
                                <g transform="translate(-5.000000, 12.101489)" id="Color">
                                    <rect x="0" y="0" width="129" height="111"></rect>
                                </g>
                            </g>
                        </g>
                        <path d="M13.9415385,80.0226593 C13.9415385,80.0226593 -9.41053254,70.494033 17.7962722,42.2633077 C45.0039645,14.0325824 69.2498225,28.682011 69.2498225,28.682011 C69.2498225,28.682011 76.0876923,-0.0818901099 95.0160947,0.00089010989 C121.981479,0.117494505 126.143314,41.901033 126.143314,41.901033 C126.143314,41.901033 139.733846,19.1774176 147.461953,22.4254286 C155.190059,25.6743297 155.403077,101.148527 48.1131361,64.3674066 C48.1131361,64.3674066 57.3385799,85.1817363 32.7572189,89.4088681 C32.7572189,89.4088681 28.4702367,80.5246813 13.9415385,80.0226593" id="Fill-6" fill="#19141E"></path>
                        <polyline id="Stroke-8" stroke="#19141E" stroke-width="9" points="24.1997633 19.9641857 27.5787574 38.8167132 20.5376331 42.1955703 7.52579882 28.9017791"></polyline>
                        <polygon id="Fill-10" fill="#000000" opacity="0.400000006" points="71.965355 130.998452 48.0869527 125.863408 71.850858 141.963715"></polygon>
                        <polygon id="Fill-12" fill="#125475" points="92.1169231 87.0214154 100.367811 107.253613 90.4793491 107.380009"></polygon>
                        <path d="M82.2539349,88.986778 C82.7456509,91.7114044 80.941213,94.3194264 78.2252367,94.8116571 C75.5083728,95.304778 72.9077811,93.4960747 72.4169527,90.7714484 C71.9252367,88.046822 73.728787,85.4388 76.4456509,84.9465692 C79.1625148,84.4534484 81.7622189,86.2621516 82.2539349,88.986778" id="Fill-14" fill="#0D0B6D"></path>
                        <path d="M108.205976,88.986778 C108.697692,91.7114044 106.893254,94.3194264 104.176391,94.8116571 C101.460414,95.304778 98.8598225,93.4960747 98.3689941,90.7714484 C97.8772781,88.046822 99.6808284,85.4388 102.397692,84.9465692 C105.114556,84.4534484 107.71426,86.2621516 108.205976,88.986778" id="Fill-16" fill="#0D0B6D"></path>
                        <g id="Group-21" transform="translate(79.106509, 109.840451)">
                            <path d="M0.229881657,0.733717582 C0.229881657,0.733717582 3.40473373,6.51943187 10.266568,6.38235495" id="Fill-18" fill="#FFFFFF"></path>
                            <path d="M0.229881657,0.733717582 C0.229881657,0.733717582 3.40473373,6.51943187 10.266568,6.38235495" id="Stroke-20" stroke="#252535" stroke-width="4"></path>
                        </g>
                    </g>
                </g>
                <g id="Man-/-Body-/-5" transform="translate(186.000000, 212.000000)">
                    <g id="Group-36" transform="translate(17.000000, 20.876833)">
                        <g id="Skin-color" transform="translate(0.000000, 20.766168)">
                            <mask id="mask-10" fill="white">
                                <use xlink:href="#path-9"></use>
                            </mask>
                            <use id="Mask" fill="#E576C6" xlink:href="#path-9"></use>
                            <g id="Colors-/-Skin-/-Rose" mask="url(#mask-10)" fill="#E576C6" fill-rule="nonzero">
                                <g transform="translate(0.000000, 0.110665)" id="Color">
                                    <rect x="0" y="0" width="321" height="288"></rect>
                                </g>
                            </g>
                        </g>
                        <g id="T-Shirt" transform="translate(17.000000, 20.876833)">
                            <mask id="mask-12" fill="white">
                                <use xlink:href="#path-11"></use>
                            </mask>
                            <use id="Mask" fill="#5E93D1" xlink:href="#path-11"></use>
                            <g id="Colors-/-Wear-/-Lignt-Blue" mask="url(#mask-12)" fill="#5E93D1" fill-rule="nonzero">
                                <rect id="Color" x="0" y="0" width="206" height="177"></rect>
                            </g>
                        </g>
                        <polyline id="Stroke-16" stroke="#000000" stroke-width="5" opacity="0.200520833" points="59.3058 116.895054 69.9728 124.113467 95.6138 94.3411152"></polyline>
                        <g id="Group-22" transform="translate(270.000000, 0.760513)">
                            <mask id="mask-14" fill="white">
                                <use xlink:href="#path-13"></use>
                            </mask>
                            <g id="Clip-21"></g>
                            <path d="M32.8337402,63.5072983 L30.9762,72.5965021 L0.8872,72.5965021 L15.0802,0.233422874 L45.1692,0.233422874 C44.3892632,4.20993452 42.5522842,13.5757805 39.6582632,28.3309609 L33.7416992,25.5964397 L31.8989258,25.0871174 L30.4483,25.1683144 L29.8194916,25.5964397 L29.8194916,27.3546217 L36.2513428,36.5790091 L31.3311941,38.7166661 L23.7609863,42.6768194 L21.5737305,44.1870778 L20.7262883,44.9696921 L20.0343,45.5878712 L19.5932617,46.1186751 L19.3284,46.5934126 L19.2145833,47.2098935 L19.3284,47.4826981 L19.4599915,47.6924895 L19.6513977,47.881954 L22.1326904,48.7561442 L27.7929688,47.2098935 L33.387207,47.2098935 L25.920166,48.7561442 L21,51.6917527 L19.3284,53.2632916 L18.3836,54.4180997 L18.3836,55.4746161 L20.0343,56.2153577 L30.4483,55.0232789 L27,56.8939878 L24.7148437,58.3070214 L22.6201172,59.3846481 L21,61.4690305 L21,62.4976301 L21.5737305,63.1017321 L23.0282,63.8730589 L25.2460937,63.8730589 L29.7142474,63.8730589 L32.8337402,63.5072983 Z" id="Fill-20" fill="#5E93D1" mask="url(#mask-14)"></path>
                        </g>
                        <g id="Group-25" transform="translate(265.000000, 0.760513)">
                            <mask id="mask-16" fill="white">
                                <use xlink:href="#path-15"></use>
                            </mask>
                            <g id="Clip-24"></g>
                            <polygon id="Fill-23" fill="#020101" mask="url(#mask-16)" points="5.8834 72.5965021 0.9044 72.5965021 15.0974 0.233422874 20.0754 0.233422874"></polygon>
                        </g>
                        <path d="M290.2574,9.39596657 C289.8414,11.5094974 288.6084,13.0494123 287.5034,12.833685 C286.3994,12.6189519 285.8404,10.7310897 286.2564,8.61755894 C286.6724,6.50303402 287.9054,4.9641132 289.0104,5.17884633 C290.1154,5.39457361 290.6734,7.28243578 290.2574,9.39596657" id="Fill-34" fill="#020101"></path>
                    </g>
                </g>
            </g>
        </g>
    </g>
</svg>