<?xml version="1.0" encoding="UTF-8"?>
<svg width="1902px" height="1477px" viewBox="0 0 1902 1477" version="1.1" xmlns="http://www.w3.org/2000/svg" xmlns:xlink="http://www.w3.org/1999/xlink">
    <!-- Generator: Sketch 53.2 (72643) - https://sketchapp.com -->
    <title>Illustration 4</title>
    <desc>Created with Sketch.</desc>
    <defs>
        <path d="M51.9466148,198.998687 C51.9915724,198.998288 52.0365667,198.998089 52.0815974,198.998089 C62.6485325,198.998089 71.2135519,209.977966 71.2135519,223.522238 C71.2135519,237.066086 62.6490693,248.044703 52.0825909,248.045391 L41.5613571,248.045989 L41.5613571,248.036454 C31.236564,247.682221 22.951987,236.842927 22.951987,223.522238 C22.951987,210.20155 31.236564,199.361291 41.5613571,199.007027 L41.5613571,198.998687 L41.9479529,198.998687 C41.9929146,198.998288 42.0379131,198.998089 42.0829481,198.998089 C42.127983,198.998089 42.1729815,198.998288 42.2179433,198.998687 L51.9466148,198.998687 Z M141.528599,198.998687 C141.573561,198.998288 141.618559,198.998089 141.663594,198.998089 C152.229536,198.998089 160.795549,209.977966 160.795549,223.522238 C160.795549,237.066298 152.229804,248.045047 141.664091,248.045391 L131.142857,248.045989 L131.142857,248.036419 C120.818494,247.681526 112.533487,236.8425 112.533487,223.522238 C112.533487,210.201977 120.818494,199.361986 131.142857,199.007061 L131.142857,198.998687 L131.530446,198.998687 C131.575408,198.998288 131.620407,198.998089 131.665442,198.998089 C131.710476,198.998089 131.755475,198.998288 131.800437,198.998687 L141.528599,198.998687 Z M53.020163,28.1145022 C45.3095591,28.1145022 39.0017864,21.7891925 39.0017864,14.0571515 C39.0017864,6.32610672 45.3095591,-0.000199253731 53.020163,-0.000199253731 L116.182338,-0.000199253731 C123.891949,-0.000199253731 130.200715,6.32610672 130.200715,14.0571515 C130.200715,21.7891925 123.891949,28.1145022 116.182338,28.1145022 L53.020163,28.1145022 Z M79.3277182,492.744415 L0.0001987013,492.744415 L12.5332831,460.556968 L79.3277182,492.744415 Z M194.060729,492.744415 L114.73321,492.744415 L127.266294,460.556968 L194.060729,492.744415 Z" id="path-1"></path>
        <path d="M343.6259,83.3717522 L343.6259,131.4752 C343.6259,153.3052 325.7649,171.1672 303.9339,171.1672 L117.4209,171.1672 C95.5899,171.1672 77.7289,153.3052 77.7289,131.4752 L77.7289,79.6391228 C56.571115,78.6872865 39.7099,61.2326913 39.7099,39.84 C39.7099,17.837 57.5469,0 79.5499,0 C87.2205082,0 94.3848081,2.16779203 100.463579,5.92415549 C105.612645,3.47107418 111.363975,2.0962 117.4209,2.0962 L303.9339,2.0962 C310.658375,2.0962 317.006181,3.7908316 322.571354,6.77413054 C323.416726,6.46970727 324.278064,6.19156286 325.1547,5.9409 C346.3097,-0.1091 368.3637,12.1369 374.4117,33.2919 C380.4607,54.4479 368.2157,76.5009 347.0607,82.5499 C345.917503,82.8767825 344.77168,83.1502396 343.6259,83.3717522 L343.6259,83.3717522 Z M385.042234,403.963592 C390.464181,410.716065 393.565959,419.380517 393.1983,428.7121 C392.6683,442.1691 385.0613,453.6721 374.1043,459.7801 C369.7783,462.1921 364.5763,458.8771 364.7823,453.9281 C364.7843,453.8931 364.7853,453.8581 364.7873,453.8221 C365.4413,437.2161 356.8293,423.3961 345.5483,422.9511 C339.6693,422.7191 334.2243,426.1631 330.2683,431.8621 C326.7993,436.8611 319.0113,434.5741 318.8153,428.4931 C318.7723,427.1511 318.8003,425.7921 318.9033,424.4211 C319.585275,415.338415 323.580617,407.176232 329.634415,401.085768 C316.238137,391.641254 307.423113,376.073706 307.3639,358.5297 L307.0019,250.6257 C306.9059,221.8857 330.3419,198.2927 359.0809,198.1957 C387.8209,198.0997 411.4149,221.5347 411.5109,250.2747 L411.8729,358.1787 C411.939019,377.768253 401.071038,394.967293 385.042221,403.9636 L385.042234,403.963592 Z M41.5392234,405.099337 C23.306258,398.026419 9.71945301,380.950575 8.1745,360.2404 L0.1455,252.6354 C-1.9935,223.9744 19.7075,198.7754 48.3675,196.6374 C77.0275,194.4984 102.2265,216.1984 104.3655,244.8594 L112.3935,352.4644 C113.736447,370.458885 105.682897,387.088319 92.4091153,397.503039 C101.591392,404.022451 107.749478,414.584819 108.1728,426.4992 C108.2218,427.8732 108.1958,429.2322 108.0998,430.5712 C107.6638,436.6402 99.7938,438.6182 96.5238,433.4872 C92.7948,427.6362 87.4898,423.9802 81.6068,423.9802 C70.3178,423.9802 61.1668,437.4502 61.1668,454.0702 L61.1668,454.1762 C61.1788,459.1292 55.8498,462.2372 51.6208,459.6562 C40.9138,453.1212 33.7668,441.3272 33.7668,427.8602 C33.7668,419.287184 36.6664655,411.391143 41.5392234,405.099337 L41.5392234,405.099337 Z M176.508,212.3007 L176.508,189.3007 L244.847,189.3007 L244.847,212.3007 L176.508,212.3007 Z" id="path-3"></path>
        <path d="M149.2684,106.501726 C154.800292,106.896055 159.166,111.509121 159.166,117.1414 L159.166,121.9364 L16.92,121.9364 L16.92,117.1414 C16.92,111.509148 21.2847517,106.896099 26.8174,106.501731 L26.8174,104.6024 C26.8174,98.1103962 31.5604715,92.6725854 37.7525,91.5830824 L37.7525,13.283 C37.7525,5.977 43.7305,0 51.0355,0 L125.0505,0 C132.3565,0 138.3335,5.977 138.3335,13.283 L138.3335,91.5831175 C144.525431,92.6727025 149.2684,98.1104661 149.2684,104.6024 L149.2684,106.501726 Z M171.8482,50.2469 C171.8482,57.3739 166.0712,63.1519 158.9442,63.1519 C151.8172,63.1519 146.0392,57.3739 146.0392,50.2469 C146.0392,43.1199 151.8172,37.3429 158.9442,37.3429 C166.0712,37.3429 171.8482,43.1199 171.8482,50.2469 Z M2.98427949e-13,50.2469 C2.98427949e-13,43.1199 5.778,37.3429 12.905,37.3429 C20.032,37.3429 25.81,43.1199 25.81,50.2469 C25.81,57.3739 20.032,63.1519 12.905,63.1519 C5.778,63.1519 2.98427949e-13,57.3739 2.98427949e-13,50.2469 Z" id="path-5"></path>
        <path d="M70.5553925,115.84519 L69.6994925,86.4831231 C69.6994925,86.4831231 105.605893,89.3240942 113.287393,85.359075 C113.287393,85.359075 121.567393,42.1113923 111.251593,9.64366154 L35.4787925,0.836382692 L30.0877449,44.1328125 C27.5353449,36.6516779 7.61299254,28.0791231 2.10589254,38.7920077 C-9.82630746,62.0053442 32.8408925,77.6356038 32.8408925,77.6356038 L28.5082925,116.198412" id="path-7"></path>
        <path d="M331.6505,94.7485385 L338.6025,117.165219 C338.6025,117.165219 392.8895,94.8809813 420.8145,103.336404 L326.7135,157.867959 L302.2155,96.3039939 L331.6505,94.7485385 Z M75.7228,28.2431648 L45.2818,56.1656788 C45.2818,56.1656788 49.8038,74.744507 51.7098,92.2677765 C54.4698,117.634046 52.7738,140.532698 52.7738,140.532698 L-0.0002,48.3864106 L65.1478,-9.9475983e-14 L75.7228,28.2431648 Z" id="path-9"></path>
        <path d="M276.7736,101.184559 L305.8746,98.5625906 L311.6026,117.191209 L287.5166,127.240924 L276.7736,101.184559 Z M37.7023,4.26325641e-14 L41.0493,35.3851145 L18.2813,56.1925656 L0.2063,28.3845698 L37.7023,4.26325641e-14 Z" id="path-11"></path>
        <path d="M250.731641,100.369221 L331.9123,463.410168 L309.5523,469.116159 L309.5423,469.116159 L283.5123,475.76817 L283.3823,475.798045 L274.3723,478.098366 C274.3723,478.098366 233.012495,347.598072 196.601557,231.178126 C187.741667,245.607167 177.761813,259.866923 166.531,273.738326 C86.742,372.283689 37.922,414.406454 37.922,414.406454 L30.662,403.462502 L30.642,403.432628 L13.192,377.133284 L0.572,358.113312 C0.572,358.113312 109.832,254.967306 158.992,109.867823 C150.3513,81.617588 144.3613,61.4514385 142.8223,54.9985894 C134.0123,18.2034078 133.8323,1.34434358 133.8323,1.98951966e-13 L228.2923,1.98951966e-13 L266.172,9.95810055e-05 C264.792,23.9792057 260.982,59.6391638 250.732,100.367795 Z" id="path-13"></path>
        <path d="M211.2191,7.46595308 C213.7831,1.63833431 227.2521,2.13162821e-14 227.2521,2.13162821e-14 C227.2521,2.13162821e-14 248.7471,23.921868 250.6711,27.5743196 C252.5941,31.2267713 256.1521,49.3120733 255.9831,52.8849941 C255.8131,56.457915 244.7281,72.5131935 244.7281,72.5131935 C237.8501,70.8848006 242.3421,62.5917273 242.3421,62.5917273 C242.3421,62.5917273 236.1811,67.6290088 233.6201,67.5445073 C209.4991,66.7491994 210.7911,54.9428534 211.3621,53.4645748 C212.6431,50.1441642 219.0811,53.9407654 219.0811,53.9407654 C219.0811,53.9407654 203.8861,24.1375953 211.2191,7.46595308 Z M36.1561,12.27349 L40.5291,20.5745164 C40.5291,20.5745164 42.7601,24.3979592 45.0961,31.0705927 C47.4311,37.7442202 46.4601,41.8271323 51.5131,52.3082965 C57.2481,64.2061029 46.9891,59.3000472 43.3121,54.1066865 C40.4411,50.0535985 40.7671,44.573927 37.0451,42.1184138 C35.7981,44.1076777 32.9481,46.9538859 31.3581,64.1206073 C31.0731,67.1994431 32.4681,77.1865223 32.4681,77.1865223 C32.4991,80.1788683 32.8821,86.4190531 29.4761,87.3714343 C28.6321,87.6080384 27.5331,86.6755399 27.5331,86.6755399 C27.5331,86.6755399 27.8631,90.5795076 24.3811,91.3569211 C23.0121,91.6621205 20.2941,83.2318566 20.2941,83.2318566 C20.2941,83.2318566 19.8801,87.5126015 17.2801,87.9887921 C16.5451,88.1239944 7.8671,63.6961117 7.8671,63.6961117 L8.3891,69.2125663 L9.5401,74.863229 C9.5401,74.863229 9.4481,77.9052818 7.0051,78.4441029 C6.0351,78.6568478 4.1731,73.5837774 2.4281,67.6149915 C-0.2859,58.3277833 -0.2309,51.3499504 0.5671,44.4089006 C1.5321,36.0223786 1.1021,33.2050003 4.8361,22.9206748 C6.3761,18.677707 9.7341,12.2645428 11.5121,9.53067185 L36.1561,12.27349 Z" id="path-15"></path>
        <path d="M95.3860027,19.6790456 L101.1124,9.94134897e-05 L129.7124,1.76965953 L139.6224,17.9442343 L149.5324,2.99244545 L156.6624,3.42986481 L159.060715,22.1703401 C160.344298,22.6948329 161.568472,23.2193257 162.7431,23.7438185 C164.3631,24.469537 165.8831,25.1853141 167.3131,25.9110326 L167.3931,25.9507979 C187.6331,36.1595692 190.5231,46.5890384 196.9031,59.7016777 C205.0831,76.4816806 213.5531,128.028569 213.5531,128.028569 L249.0531,217.003643 L205.5331,241.08159 L194.8331,220.483115 L195.1031,192.985343 L131.5931,192.985343 L124.5531,192.975402 L62.1131,192.975402 L61.1831,159.115167 L49.8531,227.034464 L0.1131,229.369687 C0.1131,229.369687 -0.8669,158.637983 8.6031,117.718396 C14.6331,91.6531733 44.0931,43.217927 71.9931,26.5661674 C76.4531,23.9028801 82.3731,22.0329123 88.9831,20.7415311 C91.0591387,20.3304713 93.2019626,19.9784279 95.3860023,19.679046 Z M132.7777,200.017953 C132.7777,202.270663 130.9417,204.095894 128.6757,204.095894 C126.4097,204.095894 124.5727,202.270663 124.5727,200.017953 C124.5727,197.765243 126.4097,195.939018 128.6757,195.939018 C130.9417,195.939018 132.7777,197.765243 132.7777,200.017953 Z M177.9052,200.245113 C177.9052,202.497823 176.0692,204.323054 173.8022,204.323054 C171.5372,204.323054 169.7002,202.497823 169.7002,200.245113 C169.7002,197.991409 171.5372,196.166177 173.8022,196.166177 C176.0692,196.166177 177.9052,197.991409 177.9052,200.245113 Z" id="path-17"></path>
        <path d="M0.6239,24.6555396 L8.3669,2.84217094e-14 L21.4079,15.4607859 L0.6239,24.6555396 Z M26.7821,15.2200065 L39.2531,1.97812962 L43.4701,24.9585519 L26.7821,15.2200065 Z" id="path-19"></path>
    </defs>
    <g id="Scene" stroke="none" stroke-width="1" fill="none" fill-rule="evenodd">
        <g id="Illustration-4" transform="translate(-300.000000, -63.000000)">
            <g id="Person-/-Robot-/-2" transform="translate(1460.000000, 1112.000000) scale(-1, 1) translate(-1460.000000, -1112.000000) translate(1185.000000, 633.000000)">
                <g id="Robot-/-Legs-/-2" transform="translate(51.000000, 389.000000)">
                    <g id="Group-27" transform="translate(121.207792, 22.914179)">
                        <path d="M119.679183,22.4224209 L137.689469,221.529701" id="Stroke-1" stroke="#19141E" stroke-width="16" stroke-linecap="round"></path>
                        <path d="M137.689866,239.513645 L130.200814,468.400391" id="Stroke-6" stroke="#19141E" stroke-width="16" stroke-linecap="round"></path>
                        <path d="M48.0957487,20.9722522 L47.1022422,219.573428" id="Stroke-8" stroke="#19141E" stroke-width="16" stroke-linecap="round"></path>
                        <path d="M47.1022422,228.069208 L20.3798981,474.836984" id="Stroke-10" stroke="#19141E" stroke-width="16" stroke-linecap="round"></path>
                        <g id="Legs-color">
                            <mask id="mask-2" fill="white">
                                <use xlink:href="#path-1"></use>
                            </mask>
                            <use id="Mask" fill="#6CA1FF" xlink:href="#path-1"></use>
                            <g id="Colors-/-Skin-/-Robot-Light-Blue" mask="url(#mask-2)" fill="#6CA1FF" fill-rule="nonzero">
                                <g transform="translate(0.000000, -0.996269)" id="Color">
                                    <rect x="0" y="0" width="194" height="508"></rect>
                                </g>
                            </g>
                        </g>
                        <path d="M130.875604,247.893555 C120.551241,247.538661 112.266234,236.699635 112.266234,223.379373 C112.266234,210.059112 120.551241,199.219121 130.875604,198.864196 L130.875604,198.855822 L131.263193,198.855822 C131.308155,198.855423 131.353153,198.855224 131.398188,198.855224 C131.443223,198.855224 131.488222,198.855423 131.533183,198.855822 L141.261346,198.855822 C141.306307,198.855423 141.351306,198.855224 141.396341,198.855224 C151.962282,198.855224 160.528295,209.835101 160.528295,223.379373 C160.528295,236.923433 151.962551,247.902182 141.396838,247.902526 L130.875604,247.903124 L130.875604,247.893555 Z M118.851692,223.379373 C118.851692,231.307679 123.134698,237.735604 128.417172,237.735604 C133.70064,237.735604 137.982653,231.307679 137.982653,223.379373 C137.982653,215.450071 133.70064,209.022146 128.417172,209.022146 C123.134698,209.022146 118.851692,215.450071 118.851692,223.379373 Z M41.4600195,247.993216 C31.1352263,247.638983 22.8506494,236.799688 22.8506494,223.479 C22.8506494,210.158312 31.1352263,199.318053 41.4600195,198.963789 L41.4600195,198.955449 L41.8466152,198.955449 C41.8915769,198.95505 41.9365755,198.954851 41.9816104,198.954851 C42.0266453,198.954851 42.0716439,198.95505 42.1166056,198.955449 L51.8452772,198.955449 C51.8902347,198.95505 51.9352291,198.954851 51.9802597,198.954851 C62.5471948,198.954851 71.1122143,209.934728 71.1122143,223.479 C71.1122143,237.022848 62.5477317,248.001465 51.9812532,248.002153 L41.4600195,248.002751 L41.4600195,247.993216 L41.4600195,247.993216 Z M29.4356104,223.479 C29.4356104,231.407306 33.7186169,237.835231 39.0010909,237.835231 C44.2845584,237.835231 48.5665714,231.407306 48.5665714,223.479 C48.5665714,215.549698 44.2845584,209.121772 39.0010909,209.121772 C33.7186169,209.121772 29.4356104,215.549698 29.4356104,223.479 Z" id="Shape" fill="#000000" opacity="0.403041295"></path>
                        <path d="M29.4574675,223.573646 C29.4574675,231.501951 33.740474,237.929877 39.0229481,237.929877 C44.3064156,237.929877 48.5884286,231.501951 48.5884286,223.573646 C48.5884286,215.644343 44.3064156,209.216418 39.0229481,209.216418 C33.740474,209.216418 29.4574675,215.644343 29.4574675,223.573646" id="Fill-26" fill="#000000" opacity="0.602887835"></path>
                        <path d="M118.922727,223.374392 C118.922727,231.302698 123.205734,237.730623 128.488208,237.730623 C133.771675,237.730623 138.053688,231.302698 138.053688,223.374392 C138.053688,215.44509 133.771675,209.017164 128.488208,209.017164 C123.205734,209.017164 118.922727,215.44509 118.922727,223.374392" id="Fill-22" fill="#000000" opacity="0.603864397"></path>
                        <polygon id="Fill-14" fill="#000000" opacity="0.395879836" points="79.3275195 492.961701 6.82121026e-13 492.961701 12.5330844 460.774254"></polygon>
                        <polygon id="Fill-16" fill="#000000" opacity="0.395879836" points="194.060531 492.961701 114.733011 492.961701 127.266095 460.774254"></polygon>
                    </g>
                </g>
                <g id="Robot-/-Body-/-2" transform="translate(46.000000, 202.000000)">
                    <g id="Group-25" transform="translate(3.000000, 0.000000)">
                        <path d="M354.8008,211.4785 L331.5308,40.8695" id="Stroke-1" stroke="#19141E" stroke-width="27" stroke-linecap="round"></path>
                        <polygon id="Fill-9" fill="#19141E" points="138.122 190.4228 283.232 190.4228 305.36 166.6018 115.994 166.6018"></polygon>
                        <path d="M51.8213,205.8071 L76.3523,35.3741" id="Stroke-11" stroke="#19141E" stroke-width="27" stroke-linecap="round"></path>
                        <g id="Body-color" transform="translate(0.000000, 0.999300)">
                            <mask id="mask-4" fill="white">
                                <use xlink:href="#path-3"></use>
                            </mask>
                            <use id="Mask" fill="#6CA1FF" xlink:href="#path-3"></use>
                            <g id="Colors-/-Skin-/-Robot-Light-Blue" mask="url(#mask-4)" fill="#6CA1FF" fill-rule="nonzero">
                                <g transform="translate(-3.000000, 0.000700)" id="Color">
                                    <rect x="0" y="0" width="412" height="462"></rect>
                                </g>
                            </g>
                        </g>
                        <g id="Overlay" transform="translate(13.303755, 1.000000)" fill="#000000" opacity="0.394763765">
                            <path d="M94.8690449,426.4985 C94.9180449,427.8725 94.8920449,429.2315 94.7960449,430.5705 C94.3600449,436.6395 86.4900449,438.6175 83.2200449,433.4865 C79.4910449,427.6355 74.1860449,423.9795 68.3030449,423.9795 C57.0140449,423.9795 47.8630449,437.4495 47.8630449,454.0695 L47.8630449,454.1755 C47.8750449,459.1285 42.5460449,462.2365 38.3170449,459.6555 C27.6100449,453.1205 20.4630449,441.3265 20.4630449,427.8595 C20.4630449,406.9295 37.7460449,390.0345 58.8290449,390.6675 C78.2530449,391.2505 94.1790449,407.0785 94.8690449,426.4985 Z M277.526245,83.72 C277.526245,109.22 258.965245,130.38 234.616245,134.44 C234.265245,134.38 233.925245,134.32 233.576245,134.25 C209.736245,129.79 191.696245,108.86 191.696245,83.72 C191.696245,58.58 209.736245,37.65 233.576245,33.19 C233.925245,33.12 234.265245,33.06 234.616245,33 C258.965245,37.06 277.526245,58.22 277.526245,83.72 Z M196.084845,83.7886 C196.084845,100.2406 209.420845,113.5766 225.872845,113.5766 C242.324845,113.5766 255.660845,100.2406 255.660845,83.7886 C255.660845,67.3366 242.324845,53.9996 225.872845,53.9996 C209.420845,53.9996 196.084845,67.3366 196.084845,83.7886 Z M26.1962449,39.84 C26.1962449,17.837 44.0332449,-4.54747351e-13 66.0362449,-4.54747351e-13 C88.0392449,-4.54747351e-13 105.876245,17.837 105.876245,39.84 C105.876245,61.843 88.0392449,79.68 66.0362449,79.68 C44.0332449,79.68 26.1962449,61.843 26.1962449,39.84 Z M35.8085449,32.4553 C35.8085449,43.1293 44.4615449,51.7823 55.1355449,51.7823 C65.8095449,51.7823 74.4625449,43.1293 74.4625449,32.4553 C74.4625449,21.7813 65.8095449,13.1283 55.1355449,13.1283 C44.4615449,13.1283 35.8085449,21.7813 35.8085449,32.4553 Z M309.196245,6.87904083 C310.041617,6.57461756 310.902955,6.29647315 311.779591,6.04581029 C332.934591,-0.00418971 354.988591,12.2418103 361.036591,33.3968103 C367.085591,54.5528103 354.840591,76.6058103 333.685591,82.6548103 C332.542394,82.9816928 331.396571,83.2551499 330.250791,83.4766625 L330.250791,41.8931103 C330.250791,26.7865855 321.698398,13.581018 309.196245,6.87904083 Z M371.736873,403.768186 C377.15882,410.520659 380.260598,419.185111 379.892939,428.516694 C379.362939,441.973694 371.755939,453.476694 360.798939,459.584694 C356.472939,461.996694 351.270939,458.681694 351.476939,453.732694 C351.478939,453.697694 351.479939,453.662694 351.481939,453.626694 C352.135939,437.020694 343.523939,423.200694 332.242939,422.755694 C326.363939,422.523694 320.918939,425.967694 316.962939,431.666694 C313.493939,436.665694 305.705939,434.378694 305.509939,428.297694 C305.466939,426.955694 305.494939,425.596694 305.597939,424.225694 C306.279914,415.143009 310.275255,406.980826 316.329054,400.890362 C302.932776,391.445848 294.117751,375.8783 294.058539,358.334294 L293.696539,250.430294 C293.600539,221.690294 317.036539,198.097294 345.775539,198.000294 C374.515539,197.904294 398.109539,221.339294 398.205539,250.079294 L398.567539,357.983294 C398.633658,377.572847 387.765676,394.771886 371.73686,403.768194 L371.736873,403.768186 Z M164.405245,124.9751 C164.405245,119.3251 168.986245,114.7441 174.636245,114.7441 C180.287245,114.7441 184.867245,119.3251 184.867245,124.9751 C184.867245,130.6251 180.287245,135.2061 174.636245,135.2061 C168.986245,135.2061 164.405245,130.6251 164.405245,124.9751 Z M134.834845,124.9751 C134.834845,119.3251 139.415845,114.7441 145.064845,114.7441 C150.715845,114.7441 155.296845,119.3251 155.296845,124.9751 C155.296845,130.6251 150.715845,135.2061 145.064845,135.2061 C139.415845,135.2061 134.834845,130.6251 134.834845,124.9751 Z M0.0311449428,260.6279 C-0.405855057,254.9939 3.80714494,250.0739 9.44114494,249.6369 C15.0751449,249.2009 19.9961449,253.4139 20.4321449,259.0469 C20.8691449,264.6809 16.6551449,269.6009 11.0221449,270.0379 C5.38814494,270.4739 0.468144943,266.2609 0.0311449428,260.6279 Z M2.21864494,288.8511 C1.78164494,283.2171 5.99464494,278.2971 11.6276449,277.8601 C17.2616449,277.4241 22.1826449,281.6371 22.6186449,287.2701 C23.0556449,292.9041 18.8426449,297.8241 13.2086449,298.2611 C7.57464494,298.6971 2.65564494,294.4841 2.21864494,288.8511 Z M4.45794494,317.7568 C4.02094494,312.1238 8.23394494,307.2028 13.8679449,306.7658 C19.5019449,306.3298 24.4219449,310.5428 24.8579449,316.1758 C25.2949449,321.8098 21.0819449,326.7308 15.4489449,327.1668 C9.81494494,327.6038 4.89494494,323.3908 4.45794494,317.7568 Z M162.696245,212 L162.696245,189 L231.696245,189 L231.696245,212 L162.696245,212 Z" id="Shape"></path>
                        </g>
                        <path d="M247.6798,135.5061 C272.0288,131.4461 290.5898,110.2861 290.5898,84.7861 C290.5898,59.2861 272.0288,38.1261 247.6798,34.0661 C250.4398,33.6061 253.2788,33.3661 256.1698,33.3661 C284.5688,33.3661 307.5898,56.3861 307.5898,84.7861 C307.5898,113.1861 284.5688,136.2061 256.1698,136.2061 C253.2788,136.2061 250.4398,135.9661 247.6798,135.5061 L247.6798,135.5061 Z" id="Path" fill="#19141E"></path>
                    </g>
                </g>
                <g id="Robot-/-Head-/-2" transform="translate(159.000000, 30.000000)">
                    <g id="Group-31" transform="translate(8.000000, 52.000000)">
                        <path d="M150.6712,51.2464 L120.2062,51.2464" id="Stroke-3" stroke="#19141E" stroke-width="5" stroke-linecap="round"></path>
                        <path d="M57.6756,9.6986 C51.8836,9.6986 47.1436,14.4376 47.1436,20.2306" id="Stroke-8" stroke="#FFFFFF" stroke-width="5" stroke-linecap="round"></path>
                        <path d="M12.5242,51.2464 L49.9952,51.2464" id="Stroke-12" stroke="#19141E" stroke-width="5" stroke-linecap="round"></path>
                        <g id="Face-color" transform="translate(-0.000200, 0.999500)">
                            <mask id="mask-6" fill="white">
                                <use xlink:href="#path-5"></use>
                            </mask>
                            <use id="Mask" fill="#6CA1FF" xlink:href="#path-5"></use>
                            <g id="Colors-/-Skin-/-Robot-Light-Blue" mask="url(#mask-6)" fill="#6CA1FF" fill-rule="nonzero">
                                <g transform="translate(0.000200, 0.000500)" id="Color">
                                    <rect x="0" y="0" width="172" height="122"></rect>
                                </g>
                            </g>
                        </g>
                        <g id="Overlay" transform="translate(-0.000200, 38.342400)" fill="#000000" opacity="0.395926339">
                            <path d="M26.8174,69.1588312 L26.8174,65.8643871 C27.3968064,59.890266 32.7654,54.0415 40.0354,54.0415 L136.0504,54.0415 C143.3204,54.0415 148.463701,59.4409252 149.2684,65.433723 L149.2684,69.1588255 C154.800292,69.5531548 159.166,74.1662206 159.166,79.7985 L159.166,84.5935 L16.92,84.5935 L16.92,79.7985 C16.92,74.1662476 21.2847517,69.5531991 26.8174,69.1588312 L26.8174,69.1588312 Z M171.8482,12.904 C171.8482,20.031 166.0712,25.809 158.9442,25.809 C151.8172,25.809 146.0392,20.031 146.0392,12.904 C146.0392,5.777 151.8172,-1.77635684e-15 158.9442,-1.77635684e-15 C166.0712,-1.77635684e-15 171.8482,5.777 171.8482,12.904 Z M1.30917499e-12,12.904 C1.30917499e-12,5.777 5.778,-1.77635684e-15 12.905,-1.77635684e-15 C20.032,-1.77635684e-15 25.81,5.777 25.81,12.904 C25.81,20.031 20.032,25.809 12.905,25.809 C5.778,25.809 1.30917499e-12,20.031 1.30917499e-12,12.904 Z" id="Shape"></path>
                        </g>
                        <path d="M27.66,107.8182 L148.969,107.8182" id="Stroke-19" stroke="#19141E" stroke-width="5"></path>
                        <path d="M58.4569,72.2918 L138.3329,72.2918" id="Stroke-21" stroke="#19141E" stroke-width="7"></path>
                        <path d="M79.3333,34.3211 C73.7033,38.9551 72.8963,47.2761 77.5303,52.9061 C82.1643,58.5361 90.4853,59.3431 96.1153,54.7091 C101.7453,50.0751 102.5523,41.7541 97.9183,36.1241 C93.2843,30.4941 84.9633,29.6871 79.3333,34.3211" id="Fill-23" fill="#FFFFFF"></path>
                        <path d="M86.3885,39.9735 C83.8025,42.1025 83.4315,45.9245 85.5605,48.5115 C87.6895,51.0975 91.5115,51.4685 94.0975,49.3395 C96.6845,47.2105 97.0555,43.3885 94.9265,40.8015 C92.7975,38.2155 88.9745,37.8445 86.3885,39.9735" id="Fill-25" fill="#19141E"></path>
                        <path d="M114.0638,34.3211 C108.4338,38.9551 107.6268,47.2761 112.2608,52.9061 C116.8948,58.5361 125.2158,59.3431 130.8458,54.7091 C136.4758,50.0751 137.2828,41.7541 132.6488,36.1241 C128.0148,30.4941 119.6938,29.6871 114.0638,34.3211" id="Fill-27" fill="#FFFFFF"></path>
                        <path d="M121.119,39.9735 C118.533,42.1025 118.162,45.9245 120.291,48.5115 C122.42,51.0975 126.242,51.4685 128.828,49.3395 C131.415,47.2105 131.786,43.3885 129.657,40.8015 C127.528,38.2155 123.705,37.8445 121.119,39.9735" id="Fill-29" fill="#19141E"></path>
                    </g>
                </g>
            </g>
            <g id="Person-/-Man-/-3" transform="translate(450.000000, 593.000000)">
                <g id="Man-/-Head-/-3" transform="translate(245.000000, 69.000000)">
                    <g id="Group-21" transform="translate(38.000000, 7.000000)">
                        <g id="Face-color" transform="translate(-0.000343, 69.000000)">
                            <mask id="mask-8" fill="white">
                                <use xlink:href="#path-7"></use>
                            </mask>
                            <use id="Mask" fill="#5E93D1" xlink:href="#path-7"></use>
                            <g id="Colors-/-Skin-/-Violet" mask="url(#mask-8)" fill="#A47EF1" fill-rule="nonzero">
                                <g transform="translate(0.000343, -2.000000)" id="Color">
                                    <rect x="0" y="0" width="116" height="118"></rect>
                                </g>
                            </g>
                        </g>
                        <polygon id="Fill-4" fill="#000000" opacity="0.399344308" points="69.69906 155.482765 45.48726 150.323948 69.58296 166.498794"></polygon>
                        <polygon id="Fill-6" fill="#2437A8" points="89.67132 107.500399 98.03862 127.826264 88.01082 127.953245"></polygon>
                        <path d="M80.13168,113.276593 C80.63028,116.013834 78.80058,118.63393 76.04658,119.128439 C73.29168,119.623843 70.65558,117.805872 70.15698,115.069526 C69.65838,112.332286 71.48808,109.712189 74.24208,109.216786 C76.99698,108.722276 79.63398,110.539353 80.13168,113.276593" id="Fill-8" fill="#0D0B6D"></path>
                        <path d="M106.44696,113.276593 C106.94556,116.013834 105.11586,118.63393 102.36186,119.128439 C99.60696,119.623843 96.97086,117.805872 96.47226,115.069526 C95.97366,112.332286 97.80336,109.712189 100.55736,109.216786 C103.31226,108.722276 105.94926,110.539353 106.44696,113.276593" id="Fill-10" fill="#0D0B6D"></path>
                        <g id="Group-15" transform="translate(79.200000, 133.332490)">
                            <path d="M0.06768,0.376113462 C0.06768,0.376113462 3.57228,6.02318077 10.51398,5.54476731" id="Fill-12" fill="#FFFFFF"></path>
                            <path d="M0.06768,0.376113462 C0.06768,0.376113462 3.57228,6.02318077 10.51398,5.54476731" id="Stroke-14" stroke="#252535" stroke-width="4"></path>
                        </g>
                        <path d="M15.7665321,103.878771 C12.4017275,91.4453476 0.225135523,45.5509758 1.6596,37.7162394 C3.3201,28.6362202 9.6813,17.4896337 42.3666,5.79846058 C70.0596,-4.10693365 85.6809,3.06569135 90.4131,9.16881635 C97.6131,18.4554029 111.2508,78.6442875 111.2508,78.6442875 C111.2508,78.6442875 99.9666,86.6235087 59.9508,85.2472875 C59.9508,85.2472875 65.4903,109.184951 42.7824,107.809624 C42.7824,107.809624 45.2158983,115.87084 34.2268932,118.406451 C28.1974359,109.089751 20.1956614,105.324532 15.7665321,103.878771 Z" id="Combined-Shape" fill="#19141E"></path>
                    </g>
                </g>
                <g id="Man-/-Legs-/-3" transform="translate(53.000000, 249.000000)">
                    <g id="Group-20" transform="translate(56.000000, 180.241620)">
                        <g id="Shoes" transform="translate(0.000000, 359.559925)">
                            <mask id="mask-10" fill="white">
                                <use xlink:href="#path-9"></use>
                            </mask>
                            <use id="Mask" fill="#0D0B6D" xlink:href="#path-9"></use>
                            <g id="Colors-/-Skin-/--Light-Blue" mask="url(#mask-10)" fill="#5E93D1" fill-rule="nonzero">
                                <g transform="translate(-12.000000, 25.818566)" id="Color">
                                    <rect x="0" y="0" width="433" height="132"></rect>
                                </g>
                            </g>
                        </g>
                        <g id="Skin-legs" transform="translate(27.000000, 359.533437)">
                            <mask id="mask-12" fill="white">
                                <use xlink:href="#path-11"></use>
                            </mask>
                            <use id="Mask" fill="#CF3E83" xlink:href="#path-11"></use>
                            <g id="Colors-/-Skin-/-Pink" mask="url(#mask-12)" fill="#CF3E83" fill-rule="nonzero">
                                <g transform="translate(-4.000000, 9.912094)" id="Color">
                                    <rect x="0" y="0" width="345" height="117"></rect>
                                </g>
                            </g>
                        </g>
                        <g id="Pants" transform="translate(27.000000, 0.955579)">
                            <mask id="mask-14" fill="white">
                                <use xlink:href="#path-13"></use>
                            </mask>
                            <use id="Mask" fill="#101016" xlink:href="#path-13"></use>
                            <g id="Colors-/-Wear-/-Black" mask="url(#mask-14)" fill="#19141E" fill-rule="nonzero">
                                <g transform="translate(-9.000000, 0.040231)" id="Color">
                                    <rect x="0" y="0" width="341" height="478"></rect>
                                </g>
                            </g>
                        </g>
                        <g id="Overlay" transform="translate(160.832300, 0.955579)" fill="#FFFFFF" fill-opacity="0.1">
                            <path d="M198.08,463.410168 L175.72,469.116159 L175.71,469.116159 L149.68,475.76817 L149.55,475.798045 L140.54,478.098366 C140.54,478.098366 99.18,347.597458 62.769,231.177304 C48.559,185.728534 35.109,142.430712 25.16,109.867723 C16.519,81.617588 10.529,61.4514385 8.99,54.9985894 C0.18,18.2034078 -4.26325641e-14,1.34434358 -4.26325641e-14,-2.84217094e-14 L94.46,-2.84217094e-14 L116.899,100.367696 L198.08,463.410168 Z" id="Mask"></path>
                        </g>
                    </g>
                </g>
                <g id="Man-/-Body-/-3" transform="translate(186.000000, 212.000000)">
                    <g id="Group-35" transform="translate(20.000000, 30.818182)">
                        <g id="Hands" transform="translate(0.000000, 208.596045)">
                            <mask id="mask-16" fill="white">
                                <use xlink:href="#path-15"></use>
                            </mask>
                            <use id="Mask" fill="#E576C6" xlink:href="#path-15"></use>
                            <g id="Colors-/-Skin-/-Violet" mask="url(#mask-16)" fill="#A47EF1" fill-rule="nonzero">
                                <g transform="translate(-6.000000, 14.090172)" id="Color">
                                    <rect x="0" y="0" width="262" height="78"></rect>
                                </g>
                            </g>
                        </g>
                        <path d="M224.0072,230.134176 C224.0072,230.134176 227.3912,242.494255 239.0082,246.346528 C243.0702,247.693581 242.0552,263.590792 252.0112,261.690006" id="Stroke-3" stroke="#000000" stroke-width="3" opacity="0.147530692"></path>
                        <g id="T-Shirt">
                            <mask id="mask-18" fill="white">
                                <use xlink:href="#path-17"></use>
                            </mask>
                            <use id="Mask" fill="#FCBDA4" xlink:href="#path-17"></use>
                            <g id="Colors-/-Wear-/-Cream" mask="url(#mask-18)" fill="#FCBDA4" fill-rule="nonzero">
                                <g transform="translate(-9.000000, 0.000000)" id="Color">
                                    <rect x="0" y="0" width="258" height="242"></rect>
                                </g>
                            </g>
                        </g>
                        <polyline id="Stroke-9" stroke="#000000" stroke-width="5" opacity="0.197265625" points="61.3978 166.766825 70.5528 119.248171 93.1938 81.1141504"></polyline>
                        <path d="M193.1034,193.180393 L197.4284,123.940885" id="Stroke-11" stroke="#000000" stroke-width="5" opacity="0.195754278"></path>
                        <g id="Shirt-shadow" transform="translate(115.000000, 5.767772)">
                            <mask id="mask-20" fill="white">
                                <use xlink:href="#path-19"></use>
                            </mask>
                            <use id="Mask" fill="#EA847A" xlink:href="#path-19"></use>
                            <g id="Colors-/-Wear-/-Dark-Cream" mask="url(#mask-20)" fill="#EA847A" fill-rule="nonzero">
                                <g transform="translate(-1.000000, 0.197038)" id="Color">
                                    <rect x="0" y="0" width="45" height="25"></rect>
                                </g>
                            </g>
                        </g>
                        <path d="M44.7777,219.077408 C44.7777,221.273452 42.9867,223.053948 40.7777,223.053948 C38.5687,223.053948 36.7777,221.273452 36.7777,219.077408 C36.7777,216.881364 38.5687,215.100868 40.7777,215.100868 C42.9867,215.100868 44.7777,216.881364 44.7777,219.077408" id="Fill-19" fill="#000000" opacity="0.198451451"></path>
                        <path d="M242.0092,213.876591 C242.0092,216.073629 240.2182,217.853131 238.0092,217.853131 C235.8002,217.853131 234.0092,216.073629 234.0092,213.876591 C234.0092,211.680547 235.8002,209.900052 238.0092,209.900052 C240.2182,209.900052 242.0092,211.680547 242.0092,213.876591" id="Fill-21" fill="#000000" opacity="0.199032738"></path>
                        <path d="M0.0888,207.911782 L53.2188,205.567612" id="Stroke-23" stroke="#000000" stroke-width="4" opacity="0.202566964"></path>
                        <path d="M195.1034,221.421976 L240.8424,196.416501" id="Stroke-25" stroke="#000000" stroke-width="4" opacity="0.198683966"></path>
                        <path d="M131.5932,192.985244 L124.5532,192.975303 C124.1432,108.20542 110.1732,51.6490856 88.9832,20.7414317 L88.9832,20.7314903 L96.1232,19.0812264 C96.2332,19.2303466 96.3432,19.3794669 96.4432,19.5385284 C118.0832,49.7602293 132.4032,106.028265 131.5932,192.985244" id="Fill-27" fill="#000000" opacity="0.1976609"></path>
                        <path d="M179.0531,192.985244 L171.8831,192.985244 C181.9431,111.4463 175.5831,55.0291443 159.0431,22.1630446 C159.0131,22.0835138 158.9731,22.0139243 158.9331,21.9343935 L162.7431,23.7437191 L167.3131,25.9109331 L167.3931,25.9506985 C184.6731,57.9916663 190.5031,109.666798 179.0531,192.985244" id="Fill-29" fill="#000000" opacity="0.196777344"></path>
                    </g>
                </g>
            </g>
            <g id="Background-Object-/-Streetlight-/-1" transform="translate(1261.000000, 237.000000)">
                <g id="Group-11" transform="translate(300.000000, 91.000000)">
                    <polygon id="Fill-1" fill="#D7EBFF" points="305.369 803.774 321.369 803.774 321.369 91.911 305.369 91.911"></polygon>
                    <path d="M140.9729,110.028 L14.3529,68.054 C9.0639,66.301 6.1699,60.538 7.9239,55.249 L14.2399,36.195 C15.9939,30.906 21.7559,28.013 27.0449,29.766 L153.6649,71.74 C158.9539,73.493 161.8479,79.256 160.0939,84.545 L153.7779,103.599 C152.0249,108.888 146.2619,111.781 140.9729,110.028" id="Fill-2" fill="#ECF6FF"></path>
                    <polygon id="Fill-4" fill="#CCE3FF" points="282.704 1067.7 344.034 1067.7 344.034 831.773 282.704 831.773"></polygon>
                    <polygon id="Fill-6" fill="#CCE3FF" points="295.703 875.772 331.035 875.772 331.035 795.047 295.703 795.047"></polygon>
                    <polygon id="Fill-7" fill="#CCE3FF" points="298.668 108.928 328.072 108.928 328.072 74.7 298.668 74.7"></polygon>
                    <path d="M98.0461,53.6437 C98.0461,53.6437 313.3691,101.2527 313.3691,216.9697" id="Stroke-8" stroke="#DCEEFF" stroke-width="15" stroke-linejoin="bevel"></path>
                    <path d="M155.1115,97.1554 L16.3025,51.1404 C3.8805,47.0234 -2.9135,33.4894 1.2035,21.0674 L2.4505,17.3054 C6.5685,4.8834 20.1015,-1.9116 32.5245,2.2064 L171.3335,48.2204 C183.7555,52.3384 190.5495,65.8714 186.4315,78.2944 L185.1845,82.0564 C181.0665,94.4784 167.5335,101.2734 155.1115,97.1554" id="Fill-9" fill="#CCE3FF"></path>
                </g>
            </g>
            <g id="Background-Object-/-Streetlight-/-1" transform="translate(472.500000, 864.000000) scale(-1, 1) translate(-472.500000, -864.000000) translate(0.000000, 239.000000)">
                <g id="Group-11" transform="translate(300.000000, 91.000000)">
                    <polygon id="Fill-1" fill="#D7EBFF" points="305.369 803.774 321.369 803.774 321.369 91.911 305.369 91.911"></polygon>
                    <path d="M140.9729,110.028 L14.3529,68.054 C9.0639,66.301 6.1699,60.538 7.9239,55.249 L14.2399,36.195 C15.9939,30.906 21.7559,28.013 27.0449,29.766 L153.6649,71.74 C158.9539,73.493 161.8479,79.256 160.0939,84.545 L153.7779,103.599 C152.0249,108.888 146.2619,111.781 140.9729,110.028" id="Fill-2" fill="#ECF6FF"></path>
                    <polygon id="Fill-4" fill="#CCE3FF" points="282.704 1067.7 344.034 1067.7 344.034 831.773 282.704 831.773"></polygon>
                    <polygon id="Fill-6" fill="#CCE3FF" points="295.703 875.772 331.035 875.772 331.035 795.047 295.703 795.047"></polygon>
                    <polygon id="Fill-7" fill="#CCE3FF" points="298.668 108.928 328.072 108.928 328.072 74.7 298.668 74.7"></polygon>
                    <path d="M98.0461,53.6437 C98.0461,53.6437 313.3691,101.2527 313.3691,216.9697" id="Stroke-8" stroke="#DCEEFF" stroke-width="15" stroke-linejoin="bevel"></path>
                    <path d="M155.1115,97.1554 L16.3025,51.1404 C3.8805,47.0234 -2.9135,33.4894 1.2035,21.0674 L2.4505,17.3054 C6.5685,4.8834 20.1015,-1.9116 32.5245,2.2064 L171.3335,48.2204 C183.7555,52.3384 190.5495,65.8714 186.4315,78.2944 L185.1845,82.0564 C181.0665,94.4784 167.5335,101.2734 155.1115,97.1554" id="Fill-9" fill="#CCE3FF"></path>
                </g>
            </g>
            <g id="Background-Object-/-Cloud-/-3" transform="translate(885.000000, 0.000000)" fill="#ECF6FF">
                <g id="Group-3" transform="translate(205.000000, 62.000000)">
                    <path d="M589.1736,225.8062 L-0.000400000001,225.8062 C-0.000400000001,225.8062 38.2856,78.4792 117.7166,78.4792 C167.6356,78.4792 187.7086,130.5682 234.0676,130.5682 C280.4256,130.5682 339.3276,0.9992 415.1646,0.9992 C533.7886,0.9992 589.1736,225.8062 589.1736,225.8062" id="Fill-1"></path>
                </g>
            </g>
            <g id="Background-Object-/-Cloud-/-4" transform="translate(268.000000, 102.000000)" fill="#ECF6FF">
                <g id="Group-3" transform="translate(324.000000, 124.000000)">
                    <path d="M352.0838,101.7836 L-0.0002,101.7836 C-0.0002,101.7836 33.1688,53.4086 60.4378,52.6516 C92.9818,51.7486 107.6358,87.5346 138.8878,87.5346 C170.1468,87.5346 191.0748,0.0006 248.9318,0.0006 C310.6948,0.0006 352.0838,101.7836 352.0838,101.7836" id="Fill-1"></path>
                </g>
            </g>
            <g id="Background-Object-/-Trach" transform="translate(1621.000000, 882.000000)">
                <g id="Group-18" transform="translate(364.000000, 197.000000)">
                    <path d="M209.2459,51.7515 L190.6429,321.2165 L27.2759,321.2165 L8.6749,51.7515 C8.0879,43.3125 14.7759,36.1465 23.2329,36.1465 L194.6869,36.1465 C203.1439,36.1465 209.8329,43.3125 209.2459,51.7515" id="Fill-1" fill="#DCEEFF"></path>
                    <path d="M108.9607,96.9185 L108.9607,278.6435" id="Stroke-3" stroke="#B6D4FF" stroke-width="16" stroke-linecap="round"></path>
                    <path d="M166.9109,96.9185 L154.2749,278.6435" id="Stroke-5" stroke="#B6D4FF" stroke-width="16" stroke-linecap="round"></path>
                    <path d="M51.0105,96.9185 L63.6465,278.6435" id="Stroke-7" stroke="#B6D4FF" stroke-width="16" stroke-linecap="round"></path>
                    <path d="M216.2273,53.0884 L0.9993,53.0884 L0.9993,41.6614 C0.9993,31.3314 9.3733,22.9574 19.7043,22.9574 L197.5233,22.9574 C207.8533,22.9574 216.2273,31.3314 216.2273,41.6614 L216.2273,53.0884 Z" id="Fill-9" fill="#DCEEFF"></path>
                    <path d="M8.6384,59.71 L209.2824,59.71" id="Stroke-12" stroke="#CCE3FF" stroke-width="14"></path>
                    <polygon id="Fill-14" fill="#DCEEFF" points="69.37 26.915 78.063 26.915 78.063 7.614 69.37 7.614"></polygon>
                    <polygon id="Fill-16" fill="#DCEEFF" points="136.786 25.11 145.479 25.11 145.479 5.809 136.786 5.809"></polygon>
                    <polygon id="Fill-17" fill="#DCEEFF" points="69.37 10.692 145.479 10.692 145.479 0 69.37 0"></polygon>
                </g>
            </g>
        </g>
    </g>
</svg>