<?xml version="1.0" encoding="UTF-8"?>
<svg width="1771px" height="1026px" viewBox="0 0 1771 1026" version="1.1" xmlns="http://www.w3.org/2000/svg" xmlns:xlink="http://www.w3.org/1999/xlink">
    <!-- Generator: Sketch 53.2 (72643) - https://sketchapp.com -->
    <title>Illustration 9</title>
    <desc>Created with Sketch.</desc>
    <defs>
        <path d="M51.9466148,198.998687 C51.9915724,198.998288 52.0365667,198.998089 52.0815974,198.998089 C62.6485325,198.998089 71.2135519,209.977966 71.2135519,223.522238 C71.2135519,237.066086 62.6490693,248.044703 52.0825909,248.045391 L41.5613571,248.045989 L41.5613571,248.036454 C31.236564,247.682221 22.951987,236.842927 22.951987,223.522238 C22.951987,210.20155 31.236564,199.361291 41.5613571,199.007027 L41.5613571,198.998687 L41.9479529,198.998687 C41.9929146,198.998288 42.0379131,198.998089 42.0829481,198.998089 C42.127983,198.998089 42.1729815,198.998288 42.2179433,198.998687 L51.9466148,198.998687 Z M141.528599,198.998687 C141.573561,198.998288 141.618559,198.998089 141.663594,198.998089 C152.229536,198.998089 160.795549,209.977966 160.795549,223.522238 C160.795549,237.066298 152.229804,248.045047 141.664091,248.045391 L131.142857,248.045989 L131.142857,248.036419 C120.818494,247.681526 112.533487,236.8425 112.533487,223.522238 C112.533487,210.201977 120.818494,199.361986 131.142857,199.007061 L131.142857,198.998687 L131.530446,198.998687 C131.575408,198.998288 131.620407,198.998089 131.665442,198.998089 C131.710476,198.998089 131.755475,198.998288 131.800437,198.998687 L141.528599,198.998687 Z M53.020163,28.1145022 C45.3095591,28.1145022 39.0017864,21.7891925 39.0017864,14.0571515 C39.0017864,6.32610672 45.3095591,-0.000199253731 53.020163,-0.000199253731 L116.182338,-0.000199253731 C123.891949,-0.000199253731 130.200715,6.32610672 130.200715,14.0571515 C130.200715,21.7891925 123.891949,28.1145022 116.182338,28.1145022 L53.020163,28.1145022 Z M79.3277182,492.744415 L0.0001987013,492.744415 L12.5332831,460.556968 L79.3277182,492.744415 Z M194.060729,492.744415 L114.73321,492.744415 L127.266294,460.556968 L194.060729,492.744415 Z" id="path-1"></path>
        <path d="M343.6259,83.3717522 L343.6259,131.4752 C343.6259,153.3052 325.7649,171.1672 303.9339,171.1672 L117.4209,171.1672 C95.5899,171.1672 77.7289,153.3052 77.7289,131.4752 L77.7289,79.6391228 C56.571115,78.6872865 39.7099,61.2326913 39.7099,39.84 C39.7099,17.837 57.5469,0 79.5499,0 C87.2205082,0 94.3848081,2.16779203 100.463579,5.92415549 C105.612645,3.47107418 111.363975,2.0962 117.4209,2.0962 L303.9339,2.0962 C310.658375,2.0962 317.006181,3.7908316 322.571354,6.77413054 C323.416726,6.46970727 324.278064,6.19156286 325.1547,5.9409 C346.3097,-0.1091 368.3637,12.1369 374.4117,33.2919 C380.4607,54.4479 368.2157,76.5009 347.0607,82.5499 C345.917503,82.8767825 344.77168,83.1502396 343.6259,83.3717522 L343.6259,83.3717522 Z M385.042234,403.963592 C390.464181,410.716065 393.565959,419.380517 393.1983,428.7121 C392.6683,442.1691 385.0613,453.6721 374.1043,459.7801 C369.7783,462.1921 364.5763,458.8771 364.7823,453.9281 C364.7843,453.8931 364.7853,453.8581 364.7873,453.8221 C365.4413,437.2161 356.8293,423.3961 345.5483,422.9511 C339.6693,422.7191 334.2243,426.1631 330.2683,431.8621 C326.7993,436.8611 319.0113,434.5741 318.8153,428.4931 C318.7723,427.1511 318.8003,425.7921 318.9033,424.4211 C319.585275,415.338415 323.580617,407.176232 329.634415,401.085768 C316.238137,391.641254 307.423113,376.073706 307.3639,358.5297 L307.0019,250.6257 C306.9059,221.8857 330.3419,198.2927 359.0809,198.1957 C387.8209,198.0997 411.4149,221.5347 411.5109,250.2747 L411.8729,358.1787 C411.939019,377.768253 401.071038,394.967293 385.042221,403.9636 L385.042234,403.963592 Z M41.5392234,405.099337 C23.306258,398.026419 9.71945301,380.950575 8.1745,360.2404 L0.1455,252.6354 C-1.9935,223.9744 19.7075,198.7754 48.3675,196.6374 C77.0275,194.4984 102.2265,216.1984 104.3655,244.8594 L112.3935,352.4644 C113.736447,370.458885 105.682897,387.088319 92.4091153,397.503039 C101.591392,404.022451 107.749478,414.584819 108.1728,426.4992 C108.2218,427.8732 108.1958,429.2322 108.0998,430.5712 C107.6638,436.6402 99.7938,438.6182 96.5238,433.4872 C92.7948,427.6362 87.4898,423.9802 81.6068,423.9802 C70.3178,423.9802 61.1668,437.4502 61.1668,454.0702 L61.1668,454.1762 C61.1788,459.1292 55.8498,462.2372 51.6208,459.6562 C40.9138,453.1212 33.7668,441.3272 33.7668,427.8602 C33.7668,419.287184 36.6664655,411.391143 41.5392234,405.099337 L41.5392234,405.099337 Z M176.508,212.3007 L176.508,189.3007 L244.847,189.3007 L244.847,212.3007 L176.508,212.3007 Z" id="path-3"></path>
        <path d="M73.7526,96.4496 L20.875,96.4496 C9.394,96.4496 -3.41060513e-13,87.0556 -3.41060513e-13,75.5746 L-3.41060513e-13,61.5016 C-3.41060513e-13,50.0206 9.394,40.6266 20.875,40.6266 L154.211,40.6266 C165.692,40.6266 175.086,50.0206 175.086,61.5016 L175.086,75.5746 C175.086,87.0556 165.692,96.4496 154.211,96.4496 L104.1116,96.4496 L104.1116,138.326 L73.7526,138.326 L73.7526,96.4496 Z M81.6138,10.538 C81.6138,16.358 76.8958,21.077 71.0758,21.077 C65.2558,21.077 60.5368,16.358 60.5368,10.538 C60.5368,4.718 65.2558,0 71.0758,0 C76.8958,0 81.6138,4.718 81.6138,10.538 Z" id="path-5"></path>
        <path d="M128.641208,89.5534 L128.641208,100.209 C128.641208,108.606 121.878409,115.413 113.535935,115.413 L64.7796039,115.413 C56.4381234,115.413 49.6753247,108.606 49.6753247,100.209 L49.6753247,88 L44.7077922,88 L44.7077922,141.792329 C50.7677264,138.02902 57.2169998,136 63.9063117,136 C63.9727407,136 64.039146,136.0002 64.1055275,136.0006 L115.901556,136.0006 C115.967937,136.0002 116.034342,136 116.100771,136 C122.872197,136 129.397596,138.079023 135.522134,141.931375 L135.522134,89.5534 L128.641208,89.5534 L128.641208,89.5534 Z M128.641208,71.5534 L144.463693,71.5534 C149.401979,71.5534 153.405251,75.5828373 153.405251,80.5534 L153.405251,159.713764 C169.517223,182.619333 180.007083,219.97296 180.007083,262.164 C180.007083,331.843 151.396083,388.329 116.100771,388.329 C115.251999,388.329 114.407091,388.296333 113.566353,388.2316 L66.4407315,388.2316 C65.5999928,388.296333 64.7550845,388.329 63.9063117,388.329 C28.6119935,388.329 9.09494702e-13,331.843 9.09494702e-13,262.164 C9.09494702e-13,219.899669 10.5267013,182.489571 26.6862799,159.594525 L26.6862799,262.164 C26.6862799,266.188865 29.3111433,269.596654 32.9318395,270.747688 C35.0480536,300.783833 48.1097988,323.906 63.9056162,323.906 C81.1787201,323.906 95.1802071,296.263 95.1802071,262.164 C95.1802071,228.065 81.1787201,200.423 63.9056162,200.423 C56.6694063,200.423 50.0069798,205.275337 44.7077921,213.421891 L44.7077922,252.796 L64.0444091,252.796 C68.9826955,252.796 72.9859675,256.825437 72.9859675,261.796 C72.9859675,266.766563 68.9826955,270.796 64.0444091,270.796 L35.7662338,270.796 C30.8279474,270.796 26.8246753,266.766563 26.8246753,261.796 L26.8246753,79 C26.8246753,74.0294373 30.8279474,70 35.7662338,70 L49.6753247,70 L49.6753247,15.204 C49.6753247,6.807 56.4381234,0 64.7796039,0 L113.535935,0 C121.878409,0 128.641208,6.807 128.641208,15.204 L128.641208,71.5534 Z" id="path-7"></path>
        <path d="M63.2864225,124.414983 C62.9836006,124.422447 62.6798586,124.4262 62.3752401,124.4262 C42.3332401,124.4262 26.0862401,108.1782 26.0862401,88.1362 C26.0862401,68.0942 42.3332401,51.8462 62.3752401,51.8462 C66.6561128,51.8462 70.7638923,52.5874802 74.5772167,53.9486787 C92.4590984,21.7727795 126.794705,0 166.21564,0 C203.820064,0 236.7965,19.8110686 255.278377,49.5649887 C258.943845,48.3195218 262.872653,47.644 266.95924,47.644 C287.00124,47.644 303.24924,63.892 303.24924,83.934 C303.24924,102.995881 288.551543,118.624862 269.870921,120.107891 C262.449455,170.699186 218.869255,209.539 166.21564,209.539 C115.068219,209.539 72.4815646,172.886952 63.2864225,124.414983 L63.2864225,124.414983 Z M0.0755400901,224.623 C-1.02545991,209.875 10.0385401,197.028 24.7865401,195.927 L61.8375401,193.163 C76.5855401,192.062 89.4325401,203.126 90.5325401,217.873 L96.8345401,302.329 C97.9345401,317.077 86.8715401,329.924 72.1245401,331.025 L35.0725401,333.79 C20.3245401,334.89 7.47754009,323.826 6.37754009,309.079 L0.0755400901,224.623 Z M241.71514,217.9819 C241.79314,203.1929 253.84614,191.2689 268.63414,191.3479 L305.78814,191.5449 C320.57614,191.6249 332.50114,203.6769 332.42214,218.4649 L331.97114,303.1539 C331.89314,317.9429 319.84014,329.8679 305.05214,329.7889 L267.89814,329.5909 C253.11014,329.5119 241.18514,317.4599 241.26414,302.6709 L241.71514,217.9819 Z" id="path-9"></path>
        <path d="M123.48623,13.5778193 C124.48534,5.91634114 131.037432,0 138.9713,0 C147.5953,0 154.5873,6.992 154.5873,15.617 C154.5873,24.242 147.5953,31.234 138.9713,31.234 C132.663123,31.234 127.228471,27.493833 124.763958,22.1101112 L113.873,13.7774518 L99.0533846,25.1159226 L84.2447538,13.7782053 L69.4317538,25.1162053 L54.6228153,13.7782524 L39.8109384,25.1161581 L31.6350272,18.857399 C30.143362,25.9273567 23.8695507,31.234 16.3556,31.234 C7.7306,31.234 0.7386,24.242 0.7386,15.617 C0.7386,6.992 7.7306,0 16.3556,0 C23.3866976,0 29.3319195,4.64653764 31.2891568,11.0364205 L39.8110616,17.5600419 L54.6231847,6.22194762 L69.4322462,17.5599947 L84.2452462,6.22199475 L99.0546154,17.5602774 L113.873,6.22274823 L123.48623,13.5778193 Z M133.3299,158.5838 L20.9199,158.5838 C11.9699,158.5838 4.7149,151.3288 4.7149,142.3788 L4.7149,68.1228 C4.7149,59.1728 11.9699,51.9168 20.9199,51.9168 L133.3299,51.9168 C142.2799,51.9168 149.5349,59.1728 149.5349,68.1228 L149.5349,142.3788 C149.5349,151.3288 142.2799,158.5838 133.3299,158.5838 Z M122.8524,173.282 L31.3964,173.282 C27.3384,173.282 24.0474,169.992 24.0474,165.933 C24.0474,161.874 27.3384,158.584 31.3964,158.584 L122.8524,158.584 C126.9114,158.584 130.2014,161.874 130.2014,165.933 C130.2014,169.992 126.9114,173.282 122.8524,173.282 Z" id="path-11"></path>
    </defs>
    <g id="Scene" stroke="none" stroke-width="1" fill="none" fill-rule="evenodd">
        <g id="Illustration-9" transform="translate(-346.000000, -88.000000)">
            <g id="Background-Object-/-Bedside-table-/-5" transform="translate(0.000000, 431.000000)">
                <g id="Group-23" transform="translate(346.000000, 176.000000)">
                    <path d="M58.9798,106.5515 L58.9798,106.5515 C58.9798,113.4545 64.5768,119.0515 71.4798,119.0515 L183.9488,119.0515 L183.9488,94.0505 L71.4798,94.0505 C64.5768,94.0505 58.9798,99.6475 58.9798,106.5515" id="Fill-1" fill="#CCE3FF"></path>
                    <path d="M134.6243,106.5515 L134.6243,106.5515 C134.6243,110.5475 137.8643,113.7875 141.8613,113.7875 L183.6473,113.7875 C183.8133,113.7875 183.9483,113.6535 183.9483,113.4875 L183.9483,99.6145 C183.9483,99.4485 183.8133,99.3145 183.6473,99.3145 L141.8613,99.3145 C137.8643,99.3145 134.6243,102.5545 134.6243,106.5515" id="Fill-3" fill="#DCEEFF"></path>
                    <path d="M43.2825,119.0515 L43.2825,144.0525 L166.0415,144.0525 C172.9445,144.0525 178.5415,138.4555 178.5415,131.5525 C178.5415,124.6485 172.9445,119.0515 166.0415,119.0515 L43.2825,119.0515 Z" id="Fill-5" fill="#CCE3FF"></path>
                    <path d="M43.2825,124.3855 L43.2825,138.7195 L93.7565,138.7195 C97.7145,138.7195 100.9235,135.5105 100.9235,131.5525 C100.9235,127.5935 97.7145,124.3855 93.7565,124.3855 L43.2825,124.3855 Z" id="Fill-7" fill="#DCEEFF"></path>
                    <path d="M90.4437,78.8083 L98.4277,0.9993 L123.3957,0.9993 L131.3807,78.8083 C132.2167,86.9623 125.8187,94.0503 117.6227,94.0503 L104.2017,94.0503 C96.0057,94.0503 89.6067,86.9623 90.4437,78.8083" id="Fill-9" fill="#DCEEFF"></path>
                    <polygon id="Fill-12" fill="#DCEEFF" points="0 322.201 152 322.201 152 144.053 0 144.053"></polygon>
                    <polygon id="Fill-14" fill="#B6D4FF" points="152 322.201 253.144 322.201 253.144 144.053 152 144.053"></polygon>
                    <polygon id="Fill-15" fill="#CCE3FF" points="13.624 305.149 135.76 305.149 135.76 239.789 13.624 239.789"></polygon>
                    <polygon id="Fill-16" fill="#CCE3FF" points="13.624 225.101 135.76 225.101 135.76 159.741 13.624 159.741"></polygon>
                    <polygon id="Fill-17" fill="#DCEEFF" points="0 364.312 14.891 364.312 14.891 322.201 0 322.201"></polygon>
                    <polygon id="Fill-18" fill="#B6D4FF" points="238.253 364.312 253.144 364.312 253.144 322.201 238.253 322.201"></polygon>
                    <polygon id="Fill-19" fill="#DCEEFF" points="137.108 364.312 152 364.312 152 322.201 137.108 322.201"></polygon>
                    <polygon id="Fill-20" fill="#B6D4FF" points="99.538 364.312 114.429 364.312 114.429 322.201 99.538 322.201"></polygon>
                    <path d="M62.5775,192.4216 C62.5775,199.1116 68.0015,204.5356 74.6925,204.5356 C81.3835,204.5356 86.8065,199.1116 86.8065,192.4216 C86.8065,185.7306 81.3835,180.3066 74.6925,180.3066 C68.0015,180.3066 62.5775,185.7306 62.5775,192.4216" id="Fill-21" fill="#B6D4FF"></path>
                    <path d="M62.5775,272.4695 C62.5775,279.1595 68.0015,284.5835 74.6925,284.5835 C81.3835,284.5835 86.8065,279.1595 86.8065,272.4695 C86.8065,265.7785 81.3835,260.3545 74.6925,260.3545 C68.0015,260.3545 62.5775,265.7785 62.5775,272.4695" id="Fill-22" fill="#B6D4FF"></path>
                </g>
            </g>
            <g id="Background-Object-/-Lamp" transform="translate(1431.000000, 288.000000)">
                <g id="Group-17" transform="translate(263.000000, 31.000000)">
                    <path d="M285.5502,183.9348 C285.5502,183.9348 289.5062,163.3308 303.0192,164.6508 C331.2102,167.4068 296.6812,257.9848 354.6912,263.8018 C412.6992,269.6178 418.7242,178.8818 418.7242,178.8818" id="Stroke-1" stroke="#CCE3FF" stroke-width="7"></path>
                    <path d="M287.6352,123.6199 L287.6352,653.3189" id="Stroke-3" stroke="#DCEEFF" stroke-width="15"></path>
                    <path d="M418.7241,178.8816 L72.5541,29.6646" id="Stroke-5" stroke="#DCEEFF" stroke-width="15"></path>
                    <path d="M220.9682,653.3191 L354.3022,653.3191 L354.3022,646.7551 C354.3022,638.2661 347.4202,631.3841 338.9312,631.3841 L236.3382,631.3841 C227.8502,631.3841 220.9682,638.2661 220.9682,646.7551 L220.9682,653.3191 Z" id="Fill-7" fill="#DCEEFF"></path>
                    <polygon id="Fill-10" fill="#B6D4FF" points="0.0004 105.7766 113.4424 130.4736 117.1104 98.7766 9.8414 75.4236"></polygon>
                    <path d="M50.7094,58.2908 L84.5304,65.6538 L94.1864,21.3058 C96.1164,12.4368 90.4914,3.6808 81.6224,1.7498 L79.9194,1.3788 C71.0504,-0.5522 62.2944,5.0728 60.3634,13.9428 L50.7094,58.2908 Z" id="Fill-12" fill="#B6D4FF"></path>
                    <polygon id="Fill-15" fill="#B6D4FF" points="117.1108 98.7766 83.4568 54.6436 58.7968 49.2746 9.8408 75.4236"></polygon>
                </g>
            </g>
            <g id="Background-Object-/-Window-/-4" transform="translate(353.000000, 0.000000)">
                <g id="Group-36" transform="translate(87.000000, 87.000000)">
                    <path d="M302.0142,61.7179 L302.0142,438.2489" id="Stroke-1" stroke="#B6D4FF" stroke-width="18"></path>
                    <path d="M492.773,61.7179 L492.773,438.2489" id="Stroke-2" stroke="#B6D4FF" stroke-width="18"></path>
                    <path d="M126.0044,61.7179 L126.0044,438.2489" id="Stroke-3" stroke="#B6D4FF" stroke-width="18"></path>
                    <polygon id="Fill-4" fill="#B6D4FF" points="660.109 447.418 678.251 447.418 678.251 52.547 660.109 52.547"></polygon>
                    <path d="M110.086,447.418 L668.114,447.418 L668.114,52.547 L110.086,52.547 L110.086,447.418 Z M127.086,430.418 L651.114,430.418 L651.114,69.547 L127.086,69.547 L127.086,430.418 Z" id="Fill-5" fill="#DCEEFF"></path>
                    <polygon id="Fill-6" fill="#CCE3FF" points="93.784 465.611 637.336 465.611 637.336 447.417 93.784 447.417"></polygon>
                    <polygon id="Fill-7" fill="#B6D4FF" points="637.335 465.611 682.883 465.611 682.883 447.417 637.335 447.417"></polygon>
                    <path d="M293.7203,57.5968 L293.7203,442.3698" id="Stroke-8" stroke="#DCEEFF" stroke-width="16"></path>
                    <path d="M484.4791,57.5968 L484.4791,442.3698" id="Stroke-9" stroke="#DCEEFF" stroke-width="16"></path>
                    <path d="M119.5611,249.9825 L653.0231,249.9825" id="Stroke-10" stroke="#DCEEFF" stroke-width="16"></path>
                    <path d="M185.399,541.5719 C185.399,372.1439 97.858,211.4259 97.858,211.4259 L67.914,211.4259 L67.914,541.5719 L185.399,541.5719 Z" id="Fill-11" fill="#CCE3FF"></path>
                    <path d="M185.399,11.067 C185.399,113.89 97.858,211.426 97.858,211.426 L67.914,211.426 L67.914,11.067 L185.399,11.067 Z" id="Fill-13" fill="#CCE3FF"></path>
                    <polygon id="Fill-15" fill="#ECF6FF" points="110.6177 225.8688 56.9987 228.1958 56.9987 199.6008 110.6177 201.9278"></polygon>
                    <path d="M594.3873,541.5719 C594.3873,372.1439 678.4573,211.4259 678.4573,211.4259 L707.2153,211.4259 L707.2153,541.5719 L594.3873,541.5719 Z" id="Fill-17" fill="#CCE3FF"></path>
                    <path d="M594.3873,11.067 C594.3873,113.89 678.4573,211.426 678.4573,211.426 L707.2153,211.426 L707.2153,11.067 L594.3873,11.067 Z" id="Fill-19" fill="#CCE3FF"></path>
                    <polygon id="Fill-21" fill="#ECF6FF" points="665.3101 225.8688 715.4171 228.1958 715.4171 199.5998 665.3101 201.9278"></polygon>
                    <polygon id="Fill-23" fill="#CCE3FF" points="18.569 26.073 752.215 26.073 752.215 11.067 18.569 11.067"></polygon>
                    <path d="M420.0464,420.6422 L420.0464,420.6422 C414.2484,420.6422 409.5044,415.8982 409.5044,410.1012 L409.5044,316.3242 C409.5044,310.5272 414.2484,305.7832 420.0464,305.7832 C425.8444,305.7832 430.5874,310.5272 430.5874,316.3242 L430.5874,410.1012 C430.5874,415.8982 425.8444,420.6422 420.0464,420.6422" id="Fill-25" fill="#CCE3FF"></path>
                    <path d="M392.9468,357.4806 L417.0618,357.4806 C420.1818,357.4806 422.7358,354.9276 422.7358,351.8076 L422.7358,351.5236 C422.7358,348.4036 420.1818,345.8516 417.0618,345.8516 L392.9468,345.8516 C389.8268,345.8516 387.2738,348.4036 387.2738,351.5236 L387.2738,351.8076 C387.2738,354.9276 389.8268,357.4806 392.9468,357.4806" id="Fill-26" fill="#CCE3FF"></path>
                    <path d="M394.1578,357.4806 L394.1568,357.4806 C390.3718,357.4806 387.2738,354.3826 387.2738,350.5966 L387.2738,330.7186 C387.2738,326.9326 390.3718,323.8346 394.1568,323.8346 L394.1578,323.8346 C397.9428,323.8346 401.0408,326.9326 401.0408,330.7186 L401.0408,350.5966 C401.0408,354.3826 397.9428,357.4806 394.1578,357.4806" id="Fill-27" fill="#CCE3FF"></path>
                    <path d="M448.8062,388.5489 L426.1922,388.5489 C423.0722,388.5489 420.5192,385.9959 420.5192,382.8759 L420.5192,379.4559 C420.5192,376.3359 423.0722,373.7829 426.1922,373.7829 L448.8062,373.7829 C451.9262,373.7829 454.4792,376.3359 454.4792,379.4559 L454.4792,382.8759 C454.4792,385.9959 451.9262,388.5489 448.8062,388.5489" id="Fill-28" fill="#CCE3FF"></path>
                    <path d="M447.4088,388.5489 L448.3648,388.5489 C451.7268,388.5489 454.4788,385.7979 454.4788,382.4339 L454.4788,360.4159 C454.4788,357.0529 451.7268,354.3009 448.3648,354.3009 L447.4088,354.3009 C444.0468,354.3009 441.2948,357.0529 441.2948,360.4159 L441.2948,382.4339 C441.2948,385.7979 444.0468,388.5489 447.4088,388.5489" id="Fill-29" fill="#CCE3FF"></path>
                    <polygon id="Fill-30" fill="#B6D4FF" points="392.3355 400.6422 451.5825 400.6422 445.3275 447.3212 398.5905 447.3212"></polygon>
                    <path d="M520.8824,415.5035 C514.7844,425.7485 518.1484,438.9965 528.3934,445.0945 C538.6384,451.1915 551.8864,447.8285 557.9834,437.5835 C564.0804,427.3385 560.7184,414.0905 550.4734,407.9935 C540.2284,401.8955 526.9804,405.2585 520.8824,415.5035" id="Fill-31" fill="#B6D4FF"></path>
                    <path d="M528.1382,397.545 C530.5622,404.656 538.3232,408.445 538.3232,408.445 C538.3232,408.445 542.1542,400.706 539.7312,393.595 C537.3072,386.484 529.5462,382.694 529.5462,382.694 C529.5462,382.694 525.7152,390.434 528.1382,397.545" id="Fill-32" fill="#B6D4FF"></path>
                    <polygon id="Fill-33" fill="#CCE3FF" points="36.1392 18.5699 18.5702 36.1399 0.9992 18.5699 18.5702 1.0009"></polygon>
                    <polygon id="Fill-34" fill="#CCE3FF" points="769.7847 20.3854 752.2157 37.9554 734.6457 20.3854 752.2157 2.8154"></polygon>
                </g>
            </g>
            <g id="Background-Object-/-Sofa-/-1" transform="translate(999.000000, 407.000000)">
                <g id="Group-38" transform="translate(112.000000, 149.000000)">
                    <path d="M408.8335,152.4607 L408.8335,152.4607 C408.8335,159.9807 402.7385,166.0757 395.2195,166.0757 L287.4635,166.0757 L287.4635,138.8467 L395.2195,138.8467 C402.7385,138.8467 408.8335,144.9417 408.8335,152.4607" id="Fill-1" fill="#CCE3FF"></path>
                    <path d="M335.3672,152.4607 L335.3672,152.4607 C335.3672,156.8137 331.8382,160.3427 327.4852,160.3427 L287.6272,160.3427 C287.5362,160.3427 287.4632,160.2697 287.4632,160.1787 L287.4632,144.7427 C287.4632,144.6527 287.5362,144.5797 287.6272,144.5797 L327.4852,144.5797 C331.8382,144.5797 335.3672,148.1077 335.3672,152.4607" id="Fill-3" fill="#DCEEFF"></path>
                    <path d="M424.0791,166.0755 L424.0791,193.3045 L306.3291,193.3045 C298.8101,193.3045 292.7151,187.2085 292.7151,179.6895 C292.7151,172.1705 298.8101,166.0755 306.3291,166.0755 L424.0791,166.0755 Z" id="Fill-5" fill="#CCE3FF"></path>
                    <path d="M424.0791,171.8841 L424.0791,187.4961 L375.9041,187.4961 C371.5931,187.4961 368.0981,184.0011 368.0981,179.6901 C368.0981,175.3791 371.5931,171.8841 375.9041,171.8841 L424.0791,171.8841 Z" id="Fill-7" fill="#DCEEFF"></path>
                    <path d="M753.3135,1.0003 L753.3135,416.2383" id="Stroke-9" stroke="#CCE3FF" stroke-width="24"></path>
                    <path d="M520.4424,1.0003 L520.4424,416.2383" id="Stroke-12" stroke="#CCE3FF" stroke-width="24"></path>
                    <path d="M728.1602,321.3079 L523.2372,321.3079 L523.2372,134.9999 C523.2372,75.4379 571.5212,27.1539 631.0832,27.1539 C684.6972,27.1539 728.1602,70.6169 728.1602,124.2309 L728.1602,321.3079 Z" id="Fill-15" fill="#DCEEFF"></path>
                    <path d="M496.9292,1.0003 L496.9292,416.2383" id="Stroke-17" stroke="#DCEEFF" stroke-width="24"></path>
                    <path d="M730.1602,1.0003 L730.1602,416.2383" id="Stroke-20" stroke="#DCEEFF" stroke-width="24"></path>
                    <path d="M702,198.8465 L473.692,198.8465 C460.438,198.8465 449.692,188.1015 449.692,174.8465 C449.692,161.5915 460.438,150.8465 473.692,150.8465 L702,150.8465 C715.255,150.8465 726,161.5915 726,174.8465 C726,188.1015 715.255,198.8465 702,198.8465" id="Fill-23" fill="#ECF6FF"></path>
                    <path d="M702,198.8465 L587.743,198.8465 C574.488,198.8465 563.743,188.1015 563.743,174.8465 C563.743,161.5915 574.488,150.8465 587.743,150.8465 L702,150.8465 C715.255,150.8465 726,161.5915 726,174.8465 C726,188.1015 715.255,198.8465 702,198.8465" id="Fill-25" fill="#E3F1FF"></path>
                    <polygon id="Fill-27" fill="#B6D4FF" points="245.897 321.308 480.461 321.308 480.461 193.308 245.897 193.308"></polygon>
                    <path d="M257.3848,1.0003 L257.3848,416.2383" id="Stroke-29" stroke="#CCE3FF" stroke-width="24"></path>
                    <path d="M24.5127,1.0003 L24.5127,416.2383" id="Stroke-30" stroke="#CCE3FF" stroke-width="24"></path>
                    <path d="M232.231,321.3079 L27.308,321.3079 L27.308,134.9999 C27.308,75.4379 75.592,27.1539 135.154,27.1539 C188.768,27.1539 232.231,70.6169 232.231,124.2309 L232.231,321.3079 Z" id="Fill-31" fill="#DCEEFF"></path>
                    <path d="M583.2305,342.2312 L494.6155,342.2312 C477.9615,342.2312 464.4615,328.7312 464.4615,312.0772 L464.4615,193.3082 L613.3845,193.3082 L613.3845,312.0772 C613.3845,328.7312 599.8845,342.2312 583.2305,342.2312" id="Fill-32" fill="#CCE3FF"></path>
                    <path d="M1,1.0003 L1,416.2383" id="Stroke-33" stroke="#DCEEFF" stroke-width="24"></path>
                    <path d="M234.231,1.0003 L234.231,416.2383" id="Stroke-34" stroke="#DCEEFF" stroke-width="24"></path>
                    <polygon id="Fill-35" fill="#B6D4FF" points="613.385 321.308 729.385 321.308 729.385 198.847 613.385 198.847"></polygon>
                    <path d="M374.3604,107.9241 C380.4574,118.1691 377.0954,131.4171 366.8504,137.5141 C356.6044,143.6121 343.3564,140.2491 337.2594,130.0041 C331.1624,119.7591 334.5244,106.5111 344.7694,100.4131 C355.0154,94.3161 368.2634,97.6791 374.3604,107.9241" id="Fill-36" fill="#CCE3FF"></path>
                    <path d="M355.4116,90.283 C352.9886,97.394 345.2276,101.183 345.2276,101.183 C345.2276,101.183 341.3966,93.444 343.8196,86.333 C346.2436,79.222 354.0036,75.432 354.0036,75.432 C354.0036,75.432 357.8346,83.172 355.4116,90.283" id="Fill-37" fill="#CCE3FF"></path>
                </g>
            </g>
            <g id="Background-Object-/-Picture-/-3" transform="translate(1226.000000, 33.000000)">
                <g id="Group-10" transform="translate(123.000000, 78.000000)">
                    <polygon id="Fill-1" fill="#DCEEFF" points="122.095 194.756 253.089 194.756 253.089 0.5 122.095 0.5"></polygon>
                    <polygon id="Stroke-2" stroke="#DCEEFF" stroke-width="9" points="122.095 194.756 253.089 194.756 253.089 0.5 122.095 0.5"></polygon>
                    <polygon id="Fill-4" fill="#FFFFFF" points="0.5 194.756 245.999 194.756 245.999 0.5 0.5 0.5"></polygon>
                    <polygon id="Stroke-5" stroke="#DCEEFF" stroke-width="9" points="0.5 194.756 245.999 194.756 245.999 0.5 0.5 0.5"></polygon>
                    <polygon id="Fill-7" fill="#FFFFFF" points="23.097 173.623 223.402 173.623 223.402 21.633 23.097 21.633"></polygon>
                    <polygon id="Stroke-8" stroke="#DCEEFF" stroke-width="9" points="23.097 173.623 223.402 173.623 223.402 21.633 23.097 21.633"></polygon>
                    <polygon id="Fill-9" fill="#B6D4FF" points="73.768 136.906 173.748 136.906 173.748 58.349 73.768 58.349"></polygon>
                </g>
            </g>
            <g id="Person-/-Robot-/-2" transform="translate(476.000000, 206.000000)">
                <g id="Robot-/-Legs-/-2" transform="translate(51.000000, 389.000000)">
                    <g id="Group-27" transform="translate(121.207792, 22.914179)">
                        <path d="M119.679183,22.4224209 L137.689469,221.529701" id="Stroke-1" stroke="#19141E" stroke-width="16" stroke-linecap="round"></path>
                        <path d="M137.689866,239.513645 L130.200814,468.400391" id="Stroke-6" stroke="#19141E" stroke-width="16" stroke-linecap="round"></path>
                        <path d="M48.0957487,20.9722522 L47.1022422,219.573428" id="Stroke-8" stroke="#19141E" stroke-width="16" stroke-linecap="round"></path>
                        <path d="M47.1022422,228.069208 L20.3798981,474.836984" id="Stroke-10" stroke="#19141E" stroke-width="16" stroke-linecap="round"></path>
                        <g id="Legs-color">
                            <mask id="mask-2" fill="white">
                                <use xlink:href="#path-1"></use>
                            </mask>
                            <use id="Mask" fill="#6CA1FF" xlink:href="#path-1"></use>
                            <g id="Colors-/-Skin-/-Green" mask="url(#mask-2)" fill="#72A065" fill-rule="nonzero">
                                <g transform="translate(0.000000, -0.996269)" id="Color">
                                    <rect x="0" y="0" width="194" height="508"></rect>
                                </g>
                            </g>
                        </g>
                        <path d="M130.875604,247.893555 C120.551241,247.538661 112.266234,236.699635 112.266234,223.379373 C112.266234,210.059112 120.551241,199.219121 130.875604,198.864196 L130.875604,198.855822 L131.263193,198.855822 C131.308155,198.855423 131.353153,198.855224 131.398188,198.855224 C131.443223,198.855224 131.488222,198.855423 131.533183,198.855822 L141.261346,198.855822 C141.306307,198.855423 141.351306,198.855224 141.396341,198.855224 C151.962282,198.855224 160.528295,209.835101 160.528295,223.379373 C160.528295,236.923433 151.962551,247.902182 141.396838,247.902526 L130.875604,247.903124 L130.875604,247.893555 Z M118.851692,223.379373 C118.851692,231.307679 123.134698,237.735604 128.417172,237.735604 C133.70064,237.735604 137.982653,231.307679 137.982653,223.379373 C137.982653,215.450071 133.70064,209.022146 128.417172,209.022146 C123.134698,209.022146 118.851692,215.450071 118.851692,223.379373 Z M41.4600195,247.993216 C31.1352263,247.638983 22.8506494,236.799688 22.8506494,223.479 C22.8506494,210.158312 31.1352263,199.318053 41.4600195,198.963789 L41.4600195,198.955449 L41.8466152,198.955449 C41.8915769,198.95505 41.9365755,198.954851 41.9816104,198.954851 C42.0266453,198.954851 42.0716439,198.95505 42.1166056,198.955449 L51.8452772,198.955449 C51.8902347,198.95505 51.9352291,198.954851 51.9802597,198.954851 C62.5471948,198.954851 71.1122143,209.934728 71.1122143,223.479 C71.1122143,237.022848 62.5477317,248.001465 51.9812532,248.002153 L41.4600195,248.002751 L41.4600195,247.993216 L41.4600195,247.993216 Z M29.4356104,223.479 C29.4356104,231.407306 33.7186169,237.835231 39.0010909,237.835231 C44.2845584,237.835231 48.5665714,231.407306 48.5665714,223.479 C48.5665714,215.549698 44.2845584,209.121772 39.0010909,209.121772 C33.7186169,209.121772 29.4356104,215.549698 29.4356104,223.479 Z" id="Shape" fill="#000000" opacity="0.403041295"></path>
                        <path d="M29.4574675,223.573646 C29.4574675,231.501951 33.740474,237.929877 39.0229481,237.929877 C44.3064156,237.929877 48.5884286,231.501951 48.5884286,223.573646 C48.5884286,215.644343 44.3064156,209.216418 39.0229481,209.216418 C33.740474,209.216418 29.4574675,215.644343 29.4574675,223.573646" id="Fill-26" fill="#000000" opacity="0.602887835"></path>
                        <path d="M118.922727,223.374392 C118.922727,231.302698 123.205734,237.730623 128.488208,237.730623 C133.771675,237.730623 138.053688,231.302698 138.053688,223.374392 C138.053688,215.44509 133.771675,209.017164 128.488208,209.017164 C123.205734,209.017164 118.922727,215.44509 118.922727,223.374392" id="Fill-22" fill="#000000" opacity="0.603864397"></path>
                        <polygon id="Fill-14" fill="#000000" opacity="0.395879836" points="79.3275195 492.961701 6.82121026e-13 492.961701 12.5330844 460.774254"></polygon>
                        <polygon id="Fill-16" fill="#000000" opacity="0.395879836" points="194.060531 492.961701 114.733011 492.961701 127.266095 460.774254"></polygon>
                    </g>
                </g>
                <g id="Robot-/-Body-/-2" transform="translate(46.000000, 202.000000)">
                    <g id="Group-25" transform="translate(3.000000, 0.000000)">
                        <path d="M354.8008,211.4785 L331.5308,40.8695" id="Stroke-1" stroke="#19141E" stroke-width="27" stroke-linecap="round"></path>
                        <polygon id="Fill-9" fill="#19141E" points="138.122 190.4228 283.232 190.4228 305.36 166.6018 115.994 166.6018"></polygon>
                        <path d="M51.8213,205.8071 L76.3523,35.3741" id="Stroke-11" stroke="#19141E" stroke-width="27" stroke-linecap="round"></path>
                        <g id="Body-color" transform="translate(0.000000, 0.999300)">
                            <mask id="mask-4" fill="white">
                                <use xlink:href="#path-3"></use>
                            </mask>
                            <use id="Mask" fill="#6CA1FF" xlink:href="#path-3"></use>
                            <g id="Colors-/-Skin-/-Green" mask="url(#mask-4)" fill="#72A065" fill-rule="nonzero">
                                <g transform="translate(-3.000000, 0.000700)" id="Color">
                                    <rect x="0" y="0" width="412" height="462"></rect>
                                </g>
                            </g>
                        </g>
                        <g id="Overlay" transform="translate(13.303755, 1.000000)" fill="#000000" opacity="0.394763765">
                            <path d="M94.8690449,426.4985 C94.9180449,427.8725 94.8920449,429.2315 94.7960449,430.5705 C94.3600449,436.6395 86.4900449,438.6175 83.2200449,433.4865 C79.4910449,427.6355 74.1860449,423.9795 68.3030449,423.9795 C57.0140449,423.9795 47.8630449,437.4495 47.8630449,454.0695 L47.8630449,454.1755 C47.8750449,459.1285 42.5460449,462.2365 38.3170449,459.6555 C27.6100449,453.1205 20.4630449,441.3265 20.4630449,427.8595 C20.4630449,406.9295 37.7460449,390.0345 58.8290449,390.6675 C78.2530449,391.2505 94.1790449,407.0785 94.8690449,426.4985 Z M277.526245,83.72 C277.526245,109.22 258.965245,130.38 234.616245,134.44 C234.265245,134.38 233.925245,134.32 233.576245,134.25 C209.736245,129.79 191.696245,108.86 191.696245,83.72 C191.696245,58.58 209.736245,37.65 233.576245,33.19 C233.925245,33.12 234.265245,33.06 234.616245,33 C258.965245,37.06 277.526245,58.22 277.526245,83.72 Z M196.084845,83.7886 C196.084845,100.2406 209.420845,113.5766 225.872845,113.5766 C242.324845,113.5766 255.660845,100.2406 255.660845,83.7886 C255.660845,67.3366 242.324845,53.9996 225.872845,53.9996 C209.420845,53.9996 196.084845,67.3366 196.084845,83.7886 Z M26.1962449,39.84 C26.1962449,17.837 44.0332449,-4.54747351e-13 66.0362449,-4.54747351e-13 C88.0392449,-4.54747351e-13 105.876245,17.837 105.876245,39.84 C105.876245,61.843 88.0392449,79.68 66.0362449,79.68 C44.0332449,79.68 26.1962449,61.843 26.1962449,39.84 Z M35.8085449,32.4553 C35.8085449,43.1293 44.4615449,51.7823 55.1355449,51.7823 C65.8095449,51.7823 74.4625449,43.1293 74.4625449,32.4553 C74.4625449,21.7813 65.8095449,13.1283 55.1355449,13.1283 C44.4615449,13.1283 35.8085449,21.7813 35.8085449,32.4553 Z M309.196245,6.87904083 C310.041617,6.57461756 310.902955,6.29647315 311.779591,6.04581029 C332.934591,-0.00418971 354.988591,12.2418103 361.036591,33.3968103 C367.085591,54.5528103 354.840591,76.6058103 333.685591,82.6548103 C332.542394,82.9816928 331.396571,83.2551499 330.250791,83.4766625 L330.250791,41.8931103 C330.250791,26.7865855 321.698398,13.581018 309.196245,6.87904083 Z M371.736873,403.768186 C377.15882,410.520659 380.260598,419.185111 379.892939,428.516694 C379.362939,441.973694 371.755939,453.476694 360.798939,459.584694 C356.472939,461.996694 351.270939,458.681694 351.476939,453.732694 C351.478939,453.697694 351.479939,453.662694 351.481939,453.626694 C352.135939,437.020694 343.523939,423.200694 332.242939,422.755694 C326.363939,422.523694 320.918939,425.967694 316.962939,431.666694 C313.493939,436.665694 305.705939,434.378694 305.509939,428.297694 C305.466939,426.955694 305.494939,425.596694 305.597939,424.225694 C306.279914,415.143009 310.275255,406.980826 316.329054,400.890362 C302.932776,391.445848 294.117751,375.8783 294.058539,358.334294 L293.696539,250.430294 C293.600539,221.690294 317.036539,198.097294 345.775539,198.000294 C374.515539,197.904294 398.109539,221.339294 398.205539,250.079294 L398.567539,357.983294 C398.633658,377.572847 387.765676,394.771886 371.73686,403.768194 L371.736873,403.768186 Z M164.405245,124.9751 C164.405245,119.3251 168.986245,114.7441 174.636245,114.7441 C180.287245,114.7441 184.867245,119.3251 184.867245,124.9751 C184.867245,130.6251 180.287245,135.2061 174.636245,135.2061 C168.986245,135.2061 164.405245,130.6251 164.405245,124.9751 Z M134.834845,124.9751 C134.834845,119.3251 139.415845,114.7441 145.064845,114.7441 C150.715845,114.7441 155.296845,119.3251 155.296845,124.9751 C155.296845,130.6251 150.715845,135.2061 145.064845,135.2061 C139.415845,135.2061 134.834845,130.6251 134.834845,124.9751 Z M0.0311449428,260.6279 C-0.405855057,254.9939 3.80714494,250.0739 9.44114494,249.6369 C15.0751449,249.2009 19.9961449,253.4139 20.4321449,259.0469 C20.8691449,264.6809 16.6551449,269.6009 11.0221449,270.0379 C5.38814494,270.4739 0.468144943,266.2609 0.0311449428,260.6279 Z M2.21864494,288.8511 C1.78164494,283.2171 5.99464494,278.2971 11.6276449,277.8601 C17.2616449,277.4241 22.1826449,281.6371 22.6186449,287.2701 C23.0556449,292.9041 18.8426449,297.8241 13.2086449,298.2611 C7.57464494,298.6971 2.65564494,294.4841 2.21864494,288.8511 Z M4.45794494,317.7568 C4.02094494,312.1238 8.23394494,307.2028 13.8679449,306.7658 C19.5019449,306.3298 24.4219449,310.5428 24.8579449,316.1758 C25.2949449,321.8098 21.0819449,326.7308 15.4489449,327.1668 C9.81494494,327.6038 4.89494494,323.3908 4.45794494,317.7568 Z M162.696245,212 L162.696245,189 L231.696245,189 L231.696245,212 L162.696245,212 Z" id="Shape"></path>
                        </g>
                        <path d="M247.6798,135.5061 C272.0288,131.4461 290.5898,110.2861 290.5898,84.7861 C290.5898,59.2861 272.0288,38.1261 247.6798,34.0661 C250.4398,33.6061 253.2788,33.3661 256.1698,33.3661 C284.5688,33.3661 307.5898,56.3861 307.5898,84.7861 C307.5898,113.1861 284.5688,136.2061 256.1698,136.2061 C253.2788,136.2061 250.4398,135.9661 247.6798,135.5061 L247.6798,135.5061 Z" id="Path" fill="#19141E"></path>
                    </g>
                </g>
                <g id="Robot-/-Head-/-3" transform="translate(159.000000, 30.000000)">
                    <g id="Group-15" transform="translate(0.000000, 37.000000)">
                        <path d="M72.728,12.4228 C72.728,12.4228 90.19,23.9718 92.111,43.9528" id="Stroke-1" stroke="#19141E" stroke-width="5" stroke-linecap="round"></path>
                        <g id="Face-color" transform="translate(0.000400, 0.000000)">
                            <mask id="mask-6" fill="white">
                                <use xlink:href="#path-5"></use>
                            </mask>
                            <use id="Mask" fill="#6CA1FF" xlink:href="#path-5"></use>
                            <g id="Colors-/-Skin-/-Green" mask="url(#mask-6)" fill="#72A065" fill-rule="nonzero">
                                <g transform="translate(20.999600, 0.000000)" id="Color">
                                    <rect x="0" y="0" width="154" height="141"></rect>
                                </g>
                            </g>
                        </g>
                        <g id="Overlay" transform="translate(73.753000, 96.326000)" fill="#000000" opacity="0.399042039">
                            <polygon id="Fill-5" points="1.93622895e-13 42 30.359 42 30.359 0 1.93622895e-13 0"></polygon>
                        </g>
                        <polygon id="Fill-7" fill="#000000" opacity="0.400367374" points="73.7534 124.7416 104.1124 114.7416 104.1124 96.1576 73.7534 96.1576"></polygon>
                        <path d="M20.8749,96.4496 L20.8749,96.4496 C9.3939,96.4496 -9.99999993e-05,87.0556 -9.99999993e-05,75.5746 L-9.99999993e-05,61.5016 C-9.99999993e-05,50.0206 9.3939,40.6266 20.8749,40.6266 C32.3559,40.6266 41.7499,50.0206 41.7499,61.5016 L41.7499,75.5746 C41.7499,87.0556 32.3559,96.4496 20.8749,96.4496" id="Fill-9" fill="#19141E"></path>
                        <path d="M53.6152,68.5385 C53.6152,77.3775 60.7812,84.5435 69.6202,84.5435 C78.4602,84.5435 85.6262,77.3775 85.6262,68.5385 C85.6262,59.6985 78.4602,52.5325 69.6202,52.5325 C60.7812,52.5325 53.6152,59.6985 53.6152,68.5385" id="Fill-10" fill="#FFFFFF"></path>
                        <path d="M64.3408,66.2895 C64.3408,70.3505 67.6328,73.6425 71.6938,73.6425 C75.7548,73.6425 79.0468,70.3505 79.0468,66.2895 C79.0468,62.2285 75.7548,58.9365 71.6938,58.9365 C67.6328,58.9365 64.3408,62.2285 64.3408,66.2895" id="Fill-11" fill="#19141E"></path>
                        <path d="M131.665,68.5385 C131.665,77.3775 138.831,84.5435 147.671,84.5435 C156.511,84.5435 163.677,77.3775 163.677,68.5385 C163.677,59.6985 156.511,52.5325 147.671,52.5325 C138.831,52.5325 131.665,59.6985 131.665,68.5385" id="Fill-12" fill="#FFFFFF"></path>
                        <path d="M142.3906,66.2895 C142.3906,70.3505 145.6826,73.6425 149.7436,73.6425 C153.8046,73.6425 157.0966,70.3505 157.0966,66.2895 C157.0966,62.2285 153.8046,58.9365 149.7436,58.9365 C145.6826,58.9365 142.3906,62.2285 142.3906,66.2895" id="Fill-13" fill="#19141E"></path>
                        <polyline id="Fill-14" fill="#19141E" points="104.9877 57.5678 119.3037 68.4308 104.9877 79.5088"></polyline>
                    </g>
                </g>
            </g>
            <g id="Person-/-Robot-/-3" transform="translate(1352.000000, 792.000000) scale(-1, 1) translate(-1352.000000, -792.000000) translate(1077.000000, 313.000000)">
                <g id="Robot-/-Legs-/-3" transform="translate(51.000000, 389.000000)">
                    <g id="Group-13" transform="translate(117.233766, 23.000000)">
                        <g id="Legs-color">
                            <mask id="mask-8" fill="white">
                                <use xlink:href="#path-7"></use>
                            </mask>
                            <use id="Mask" fill="#6CA1FF" fill-rule="nonzero" xlink:href="#path-7"></use>
                            <g id="Colors-/-Skin-/-Pink" mask="url(#mask-8)" fill="#CF3E83" fill-rule="nonzero">
                                <g transform="translate(0.000000, -9.000000)" id="Color">
                                    <rect x="0" y="0" width="180" height="403"></rect>
                                </g>
                            </g>
                        </g>
                        <path d="M33.0898636,270.385903 C33.9348937,270.652373 34.8338997,270.796 35.7662338,270.796 L64.0444091,270.796 C68.9826955,270.796 72.9859675,266.766563 72.9859675,261.796 C72.9859675,256.825437 68.9826955,252.796 64.0444091,252.796 L44.7077922,252.796 L44.7077922,213.236689 C50.0315838,204.946851 56.7529679,200 64.0593117,200 C81.3324156,200 95.3339026,227.642 95.3339026,261.741 C95.3339026,295.84 81.3324156,323.483 64.0593117,323.483 C48.2742281,323.483 35.2195021,300.392247 33.0898642,270.38591 L33.0898636,270.385903 Z" id="Path" fill="#19141E"></path>
                        <polygon id="Fill-10" fill="#19141E" points="49.4120455 58.15 128.377929 58.15 128.377929 30.928 49.4120455 30.928"></polygon>
                        <g id="Overlay" transform="translate(26.824675, 70.000000)" fill="#000000" opacity="0.395763579">
                            <path d="M109.29581,72.0108882 C109.028501,71.8299762 108.75712,71.6483683 108.481669,71.4660645 L108.481669,20 L101.337662,20 L101.337662,2 L117.423228,2 C122.361514,2 126.364786,6.02943725 126.364786,11 C126.507122,45.5416289 126.579044,71.5136232 126.580552,88.915983 C126.088575,88.2650666 125.591765,87.6272843 125.090248,87.0028903 C124.711137,86.4785431 124.340783,85.9619608 124.00021,85.5922852 C123.911822,85.4963439 123.826036,85.4023668 123.742628,85.3102046 C141.713281,107.639196 153.654802,147.148174 153.654802,192.164 C153.654802,261.843 125.043802,318.329 89.7484907,318.329 C88.8997178,318.329 88.0548101,318.296333 87.2140725,318.2316 L40.0884508,318.2316 C74.2079489,315.604571 101.460343,260.16733 101.460343,192.164 C101.460343,122.616146 72.9559516,66.2126726 37.7532468,66 L89.5492749,66.0006 C89.6156564,66.0002001 89.6820617,66 89.7484907,66 C96.5663573,66 103.134811,68.1076384 109.29581,72.0108882 L109.29581,72.0108882 Z M119.751768,80.7401238 C120.230509,81.2435912 120.705623,81.758732 121.177011,82.2853539 C120.756887,81.7941343 120.307687,81.2960876 119.751768,80.7401238 L119.751768,80.7401238 Z M17.8831169,182.796 L37.2197338,182.796 C42.1580201,182.796 46.1612922,186.825437 46.1612922,191.796 C46.1612922,196.766563 42.1580201,200.796 37.2197338,200.796 L8.94155844,200.796 C4.00327207,200.796 -1.20792265e-13,196.766563 -1.20792265e-13,191.796 L-1.20792265e-13,9 C-1.20792265e-13,4.02943725 4.00327207,2.84217094e-13 8.94155844,2.84217094e-13 L37.2197338,2.84217094e-13 C42.1580201,2.84217094e-13 46.1612922,4.02943725 46.1612922,9 C46.1612922,13.9705627 42.1580201,18 37.2197338,18 L17.8831169,18 L17.8831169,182.796 Z" id="Shape"></path>
                        </g>
                    </g>
                </g>
                <g id="Robot-/-Body-/-3" transform="translate(46.000000, 202.000000)">
                    <g id="Group-24" transform="translate(40.000000, 3.000000)">
                        <polyline id="Stroke-1" stroke="#19141E" stroke-width="15" points="43.0783 388.3777 22.0043 365.5247 52.5573 326.2587 89.2383 358.0817 76.0093 386.0207"></polyline>
                        <polyline id="Stroke-3" stroke="#19141E" stroke-width="15" points="271.9357 386.494 253.0447 361.807 287.0677 325.506 320.6777 360.555 304.9447 387.165"></polyline>
                        <path d="M287.4435,221.7064 L272.2985,110.6684" id="Stroke-5" stroke="#19141E" stroke-width="27" stroke-linecap="round"></path>
                        <path d="M45.5598,218.3235 L61.5258,107.4015" id="Stroke-13" stroke="#19141E" stroke-width="27" stroke-linecap="round"></path>
                        <path d="M224.007,156.4217 L180.89,156.4217 C174.465,156.4217 169.257,151.2137 169.257,144.7887 L169.257,101.6717 C169.257,95.2477 174.465,90.0397 180.89,90.0397 L224.007,90.0397 C230.431,90.0397 235.639,95.2477 235.639,101.6717 L235.639,144.7887 C235.639,151.2137 230.431,156.4217 224.007,156.4217" id="Fill-17" fill="#19141E"></path>
                        <path d="M213.007,156.4217 L180.89,156.4217 C174.465,156.4217 169.257,151.2137 169.257,144.7887 L169.257,101.6717 C169.257,95.2477 174.465,90.0397 180.89,90.0397 L213.007,90.0397 C219.431,90.0397 224.639,95.2477 224.639,101.6717 L224.639,144.7887 C224.639,151.2137 219.431,156.4217 213.007,156.4217" id="Fill-18" fill="#405FD3"></path>
                        <g id="Body-color" transform="translate(-0.000140, 18.460800)">
                            <mask id="mask-10" fill="white">
                                <use xlink:href="#path-9"></use>
                            </mask>
                            <use id="Mask" fill="#6CA1FF" xlink:href="#path-9"></use>
                            <g id="Colors-/-Skin-/-Pink" mask="url(#mask-10)" fill="#CF3E83" fill-rule="nonzero">
                                <g transform="translate(0.000140, 7.539200)" id="Color">
                                    <rect x="0" y="0" width="332" height="326"></rect>
                                </g>
                            </g>
                        </g>
                        <polygon id="Fill-11" fill="#19141E" points="126.21 26.461 206.223 26.461 206.223 -5.68434189e-14 126.21 -5.68434189e-14"></polygon>
                        <path d="M213.007,156.4217 C219.431,156.4217 224.639,151.2137 224.639,144.7887 L224.639,101.6717 C224.639,95.2477 219.431,90.0397 213.007,90.0397 L224.007,90.0397 C230.431,90.0397 235.639,95.2477 235.639,101.6717 L235.639,144.7887 C235.639,151.2137 230.431,156.4217 224.007,156.4217 L213.007,156.4217 Z" id="Path" fill="#19141E"></path>
                        <g id="Overlay" transform="translate(16.000000, 66.500000)">
                            <path d="M-1.77458048e-12,174.9087 L6.652,259.3887 L-1.77458048e-12,174.9087 Z M16.4882,173.5 L23.1402,257.98 L16.4882,173.5 Z" id="Shape" stroke="#000000" stroke-width="9" opacity="0.401762463" stroke-linecap="round" stroke-linejoin="round"></path>
                            <path d="M197.05,89.882 L164.933,89.882 C158.508,89.882 153.3,84.674 153.3,78.249 L153.3,35.132 C153.3,28.708 158.508,23.5 164.933,23.5 L197.05,23.5 C203.474,23.5 208.682,28.708 208.682,35.132 L208.682,78.249 C208.682,84.674 203.474,89.882 197.05,89.882 Z M170.427,53.355 C175.081,53.355 178.855,49.582 178.855,44.927 C178.855,40.273 175.081,36.5 170.427,36.5 C165.773,36.5 162,40.273 162,44.927 C162,49.582 165.773,53.355 170.427,53.355 Z M194.3763,53.355 C199.0303,53.355 202.8043,49.582 202.8043,44.927 C202.8043,40.273 199.0303,36.5 194.3763,36.5 C189.7223,36.5 185.9483,40.273 185.9483,44.927 C185.9483,49.582 189.7223,53.355 194.3763,53.355 Z M170.427,77.7129 C175.081,77.7129 178.855,73.9399 178.855,69.2849 C178.855,64.6309 175.081,60.8579 170.427,60.8579 C165.773,60.8579 162,64.6309 162,69.2849 C162,73.9399 165.773,77.7129 170.427,77.7129 Z" id="Shape" fill="#000000" opacity="0.397763207"></path>
                            <path d="M9,39.79 C9,59.832 25.247,76.08 45.289,76.08 C65.331,76.08 81.579,59.832 81.579,39.79 C81.579,19.748 65.331,3.5 45.289,3.5 C25.247,3.5 9,19.748 9,39.79" id="Fill-14" fill="#000000" opacity="0.404203869"></path>
                            <path d="M226.45139,170.13439 L226.00039,254.82339 C225.92139,269.61239 237.84639,281.66439 252.63439,281.74339 L289.78839,281.94139 C304.57639,282.02039 316.62939,270.09539 316.70739,255.30639 L317.15839,170.61739 C317.23739,155.82939 305.31239,143.77739 290.52439,143.69739 L253.37039,143.50039 C238.58239,143.42139 226.52939,155.34539 226.45139,170.13439" id="Fill-16" fill="#000000" opacity="0.398763021"></path>
                            <path d="M239,1.9209887 C242.665468,0.675521796 246.594276,-2.84217094e-14 250.680863,-2.84217094e-14 C270.722863,-2.84217094e-14 286.970863,16.248 286.970863,36.29 C286.970863,55.3518808 272.273166,70.9808615 253.592544,72.4638908 C254.326941,67.4575846 254.707263,62.3362048 254.707263,57.126 C254.707263,36.8671246 248.957206,17.9510652 239,1.9209887 L239,1.9209887 Z" id="Path" fill="#000000" opacity="0.397856213"></path>
                            <path d="M170.427,77.705 C175.081,77.705 178.855,73.932 178.855,69.277 C178.855,64.623 175.081,60.85 170.427,60.85 C165.773,60.85 162,64.623 162,69.277 C162,73.932 165.773,77.705 170.427,77.705" id="Fill-19" fill="#000000" opacity="0.59812128"></path>
                        </g>
                    </g>
                </g>
                <g id="Robot-/-Head-/-4" transform="translate(159.000000, 30.000000)">
                    <g id="Group-24" transform="translate(-3.000000, 16.000000)">
                        <path d="M160.971,97.1281 L160.971,27.2821" id="Stroke-1" stroke="#19141E" stroke-width="7"></path>
                        <path d="M167.2562,126.7741 L138.3762,126.7741 L138.3762,83.7271 L167.2562,83.7271 C179.0942,83.7271 188.7792,93.4121 188.7792,105.2501 C188.7792,117.0881 179.0942,126.7741 167.2562,126.7741" id="Fill-5" fill="#19141E"></path>
                        <g id="Face-color" transform="translate(22.000000, -0.000100)">
                            <mask id="mask-12" fill="white">
                                <use xlink:href="#path-11"></use>
                            </mask>
                            <use id="Mask" fill="#6CA1FF" xlink:href="#path-11"></use>
                            <g id="Colors-/-Skin-/-Pink" mask="url(#mask-12)" fill="#CF3E83" fill-rule="nonzero">
                                <g transform="translate(-1.000000, 0.000100)" id="Color">
                                    <rect x="0" y="0" width="156" height="173"></rect>
                                </g>
                            </g>
                        </g>
                        <g id="Overlay" transform="translate(46.047400, 6.221848)" fill="#000000">
                            <polygon id="Stroke-21" fill-rule="nonzero" opacity="0.404366629" points="30.5754153 7.55630476 15.7635384 18.8942105 7.58809805 12.6955108 7.20296621 4.78755179 15.7636616 11.3380943 30.5757847 -3.55271368e-15 45.3848462 11.3380471 60.1978462 4.71243264e-05 75.0072154 11.3383298 89.8256 0.000800608925 99.3069 7.55550415 100.883752 15.9392852 89.8256 7.55550415 75.0059846 18.893975 60.1973538 7.55625763 45.3843538 18.8942576"></polygon>
                            <path d="M98.805,167.060052 L7.349,167.060052 C3.291,167.060052 -6.82121026e-13,163.770052 -6.82121026e-13,159.711052 C-6.82121026e-13,155.652052 3.291,152.362052 7.349,152.362052 L98.805,152.362052 C102.864,152.362052 106.154,155.652052 106.154,159.711052 C106.154,163.770052 102.864,167.060052 98.805,167.060052" id="Fill-9" opacity="0.39562407"></path>
                        </g>
                        <path d="M21.5238,126.7741 L50.4028,126.7741 L50.4028,83.7271 L21.5238,83.7271 C9.6858,83.7271 -0.0002,93.4121 -0.0002,105.2501 C-0.0002,117.0881 9.6858,126.7741 21.5238,126.7741" id="Fill-11" fill="#19141E"></path>
                        <path d="M160.971,105.2501 C160.971,121.7101 150.311,135.0541 137.162,135.0541 C124.013,135.0541 113.354,121.7101 113.354,105.2501 C113.354,88.7901 124.013,75.4461 137.162,75.4461 C150.311,75.4461 160.971,88.7901 160.971,105.2501" id="Fill-14" fill="#19141E"></path>
                        <polygon id="Fill-16" fill="#19141E" points="125.974 135.054 137.162 135.054 137.162 75.446 125.974 75.446"></polygon>
                        <path d="M149.7825,105.2501 C149.7825,121.7101 139.1235,135.0541 125.9735,135.0541 C112.8245,135.0541 102.1655,121.7101 102.1655,105.2501 C102.1655,88.7901 112.8245,75.4461 125.9735,75.4461 C139.1235,75.4461 149.7825,88.7901 149.7825,105.2501" id="Fill-18" fill="#FFFFFF"></path>
                        <path d="M138.1624,103.2501 C138.1624,109.0441 134.4104,113.7421 129.7814,113.7421 C125.1524,113.7421 121.4004,109.0441 121.4004,103.2501 C121.4004,97.4561 125.1524,92.7581 129.7814,92.7581 C134.4104,92.7581 138.1624,97.4561 138.1624,103.2501" id="Fill-19" fill="#19141E"></path>
                        <path d="M38.3553,97.1281 L38.3553,30.5" id="Stroke-20" stroke="#19141E" stroke-width="7"></path>
                    </g>
                </g>
            </g>
        </g>
    </g>
</svg>