<?xml version="1.0" encoding="UTF-8"?>
<svg width="2006px" height="942px" viewBox="0 0 2006 942" version="1.1" xmlns="http://www.w3.org/2000/svg" xmlns:xlink="http://www.w3.org/1999/xlink">
    <!-- Generator: Sketch 53.2 (72643) - https://sketchapp.com -->
    <title>Illustration 15</title>
    <desc>Created with Sketch.</desc>
    <defs>
        <path d="M71.0284832,116.942427 L70.1668389,87.1290528 C70.1668389,87.1290528 106.314221,90.0136908 114.047275,85.9877276 C114.047275,85.9877276 123.498181,37.1858626 112.226134,10.160881 L111.997812,9.10853742 L35.7164698,0.165887117 L31.4399414,44.0368098 C28.8704112,36.4406871 7.66365101,27.8273595 2.12049664,38.7049055 C-9.89269128,62.2750405 33.0608658,78.1455436 33.0608658,78.1455436 L28.6991879,117.300169" id="path-1"></path>
        <path d="M182.330961,15.8791131 L182.047748,40.3298346 C182.047748,40.3298346 236.83074,48.9636944 255.401827,69.897215 L146.256126,69.897215 L150.827843,-1.13686838e-13 L182.330961,15.8791131 Z M42.5209953,13.8199992 L42.2367748,41.2828826 C42.2367748,41.2828826 65.3110425,44.2970525 74.7034205,69.8974158 L0.000806299213,69.8974158 L5.45542047,39.763749 L21.9825386,30.5545662 L42.5209953,13.8199992 Z" id="path-3"></path>
        <path d="M145.788674,2.59347133 L177.291792,12.0667202 L177.00858,36.5164377 L143.248831,34.9983082 L145.788674,2.59347133 Z M5.97860787,0.533453858 L37.481726,10.0077068 L37.1975055,37.4695861 L0.415143307,35.9504525 L5.97860787,0.533453858 Z" id="path-5"></path>
        <path d="M185.837948,469.257961 L185.111483,491.949926 L143.556838,491.949926 L144.285481,469.18992 C139.630081,467.321258 136.303834,462.826851 136.190387,457.516599 L129.501624,117.625148 L57.2270866,460.774553 C56.2087126,465.601588 52.6310058,469.350289 48.0874604,470.73195 L45.3703559,491.949926 L1.7999622,491.949926 L5.54978897,468.52389 C1.92160908,465.7098 -0.181090682,461.080999 0.54223622,456.136828 L67.0820787,1.33553525 L127.213142,1.33532685 L127.209728,1.16181008 L200.039546,1.16181008 L195.674104,456.881033 C195.613596,462.873595 191.447488,467.886853 185.837948,469.257961 Z" id="path-7"></path>
        <polygon id="path-9" points="76.5923351 0.428732993 83.5716043 1.56834402 7.46062992 465.042069 0.460752953 463.87292"></polygon>
        <path d="M316.9268,62.6815971 L316.4268,54.0525062 C316.4268,54.0525062 316.4368,48.0479314 317.2168,41.5661718 C317.9968,35.0844123 322.4968,27.4196323 317.7368,15.9771396 C312.9768,4.54458827 324.3568,12.4380194 326.8768,17.8759372 C328.9768,22.4091924 327.8668,31.942946 330.4468,35.4323595 C332.6268,34.249339 334.0768,32.7084299 334.0768,32.7084299 L358.6068,1.07505748 C359.3968,0.0113331378 360.8568,-0.306790029 362.0268,0.319514956 L363.3468,1.03529208 C364.7368,1.7908346 365.1768,3.56039472 364.2868,4.85277009 C359.4968,11.8415384 344.6568,32.3406 345.0568,32.5493683 L345.7068,33.3347349 L374.5168,3.13291672 C375.4168,2.12884047 376.9268,1.94989619 378.0368,2.71538006 L379.7668,3.90834194 C381.0268,4.7732393 381.2968,6.50303402 380.3568,7.69599589 C374.6268,15.0525941 353.1268,38.4048229 353.5368,38.6334739 L354.3968,39.4586059 L381.2168,15.9075501 C382.1668,14.8537672 383.7868,14.734471 384.8868,15.619251 L386.1968,16.6829754 C387.3468,17.6075208 387.5168,19.2876088 386.5768,20.4209226 L361.2468,44.1012158 L361.9768,45.244471 L383.9668,29.8850868 C384.9768,28.9903654 386.4968,28.9903654 387.5168,29.8751455 L388.1268,30.4219196 C389.2068,31.3762891 389.3268,33.0166117 388.3868,34.1201015 C385.1668,37.9077554 375.1668,44.2503361 367.3068,52.0741777 C361.2068,58.1483419 358.2168,63.904383 349.6968,70.7241484 C346.0968,73.6170809 342.8868,75.128166 339.8268,76.7287232 L316.9268,62.6815971 Z M119.2173,42.8834006 C119.2173,42.8834006 136.1643,42.8505941 148.3953,42.8098346 C160.6253,42.7680809 176.0053,47.9087525 176.0053,47.9087525 C176.0053,47.9087525 184.0083,65.8787349 156.2083,64.2513361 C128.4083,62.621949 119.2173,42.8834006 119.2173,42.8834006 Z M0.0103004754,178.939112 C-0.604699525,156.303655 26.5243005,115.601784 26.5243005,115.601784 L74.0103005,136.72715 L54.4713005,178.327719 L108.1993,253.197012 L86.0813005,271.204772 C86.0813005,271.204772 0.736300475,205.627657 0.0103004754,178.939112 Z" id="path-11"></path>
        <path d="M101.928724,177.8146 L115.140528,195.533709 L75.345528,230.201181 C75.345528,230.201181 2.31852799,176.706782 0.0635279902,134.764231 C-1.37247201,108.049838 22.012528,69.9158173 22.012528,69.9158173 C22.012528,69.9158173 51.364528,23.0314214 85.294528,7.20877038 C92.2575386,3.96157113 109.139441,1.25303092 119.373328,0.1356 C122.510256,-0.206918937 120.634707,1.01463229 121.711654,3.08211642 C122.83675,5.24203507 126.26145,8.44255377 128.630599,10.8347683 C133.561751,15.813929 143.280013,19.5841662 148.500228,20.3559799 C152.478215,20.9441291 160.166732,21.8565321 163.864974,21.3600659 C167.563216,20.8635997 171.584334,19.1949828 172.658919,18.2036391 C173.733504,17.2122953 175.332015,15.9719324 176.161328,14.0613294 C176.990641,12.1507264 176.94847,12.6980227 176.94847,10.9354839 C176.94847,9.17294504 176.85747,9.43360234 176.684798,8.59480102 C176.512126,7.7559997 176.512126,7.25172954 176.410384,6.81829458 C175.960142,4.90020079 176.161328,5.16095191 176.161328,5.16095191 C196.190837,11.2069502 206.336737,13.4445144 213.63346,22.2400197 L269.397228,61.3511463 L307.551228,11.5937006 L356.781228,44.6288032 C356.781228,44.6288032 313.192228,125.79097 281.602228,134.764032 C256.155415,141.992136 230.376373,119.513066 221.312393,110.496881 L232.081528,165.134058 C233.807528,174.567404 225.542528,178.137342 218.178528,177.803313 L101.928724,177.8146 Z" id="path-13"></path>
        <path d="M70.5553925,115.84519 L69.6994925,86.4831231 C69.6994925,86.4831231 105.605893,89.3240942 113.287393,85.359075 C113.287393,85.359075 121.567393,42.1113923 111.251593,9.64366154 L35.4787925,0.836382692 L30.0877449,44.1328125 C27.5353449,36.6516779 7.61299254,28.0791231 2.10589254,38.7920077 C-9.82630746,62.0053442 32.8408925,77.6356038 32.8408925,77.6356038 L28.5082925,116.198412" id="path-15"></path>
        <path d="M331.6505,94.7485385 L338.6025,117.165219 C338.6025,117.165219 392.8895,94.8809813 420.8145,103.336404 L326.7135,157.867959 L302.2155,96.3039939 L331.6505,94.7485385 Z M75.7228,28.2431648 L45.2818,56.1656788 C45.2818,56.1656788 49.8038,74.744507 51.7098,92.2677765 C54.4698,117.634046 52.7738,140.532698 52.7738,140.532698 L-0.0002,48.3864106 L65.1478,-9.9475983e-14 L75.7228,28.2431648 Z" id="path-17"></path>
        <path d="M276.7736,101.184559 L305.8746,98.5625906 L311.6026,117.191209 L287.5166,127.240924 L276.7736,101.184559 Z M37.7023,4.26325641e-14 L41.0493,35.3851145 L18.2813,56.1925656 L0.2063,28.3845698 L37.7023,4.26325641e-14 Z" id="path-19"></path>
        <path d="M250.731641,100.369221 L331.9123,463.410168 L309.5523,469.116159 L309.5423,469.116159 L283.5123,475.76817 L283.3823,475.798045 L274.3723,478.098366 C274.3723,478.098366 233.012495,347.598072 196.601557,231.178126 C187.741667,245.607167 177.761813,259.866923 166.531,273.738326 C86.742,372.283689 37.922,414.406454 37.922,414.406454 L30.662,403.462502 L30.642,403.432628 L13.192,377.133284 L0.572,358.113312 C0.572,358.113312 109.832,254.967306 158.992,109.867823 C150.3513,81.617588 144.3613,61.4514385 142.8223,54.9985894 C134.0123,18.2034078 133.8323,1.34434358 133.8323,1.98951966e-13 L228.2923,1.98951966e-13 L266.172,9.95810055e-05 C264.792,23.9792057 260.982,59.6391638 250.732,100.367795 Z" id="path-21"></path>
        <path d="M211.2191,7.46595308 C213.7831,1.63833431 227.2521,2.13162821e-14 227.2521,2.13162821e-14 C227.2521,2.13162821e-14 248.7471,23.921868 250.6711,27.5743196 C252.5941,31.2267713 256.1521,49.3120733 255.9831,52.8849941 C255.8131,56.457915 244.7281,72.5131935 244.7281,72.5131935 C237.8501,70.8848006 242.3421,62.5917273 242.3421,62.5917273 C242.3421,62.5917273 236.1811,67.6290088 233.6201,67.5445073 C209.4991,66.7491994 210.7911,54.9428534 211.3621,53.4645748 C212.6431,50.1441642 219.0811,53.9407654 219.0811,53.9407654 C219.0811,53.9407654 203.8861,24.1375953 211.2191,7.46595308 Z M36.1561,12.27349 L40.5291,20.5745164 C40.5291,20.5745164 42.7601,24.3979592 45.0961,31.0705927 C47.4311,37.7442202 46.4601,41.8271323 51.5131,52.3082965 C57.2481,64.2061029 46.9891,59.3000472 43.3121,54.1066865 C40.4411,50.0535985 40.7671,44.573927 37.0451,42.1184138 C35.7981,44.1076777 32.9481,46.9538859 31.3581,64.1206073 C31.0731,67.1994431 32.4681,77.1865223 32.4681,77.1865223 C32.4991,80.1788683 32.8821,86.4190531 29.4761,87.3714343 C28.6321,87.6080384 27.5331,86.6755399 27.5331,86.6755399 C27.5331,86.6755399 27.8631,90.5795076 24.3811,91.3569211 C23.0121,91.6621205 20.2941,83.2318566 20.2941,83.2318566 C20.2941,83.2318566 19.8801,87.5126015 17.2801,87.9887921 C16.5451,88.1239944 7.8671,63.6961117 7.8671,63.6961117 L8.3891,69.2125663 L9.5401,74.863229 C9.5401,74.863229 9.4481,77.9052818 7.0051,78.4441029 C6.0351,78.6568478 4.1731,73.5837774 2.4281,67.6149915 C-0.2859,58.3277833 -0.2309,51.3499504 0.5671,44.4089006 C1.5321,36.0223786 1.1021,33.2050003 4.8361,22.9206748 C6.3761,18.677707 9.7341,12.2645428 11.5121,9.53067185 L36.1561,12.27349 Z" id="path-23"></path>
        <path d="M95.3860027,19.6790456 L101.1124,9.94134897e-05 L129.7124,1.76965953 L139.6224,17.9442343 L149.5324,2.99244545 L156.6624,3.42986481 L159.060715,22.1703401 C160.344298,22.6948329 161.568472,23.2193257 162.7431,23.7438185 C164.3631,24.469537 165.8831,25.1853141 167.3131,25.9110326 L167.3931,25.9507979 C187.6331,36.1595692 190.5231,46.5890384 196.9031,59.7016777 C205.0831,76.4816806 213.5531,128.028569 213.5531,128.028569 L249.0531,217.003643 L205.5331,241.08159 L194.8331,220.483115 L195.1031,192.985343 L131.5931,192.985343 L124.5531,192.975402 L62.1131,192.975402 L61.1831,159.115167 L49.8531,227.034464 L0.1131,229.369687 C0.1131,229.369687 -0.8669,158.637983 8.6031,117.718396 C14.6331,91.6531733 44.0931,43.217927 71.9931,26.5661674 C76.4531,23.9028801 82.3731,22.0329123 88.9831,20.7415311 C91.0591387,20.3304713 93.2019626,19.9784279 95.3860023,19.679046 Z M132.7777,200.017953 C132.7777,202.270663 130.9417,204.095894 128.6757,204.095894 C126.4097,204.095894 124.5727,202.270663 124.5727,200.017953 C124.5727,197.765243 126.4097,195.939018 128.6757,195.939018 C130.9417,195.939018 132.7777,197.765243 132.7777,200.017953 Z M177.9052,200.245113 C177.9052,202.497823 176.0692,204.323054 173.8022,204.323054 C171.5372,204.323054 169.7002,202.497823 169.7002,200.245113 C169.7002,197.991409 171.5372,196.166177 173.8022,196.166177 C176.0692,196.166177 177.9052,197.991409 177.9052,200.245113 Z" id="path-25"></path>
        <path d="M0.6239,24.6555396 L8.3669,2.84217094e-14 L21.4079,15.4607859 L0.6239,24.6555396 Z M26.7821,15.2200065 L39.2531,1.97812962 L43.4701,24.9585519 L26.7821,15.2200065 Z" id="path-27"></path>
    </defs>
    <g id="Scene" stroke="none" stroke-width="1" fill="none" fill-rule="evenodd">
        <g id="Illustration-15" transform="translate(-301.000000, -135.000000)">
            <g id="Background-Object-/-Table-/-1" transform="translate(1514.000000, 381.000000)">
                <g id="Group-23" transform="translate(152.000000, 161.000000)">
                    <polygon id="Fill-1" fill="#DCEEFF" points="67.556 392.148 85.921 392.148 85.921 24.458 67.556 24.458"></polygon>
                    <polygon id="Fill-2" fill="#B6D4FF" points="49.19 392.148 67.555 392.148 67.555 24.458 49.19 24.458"></polygon>
                    <polygon id="Fill-3" fill="#DCEEFF" points="211.799 392.148 230.164 392.148 230.164 24.458 211.799 24.458"></polygon>
                    <polygon id="Fill-4" fill="#B6D4FF" points="193.433 392.148 211.798 392.148 211.798 24.458 193.433 24.458"></polygon>
                    <polygon id="Fill-5" fill="#DCEEFF" points="67.556 178.941 211.799 178.941 211.799 24.458 67.556 24.458"></polygon>
                    <polygon id="Fill-6" fill="#B6D4FF" points="0 24.458 482.049 24.458 482.049 0.001 0 0.001"></polygon>
                    <polygon id="Fill-7" fill="#DCEEFF" points="446.068 24.458 640.178 24.458 640.178 0.001 446.068 0.001"></polygon>
                    <polygon id="Fill-8" fill="#DCEEFF" points="572.233 392.148 591.871 392.148 591.871 24.458 572.233 24.458"></polygon>
                    <polygon id="Fill-9" fill="#B6D4FF" points="552.595 392.148 572.234 392.148 572.234 24.458 552.595 24.458"></polygon>
                    <polygon id="Fill-10" fill="#DCEEFF" points="417.399 392.148 437.037 392.148 437.037 24.458 417.399 24.458"></polygon>
                    <polygon id="Fill-11" fill="#DCEEFF" points="417.399 211.146 572.233 211.146 572.233 24.564 417.399 24.564"></polygon>
                    <polygon id="Fill-12" fill="#B6D4FF" points="269.448 211.058 397.76 211.058 397.76 24.476 269.448 24.476"></polygon>
                    <polygon id="Fill-13" fill="#B6D4FF" points="397.76 392.148 417.399 392.148 417.399 24.458 397.76 24.458"></polygon>
                    <polygon id="Fill-14" fill="#B6D4FF" points="397.76 57.151 591.871 57.151 591.871 24.458 397.76 24.458"></polygon>
                    <polygon id="Fill-15" fill="#B6D4FF" points="49.19 57.151 230.165 57.151 230.165 24.458 49.19 24.458"></polygon>
                    <polygon id="Fill-16" fill="#DCEEFF" points="290.176 106.91 377.033 106.91 377.033 42.245 290.176 42.245"></polygon>
                    <polygon id="Fill-17" fill="#DCEEFF" points="290.176 188.875 377.033 188.875 377.033 124.21 290.176 124.21"></polygon>
                    <g id="Group-22" transform="translate(320.000000, 60.148000)" fill="#B6D4FF">
                        <path d="M27.2086,14.4294 C27.2086,22.0884 21.1176,28.2984 13.6046,28.2984 C6.0906,28.2984 0.0006,22.0884 0.0006,14.4294 C0.0006,6.7704 6.0906,0.5614 13.6046,0.5614 C21.1176,0.5614 27.2086,6.7704 27.2086,14.4294" id="Fill-18"></path>
                        <path d="M27.2086,96.3942 C27.2086,104.0532 21.1176,110.2632 13.6046,110.2632 C6.0906,110.2632 0.0006,104.0532 0.0006,96.3942 C0.0006,88.7352 6.0906,82.5262 13.6046,82.5262 C21.1176,82.5262 27.2086,88.7352 27.2086,96.3942" id="Fill-20"></path>
                    </g>
                </g>
            </g>
            <g id="Background-Object-/-Sofa-/-3" transform="translate(1047.500000, 710.000000) scale(-1, 1) translate(-1047.500000, -710.000000) translate(380.000000, 85.000000)">
                <g id="Group-20" transform="translate(182.000000, 398.000000)">
                    <polygon id="Fill-1" fill="#B6D4FF" points="230.641 331.179 795.016 331.179 795.016 197.507 230.641 197.507"></polygon>
                    <path d="M388.9745,225.7942 L795.8625,225.7942 C817.0405,225.7942 834.7145,209.6232 836.5915,188.5272 L849.3165,45.5142 C851.4445,21.5952 832.5995,1.0002 808.5865,1.0002 L401.6985,1.0002 C380.5195,1.0002 362.8455,17.1712 360.9685,38.2672 L348.2455,181.2802 C346.1175,205.1992 364.9605,225.7942 388.9745,225.7942" id="Fill-2" fill="#B6D4FF"></path>
                    <path d="M54.0741,396.1243 L212.4351,396.1243 C235.8591,396.1243 254.2611,376.0683 252.2491,352.7293 L239.1391,200.6783 C237.3581,180.0153 220.0651,164.1493 199.3261,164.1493 L40.9651,164.1493 C17.5401,164.1493 -0.8619,184.2053 1.1501,207.5433 L14.2601,359.5953 C16.0421,380.2583 33.3341,396.1243 54.0741,396.1243" id="Fill-4" fill="#B6D4FF"></path>
                    <path d="M266.5546,225.7942 L718.5836,225.7942 C739.7626,225.7942 757.4366,209.6232 759.3136,188.5272 L772.0366,45.5142 C774.1646,21.5952 755.3216,1.0002 731.3076,1.0002 L279.2786,1.0002 C258.0996,1.0002 240.4256,17.1712 238.5486,38.2672 L225.8246,181.2802 C223.6976,205.1992 242.5406,225.7942 266.5546,225.7942" id="Fill-7" fill="#DCEEFF"></path>
                    <polygon id="Fill-9" fill="#CCE3FF" points="70.794 396.124 761.033 396.124 761.033 326.122 70.794 326.122"></polygon>
                    <path d="M165.0292,326.1219 L650.6622,326.1219 C674.7812,326.1219 694.3332,306.5699 694.3332,282.4519 C694.3332,258.3339 674.7812,238.7819 650.6622,238.7819 L165.0292,238.7819 C140.9112,238.7819 121.3592,258.3339 121.3592,282.4519 C121.3592,306.5699 140.9112,326.1219 165.0292,326.1219" id="Fill-11" fill="#DCEEFF"></path>
                    <polygon id="Fill-12" fill="#B6D4FF" points="892.204 452.8401 908.768 452.8401 901.768 396.1241 871.204 396.1241"></polygon>
                    <polygon id="Fill-13" fill="#B6D4FF" points="749.8456 452.8401 766.4086 452.8401 759.4086 396.1241 728.8456 396.1241"></polygon>
                    <polygon id="Fill-14" fill="#B6D4FF" points="73.4091 452.8401 56.8461 452.8401 63.8461 396.1241 94.4091 396.1241"></polygon>
                    <polygon id="Fill-15" fill="#B6D4FF" points="215.7684 452.8401 199.2044 452.8401 206.2044 396.1241 236.7684 396.1241"></polygon>
                    <path d="M54.0741,396.1243 L77.8031,396.1243 C101.2281,396.1243 119.6301,376.0683 117.6181,352.7293 L104.5091,200.6783 C102.7271,180.0153 85.4341,164.1493 64.6941,164.1493 L40.9651,164.1493 C17.5401,164.1493 -0.8619,184.2053 1.1501,207.5433 L14.2601,359.5953 C16.0421,380.2583 33.3341,396.1243 54.0741,396.1243" id="Fill-16" fill="#CCE3FF"></path>
                    <path d="M737.8876,396.1243 L916.2486,396.1243 C936.9886,396.1243 954.2816,380.2583 956.0626,359.5953 L969.1716,207.5433 C971.1846,184.2053 952.7836,164.1493 929.3586,164.1493 L750.9966,164.1493 C730.2576,164.1493 712.9646,180.0153 711.1836,200.6783 L698.0746,352.7293 C696.0616,376.0683 714.4626,396.1243 737.8876,396.1243" id="Fill-17" fill="#B6D4FF"></path>
                    <path d="M737.8876,396.1243 L761.6166,396.1243 C782.3576,396.1243 799.6506,380.2583 801.4316,359.5953 L814.5406,207.5433 C816.5526,184.2053 798.1516,164.1493 774.7266,164.1493 L750.9966,164.1493 C730.2576,164.1493 712.9646,180.0153 711.1836,200.6783 L698.0746,352.7293 C696.0616,376.0683 714.4626,396.1243 737.8876,396.1243" id="Fill-18" fill="#CCE3FF"></path>
                </g>
            </g>
            <g id="Background-Object-/-Pluteus-/-3" transform="translate(1496.000000, 88.000000)">
                <g id="Group-29" transform="translate(254.000000, 76.000000)">
                    <polygon id="Fill-1" fill="#DCEEFF" points="201.5303 130.663 298.0173 130.663 311.0473 0.5 214.5603 0.5"></polygon>
                    <polygon id="Stroke-2" stroke="#DCEEFF" stroke-width="5" points="201.5303 130.663 298.0173 130.663 311.0473 0.5 214.5603 0.5"></polygon>
                    <polygon id="Fill-4" fill="#FFFFFF" points="196.3223 130.663 294.6043 130.663 307.6353 0.5 209.3523 0.5"></polygon>
                    <polygon id="Stroke-5" stroke="#DCEEFF" stroke-width="5" points="196.3223 130.663 294.6043 130.663 307.6353 0.5 209.3523 0.5"></polygon>
                    <polygon id="Fill-7" fill="#DCEEFF" points="215.1465 113.4765 279.2215 113.4765 288.8105 17.6865 224.7355 17.6865"></polygon>
                    <polygon id="Fill-8" fill="#DCEEFF" points="456.3555 39.2128 447.3255 129.3938 328.7615 129.3938 337.7925 39.2128"></polygon>
                    <polygon id="Stroke-9" stroke="#DCEEFF" stroke-width="5" points="456.3555 39.2128 447.3255 129.3938 328.7615 129.3938 337.7925 39.2128"></polygon>
                    <polygon id="Fill-10" fill="#FFFFFF" points="453.7031 39.2128 444.6731 129.3938 323.9031 129.3938 332.9341 39.2128"></polygon>
                    <polygon id="Stroke-11" stroke="#DCEEFF" stroke-width="5" points="453.7031 39.2128 444.6731 129.3938 323.9031 129.3938 332.9341 39.2128"></polygon>
                    <polygon id="Fill-12" fill="#CCE3FF" points="428.2393 56.9042 422.7523 111.7022 349.3673 111.7022 354.8543 56.9042"></polygon>
                    <path d="M55.5517,95.6874 L55.5517,95.6874 C55.5517,102.5904 61.1487,108.1874 68.0527,108.1874 L180.5217,108.1874 L180.5217,83.1864 L68.0527,83.1864 C61.1487,83.1864 55.5517,88.7834 55.5517,95.6874" id="Fill-13" fill="#CCE3FF"></path>
                    <path d="M131.1973,95.6874 L131.1973,95.6874 C131.1973,99.6834 134.4363,102.9234 138.4333,102.9234 L180.2193,102.9234 C180.3863,102.9234 180.5213,102.7894 180.5213,102.6234 L180.5213,88.7504 C180.5213,88.5844 180.3863,88.4504 180.2193,88.4504 L138.4333,88.4504 C134.4363,88.4504 131.1973,91.6904 131.1973,95.6874" id="Fill-15" fill="#DCEEFF"></path>
                    <path d="M39.8545,108.1874 L39.8545,133.1884 L162.6135,133.1884 C169.5175,133.1884 175.1145,127.5914 175.1145,120.6884 C175.1145,113.7844 169.5175,108.1874 162.6135,108.1874 L39.8545,108.1874 Z" id="Fill-17" fill="#CCE3FF"></path>
                    <path d="M39.8545,113.5214 L39.8545,127.8554 L90.3285,127.8554 C94.2865,127.8554 97.4955,124.6464 97.4955,120.6884 C97.4955,116.7294 94.2865,113.5214 90.3285,113.5214 L39.8545,113.5214 Z" id="Fill-19" fill="#DCEEFF"></path>
                    <polygon id="Fill-21" fill="#DCEEFF" points="0 149.797 423.178 149.797 423.178 132.02 0 132.02"></polygon>
                    <polygon id="Fill-23" fill="#CCE3FF" points="423.178 149.797 492.795 149.797 492.795 132.02 423.178 132.02"></polygon>
                    <polygon id="Fill-24" fill="#B6D4FF" points="103.1406 149.7968 136.1876 201.6428 136.1876 149.7968"></polygon>
                    <polygon id="Fill-25" fill="#CCE3FF" points="84.8525 149.7968 117.8995 201.6428 136.1875 201.6428 103.1405 149.7968"></polygon>
                    <polygon id="Fill-26" fill="#B6D4FF" points="345.5176 149.7968 378.5646 201.6428 378.5646 149.7968"></polygon>
                    <polygon id="Fill-27" fill="#CCE3FF" points="327.2295 149.7968 360.2765 201.6428 378.5645 201.6428 345.5175 149.7968"></polygon>
                </g>
            </g>
            <g id="Background-Object-/-Bedside-table-/-2" transform="translate(472.500000, 625.000000) scale(-1, 1) translate(-472.500000, -625.000000) ">
                <g id="Group-20" transform="translate(302.000000, 314.245810)">
                    <polygon id="Fill-1" fill="#DCEEFF" points="0 621.607891 26.535 621.607891 26.535 471.115573 0 471.115573"></polygon>
                    <polygon id="Fill-2" fill="#DCEEFF" points="221.016 621.607891 247.551 621.607891 247.551 471.115573 221.016 471.115573"></polygon>
                    <polygon id="Fill-3" fill="#B6D4FF" points="93.548 621.607891 120.083 621.607891 120.083 471.115573 93.548 471.115573"></polygon>
                    <polygon id="Fill-4" fill="#B6D4FF" points="314.564 621.607891 341.098 621.607891 341.098 471.115573 314.564 471.115573"></polygon>
                    <polygon id="Fill-5" fill="#B6D4FF" points="93.959 497.817737 341.508 497.817737 341.508 195.656425 93.959 195.656425"></polygon>
                    <polygon id="Fill-6" fill="#DCEEFF" points="0 497.817737 247.55 497.817737 247.55 195.656425 0 195.656425"></polygon>
                    <polygon id="Fill-7" fill="#ECF6FF" points="22.967 458.699372 224.583 458.699372 224.583 234.771299 22.967 234.771299"></polygon>
                    <path d="M158.5198,234.771997 L158.5198,234.771997 C158.5198,250.693785 151.1258,263.602304 142.0058,263.602304 L105.5438,263.602304 C96.4238,263.602304 89.0308,250.693785 89.0308,234.771997 L158.5198,234.771997 Z" id="Fill-8" fill="#CCE3FF"></path>
                    <polygon id="Fill-10" fill="#CCE3FF" points="234.035 196.202863 285.522 196.202863 285.522 67.2800279 234.035 67.2800279"></polygon>
                    <polygon id="Fill-12" fill="#DCEEFF" points="268.0295 196.202165 185.8295 196.202165 216.8595 1.74511173 299.0595 1.74511173"></polygon>
                    <polygon id="Fill-13" fill="#ECF6FF" points="251.0295 196.202165 168.8295 196.202165 199.8595 1.74511173 282.0595 1.74511173"></polygon>
                    <polygon id="Fill-14" fill="#CCE3FF" points="240.6956 166.196054 188.7406 166.196054 210.1936 31.7512221 262.1486 31.7512221"></polygon>
                    <polygon id="Fill-15" fill="#CCE3FF" points="119.655 196.202863 156.068 196.202863 156.068 105.026187 119.655 105.026187"></polygon>
                    <polygon id="Fill-16" fill="#DCEEFF" points="140.6975 196.202165 82.5635 196.202165 104.5095 58.6794693 162.6425 58.6794693"></polygon>
                    <polygon id="Fill-17" fill="#ECF6FF" points="128.6741 196.202165 70.5401 196.202165 92.4861 58.6794693 150.6191 58.6794693"></polygon>
                    <polygon id="Fill-18" fill="#DCEEFF" points="119.7893 168.033869 88.4153 168.033869 101.3703 86.8449721 132.7453 86.8449721"></polygon>
                </g>
            </g>
            <g id="Person-/-Man-/-6" transform="translate(578.000000, 113.000000)">
                <g id="Man-/-Head-/-6" transform="translate(245.000000, 69.000000)">
                    <g id="Group-30" transform="translate(38.000000, 45.000000)">
                        <path d="M119.749349,44.0756712 C119.749349,58.4116957 110.531295,70.0328736 99.1604899,70.0328736 C87.7905906,70.0328736 78.5725369,58.4116957 78.5725369,44.0756712 C78.5725369,29.7396466 87.7905906,18.1184687 99.1604899,18.1184687 C110.531295,18.1184687 119.749349,29.7396466 119.749349,44.0756712" id="Fill-1" fill="#19141E"></path>
                        <g id="Face-color" transform="translate(0.000000, 29.963190)">
                            <mask id="mask-2" fill="white">
                                <use xlink:href="#path-1"></use>
                            </mask>
                            <use id="Mask" fill="#E576C6" xlink:href="#path-1"></use>
                            <g id="Colors-/-Skin-/-Rose" mask="url(#mask-2)" fill="#E576C6" fill-rule="nonzero">
                                <rect id="Color" x="0" y="0" width="118" height="118"></rect>
                            </g>
                        </g>
                        <polygon id="Fill-5" fill="#000000" opacity="0.398925781" points="70.1671107 117.09188 45.7919094 111.853769 70.0502315 128.277229"></polygon>
                        <polygon id="Fill-7" fill="#405FD3" points="89.6518691 73.4425031 98.0744195 94.0807853 87.9802248 94.2097178"></polygon>
                        <path d="M80.6697483,74.2369816 C81.1716946,77.0162945 79.3297148,79.6766626 76.5572315,80.178773 C73.7838423,80.6817914 71.1291443,78.8358773 70.628104,76.0574724 C70.1261577,73.2781595 71.9672315,70.6177914 74.7406208,70.114773 C77.5140101,69.6126626 80.167802,71.4576687 80.6697483,74.2369816" id="Fill-9" fill="#0D0B6D"></path>
                        <path d="M108.973812,74.2369816 C109.475758,77.0162945 107.633779,79.6766626 104.861295,80.178773 C102.087906,80.6817914 99.4332081,78.8358773 98.9321678,76.0574724 C98.4302215,73.2781595 100.271295,70.6177914 103.044685,70.114773 C105.818074,69.6126626 108.471866,71.4576687 108.973812,74.2369816" id="Fill-11" fill="#0D0B6D"></path>
                        <path d="M37.1043424,81.4879338 C29.8717759,69.0818063 19.4075036,65.2983098 14.7104567,64.1887592 C12.8372338,58.7621026 11.4090766,52.4684651 10.4056913,45.7749472 C7.71475168,27.8605914 20.7109933,11.5161252 31.2083758,6.8228 C41.8344161,2.07318037 60.1563624,-4.50873374 86.9751544,4.42574479 C105.005356,10.4365423 116.530188,-3.95396074 127.139919,2.19212515 C145.269785,12.6974012 128.406564,58.6899902 82.4349866,47.006162 C49.5511611,38.6482479 48.7058255,40.7447632 48.424047,46.820027 C47.5123303,66.4574532 44.4569009,78.0100505 37.1043424,81.4879338 Z" id="Combined-Shape" fill="#19141E"></path>
                        <g id="Group-21" transform="translate(75.201342, 94.601055)">
                            <path d="M0.428104027,0.375720245 C0.428104027,0.375720245 3.66901007,6.27756074 10.6736074,6.13773252" id="Fill-18" fill="#FFFFFF"></path>
                            <path d="M0.428104027,0.375720245 C0.428104027,0.375720245 3.66901007,6.27756074 10.6736074,6.13773252" id="Stroke-20" stroke="#252535" stroke-width="4"></path>
                        </g>
                        <path d="M87.2058322,74.4839509 C87.2058322,80.9451043 81.9788859,86.1823067 75.5315034,86.1823067 C69.0850268,86.1823067 63.8580805,80.9451043 63.8580805,74.4839509 C63.8580805,68.0227975 69.0850268,62.7846871 75.5315034,62.7846871 C81.9788859,62.7846871 87.2058322,68.0227975 87.2058322,74.4839509 Z" id="Stroke-22" stroke="#252535" stroke-width="4"></path>
                        <path d="M116.599953,74.4839509 C116.599953,80.9451043 111.373007,86.1823067 104.92653,86.1823067 C98.4791477,86.1823067 93.2522013,80.9451043 93.2522013,74.4839509 C93.2522013,68.0227975 98.4791477,62.7846871 104.92653,62.7846871 C111.373007,62.7846871 116.599953,68.0227975 116.599953,74.4839509 Z" id="Stroke-24" stroke="#252535" stroke-width="4"></path>
                        <path d="M92.3014027,75.0261939 L87.2538523,75.0261939" id="Stroke-26" stroke="#252535" stroke-width="4"></path>
                        <path d="M63.8579899,74.4839509 L35.0205403,74.4839509" id="Stroke-28" stroke="#252535" stroke-width="4"></path>
                    </g>
                </g>
                <g id="Man-/-Legs-/-6" transform="translate(53.000000, 249.000000)">
                    <g id="Group-23" transform="translate(149.000000, 180.241620)">
                        <g id="Shoes" transform="translate(0.000000, 461.395360)">
                            <mask id="mask-4" fill="white">
                                <use xlink:href="#path-3"></use>
                            </mask>
                            <use id="Mask" fill="#0D0B6D" xlink:href="#path-3"></use>
                            <g id="Colors-/-Skin-/--Light-Blue" mask="url(#mask-4)" fill="#5E93D1" fill-rule="nonzero">
                                <g transform="translate(-9.070866, 34.938467)" id="Color">
                                    <rect x="0" y="0" width="264" height="38"></rect>
                                </g>
                            </g>
                        </g>
                        <g id="Leg-skin" transform="translate(5.039370, 465.208154)">
                            <mask id="mask-6" fill="white">
                                <use xlink:href="#path-5"></use>
                            </mask>
                            <use id="Mask" fill="#CF3E83" xlink:href="#path-5"></use>
                            <g id="Colors-/-Skin-/-Pink" mask="url(#mask-6)" fill="#CF3E83" fill-rule="nonzero">
                                <g transform="translate(-5.039370, -7.028378)" id="Color">
                                    <rect x="0" y="0" width="182" height="60"></rect>
                                </g>
                            </g>
                        </g>
                        <g id="Pants" transform="translate(1.007874, 0.000000)">
                            <mask id="mask-8" fill="white">
                                <use xlink:href="#path-7"></use>
                            </mask>
                            <use id="Mask" fill="#2F2F3D" xlink:href="#path-7"></use>
                            <g id="Colors-/-Wear-/-Cream" mask="url(#mask-8)" fill="#FCBDA4" fill-rule="nonzero">
                                <g transform="translate(-1.007874, 1.335234)" id="Color">
                                    <rect x="0" y="0" width="201" height="493"></rect>
                                </g>
                            </g>
                        </g>
                        <polygon id="Fill-15" fill="#000000" opacity="0.197823661" points="130.140019 123.011109 142.891641 66.440702 133.297688 237.947172"></polygon>
                        <g id="Pants-line" transform="translate(7.055118, 1.335234)">
                            <mask id="mask-10" fill="white">
                                <use xlink:href="#path-9"></use>
                            </mask>
                            <use id="Mask" fill="#EFEFEF" xlink:href="#path-9"></use>
                            <g id="Colors-/-Wear-/-White" mask="url(#mask-10)" fill="#EFEFEF" fill-rule="nonzero">
                                <g transform="translate(-2.015748, 0.000000)" id="Color">
                                    <rect x="0" y="0" width="86" height="465"></rect>
                                </g>
                            </g>
                        </g>
                    </g>
                </g>
                <g id="Man-/-Body-/-6" transform="translate(186.000000, 212.000000)">
                    <g id="Group-18">
                        <g id="Skin-color" transform="translate(0.155800, 0.000000)">
                            <mask id="mask-12" fill="white">
                                <use xlink:href="#path-11"></use>
                            </mask>
                            <use id="Mask" fill="#E576C6" xlink:href="#path-11"></use>
                            <g id="Colors-/-Skin-/-Rose" mask="url(#mask-12)" fill="#E576C6" fill-rule="nonzero">
                                <g transform="translate(58.844200, 0.000000)" id="Color">
                                    <rect x="0" y="0" width="331" height="285"></rect>
                                </g>
                            </g>
                        </g>
                        <g id="Sweater-color" transform="translate(-0.000228, 42.747801)">
                            <mask id="mask-14" fill="white">
                                <use xlink:href="#path-13"></use>
                            </mask>
                            <use id="Mask" fill="#72A065" xlink:href="#path-13"></use>
                            <g id="Colors-/-Wear-/-Green" mask="url(#mask-14)" fill="#72A065" fill-rule="nonzero">
                                <g transform="translate(0.000228, 0.000000)" id="Color">
                                    <rect x="0" y="0" width="357" height="231"></rect>
                                </g>
                            </g>
                        </g>
                        <polygon id="Fill-9" fill="#000000" opacity="0.201241629" points="221.1431 153.277508 214.4781 126.95381 232.4741 162.92857"></polygon>
                        <polyline id="Stroke-16" stroke="#000000" stroke-width="5" opacity="0.200590588" points="96.9864 214.218275 65.9094 170.170146 103.4484 113.274812"></polyline>
                    </g>
                </g>
            </g>
            <g id="Person-/-Man-/-3" transform="translate(1527.500000, 644.500000) scale(-1, 1) translate(-1527.500000, -644.500000) translate(1188.000000, 130.000000)">
                <g id="Man-/-Head-/-3" transform="translate(245.000000, 69.000000)">
                    <g id="Group-21" transform="translate(38.000000, 7.000000)">
                        <g id="Face-color" transform="translate(-0.000343, 69.000000)">
                            <mask id="mask-16" fill="white">
                                <use xlink:href="#path-15"></use>
                            </mask>
                            <use id="Mask" fill="#5E93D1" xlink:href="#path-15"></use>
                            <g id="Colors-/-Skin-/-Rose" mask="url(#mask-16)" fill="#E576C6" fill-rule="nonzero">
                                <g transform="translate(0.000343, -2.000000)" id="Color">
                                    <rect x="0" y="0" width="116" height="118"></rect>
                                </g>
                            </g>
                        </g>
                        <polygon id="Fill-4" fill="#000000" opacity="0.399344308" points="69.69906 155.482765 45.48726 150.323948 69.58296 166.498794"></polygon>
                        <polygon id="Fill-6" fill="#2437A8" points="89.67132 107.500399 98.03862 127.826264 88.01082 127.953245"></polygon>
                        <path d="M80.13168,113.276593 C80.63028,116.013834 78.80058,118.63393 76.04658,119.128439 C73.29168,119.623843 70.65558,117.805872 70.15698,115.069526 C69.65838,112.332286 71.48808,109.712189 74.24208,109.216786 C76.99698,108.722276 79.63398,110.539353 80.13168,113.276593" id="Fill-8" fill="#0D0B6D"></path>
                        <path d="M106.44696,113.276593 C106.94556,116.013834 105.11586,118.63393 102.36186,119.128439 C99.60696,119.623843 96.97086,117.805872 96.47226,115.069526 C95.97366,112.332286 97.80336,109.712189 100.55736,109.216786 C103.31226,108.722276 105.94926,110.539353 106.44696,113.276593" id="Fill-10" fill="#0D0B6D"></path>
                        <g id="Group-15" transform="translate(79.200000, 133.332490)">
                            <path d="M0.06768,0.376113462 C0.06768,0.376113462 3.57228,6.02318077 10.51398,5.54476731" id="Fill-12" fill="#FFFFFF"></path>
                            <path d="M0.06768,0.376113462 C0.06768,0.376113462 3.57228,6.02318077 10.51398,5.54476731" id="Stroke-14" stroke="#252535" stroke-width="4"></path>
                        </g>
                        <path d="M15.7665321,103.878771 C12.4017275,91.4453476 0.225135523,45.5509758 1.6596,37.7162394 C3.3201,28.6362202 9.6813,17.4896337 42.3666,5.79846058 C70.0596,-4.10693365 85.6809,3.06569135 90.4131,9.16881635 C97.6131,18.4554029 111.2508,78.6442875 111.2508,78.6442875 C111.2508,78.6442875 99.9666,86.6235087 59.9508,85.2472875 C59.9508,85.2472875 65.4903,109.184951 42.7824,107.809624 C42.7824,107.809624 45.2158983,115.87084 34.2268932,118.406451 C28.1974359,109.089751 20.1956614,105.324532 15.7665321,103.878771 Z" id="Combined-Shape" fill="#19141E"></path>
                    </g>
                </g>
                <g id="Man-/-Legs-/-3" transform="translate(53.000000, 249.000000)">
                    <g id="Group-20" transform="translate(56.000000, 180.241620)">
                        <g id="Shoes" transform="translate(0.000000, 359.559925)">
                            <mask id="mask-18" fill="white">
                                <use xlink:href="#path-17"></use>
                            </mask>
                            <use id="Mask" fill="#0D0B6D" xlink:href="#path-17"></use>
                            <g id="Colors-/-Skin-/--Light-Blue" mask="url(#mask-18)" fill="#5E93D1" fill-rule="nonzero">
                                <g transform="translate(-12.000000, 25.818566)" id="Color">
                                    <rect x="0" y="0" width="433" height="132"></rect>
                                </g>
                            </g>
                        </g>
                        <g id="Skin-legs" transform="translate(27.000000, 359.533437)">
                            <mask id="mask-20" fill="white">
                                <use xlink:href="#path-19"></use>
                            </mask>
                            <use id="Mask" fill="#CF3E83" xlink:href="#path-19"></use>
                            <g id="Colors-/-Skin-/-Pink" mask="url(#mask-20)" fill="#CF3E83" fill-rule="nonzero">
                                <g transform="translate(-4.000000, 9.912094)" id="Color">
                                    <rect x="0" y="0" width="345" height="117"></rect>
                                </g>
                            </g>
                        </g>
                        <g id="Pants" transform="translate(27.000000, 0.955579)">
                            <mask id="mask-22" fill="white">
                                <use xlink:href="#path-21"></use>
                            </mask>
                            <use id="Mask" fill="#101016" xlink:href="#path-21"></use>
                            <g id="Colors-/-Wear-/-Black" mask="url(#mask-22)" fill="#19141E" fill-rule="nonzero">
                                <g transform="translate(-9.000000, 0.040231)" id="Color">
                                    <rect x="0" y="0" width="341" height="478"></rect>
                                </g>
                            </g>
                        </g>
                        <g id="Overlay" transform="translate(160.832300, 0.955579)" fill="#FFFFFF" fill-opacity="0.1">
                            <path d="M198.08,463.410168 L175.72,469.116159 L175.71,469.116159 L149.68,475.76817 L149.55,475.798045 L140.54,478.098366 C140.54,478.098366 99.18,347.597458 62.769,231.177304 C48.559,185.728534 35.109,142.430712 25.16,109.867723 C16.519,81.617588 10.529,61.4514385 8.99,54.9985894 C0.18,18.2034078 -4.26325641e-14,1.34434358 -4.26325641e-14,-2.84217094e-14 L94.46,-2.84217094e-14 L116.899,100.367696 L198.08,463.410168 Z" id="Mask"></path>
                        </g>
                    </g>
                </g>
                <g id="Man-/-Body-/-3" transform="translate(186.000000, 212.000000)">
                    <g id="Group-35" transform="translate(20.000000, 30.818182)">
                        <g id="Hands" transform="translate(0.000000, 208.596045)">
                            <mask id="mask-24" fill="white">
                                <use xlink:href="#path-23"></use>
                            </mask>
                            <use id="Mask" fill="#E576C6" xlink:href="#path-23"></use>
                            <g id="Colors-/-Skin-/-Rose" mask="url(#mask-24)" fill="#E576C6" fill-rule="nonzero">
                                <g transform="translate(-6.000000, 14.090172)" id="Color">
                                    <rect x="0" y="0" width="262" height="78"></rect>
                                </g>
                            </g>
                        </g>
                        <path d="M224.0072,230.134176 C224.0072,230.134176 227.3912,242.494255 239.0082,246.346528 C243.0702,247.693581 242.0552,263.590792 252.0112,261.690006" id="Stroke-3" stroke="#000000" stroke-width="3" opacity="0.147530692"></path>
                        <g id="T-Shirt">
                            <mask id="mask-26" fill="white">
                                <use xlink:href="#path-25"></use>
                            </mask>
                            <use id="Mask" fill="#FCBDA4" xlink:href="#path-25"></use>
                            <g id="Colors-/-Wear-/-Cream" mask="url(#mask-26)" fill="#FCBDA4" fill-rule="nonzero">
                                <g transform="translate(-9.000000, 0.000000)" id="Color">
                                    <rect x="0" y="0" width="258" height="242"></rect>
                                </g>
                            </g>
                        </g>
                        <polyline id="Stroke-9" stroke="#000000" stroke-width="5" opacity="0.197265625" points="61.3978 166.766825 70.5528 119.248171 93.1938 81.1141504"></polyline>
                        <path d="M193.1034,193.180393 L197.4284,123.940885" id="Stroke-11" stroke="#000000" stroke-width="5" opacity="0.195754278"></path>
                        <g id="Shirt-shadow" transform="translate(115.000000, 5.767772)">
                            <mask id="mask-28" fill="white">
                                <use xlink:href="#path-27"></use>
                            </mask>
                            <use id="Mask" fill="#EA847A" xlink:href="#path-27"></use>
                            <g id="Colors-/-Wear-/-Dark-Cream" mask="url(#mask-28)" fill="#EA847A" fill-rule="nonzero">
                                <g transform="translate(-1.000000, 0.197038)" id="Color">
                                    <rect x="0" y="0" width="45" height="25"></rect>
                                </g>
                            </g>
                        </g>
                        <path d="M44.7777,219.077408 C44.7777,221.273452 42.9867,223.053948 40.7777,223.053948 C38.5687,223.053948 36.7777,221.273452 36.7777,219.077408 C36.7777,216.881364 38.5687,215.100868 40.7777,215.100868 C42.9867,215.100868 44.7777,216.881364 44.7777,219.077408" id="Fill-19" fill="#000000" opacity="0.198451451"></path>
                        <path d="M242.0092,213.876591 C242.0092,216.073629 240.2182,217.853131 238.0092,217.853131 C235.8002,217.853131 234.0092,216.073629 234.0092,213.876591 C234.0092,211.680547 235.8002,209.900052 238.0092,209.900052 C240.2182,209.900052 242.0092,211.680547 242.0092,213.876591" id="Fill-21" fill="#000000" opacity="0.199032738"></path>
                        <path d="M0.0888,207.911782 L53.2188,205.567612" id="Stroke-23" stroke="#000000" stroke-width="4" opacity="0.202566964"></path>
                        <path d="M195.1034,221.421976 L240.8424,196.416501" id="Stroke-25" stroke="#000000" stroke-width="4" opacity="0.198683966"></path>
                        <path d="M131.5932,192.985244 L124.5532,192.975303 C124.1432,108.20542 110.1732,51.6490856 88.9832,20.7414317 L88.9832,20.7314903 L96.1232,19.0812264 C96.2332,19.2303466 96.3432,19.3794669 96.4432,19.5385284 C118.0832,49.7602293 132.4032,106.028265 131.5932,192.985244" id="Fill-27" fill="#000000" opacity="0.1976609"></path>
                        <path d="M179.0531,192.985244 L171.8831,192.985244 C181.9431,111.4463 175.5831,55.0291443 159.0431,22.1630446 C159.0131,22.0835138 158.9731,22.0139243 158.9331,21.9343935 L162.7431,23.7437191 L167.3131,25.9109331 L167.3931,25.9506985 C184.6731,57.9916663 190.5031,109.666798 179.0531,192.985244" id="Fill-29" fill="#000000" opacity="0.196777344"></path>
                    </g>
                </g>
            </g>
            <g id="Background-Object-/-Picture-/-5" transform="translate(1009.000000, 45.000000)">
                <g id="Group-8" transform="translate(146.000000, 92.000000)">
                    <polygon id="Fill-1" fill="#DCEEFF" points="11.971 165.94 207.049 165.94 207.049 0.5 11.971 0.5"></polygon>
                    <polygon id="Stroke-2" stroke="#DCEEFF" stroke-width="5" points="11.971 165.94 207.049 165.94 207.049 0.5 11.971 0.5"></polygon>
                    <polygon id="Fill-4" fill="#FFFFFF" points="0.5 166.162 195.578 166.162 195.578 0.722 0.5 0.722"></polygon>
                    <polygon id="Stroke-5" stroke="#DCEEFF" stroke-width="5" points="0.5 166.162 195.578 166.162 195.578 0.722 0.5 0.722"></polygon>
                    <polygon id="Fill-7" fill="#DCEEFF" points="33.726 131.983 159.573 131.983 159.573 34.457 33.726 34.457"></polygon>
                </g>
            </g>
        </g>
    </g>
</svg>