<?xml version="1.0" encoding="UTF-8"?>
<svg width="1270px" height="1207px" viewBox="0 0 1270 1207" version="1.1" xmlns="http://www.w3.org/2000/svg" xmlns:xlink="http://www.w3.org/1999/xlink">
    <!-- Generator: Sketch 53.2 (72643) - https://sketchapp.com -->
    <title>Illustration 19</title>
    <desc>Created with Sketch.</desc>
    <defs>
        <path d="M84.1028,59.607506 L31.1798,59.607506 L11.1798,19.1798716 L104.1028,19.1798716 L84.1028,59.607506 Z M105.282,19.1796799 L10,19.1796799 C4.477,19.1796799 -3.83693077e-13,14.8854784 -3.83693077e-13,9.59012761 C-3.83693077e-13,4.29381791 4.477,0.000575373134 10,0.000575373134 L105.282,0.000575373134 C110.805,0.000575373134 115.282,4.29381791 115.282,9.59012761 C115.282,14.8854784 110.805,19.1796799 105.282,19.1796799 Z" id="path-1"></path>
        <path d="M63.2864225,124.414983 C62.9836006,124.422447 62.6798586,124.4262 62.3752401,124.4262 C42.3332401,124.4262 26.0862401,108.1782 26.0862401,88.1362 C26.0862401,68.0942 42.3332401,51.8462 62.3752401,51.8462 C66.6561128,51.8462 70.7638923,52.5874802 74.5772167,53.9486787 C92.4590984,21.7727795 126.794705,0 166.21564,0 C203.820064,0 236.7965,19.8110686 255.278377,49.5649887 C258.943845,48.3195218 262.872653,47.644 266.95924,47.644 C287.00124,47.644 303.24924,63.892 303.24924,83.934 C303.24924,102.995881 288.551543,118.624862 269.870921,120.107891 C262.449455,170.699186 218.869255,209.539 166.21564,209.539 C115.068219,209.539 72.4815646,172.886952 63.2864225,124.414983 L63.2864225,124.414983 Z M0.0755400901,224.623 C-1.02545991,209.875 10.0385401,197.028 24.7865401,195.927 L61.8375401,193.163 C76.5855401,192.062 89.4325401,203.126 90.5325401,217.873 L96.8345401,302.329 C97.9345401,317.077 86.8715401,329.924 72.1245401,331.025 L35.0725401,333.79 C20.3245401,334.89 7.47754009,323.826 6.37754009,309.079 L0.0755400901,224.623 Z M241.71514,217.9819 C241.79314,203.1929 253.84614,191.2689 268.63414,191.3479 L305.78814,191.5449 C320.57614,191.6249 332.50114,203.6769 332.42214,218.4649 L331.97114,303.1539 C331.89314,317.9429 319.84014,329.8679 305.05214,329.7889 L267.89814,329.5909 C253.11014,329.5119 241.18514,317.4599 241.26414,302.6709 L241.71514,217.9819 Z" id="path-3"></path>
        <path d="M123.48623,13.5778193 C124.48534,5.91634114 131.037432,0 138.9713,0 C147.5953,0 154.5873,6.992 154.5873,15.617 C154.5873,24.242 147.5953,31.234 138.9713,31.234 C132.663123,31.234 127.228471,27.493833 124.763958,22.1101112 L113.873,13.7774518 L99.0533846,25.1159226 L84.2447538,13.7782053 L69.4317538,25.1162053 L54.6228153,13.7782524 L39.8109384,25.1161581 L31.6350272,18.857399 C30.143362,25.9273567 23.8695507,31.234 16.3556,31.234 C7.7306,31.234 0.7386,24.242 0.7386,15.617 C0.7386,6.992 7.7306,0 16.3556,0 C23.3866976,0 29.3319195,4.64653764 31.2891568,11.0364205 L39.8110616,17.5600419 L54.6231847,6.22194762 L69.4322462,17.5599947 L84.2452462,6.22199475 L99.0546154,17.5602774 L113.873,6.22274823 L123.48623,13.5778193 Z M133.3299,158.5838 L20.9199,158.5838 C11.9699,158.5838 4.7149,151.3288 4.7149,142.3788 L4.7149,68.1228 C4.7149,59.1728 11.9699,51.9168 20.9199,51.9168 L133.3299,51.9168 C142.2799,51.9168 149.5349,59.1728 149.5349,68.1228 L149.5349,142.3788 C149.5349,151.3288 142.2799,158.5838 133.3299,158.5838 Z M122.8524,173.282 L31.3964,173.282 C27.3384,173.282 24.0474,169.992 24.0474,165.933 C24.0474,161.874 27.3384,158.584 31.3964,158.584 L122.8524,158.584 C126.9114,158.584 130.2014,161.874 130.2014,165.933 C130.2014,169.992 126.9114,173.282 122.8524,173.282 Z" id="path-5"></path>
    </defs>
    <g id="Scene" stroke="none" stroke-width="1" fill="none" fill-rule="evenodd">
        <g id="Illustration-19" transform="translate(-365.000000, -92.000000)">
            <g id="Background-Object-/-Sofa-/-4" transform="translate(995.500000, 959.000000) scale(-1, 1) translate(-995.500000, -959.000000) translate(328.000000, 334.000000)">
                <g id="Group-17" transform="translate(254.000000, 426.000000)">
                    <polygon id="Fill-1" fill="#CCE3FF" points="708.0219 201.2463 750.4589 398.9253 778.5319 398.9253 736.0949 201.2463"></polygon>
                    <polygon id="Fill-2" fill="#D7EBFF" points="25.785 201.245 752.422 201.245 752.422 170.666 25.785 170.666"></polygon>
                    <polygon id="Fill-3" fill="#D7EBFF" points="598.347 311.987 740.018 311.987 740.018 281.407 598.347 281.407"></polygon>
                    <polygon id="Fill-4" fill="#CCE3FF" points="175.9212 0 144.0752 170.666 182.5062 170.666 214.3522 0"></polygon>
                    <polygon id="Fill-5" fill="#CCE3FF" points="729.8244 0 697.9784 170.666 736.4084 170.666 768.2544 0"></polygon>
                    <polygon id="Fill-6" fill="#B6D4FF" points="582.025 201.246 752.422 201.246 752.422 170.667 582.025 170.667"></polygon>
                    <polygon id="Fill-7" fill="#CCE3FF" points="806.5814 111.25 800.8844 141.836 762.4474 141.836 768.1554 111.25"></polygon>
                    <polygon id="Fill-8" fill="#D7EBFF" points="768.1556 111.25 762.4476 141.836 115.7106 141.836 121.4186 111.25"></polygon>
                    <polygon id="Fill-9" fill="#CCE3FF" points="816.9573 55.627 811.2603 86.202 772.8233 86.202 778.5313 55.627"></polygon>
                    <polygon id="Fill-10" fill="#D7EBFF" points="778.5316 55.627 772.8236 86.202 126.0866 86.202 131.7946 55.627"></polygon>
                    <polygon id="Fill-11" fill="#CCE3FF" points="788.9067 0.0036 783.2107 30.5796 821.6357 30.5796 827.3327 0.0036"></polygon>
                    <polygon id="Fill-12" fill="#D7EBFF" points="142.1802 0.0036 136.4722 30.5796 783.2102 30.5796 788.9072 0.0036"></polygon>
                    <polygon id="Fill-13" fill="#CCE3FF" points="598.347 201.2463 555.91 398.9253 583.984 398.9253 626.42 201.2463"></polygon>
                    <polygon id="Fill-14" fill="#CCE3FF" points="152.1117 201.2454 194.5487 398.9244 222.6207 398.9244 180.1847 201.2454"></polygon>
                    <polygon id="Fill-15" fill="#D7EBFF" points="42.436 311.986 184.108 311.986 184.108 281.407 42.436 281.407"></polygon>
                    <polygon id="Fill-16" fill="#CCE3FF" points="42.4359 201.2454 -0.0001 398.9244 28.0739 398.9244 70.5089 201.2454"></polygon>
                </g>
            </g>
            <g id="Background-Object-/-Trach" transform="translate(0.000000, 640.000000)">
                <g id="Group-18" transform="translate(364.000000, 197.000000)">
                    <path d="M209.2459,51.7515 L190.6429,321.2165 L27.2759,321.2165 L8.6749,51.7515 C8.0879,43.3125 14.7759,36.1465 23.2329,36.1465 L194.6869,36.1465 C203.1439,36.1465 209.8329,43.3125 209.2459,51.7515" id="Fill-1" fill="#DCEEFF"></path>
                    <path d="M108.9607,96.9185 L108.9607,278.6435" id="Stroke-3" stroke="#B6D4FF" stroke-width="16" stroke-linecap="round"></path>
                    <path d="M166.9109,96.9185 L154.2749,278.6435" id="Stroke-5" stroke="#B6D4FF" stroke-width="16" stroke-linecap="round"></path>
                    <path d="M51.0105,96.9185 L63.6465,278.6435" id="Stroke-7" stroke="#B6D4FF" stroke-width="16" stroke-linecap="round"></path>
                    <path d="M216.2273,53.0884 L0.9993,53.0884 L0.9993,41.6614 C0.9993,31.3314 9.3733,22.9574 19.7043,22.9574 L197.5233,22.9574 C207.8533,22.9574 216.2273,31.3314 216.2273,41.6614 L216.2273,53.0884 Z" id="Fill-9" fill="#DCEEFF"></path>
                    <path d="M8.6384,59.71 L209.2824,59.71" id="Stroke-12" stroke="#CCE3FF" stroke-width="14"></path>
                    <polygon id="Fill-14" fill="#DCEEFF" points="69.37 26.915 78.063 26.915 78.063 7.614 69.37 7.614"></polygon>
                    <polygon id="Fill-16" fill="#DCEEFF" points="136.786 25.11 145.479 25.11 145.479 5.809 136.786 5.809"></polygon>
                    <polygon id="Fill-17" fill="#DCEEFF" points="69.37 10.692 145.479 10.692 145.479 0 69.37 0"></polygon>
                </g>
            </g>
            <g id="Background-Object-/-Streetlight-/-1" transform="translate(990.000000, 0.000000)">
                <g id="Group-11" transform="translate(300.000000, 91.000000)">
                    <polygon id="Fill-1" fill="#D7EBFF" points="305.369 803.774 321.369 803.774 321.369 91.911 305.369 91.911"></polygon>
                    <path d="M140.9729,110.028 L14.3529,68.054 C9.0639,66.301 6.1699,60.538 7.9239,55.249 L14.2399,36.195 C15.9939,30.906 21.7559,28.013 27.0449,29.766 L153.6649,71.74 C158.9539,73.493 161.8479,79.256 160.0939,84.545 L153.7779,103.599 C152.0249,108.888 146.2619,111.781 140.9729,110.028" id="Fill-2" fill="#ECF6FF"></path>
                    <polygon id="Fill-4" fill="#CCE3FF" points="282.704 1067.7 344.034 1067.7 344.034 831.773 282.704 831.773"></polygon>
                    <polygon id="Fill-6" fill="#CCE3FF" points="295.703 875.772 331.035 875.772 331.035 795.047 295.703 795.047"></polygon>
                    <polygon id="Fill-7" fill="#CCE3FF" points="298.668 108.928 328.072 108.928 328.072 74.7 298.668 74.7"></polygon>
                    <path d="M98.0461,53.6437 C98.0461,53.6437 313.3691,101.2527 313.3691,216.9697" id="Stroke-8" stroke="#DCEEFF" stroke-width="15" stroke-linejoin="bevel"></path>
                    <path d="M155.1115,97.1554 L16.3025,51.1404 C3.8805,47.0234 -2.9135,33.4894 1.2035,21.0674 L2.4505,17.3054 C6.5685,4.8834 20.1015,-1.9116 32.5245,2.2064 L171.3335,48.2204 C183.7555,52.3384 190.5495,65.8714 186.4315,78.2944 L185.1845,82.0564 C181.0665,94.4784 167.5335,101.2734 155.1115,97.1554" id="Fill-9" fill="#CCE3FF"></path>
                </g>
            </g>
            <g id="Person-/-Robot-/-1" transform="translate(700.000000, 607.000000)">
                <g id="Robot-/-Legs-/-1" transform="translate(36.000000, 295.000000)">
                    <g id="Group-20" transform="translate(0.000000, 41.235075)">
                        <path d="M420.8201,355.325323 L0.0001,355.325323 C1.9441,305.373346 32.6111,284.030838 79.3801,282.850364 C110.2521,199.151793 177.8951,284.544838 182.7641,218.338569 C188.4851,140.481954 190.1301,48.7195284 190.1301,48.7195284 L230.0101,49.3802485 C230.0101,49.3802485 233.3401,98.5075246 240.2501,198.59464 C245.1501,269.489241 295.0701,203.740394 360.6401,246.704465 C393.7391,268.393155 392.2631,320.861431 392.2631,320.861431 C392.2631,320.861431 420.8201,322.291234 420.8201,355.325323" id="Fill-1" fill="#B5B8BC"></path>
                        <path d="M144.5902,355.325323 L41.3702,355.325323 C45.8602,333.173457 65.0302,317.015062 87.6102,314.799875 C91.9402,314.388484 96.3902,314.473831 100.8902,315.12592 C103.4802,315.509502 106.0002,316.056107 108.4402,316.775323 C115.1302,318.74214 121.1902,321.924913 126.3702,326.029241 C135.7202,333.404566 142.2402,343.760323 144.5902,355.325323" id="Fill-3" fill="#D7DADD"></path>
                        <path d="M373.9998,355.325323 L318.1398,355.325323 C320.4298,345.131629 327.7198,336.875025 337.3098,333.739241 C339.5698,333.000846 341.9598,332.540547 344.4498,332.415883 C345.8798,332.339166 347.2998,332.377525 348.6798,332.521368 C360.8498,333.75842 371.0198,342.983569 373.9998,355.325323" id="Fill-5" fill="#D7DADD"></path>
                        <path d="M283.18,355.325323 L123.56,355.325323 C122.9,349.015398 123.05,342.53286 124.09,335.983196 C124.63,332.578905 125.4,329.25229 126.37,326.029241 C137.41,289.532364 175.22,265.634241 215.46,271.503047 C224.97,272.893532 233.83,275.828894 241.81,280.00898 C269.48,294.470025 286.55,323.852413 283.18,355.325323" id="Fill-7" fill="#D7DADD"></path>
                        <path d="M156.4417,210.176614 C155.1327,218.426506 147.0977,224.095849 138.4957,222.840576 C129.8927,221.585304 123.9807,213.880099 125.2897,205.631166 C126.5987,197.381274 134.6327,191.711931 143.2357,192.967203 C151.8377,194.222476 157.7507,201.926722 156.4417,210.176614" id="Fill-9" fill="#D7DADD"></path>
                        <path d="M270.8328,213.041301 C270.2928,216.445592 266.9768,218.785443 263.4268,218.267607 C259.8758,217.748812 257.4358,214.569875 257.9768,211.164625 C258.5168,207.760334 261.8328,205.420484 265.3828,205.938319 C268.9328,206.457114 271.3728,209.636051 270.8328,213.041301" id="Fill-11" fill="#D7DADD"></path>
                        <path d="M457.8817,316.713375 C456.6347,324.569136 448.9827,329.969013 440.7897,328.774154 C432.5967,327.578337 426.9657,320.240412 428.2127,312.383692 C429.4597,304.526972 437.1117,299.127095 445.3047,300.322912 C453.4977,301.51777 459.1287,308.856654 457.8817,316.713375" id="Fill-13" fill="#D7DADD"></path>
                        <g id="Legs-color" transform="translate(153.988800, 0.000000)">
                            <mask id="mask-2" fill="white">
                                <use xlink:href="#path-1"></use>
                            </mask>
                            <use id="Mask" fill="#6CA1FF" xlink:href="#path-1"></use>
                            <g id="Colors-/-Skin-/-Red" mask="url(#mask-2)" fill="#CE3D29" fill-rule="nonzero">
                                <g transform="translate(0.011200, 0.000000)" id="Color">
                                    <rect x="0" y="0" width="115" height="59"></rect>
                                </g>
                            </g>
                        </g>
                        <g id="Overlay" transform="translate(165.000000, 19.179104)" fill="#000000" opacity="0.402157738">
                            <polygon id="Fill-16" points="72.923 40.4276343 20 40.4276343 -5.54223334e-13 -5.68434189e-14 92.923 -5.68434189e-14"></polygon>
                        </g>
                    </g>
                </g>
                <g id="Robot-/-Body-/-3" transform="translate(46.000000, 202.000000)">
                    <g id="Group-24" transform="translate(40.000000, 3.000000)">
                        <polyline id="Stroke-1" stroke="#19141E" stroke-width="15" points="43.0783 388.3777 22.0043 365.5247 52.5573 326.2587 89.2383 358.0817 76.0093 386.0207"></polyline>
                        <polyline id="Stroke-3" stroke="#19141E" stroke-width="15" points="271.9357 386.494 253.0447 361.807 287.0677 325.506 320.6777 360.555 304.9447 387.165"></polyline>
                        <path d="M287.4435,221.7064 L272.2985,110.6684" id="Stroke-5" stroke="#19141E" stroke-width="27" stroke-linecap="round"></path>
                        <path d="M45.5598,218.3235 L61.5258,107.4015" id="Stroke-13" stroke="#19141E" stroke-width="27" stroke-linecap="round"></path>
                        <path d="M224.007,156.4217 L180.89,156.4217 C174.465,156.4217 169.257,151.2137 169.257,144.7887 L169.257,101.6717 C169.257,95.2477 174.465,90.0397 180.89,90.0397 L224.007,90.0397 C230.431,90.0397 235.639,95.2477 235.639,101.6717 L235.639,144.7887 C235.639,151.2137 230.431,156.4217 224.007,156.4217" id="Fill-17" fill="#19141E"></path>
                        <path d="M213.007,156.4217 L180.89,156.4217 C174.465,156.4217 169.257,151.2137 169.257,144.7887 L169.257,101.6717 C169.257,95.2477 174.465,90.0397 180.89,90.0397 L213.007,90.0397 C219.431,90.0397 224.639,95.2477 224.639,101.6717 L224.639,144.7887 C224.639,151.2137 219.431,156.4217 213.007,156.4217" id="Fill-18" fill="#405FD3"></path>
                        <g id="Body-color" transform="translate(-0.000140, 18.460800)">
                            <mask id="mask-4" fill="white">
                                <use xlink:href="#path-3"></use>
                            </mask>
                            <use id="Mask" fill="#6CA1FF" xlink:href="#path-3"></use>
                            <g id="Colors-/-Skin-/-Red" mask="url(#mask-4)" fill="#CE3D29" fill-rule="nonzero">
                                <g transform="translate(0.000140, 7.539200)" id="Color">
                                    <rect x="0" y="0" width="332" height="326"></rect>
                                </g>
                            </g>
                        </g>
                        <polygon id="Fill-11" fill="#19141E" points="126.21 26.461 206.223 26.461 206.223 -5.68434189e-14 126.21 -5.68434189e-14"></polygon>
                        <path d="M213.007,156.4217 C219.431,156.4217 224.639,151.2137 224.639,144.7887 L224.639,101.6717 C224.639,95.2477 219.431,90.0397 213.007,90.0397 L224.007,90.0397 C230.431,90.0397 235.639,95.2477 235.639,101.6717 L235.639,144.7887 C235.639,151.2137 230.431,156.4217 224.007,156.4217 L213.007,156.4217 Z" id="Path" fill="#19141E"></path>
                        <g id="Overlay" transform="translate(16.000000, 66.500000)">
                            <path d="M-1.77458048e-12,174.9087 L6.652,259.3887 L-1.77458048e-12,174.9087 Z M16.4882,173.5 L23.1402,257.98 L16.4882,173.5 Z" id="Shape" stroke="#000000" stroke-width="9" opacity="0.401762463" stroke-linecap="round" stroke-linejoin="round"></path>
                            <path d="M197.05,89.882 L164.933,89.882 C158.508,89.882 153.3,84.674 153.3,78.249 L153.3,35.132 C153.3,28.708 158.508,23.5 164.933,23.5 L197.05,23.5 C203.474,23.5 208.682,28.708 208.682,35.132 L208.682,78.249 C208.682,84.674 203.474,89.882 197.05,89.882 Z M170.427,53.355 C175.081,53.355 178.855,49.582 178.855,44.927 C178.855,40.273 175.081,36.5 170.427,36.5 C165.773,36.5 162,40.273 162,44.927 C162,49.582 165.773,53.355 170.427,53.355 Z M194.3763,53.355 C199.0303,53.355 202.8043,49.582 202.8043,44.927 C202.8043,40.273 199.0303,36.5 194.3763,36.5 C189.7223,36.5 185.9483,40.273 185.9483,44.927 C185.9483,49.582 189.7223,53.355 194.3763,53.355 Z M170.427,77.7129 C175.081,77.7129 178.855,73.9399 178.855,69.2849 C178.855,64.6309 175.081,60.8579 170.427,60.8579 C165.773,60.8579 162,64.6309 162,69.2849 C162,73.9399 165.773,77.7129 170.427,77.7129 Z" id="Shape" fill="#000000" opacity="0.397763207"></path>
                            <path d="M9,39.79 C9,59.832 25.247,76.08 45.289,76.08 C65.331,76.08 81.579,59.832 81.579,39.79 C81.579,19.748 65.331,3.5 45.289,3.5 C25.247,3.5 9,19.748 9,39.79" id="Fill-14" fill="#000000" opacity="0.404203869"></path>
                            <path d="M226.45139,170.13439 L226.00039,254.82339 C225.92139,269.61239 237.84639,281.66439 252.63439,281.74339 L289.78839,281.94139 C304.57639,282.02039 316.62939,270.09539 316.70739,255.30639 L317.15839,170.61739 C317.23739,155.82939 305.31239,143.77739 290.52439,143.69739 L253.37039,143.50039 C238.58239,143.42139 226.52939,155.34539 226.45139,170.13439" id="Fill-16" fill="#000000" opacity="0.398763021"></path>
                            <path d="M239,1.9209887 C242.665468,0.675521796 246.594276,-2.84217094e-14 250.680863,-2.84217094e-14 C270.722863,-2.84217094e-14 286.970863,16.248 286.970863,36.29 C286.970863,55.3518808 272.273166,70.9808615 253.592544,72.4638908 C254.326941,67.4575846 254.707263,62.3362048 254.707263,57.126 C254.707263,36.8671246 248.957206,17.9510652 239,1.9209887 L239,1.9209887 Z" id="Path" fill="#000000" opacity="0.397856213"></path>
                            <path d="M170.427,77.705 C175.081,77.705 178.855,73.932 178.855,69.277 C178.855,64.623 175.081,60.85 170.427,60.85 C165.773,60.85 162,64.623 162,69.277 C162,73.932 165.773,77.705 170.427,77.705" id="Fill-19" fill="#000000" opacity="0.59812128"></path>
                        </g>
                    </g>
                </g>
                <g id="Robot-/-Head-/-4" transform="translate(159.000000, 30.000000)">
                    <g id="Group-24" transform="translate(-3.000000, 16.000000)">
                        <path d="M160.971,97.1281 L160.971,27.2821" id="Stroke-1" stroke="#19141E" stroke-width="7"></path>
                        <path d="M167.2562,126.7741 L138.3762,126.7741 L138.3762,83.7271 L167.2562,83.7271 C179.0942,83.7271 188.7792,93.4121 188.7792,105.2501 C188.7792,117.0881 179.0942,126.7741 167.2562,126.7741" id="Fill-5" fill="#19141E"></path>
                        <g id="Face-color" transform="translate(22.000000, -0.000100)">
                            <mask id="mask-6" fill="white">
                                <use xlink:href="#path-5"></use>
                            </mask>
                            <use id="Mask" fill="#6CA1FF" xlink:href="#path-5"></use>
                            <g id="Colors-/-Skin-/-Red" mask="url(#mask-6)" fill="#CE3D29" fill-rule="nonzero">
                                <g transform="translate(-1.000000, 0.000100)" id="Color">
                                    <rect x="0" y="0" width="156" height="173"></rect>
                                </g>
                            </g>
                        </g>
                        <g id="Overlay" transform="translate(46.047400, 6.221848)" fill="#000000">
                            <polygon id="Stroke-21" fill-rule="nonzero" opacity="0.404366629" points="30.5754153 7.55630476 15.7635384 18.8942105 7.58809805 12.6955108 7.20296621 4.78755179 15.7636616 11.3380943 30.5757847 -3.55271368e-15 45.3848462 11.3380471 60.1978462 4.71243264e-05 75.0072154 11.3383298 89.8256 0.000800608925 99.3069 7.55550415 100.883752 15.9392852 89.8256 7.55550415 75.0059846 18.893975 60.1973538 7.55625763 45.3843538 18.8942576"></polygon>
                            <path d="M98.805,167.060052 L7.349,167.060052 C3.291,167.060052 -6.82121026e-13,163.770052 -6.82121026e-13,159.711052 C-6.82121026e-13,155.652052 3.291,152.362052 7.349,152.362052 L98.805,152.362052 C102.864,152.362052 106.154,155.652052 106.154,159.711052 C106.154,163.770052 102.864,167.060052 98.805,167.060052" id="Fill-9" opacity="0.39562407"></path>
                        </g>
                        <path d="M21.5238,126.7741 L50.4028,126.7741 L50.4028,83.7271 L21.5238,83.7271 C9.6858,83.7271 -0.0002,93.4121 -0.0002,105.2501 C-0.0002,117.0881 9.6858,126.7741 21.5238,126.7741" id="Fill-11" fill="#19141E"></path>
                        <path d="M160.971,105.2501 C160.971,121.7101 150.311,135.0541 137.162,135.0541 C124.013,135.0541 113.354,121.7101 113.354,105.2501 C113.354,88.7901 124.013,75.4461 137.162,75.4461 C150.311,75.4461 160.971,88.7901 160.971,105.2501" id="Fill-14" fill="#19141E"></path>
                        <polygon id="Fill-16" fill="#19141E" points="125.974 135.054 137.162 135.054 137.162 75.446 125.974 75.446"></polygon>
                        <path d="M149.7825,105.2501 C149.7825,121.7101 139.1235,135.0541 125.9735,135.0541 C112.8245,135.0541 102.1655,121.7101 102.1655,105.2501 C102.1655,88.7901 112.8245,75.4461 125.9735,75.4461 C139.1235,75.4461 149.7825,88.7901 149.7825,105.2501" id="Fill-18" fill="#FFFFFF"></path>
                        <path d="M138.1624,103.2501 C138.1624,109.0441 134.4104,113.7421 129.7814,113.7421 C125.1524,113.7421 121.4004,109.0441 121.4004,103.2501 C121.4004,97.4561 125.1524,92.7581 129.7814,92.7581 C134.4104,92.7581 138.1624,97.4561 138.1624,103.2501" id="Fill-19" fill="#19141E"></path>
                        <path d="M38.3553,97.1281 L38.3553,30.5" id="Stroke-20" stroke="#19141E" stroke-width="7"></path>
                    </g>
                </g>
            </g>
        </g>
    </g>
</svg>