<?xml version="1.0" encoding="UTF-8"?>
<svg width="1664px" height="979px" viewBox="0 0 1664 979" version="1.1" xmlns="http://www.w3.org/2000/svg" xmlns:xlink="http://www.w3.org/1999/xlink">
    <!-- Generator: Sketch 53.2 (72643) - https://sketchapp.com -->
    <title>Illustration 17</title>
    <desc>Created with Sketch.</desc>
    <defs>
        <path d="M78.1,86.3254989 C71.51,90.7054989 59.51,91.2454989 49.28,90.6554989 L46.94,119.705499 L13.56,105.965499 C13.56,105.965499 16.77,73.9054989 18.161,61.6154989 C11.451,55.5354989 0.02,52.7154989 2.91322522e-13,42.3854989 C2.91322522e-13,38.8054989 2.09,32.6154989 9.81,32.5954989 C20.17,32.5854989 18.69,45.0054989 18.69,45.0054989 C30.411,49.5554989 42.4,10.1754989 49.31,1.25549894 C53.09,-3.62450106 82.11,7.29549894 82.11,7.29549894 L98.58,25.7154989 C98.9,27.9854989 97.74,73.2654989 78.1,86.3254989" id="path-1"></path>
        <path d="M222.8018,243.5708 L199.9908,246.4298 L163.2518,188.9698 L161.9108,169.8708 L105.9418,169.0408 L82.0518,168.6908 L82.0018,168.6908 C79.7918,168.5598 77.4908,168.4208 75.1118,168.2508 C45.0218,166.1508 3.3318,160.2998 0.4718,144.0998 C-4.7182,114.7598 34.5418,57.8208 39.1818,51.2208 C39.4718,50.8108 39.6208,50.5908 39.6208,50.5908 C46.2008,41.1908 52.8218,33.8808 59.0018,29.9908 C71.0218,22.4208 82.2918,20.7598 93.0018,20.7908 L95.8708,0.0008 L139.5618,6.0298 L137.1818,23.3108 C150.0118,24.5408 158.7408,27.0498 166.9108,34.5498 C193.1418,58.6308 195.0718,148.8208 195.0718,148.8208 L222.8018,243.5708 Z" id="path-3"></path>
        <path d="M125.405423,107.62048 C130.6491,113.792088 137.035137,121.463305 137.9654,123.2904 C139.5794,126.4614 142.5644,142.1584 142.4224,145.2604 C142.2804,148.3604 132.9784,162.2974 132.9784,162.2974 C127.2074,160.8834 130.9764,153.6864 130.9764,153.6864 C130.9764,153.6864 125.8074,158.0574 123.6584,157.9834 C103.4184,157.2934 104.5024,147.0464 104.9814,145.7624 C106.0564,142.8804 111.4594,146.1764 111.4594,146.1764 C111.4594,146.1764 101.072004,125.102638 103.572013,110.356954 L125.405423,107.62048 Z M63.8311,29.0454 C63.8311,29.0454 67.4221,29.9604 67.4901,32.2174 C67.4901,32.8584 45.6121,36.9964 45.6121,36.9964 L50.3741,37.2784 L55.3241,37.0394 C55.3241,37.0394 57.8971,37.5184 58.0431,39.6554 C58.0941,40.5014 53.5371,41.4074 48.2361,42.1004 C39.9951,43.1864 34.0701,42.2294 28.2731,40.6474 C27.7861,40.5104 27.3161,40.3904 26.8631,40.2714 C20.8951,38.7064 18.2361,38.4154 10.5601,34.2344 C7.1561,32.3794 2.1381,28.7034 0.0441,26.8394 L5.5751,6.3724 L13.2011,3.7654 C13.2011,3.7654 16.7401,2.3794 22.7171,1.2764 C26.4701,0.5844 30.1331,0.8584 34.0061,0.4394 L31.8061,8.5024 C31.5581,8.6814 31.2741,9.2874 31.0601,9.5194 C31.2241,9.6554 31.3861,9.8094 31.5741,9.9804 C33.1551,11.4254 36.1471,13.9894 49.0231,17.2044 C51.6051,17.8464 60.2741,17.9654 60.2741,17.9654 C62.8221,18.3324 68.1741,18.8284 68.5421,21.8294 C68.6361,22.5734 67.7041,23.3774 67.7041,23.3774 C67.7041,23.3774 71.0631,23.6084 71.2681,26.6514 C71.3541,27.8484 63.8311,29.0454 63.8311,29.0454 Z" id="path-5"></path>
        <path d="M26.6969,104.7139 L24.1159,127.2419 C24.1159,127.2419 72.1359,139.8309 90.1889,158.5539 L0.6709,158.7089 L4.0219,94.1869 L26.6969,104.7139 Z M129.7336,-1.13686838e-13 L140.0446,20.292 C140.0446,20.292 187.2216,4.248 212.7016,9.932 L138.6716,59.064 L104.9206,3.738 L129.7336,-1.13686838e-13 Z" id="path-7"></path>
        <path d="M0.9372,97.5974 L24.7222,107.0504 L24.5192,125.7524 L0.2062,124.8594 L0.9372,97.5974 Z M105.1974,5.8708 L130.3454,0.6188 L140.5284,16.3908 L119.6774,29.1008 L105.1974,5.8708 Z" id="path-9"></path>
        <path d="M234.667445,201.10015 L222.35702,334.7238 L165.33802,334.7238 L167.86902,140.7098 L59.0340203,141.4598 C27.9862203,141.4595 -2.04377972,114.7955 0.109220281,83.8065 L3.49422028,52.2565 L169.70022,3.1545 C200.46922,-3.8025 211.13722,5.3885 231.08522,40.8985 L319.16122,221.4375 L270.77722,253.7705 L234.667445,201.10015 Z" id="path-11"></path>
        <path d="M128.641208,89.5534 L128.641208,100.209 C128.641208,108.606 121.878409,115.413 113.535935,115.413 L64.7796039,115.413 C56.4381234,115.413 49.6753247,108.606 49.6753247,100.209 L49.6753247,88 L44.7077922,88 L44.7077922,141.792329 C50.7677264,138.02902 57.2169998,136 63.9063117,136 C63.9727407,136 64.039146,136.0002 64.1055275,136.0006 L115.901556,136.0006 C115.967937,136.0002 116.034342,136 116.100771,136 C122.872197,136 129.397596,138.079023 135.522134,141.931375 L135.522134,89.5534 L128.641208,89.5534 L128.641208,89.5534 Z M128.641208,71.5534 L144.463693,71.5534 C149.401979,71.5534 153.405251,75.5828373 153.405251,80.5534 L153.405251,159.713764 C169.517223,182.619333 180.007083,219.97296 180.007083,262.164 C180.007083,331.843 151.396083,388.329 116.100771,388.329 C115.251999,388.329 114.407091,388.296333 113.566353,388.2316 L66.4407315,388.2316 C65.5999928,388.296333 64.7550845,388.329 63.9063117,388.329 C28.6119935,388.329 9.09494702e-13,331.843 9.09494702e-13,262.164 C9.09494702e-13,219.899669 10.5267013,182.489571 26.6862799,159.594525 L26.6862799,262.164 C26.6862799,266.188865 29.3111433,269.596654 32.9318395,270.747688 C35.0480536,300.783833 48.1097988,323.906 63.9056162,323.906 C81.1787201,323.906 95.1802071,296.263 95.1802071,262.164 C95.1802071,228.065 81.1787201,200.423 63.9056162,200.423 C56.6694063,200.423 50.0069798,205.275337 44.7077921,213.421891 L44.7077922,252.796 L64.0444091,252.796 C68.9826955,252.796 72.9859675,256.825437 72.9859675,261.796 C72.9859675,266.766563 68.9826955,270.796 64.0444091,270.796 L35.7662338,270.796 C30.8279474,270.796 26.8246753,266.766563 26.8246753,261.796 L26.8246753,79 C26.8246753,74.0294373 30.8279474,70 35.7662338,70 L49.6753247,70 L49.6753247,15.204 C49.6753247,6.807 56.4381234,0 64.7796039,0 L113.535935,0 C121.878409,0 128.641208,6.807 128.641208,15.204 L128.641208,71.5534 Z" id="path-13"></path>
        <path d="M63.2864225,124.414983 C62.9836006,124.422447 62.6798586,124.4262 62.3752401,124.4262 C42.3332401,124.4262 26.0862401,108.1782 26.0862401,88.1362 C26.0862401,68.0942 42.3332401,51.8462 62.3752401,51.8462 C66.6561128,51.8462 70.7638923,52.5874802 74.5772167,53.9486787 C92.4590984,21.7727795 126.794705,0 166.21564,0 C203.820064,0 236.7965,19.8110686 255.278377,49.5649887 C258.943845,48.3195218 262.872653,47.644 266.95924,47.644 C287.00124,47.644 303.24924,63.892 303.24924,83.934 C303.24924,102.995881 288.551543,118.624862 269.870921,120.107891 C262.449455,170.699186 218.869255,209.539 166.21564,209.539 C115.068219,209.539 72.4815646,172.886952 63.2864225,124.414983 L63.2864225,124.414983 Z M0.0755400901,224.623 C-1.02545991,209.875 10.0385401,197.028 24.7865401,195.927 L61.8375401,193.163 C76.5855401,192.062 89.4325401,203.126 90.5325401,217.873 L96.8345401,302.329 C97.9345401,317.077 86.8715401,329.924 72.1245401,331.025 L35.0725401,333.79 C20.3245401,334.89 7.47754009,323.826 6.37754009,309.079 L0.0755400901,224.623 Z M241.71514,217.9819 C241.79314,203.1929 253.84614,191.2689 268.63414,191.3479 L305.78814,191.5449 C320.57614,191.6249 332.50114,203.6769 332.42214,218.4649 L331.97114,303.1539 C331.89314,317.9429 319.84014,329.8679 305.05214,329.7889 L267.89814,329.5909 C253.11014,329.5119 241.18514,317.4599 241.26414,302.6709 L241.71514,217.9819 Z" id="path-15"></path>
        <path d="M73.7526,96.4496 L20.875,96.4496 C9.394,96.4496 -3.41060513e-13,87.0556 -3.41060513e-13,75.5746 L-3.41060513e-13,61.5016 C-3.41060513e-13,50.0206 9.394,40.6266 20.875,40.6266 L154.211,40.6266 C165.692,40.6266 175.086,50.0206 175.086,61.5016 L175.086,75.5746 C175.086,87.0556 165.692,96.4496 154.211,96.4496 L104.1116,96.4496 L104.1116,138.326 L73.7526,138.326 L73.7526,96.4496 Z M81.6138,10.538 C81.6138,16.358 76.8958,21.077 71.0758,21.077 C65.2558,21.077 60.5368,16.358 60.5368,10.538 C60.5368,4.718 65.2558,0 71.0758,0 C76.8958,0 81.6138,4.718 81.6138,10.538 Z" id="path-17"></path>
    </defs>
    <g id="Scene" stroke="none" stroke-width="1" fill="none" fill-rule="evenodd">
        <g id="Illustration-17" transform="translate(-245.000000, -102.000000)">
            <g id="Background-Object-/-Window-/-3" transform="translate(1209.000000, 42.000000)">
                <g id="Group-25" transform="translate(246.000000, 59.000000)">
                    <path d="M261.0464,22.9212 L261.0464,566.5602" id="Stroke-1" stroke="#ECF6FF" stroke-width="22"></path>
                    <path d="M252.979,3.4295 L252.979,568.3175" id="Stroke-3" stroke="#DCEEFF" stroke-width="17"></path>
                    <path d="M436.5132,0.9998 L436.5132,569.6898" id="Stroke-5" stroke="#B6D4FF" stroke-width="20"></path>
                    <path d="M91.0386,5.6473 L91.0386,564.6183" id="Stroke-8" stroke="#ECF6FF" stroke-width="22"></path>
                    <path d="M69.963,569.69 L430.326,569.69 L430.326,0.999 L69.963,0.999 L69.963,569.69 Z M91.964,547.69 L408.326,547.69 L408.326,23 L91.964,23 L91.964,547.69 Z" id="Fill-11" fill="#DCEEFF"></path>
                    <polygon id="Fill-12" fill="#CCE3FF" points="0.001 597.721 446.359 597.721 446.359 569.69 0.001 569.69"></polygon>
                    <polygon id="Fill-13" fill="#B6D4FF" points="342.563 597.721 453.128 597.721 453.128 569.69 342.563 569.69"></polygon>
                    <path d="M97.3237,199.8001 L430.3257,199.8001" id="Stroke-14" stroke="#DCEEFF" stroke-width="17"></path>
                    <path d="M97.3237,376.4446 L430.3257,376.4446" id="Stroke-16" stroke="#DCEEFF" stroke-width="17"></path>
                    <path d="M324.5942,537.0501 C323.0332,550.1601 316.3942,561.7201 306.6942,569.6901 L243.2642,569.6901 C233.5642,561.7201 226.9242,550.1601 225.3542,537.0501 L324.5942,537.0501 Z" id="Fill-18" fill="#B6D4FF"></path>
                    <path d="M324.5942,509.8016 C321.6412,534.5796 300.5522,553.8026 274.9752,553.8026 C249.3992,553.8026 228.3092,534.5796 225.3572,509.8016 L324.5942,509.8016 Z" id="Fill-20" fill="#B6D4FF"></path>
                    <path d="M138.4038,549.1331 L149.1728,444.1931 L182.8458,444.1931 L193.6148,549.1331 C194.7428,560.1301 186.1138,569.6901 175.0588,569.6901 L156.9598,569.6901 C145.9048,569.6901 137.2748,560.1301 138.4038,549.1331" id="Fill-22" fill="#CCE3FF"></path>
                </g>
            </g>
            <g id="Background-Object-/-Window-/-3" transform="translate(472.500000, 400.000000) scale(-1, 1) translate(-472.500000, -400.000000) translate(0.000000, 42.000000)">
                <g id="Group-25" transform="translate(246.000000, 59.000000)">
                    <path d="M261.0464,22.9212 L261.0464,566.5602" id="Stroke-1" stroke="#ECF6FF" stroke-width="22"></path>
                    <path d="M252.979,3.4295 L252.979,568.3175" id="Stroke-3" stroke="#DCEEFF" stroke-width="17"></path>
                    <path d="M436.5132,0.9998 L436.5132,569.6898" id="Stroke-5" stroke="#B6D4FF" stroke-width="20"></path>
                    <path d="M91.0386,5.6473 L91.0386,564.6183" id="Stroke-8" stroke="#ECF6FF" stroke-width="22"></path>
                    <path d="M69.963,569.69 L430.326,569.69 L430.326,0.999 L69.963,0.999 L69.963,569.69 Z M91.964,547.69 L408.326,547.69 L408.326,23 L91.964,23 L91.964,547.69 Z" id="Fill-11" fill="#DCEEFF"></path>
                    <polygon id="Fill-12" fill="#CCE3FF" points="0.001 597.721 446.359 597.721 446.359 569.69 0.001 569.69"></polygon>
                    <polygon id="Fill-13" fill="#B6D4FF" points="342.563 597.721 453.128 597.721 453.128 569.69 342.563 569.69"></polygon>
                    <path d="M97.3237,199.8001 L430.3257,199.8001" id="Stroke-14" stroke="#DCEEFF" stroke-width="17"></path>
                    <path d="M97.3237,376.4446 L430.3257,376.4446" id="Stroke-16" stroke="#DCEEFF" stroke-width="17"></path>
                    <path d="M324.5942,537.0501 C323.0332,550.1601 316.3942,561.7201 306.6942,569.6901 L243.2642,569.6901 C233.5642,561.7201 226.9242,550.1601 225.3542,537.0501 L324.5942,537.0501 Z" id="Fill-18" fill="#B6D4FF"></path>
                    <path d="M324.5942,509.8016 C321.6412,534.5796 300.5522,553.8026 274.9752,553.8026 C249.3992,553.8026 228.3092,534.5796 225.3572,509.8016 L324.5942,509.8016 Z" id="Fill-20" fill="#B6D4FF"></path>
                    <path d="M138.4038,549.1331 L149.1728,444.1931 L182.8458,444.1931 L193.6148,549.1331 C194.7428,560.1301 186.1138,569.6901 175.0588,569.6901 L156.9598,569.6901 C145.9048,569.6901 137.2748,560.1301 138.4038,549.1331" id="Fill-22" fill="#CCE3FF"></path>
                </g>
            </g>
            <g id="Background-Object-/-Pluteus-/-5" transform="translate(613.000000, 254.000000)">
                <g id="Group-42" transform="translate(213.000000, 33.000000)">
                    <polygon id="Fill-1" fill="#DCEEFF" points="265.1696 205.894 417.4236 205.894 437.9836 0.5 285.7306 0.5"></polygon>
                    <polygon id="Stroke-2" stroke="#DCEEFF" stroke-width="5" points="265.1696 205.894 417.4236 205.894 437.9836 0.5 285.7306 0.5"></polygon>
                    <polygon id="Fill-4" fill="#FFFFFF" points="256.9518 205.894 412.0378 205.894 432.5978 0.5 277.5118 0.5"></polygon>
                    <polygon id="Stroke-5" stroke="#DCEEFF" stroke-width="5" points="256.9518 205.894 412.0378 205.894 432.5978 0.5 277.5118 0.5"></polygon>
                    <polygon id="Fill-7" fill="#DCEEFF" points="286.6549 178.7738 387.7639 178.7738 402.8949 27.6208 301.7859 27.6208"></polygon>
                    <path d="M167.4322,166.2729 L160.5832,166.2729 C128.6452,166.2729 102.7532,140.3809 102.7532,108.4419 L225.2622,108.4419 C225.2622,140.3809 199.3702,166.2729 167.4322,166.2729" id="Fill-8" fill="#ECF6FF"></path>
                    <path d="M104.6686,166.2729 L104.6686,166.2729 C104.6686,173.1769 110.2656,178.7739 117.1686,178.7739 L229.6376,178.7739 L229.6376,153.7729 L117.1686,153.7729 C110.2656,153.7729 104.6686,159.3699 104.6686,166.2729" id="Fill-10" fill="#DCEEFF"></path>
                    <path d="M180.3131,166.2729 L180.3131,166.2729 C180.3131,170.2699 183.5531,173.5099 187.5501,173.5099 L229.3361,173.5099 C229.5021,173.5099 229.6371,173.3759 229.6371,173.2089 L229.6371,159.3369 C229.6371,159.1709 229.5021,159.0369 229.3361,159.0369 L187.5501,159.0369 C183.5531,159.0369 180.3131,162.2759 180.3131,166.2729" id="Fill-12" fill="#ECF6FF"></path>
                    <path d="M88.9713,178.7738 L88.9713,203.7748 L211.7303,203.7748 C218.6333,203.7748 224.2303,198.1778 224.2303,191.2738 C224.2303,184.3708 218.6333,178.7738 211.7303,178.7738 L88.9713,178.7738 Z" id="Fill-14" fill="#DCEEFF"></path>
                    <path d="M88.9713,184.1069 L88.9713,198.4419 L139.4453,198.4419 C143.4033,198.4419 146.6123,195.2329 146.6123,191.2739 C146.6123,187.3159 143.4033,184.1069 139.4453,184.1069 L88.9713,184.1069 Z" id="Fill-16" fill="#ECF6FF"></path>
                    <polygon id="Fill-18" fill="#CCE3FF" points="88.971 653.705 424.932 653.705 424.932 307.934 88.971 307.934"></polygon>
                    <polygon id="Fill-20" fill="#DCEEFF" points="403.301 653.705 451.21 653.705 451.21 317.781 403.301 317.781"></polygon>
                    <polygon id="Fill-21" fill="#DCEEFF" points="47.476 323.118 451.211 323.118 451.211 233.58 47.476 233.58"></polygon>
                    <polygon id="Fill-22" fill="#CCE3FF" points="0 233.581 503.818 233.581 503.818 202.895 0 202.895"></polygon>
                    <polygon id="Fill-23" fill="#B6D4FF" points="451.211 653.705 474.586 653.705 474.586 233.581 451.211 233.581"></polygon>
                    <polygon id="Fill-24" fill="#B6D4FF" points="95.384 653.705 110.602 653.705 110.602 323.454 95.384 323.454"></polygon>
                    <polygon id="Fill-25" fill="#B6D4FF" points="469.846 233.581 518.256 233.581 518.256 202.895 469.846 202.895"></polygon>
                    <polygon id="Fill-26" fill="#DCEEFF" points="47.475 653.705 95.384 653.705 95.384 307.524 47.475 307.524"></polygon>
                    <polygon id="Fill-27" fill="#DCEEFF" points="34.073 653.705 95.385 653.705 95.385 569.047 34.073 569.047"></polygon>
                    <polygon id="Fill-28" fill="#DCEEFF" points="403.301 653.705 465.117 653.705 465.117 569.047 403.301 569.047"></polygon>
                    <path d="M195.6871,640.6518 C195.6871,640.6518 140.5351,608.3158 206.9961,514.2438 C206.9961,514.2438 241.2081,554.1938 254.3801,506.8588 C254.3801,506.8588 291.6671,565.9718 267.4591,601.6718" id="Fill-29" fill="#ECF6FF"></path>
                    <path d="M317.9547,643.934 C317.9547,643.934 367.6107,604.089 327.4057,523.884 C327.4057,523.884 269.7657,585.423 255.2007,471.372 C255.2007,471.372 213.1097,557.481 239.5537,598.808" id="Fill-30" fill="#ECF6FF"></path>
                    <polygon id="Fill-31" fill="#DCEEFF" points="182.637 653.705 332.867 653.705 332.867 622.561 182.637 622.561"></polygon>
                    <polygon id="Fill-32" fill="#DCEEFF" points="325.5143 604.9272 315.2093 575.6862 192.2573 622.5372 202.5633 651.7802"></polygon>
                    <polygon id="Fill-33" fill="#DCEEFF" points="318.027 653.1205 328.814 620.5205 208.567 577.5005 197.781 610.0995"></polygon>
                    <polygon id="Fill-34" fill="#B6D4FF" points="461.522 653.705 488.377 653.705 488.377 569.047 461.522 569.047"></polygon>
                    <polygon id="Stroke-35" stroke="#B6D4FF" stroke-width="5" points="145.033 646.806 182.984 646.806 182.984 391.67 145.033 391.67"></polygon>
                    <polygon id="Stroke-36" stroke="#B6D4FF" stroke-width="5" points="182.984 646.806 220.935 646.806 220.935 391.67 182.984 391.67"></polygon>
                    <polygon id="Stroke-37" stroke="#B6D4FF" stroke-width="5" points="220.935 646.806 258.886 646.806 258.886 391.67 220.935 391.67"></polygon>
                    <polygon id="Stroke-38" stroke="#B6D4FF" stroke-width="5" points="258.887 646.806 296.838 646.806 296.838 391.67 258.887 391.67"></polygon>
                    <polygon id="Stroke-39" stroke="#B6D4FF" stroke-width="5" points="296.838 646.806 334.789 646.806 334.789 391.67 296.838 391.67"></polygon>
                    <polygon id="Stroke-40" stroke="#B6D4FF" stroke-width="5" points="334.789 646.806 372.74 646.806 372.74 391.67 334.789 391.67"></polygon>
                </g>
            </g>
            <g id="Background-Object-/-Chair-/-2" transform="translate(20.000000, 487.000000)">
                <g id="Group-14" transform="translate(343.000000, 123.000000)">
                    <path d="M259.6459,231.9397 L259.6459,233.5997 C259.6459,247.4497 248.9009,258.6687 235.6579,258.6687 L47.7539,258.6687 C18.7699,258.6687 -3.5351,230.8597 0.4649,199.6997 L21.6789,26.0797 C23.5159,11.6997 34.8359,0.9997 48.2129,0.9997 L103.9039,0.9997 C117.2719,0.9997 128.5909,11.6997 130.4389,26.0797 L151.6529,199.6997 C151.8149,200.9397 151.9299,202.1797 151.9979,203.4097 L152.1119,203.3897 C152.1119,203.3897 156.0359,231.9397 192.5109,231.9397 L259.6459,231.9397 Z" id="Fill-1" fill="#DCEEFF"></path>
                    <path d="M59.6068,454.2415 C59.6068,463.0965 52.4268,470.2755 43.5718,470.2755 C34.7158,470.2755 27.5378,463.0965 27.5378,454.2415 C27.5378,445.3865 34.7158,438.2065 43.5718,438.2065 C52.4268,438.2065 59.6068,445.3865 59.6068,454.2415" id="Fill-4" fill="#B6D4FF"></path>
                    <path d="M205.9232,457.4563 L47.4622,457.4563 C41.3932,457.4563 36.4272,452.4903 36.4272,446.4213 C36.4272,440.3523 41.3932,435.3853 47.4622,435.3853 L205.9232,435.3853 C211.9922,435.3853 216.9582,440.3523 216.9582,446.4213 C216.9582,452.4903 211.9922,457.4563 205.9232,457.4563" id="Fill-6" fill="#CCE3FF"></path>
                    <polygon id="Fill-8" fill="#CCE3FF" points="118.562 452.208 134.824 452.208 134.824 258 118.562 258"></polygon>
                    <polygon id="Fill-10" fill="#CCE3FF" points="182.4135 258.0003 126.6925 283.3763 70.9725 258.0003"></polygon>
                    <path d="M127.9252,457.4563 L107.3632,457.4563 C101.2932,457.4563 96.3272,452.4903 96.3272,446.4213 C96.3272,440.3523 101.2932,435.3853 107.3632,435.3853 L127.9252,435.3853 C133.9942,435.3853 138.9602,440.3523 138.9602,446.4213 C138.9602,452.4903 133.9942,457.4563 127.9252,457.4563" id="Fill-11" fill="#B6D4FF"></path>
                    <path d="M114.4369,454.2415 C114.4369,463.0965 107.2579,470.2755 98.4029,470.2755 C89.5459,470.2755 82.3679,463.0965 82.3679,454.2415 C82.3679,445.3865 89.5459,438.2065 98.4029,438.2065 C107.2579,438.2065 114.4369,445.3865 114.4369,454.2415" id="Fill-12" fill="#B6D4FF"></path>
                    <path d="M226.9096,454.2415 C226.9096,463.0965 219.7306,470.2755 210.8746,470.2755 C202.0186,470.2755 194.8406,463.0965 194.8406,454.2415 C194.8406,445.3865 202.0186,438.2065 210.8746,438.2065 C219.7306,438.2065 226.9096,445.3865 226.9096,454.2415" id="Fill-13" fill="#B6D4FF"></path>
                </g>
            </g>
            <g id="Person-/-Girl-/-3" transform="translate(333.000000, 423.000000)">
                <g id="Girl-/-Head-/-3" transform="translate(-6.000000, -18.000000)">
                    <g id="Group-23" transform="translate(38.000000, 54.000000)">
                        <path d="M185.796,63.8685 C185.796,100.2995 157.606,129.8325 122.83,129.8325 C88.055,129.8325 59.864,100.2995 59.864,63.8685 C59.864,27.4375 85.002,0.0005 119.777,0.0005 C154.552,0.0005 185.796,27.4375 185.796,63.8685" id="Fill-1" fill="#19141E"></path>
                        <path d="M74.2911,29.9026 C81.3421,29.7086 83.3211,20.1856 77.0361,16.9836 C71.2501,14.0346 63.9411,11.7346 55.0101,11.4256 C37.1181,10.8066 8.8001,23.9346 3.5831,53.0316 C-2.2329,85.4686 21.3921,100.6196 0.0001,127.8246 L58.2861,148.5186 C58.2861,148.5186 69.1831,130.0646 56.7431,102.5406 C45.6011,77.8886 28.7121,31.1526 74.2911,29.9026" id="Fill-3" fill="#19141E"></path>
                        <path d="M128.9816,131.5745 C128.9816,131.5745 116.0506,131.9565 110.5396,128.9465 L128.2946,140.0935 L128.9816,131.5745 Z" id="Fill-5" fill="#CF3E83"></path>
                        <g id="Face-color" transform="translate(79.698900, 40.915501)">
                            <mask id="mask-2" fill="white">
                                <use xlink:href="#path-1"></use>
                            </mask>
                            <use id="Mask" fill="#ED4848" xlink:href="#path-1"></use>
                            <g id="Colors-/-Skin-/-Light-Red" mask="url(#mask-2)" fill="#ED4848" fill-rule="nonzero">
                                <g transform="translate(0.301100, 0.084499)" id="Color">
                                    <rect x="0" y="0" width="101" height="120"></rect>
                                </g>
                            </g>
                        </g>
                        <polygon id="Fill-9" fill="#405FD3" points="157.0909 85.8938 164.4909 103.8338 155.9059 103.6618"></polygon>
                        <path d="M149.212,86.6717 C149.028,90.2557 146.92,93.0477 144.504,92.9087 C142.089,92.7697 140.279,89.7517 140.464,86.1677 C140.649,82.5837 142.756,79.7917 145.172,79.9307 C147.588,80.0697 149.397,83.0887 149.212,86.6717" id="Fill-11" fill="#0D0B6D"></path>
                        <path d="M171.8995,86.0994 C171.7145,89.6834 169.6075,92.4754 167.1915,92.3364 C164.7755,92.1974 162.9665,89.1794 163.1505,85.5954 C163.3355,82.0114 165.4425,79.2184 167.8585,79.3574 C170.2745,79.4964 172.0835,82.5154 171.8995,86.0994" id="Fill-13" fill="#0D0B6D"></path>
                        <path d="M153.7999,112.2547 C153.7999,112.2547 148.2059,114.0607 142.5999,107.8277" id="Stroke-15" stroke="#1C295E" stroke-width="3"></path>
                        <path d="M128.9601,131.5745 C128.9601,131.5745 116.0301,131.9565 110.5181,128.9455 L128.2731,140.0925 L128.9601,131.5745 Z" id="Fill-17" fill="#000000" opacity="0.402785528"></path>
                        <path d="M98.3937,85.9163 C98.3937,85.9163 142.9677,89.6543 166.0797,36.9363 L115.0017,28.0133" id="Fill-19" fill="#19141E"></path>
                        <path d="M158.335099,29.6541 C158.335099,29.6541 158.2841,66.3721 179.1051,84.6291 L181.4641,61.2441" id="Fill-21" fill="#19141E"></path>
                    </g>
                </g>
                <g id="Girl-/-Body-/-3" transform="translate(3.000000, 161.000000)">
                    <g id="Group-24" transform="translate(24.000000, 1.000000)">
                        <path d="M82.002,168.6909 L75.092,168.5899 C75.092,168.5899 75.102,168.4809 75.111,168.2509 C77.491,168.4199 79.792,168.5599 82.002,168.6909" id="Fill-6" fill="#C83820"></path>
                        <g id="Sweater-color">
                            <mask id="mask-4" fill="white">
                                <use xlink:href="#path-3"></use>
                            </mask>
                            <use id="Mask" fill="#C83820" xlink:href="#path-3"></use>
                            <g id="Colors-/-Wear-/-Blue" mask="url(#mask-4)" fill="#2437A8" fill-rule="nonzero">
                                <g transform="translate(0.000000, -1.000000)" id="Color">
                                    <rect x="0" y="0" width="242" height="247"></rect>
                                </g>
                            </g>
                        </g>
                        <path d="M105.9415,169.0405 L105.9415,169.4405 C105.9415,169.4405 95.9215,169.4605 82.0515,168.6905 L105.9415,169.0405 Z" id="Fill-10" fill="#C83820"></path>
                        <path d="M161.1075,169.6391 C164.3155,128.8961 186.5205,120.2811 170.5205,74.5881" id="Stroke-12" stroke="#000000" stroke-width="3" opacity="0.201148624"></path>
                        <path d="M198.8839,220.0434 L115.4459,210.4264 C112.7129,210.1104 110.9139,207.4244 111.6629,204.7784 L144.6309,88.3004 C145.2269,86.1954 147.2609,84.8334 149.4349,85.0834 L232.8729,94.7004 C235.6049,95.0154 237.4049,97.7024 236.6549,100.3484 L203.6879,216.8254 C203.0919,218.9314 201.0569,220.2934 198.8839,220.0434" id="Fill-14" fill="#18181C"></path>
                        <path d="M124.791276,176.515343 C124.949991,176.557865 125.110599,176.601686 125.2731,176.6474 C131.0701,178.2294 136.9951,179.1864 145.2361,178.1004 C150.5371,177.4074 155.0941,176.5014 155.0431,175.6554 C154.8971,173.5184 152.3241,173.0394 152.3241,173.0394 L147.3741,173.2784 L142.6121,172.9964 C142.6121,172.9964 164.4901,168.8584 164.4901,168.2174 C164.4221,165.9604 160.8311,165.0454 160.8311,165.0454 C160.8311,165.0454 168.3541,163.8484 168.2681,162.6514 C168.0631,159.6084 164.7041,159.3774 164.7041,159.3774 C164.7041,159.3774 165.6361,158.5734 165.5421,157.8294 C165.1741,154.8284 159.8221,154.3324 157.2741,153.9654 C157.2741,153.9654 148.6051,153.8464 146.0231,153.2044 C139.232561,151.508875 135.191051,149.994412 132.655753,148.729657 L149.5977,88.8727 C150.1937,86.7677 152.2287,85.4057 154.4017,85.6557 L237.8397,95.2737 C240.5717,95.5877 242.3717,98.2747 241.6217,100.9207 L208.6547,217.3977 C208.0587,219.5037 206.0247,220.8657 203.8507,220.6157 L120.4127,210.9987 C117.6807,210.6827 115.8807,207.9967 116.6297,205.3507 L124.791276,176.515343 Z" id="Combined-Shape" fill="#FCBDA4"></path>
                        <g id="Skin-color" transform="translate(97.000000, 136.000000)">
                            <mask id="mask-6" fill="white">
                                <use xlink:href="#path-5"></use>
                            </mask>
                            <use id="Mask" fill="#E576C6" xlink:href="#path-5"></use>
                            <g id="Colors-/-Skin-/-Light-Red" mask="url(#mask-6)" fill="#ED4848" fill-rule="nonzero">
                                <g transform="translate(-3.000000, 0.000000)" id="Color">
                                    <rect x="0" y="0" width="148" height="162"></rect>
                                </g>
                            </g>
                        </g>
                        <path d="M212.5919,254.0512 C212.5919,254.0512 215.4319,264.7802 225.1789,268.1232 C228.5879,269.2922 227.7369,283.0922 236.0899,281.4422" id="Stroke-4" stroke="#000000" stroke-width="3" opacity="0.148065476"></path>
                        <path d="M158.0753,96.5068 C157.4183,98.5708 156.0163,99.9678 154.9433,99.6268 C153.8703,99.2858 153.5333,97.3348 154.1903,95.2708 C154.8473,93.2058 156.2493,91.8088 157.3223,92.1498 C158.3953,92.4918 158.7323,94.4418 158.0753,96.5068" id="Fill-20" fill="#020101"></path>
                        <polyline id="Stroke-22" stroke="#000000" stroke-width="3" opacity="0.200497582" points="74.0294 82.667 52.9694 117.539 105.3324 138.258"></polyline>
                    </g>
                </g>
                <g id="Girl-/-Legs-/-3" transform="translate(-95.000000, 278.000000)">
                    <g id="Group-15" transform="translate(195.000000, 0.000000)">
                        <g id="Shoes" transform="translate(172.000000, 219.740900)">
                            <mask id="mask-8" fill="white">
                                <use xlink:href="#path-7"></use>
                            </mask>
                            <use id="Mask" fill="#0D0B6D" xlink:href="#path-7"></use>
                            <g id="Colors-/-Wear-/-Dark-Plum" mask="url(#mask-8)" fill="#0D0B6D" fill-rule="nonzero">
                                <g transform="translate(-5.000000, 3.259100)" id="Color">
                                    <rect x="0" y="0" width="218" height="155"></rect>
                                </g>
                            </g>
                        </g>
                        <g id="Skin-color" transform="translate(174.000000, 222.000000)">
                            <mask id="mask-10" fill="white">
                                <use xlink:href="#path-9"></use>
                            </mask>
                            <use id="Mask" fill="#CF3E83" xlink:href="#path-9"></use>
                            <g id="Colors-/-Skin-/-Pink" mask="url(#mask-10)" fill="#CF3E83" fill-rule="nonzero">
                                <g transform="translate(-8.000000, -12.000000)" id="Color">
                                    <rect x="0" y="0" width="176" height="149"></rect>
                                </g>
                            </g>
                        </g>
                        <g id="Pants" transform="translate(-0.000420, 0.000000)">
                            <mask id="mask-12" fill="white">
                                <use xlink:href="#path-11"></use>
                            </mask>
                            <use id="Mask" fill="#2F2F3D" xlink:href="#path-11"></use>
                            <g id="Colors-/-Wear-/-Violet" mask="url(#mask-12)" fill="#A47EF1" fill-rule="nonzero">
                                <g transform="translate(0.000420, 0.000000)" id="Color">
                                    <rect x="0" y="0" width="319" height="340"></rect>
                                </g>
                            </g>
                        </g>
                        <g id="Overlay" transform="translate(59.033600, 63.744800)" fill="#18181C" opacity="0.150483631">
                            <path d="M124.552,2.84217094e-14 L124.552,2.84217094e-14 L4.8316906e-13,77.715 L108.835,76.965 L106.304,270.979 L163.323,270.979 L182.871,58.795 C187.694,20.188 163.532,2.84217094e-14 124.552,2.84217094e-14" id="Fill-13"></path>
                        </g>
                    </g>
                </g>
            </g>
            <g id="Person-/-Robot-/-3" transform="translate(1530.000000, 758.000000) scale(-1, 1) translate(-1530.000000, -758.000000) translate(1255.000000, 279.000000)">
                <g id="Robot-/-Legs-/-3" transform="translate(51.000000, 389.000000)">
                    <g id="Group-13" transform="translate(117.233766, 23.000000)">
                        <g id="Legs-color">
                            <mask id="mask-14" fill="white">
                                <use xlink:href="#path-13"></use>
                            </mask>
                            <use id="Mask" fill="#6CA1FF" fill-rule="nonzero" xlink:href="#path-13"></use>
                            <g id="Colors-/-Skin-/-Yellow" mask="url(#mask-14)" fill="#F6B852" fill-rule="nonzero">
                                <g transform="translate(0.000000, -9.000000)" id="Color">
                                    <rect x="0" y="0" width="180" height="403"></rect>
                                </g>
                            </g>
                        </g>
                        <path d="M33.0898636,270.385903 C33.9348937,270.652373 34.8338997,270.796 35.7662338,270.796 L64.0444091,270.796 C68.9826955,270.796 72.9859675,266.766563 72.9859675,261.796 C72.9859675,256.825437 68.9826955,252.796 64.0444091,252.796 L44.7077922,252.796 L44.7077922,213.236689 C50.0315838,204.946851 56.7529679,200 64.0593117,200 C81.3324156,200 95.3339026,227.642 95.3339026,261.741 C95.3339026,295.84 81.3324156,323.483 64.0593117,323.483 C48.2742281,323.483 35.2195021,300.392247 33.0898642,270.38591 L33.0898636,270.385903 Z" id="Path" fill="#19141E"></path>
                        <polygon id="Fill-10" fill="#19141E" points="49.4120455 58.15 128.377929 58.15 128.377929 30.928 49.4120455 30.928"></polygon>
                        <g id="Overlay" transform="translate(26.824675, 70.000000)" fill="#000000" opacity="0.395763579">
                            <path d="M109.29581,72.0108882 C109.028501,71.8299762 108.75712,71.6483683 108.481669,71.4660645 L108.481669,20 L101.337662,20 L101.337662,2 L117.423228,2 C122.361514,2 126.364786,6.02943725 126.364786,11 C126.507122,45.5416289 126.579044,71.5136232 126.580552,88.915983 C126.088575,88.2650666 125.591765,87.6272843 125.090248,87.0028903 C124.711137,86.4785431 124.340783,85.9619608 124.00021,85.5922852 C123.911822,85.4963439 123.826036,85.4023668 123.742628,85.3102046 C141.713281,107.639196 153.654802,147.148174 153.654802,192.164 C153.654802,261.843 125.043802,318.329 89.7484907,318.329 C88.8997178,318.329 88.0548101,318.296333 87.2140725,318.2316 L40.0884508,318.2316 C74.2079489,315.604571 101.460343,260.16733 101.460343,192.164 C101.460343,122.616146 72.9559516,66.2126726 37.7532468,66 L89.5492749,66.0006 C89.6156564,66.0002001 89.6820617,66 89.7484907,66 C96.5663573,66 103.134811,68.1076384 109.29581,72.0108882 L109.29581,72.0108882 Z M119.751768,80.7401238 C120.230509,81.2435912 120.705623,81.758732 121.177011,82.2853539 C120.756887,81.7941343 120.307687,81.2960876 119.751768,80.7401238 L119.751768,80.7401238 Z M17.8831169,182.796 L37.2197338,182.796 C42.1580201,182.796 46.1612922,186.825437 46.1612922,191.796 C46.1612922,196.766563 42.1580201,200.796 37.2197338,200.796 L8.94155844,200.796 C4.00327207,200.796 -1.20792265e-13,196.766563 -1.20792265e-13,191.796 L-1.20792265e-13,9 C-1.20792265e-13,4.02943725 4.00327207,2.84217094e-13 8.94155844,2.84217094e-13 L37.2197338,2.84217094e-13 C42.1580201,2.84217094e-13 46.1612922,4.02943725 46.1612922,9 C46.1612922,13.9705627 42.1580201,18 37.2197338,18 L17.8831169,18 L17.8831169,182.796 Z" id="Shape"></path>
                        </g>
                    </g>
                </g>
                <g id="Robot-/-Body-/-3" transform="translate(46.000000, 202.000000)">
                    <g id="Group-24" transform="translate(40.000000, 3.000000)">
                        <polyline id="Stroke-1" stroke="#19141E" stroke-width="15" points="43.0783 388.3777 22.0043 365.5247 52.5573 326.2587 89.2383 358.0817 76.0093 386.0207"></polyline>
                        <polyline id="Stroke-3" stroke="#19141E" stroke-width="15" points="271.9357 386.494 253.0447 361.807 287.0677 325.506 320.6777 360.555 304.9447 387.165"></polyline>
                        <path d="M287.4435,221.7064 L272.2985,110.6684" id="Stroke-5" stroke="#19141E" stroke-width="27" stroke-linecap="round"></path>
                        <path d="M45.5598,218.3235 L61.5258,107.4015" id="Stroke-13" stroke="#19141E" stroke-width="27" stroke-linecap="round"></path>
                        <path d="M224.007,156.4217 L180.89,156.4217 C174.465,156.4217 169.257,151.2137 169.257,144.7887 L169.257,101.6717 C169.257,95.2477 174.465,90.0397 180.89,90.0397 L224.007,90.0397 C230.431,90.0397 235.639,95.2477 235.639,101.6717 L235.639,144.7887 C235.639,151.2137 230.431,156.4217 224.007,156.4217" id="Fill-17" fill="#19141E"></path>
                        <path d="M213.007,156.4217 L180.89,156.4217 C174.465,156.4217 169.257,151.2137 169.257,144.7887 L169.257,101.6717 C169.257,95.2477 174.465,90.0397 180.89,90.0397 L213.007,90.0397 C219.431,90.0397 224.639,95.2477 224.639,101.6717 L224.639,144.7887 C224.639,151.2137 219.431,156.4217 213.007,156.4217" id="Fill-18" fill="#405FD3"></path>
                        <g id="Body-color" transform="translate(-0.000140, 18.460800)">
                            <mask id="mask-16" fill="white">
                                <use xlink:href="#path-15"></use>
                            </mask>
                            <use id="Mask" fill="#6CA1FF" xlink:href="#path-15"></use>
                            <g id="Colors-/-Skin-/-Yellow" mask="url(#mask-16)" fill="#F6B852" fill-rule="nonzero">
                                <g transform="translate(0.000140, 7.539200)" id="Color">
                                    <rect x="0" y="0" width="332" height="326"></rect>
                                </g>
                            </g>
                        </g>
                        <polygon id="Fill-11" fill="#19141E" points="126.21 26.461 206.223 26.461 206.223 -5.68434189e-14 126.21 -5.68434189e-14"></polygon>
                        <path d="M213.007,156.4217 C219.431,156.4217 224.639,151.2137 224.639,144.7887 L224.639,101.6717 C224.639,95.2477 219.431,90.0397 213.007,90.0397 L224.007,90.0397 C230.431,90.0397 235.639,95.2477 235.639,101.6717 L235.639,144.7887 C235.639,151.2137 230.431,156.4217 224.007,156.4217 L213.007,156.4217 Z" id="Path" fill="#19141E"></path>
                        <g id="Overlay" transform="translate(16.000000, 66.500000)">
                            <path d="M-1.77458048e-12,174.9087 L6.652,259.3887 L-1.77458048e-12,174.9087 Z M16.4882,173.5 L23.1402,257.98 L16.4882,173.5 Z" id="Shape" stroke="#000000" stroke-width="9" opacity="0.401762463" stroke-linecap="round" stroke-linejoin="round"></path>
                            <path d="M197.05,89.882 L164.933,89.882 C158.508,89.882 153.3,84.674 153.3,78.249 L153.3,35.132 C153.3,28.708 158.508,23.5 164.933,23.5 L197.05,23.5 C203.474,23.5 208.682,28.708 208.682,35.132 L208.682,78.249 C208.682,84.674 203.474,89.882 197.05,89.882 Z M170.427,53.355 C175.081,53.355 178.855,49.582 178.855,44.927 C178.855,40.273 175.081,36.5 170.427,36.5 C165.773,36.5 162,40.273 162,44.927 C162,49.582 165.773,53.355 170.427,53.355 Z M194.3763,53.355 C199.0303,53.355 202.8043,49.582 202.8043,44.927 C202.8043,40.273 199.0303,36.5 194.3763,36.5 C189.7223,36.5 185.9483,40.273 185.9483,44.927 C185.9483,49.582 189.7223,53.355 194.3763,53.355 Z M170.427,77.7129 C175.081,77.7129 178.855,73.9399 178.855,69.2849 C178.855,64.6309 175.081,60.8579 170.427,60.8579 C165.773,60.8579 162,64.6309 162,69.2849 C162,73.9399 165.773,77.7129 170.427,77.7129 Z" id="Shape" fill="#000000" opacity="0.397763207"></path>
                            <path d="M9,39.79 C9,59.832 25.247,76.08 45.289,76.08 C65.331,76.08 81.579,59.832 81.579,39.79 C81.579,19.748 65.331,3.5 45.289,3.5 C25.247,3.5 9,19.748 9,39.79" id="Fill-14" fill="#000000" opacity="0.404203869"></path>
                            <path d="M226.45139,170.13439 L226.00039,254.82339 C225.92139,269.61239 237.84639,281.66439 252.63439,281.74339 L289.78839,281.94139 C304.57639,282.02039 316.62939,270.09539 316.70739,255.30639 L317.15839,170.61739 C317.23739,155.82939 305.31239,143.77739 290.52439,143.69739 L253.37039,143.50039 C238.58239,143.42139 226.52939,155.34539 226.45139,170.13439" id="Fill-16" fill="#000000" opacity="0.398763021"></path>
                            <path d="M239,1.9209887 C242.665468,0.675521796 246.594276,-2.84217094e-14 250.680863,-2.84217094e-14 C270.722863,-2.84217094e-14 286.970863,16.248 286.970863,36.29 C286.970863,55.3518808 272.273166,70.9808615 253.592544,72.4638908 C254.326941,67.4575846 254.707263,62.3362048 254.707263,57.126 C254.707263,36.8671246 248.957206,17.9510652 239,1.9209887 L239,1.9209887 Z" id="Path" fill="#000000" opacity="0.397856213"></path>
                            <path d="M170.427,77.705 C175.081,77.705 178.855,73.932 178.855,69.277 C178.855,64.623 175.081,60.85 170.427,60.85 C165.773,60.85 162,64.623 162,69.277 C162,73.932 165.773,77.705 170.427,77.705" id="Fill-19" fill="#000000" opacity="0.59812128"></path>
                        </g>
                    </g>
                </g>
                <g id="Robot-/-Head-/-3" transform="translate(159.000000, 30.000000)">
                    <g id="Group-15" transform="translate(0.000000, 37.000000)">
                        <path d="M72.728,12.4228 C72.728,12.4228 90.19,23.9718 92.111,43.9528" id="Stroke-1" stroke="#19141E" stroke-width="5" stroke-linecap="round"></path>
                        <g id="Face-color" transform="translate(0.000400, 0.000000)">
                            <mask id="mask-18" fill="white">
                                <use xlink:href="#path-17"></use>
                            </mask>
                            <use id="Mask" fill="#6CA1FF" xlink:href="#path-17"></use>
                            <g id="Colors-/-Skin-/-Yellow" mask="url(#mask-18)" fill="#F6B852" fill-rule="nonzero">
                                <g transform="translate(20.999600, 0.000000)" id="Color">
                                    <rect x="0" y="0" width="154" height="141"></rect>
                                </g>
                            </g>
                        </g>
                        <g id="Overlay" transform="translate(73.753000, 96.326000)" fill="#000000" opacity="0.399042039">
                            <polygon id="Fill-5" points="1.93622895e-13 42 30.359 42 30.359 0 1.93622895e-13 0"></polygon>
                        </g>
                        <polygon id="Fill-7" fill="#000000" opacity="0.400367374" points="73.7534 124.7416 104.1124 114.7416 104.1124 96.1576 73.7534 96.1576"></polygon>
                        <path d="M20.8749,96.4496 L20.8749,96.4496 C9.3939,96.4496 -9.99999993e-05,87.0556 -9.99999993e-05,75.5746 L-9.99999993e-05,61.5016 C-9.99999993e-05,50.0206 9.3939,40.6266 20.8749,40.6266 C32.3559,40.6266 41.7499,50.0206 41.7499,61.5016 L41.7499,75.5746 C41.7499,87.0556 32.3559,96.4496 20.8749,96.4496" id="Fill-9" fill="#19141E"></path>
                        <path d="M53.6152,68.5385 C53.6152,77.3775 60.7812,84.5435 69.6202,84.5435 C78.4602,84.5435 85.6262,77.3775 85.6262,68.5385 C85.6262,59.6985 78.4602,52.5325 69.6202,52.5325 C60.7812,52.5325 53.6152,59.6985 53.6152,68.5385" id="Fill-10" fill="#FFFFFF"></path>
                        <path d="M64.3408,66.2895 C64.3408,70.3505 67.6328,73.6425 71.6938,73.6425 C75.7548,73.6425 79.0468,70.3505 79.0468,66.2895 C79.0468,62.2285 75.7548,58.9365 71.6938,58.9365 C67.6328,58.9365 64.3408,62.2285 64.3408,66.2895" id="Fill-11" fill="#19141E"></path>
                        <path d="M131.665,68.5385 C131.665,77.3775 138.831,84.5435 147.671,84.5435 C156.511,84.5435 163.677,77.3775 163.677,68.5385 C163.677,59.6985 156.511,52.5325 147.671,52.5325 C138.831,52.5325 131.665,59.6985 131.665,68.5385" id="Fill-12" fill="#FFFFFF"></path>
                        <path d="M142.3906,66.2895 C142.3906,70.3505 145.6826,73.6425 149.7436,73.6425 C153.8046,73.6425 157.0966,70.3505 157.0966,66.2895 C157.0966,62.2285 153.8046,58.9365 149.7436,58.9365 C145.6826,58.9365 142.3906,62.2285 142.3906,66.2895" id="Fill-13" fill="#19141E"></path>
                        <polyline id="Fill-14" fill="#19141E" points="104.9877 57.5678 119.3037 68.4308 104.9877 79.5088"></polyline>
                    </g>
                </g>
            </g>
            <g id="Background-Object-/-Clock" transform="translate(835.000000, 0.000000)">
                <g id="Group-14" transform="translate(172.000000, 104.000000)">
                    <path d="M155.4015,71.763 C155.4015,110.844 123.7195,142.526 84.6375,142.526 C45.5565,142.526 13.8755,110.844 13.8755,71.763 C13.8755,32.681 45.5565,1 84.6375,1 C123.7195,1 155.4015,32.681 155.4015,71.763" id="Fill-1" fill="#CCE3FF"></path>
                    <path d="M141.5265,71.763 C141.5265,110.844 109.8435,142.526 70.7625,142.526 C31.6815,142.526 0.0005,110.844 0.0005,71.763 C0.0005,32.681 31.6815,1 70.7625,1 C109.8435,1 141.5265,32.681 141.5265,71.763" id="Fill-4" fill="#DCEEFF"></path>
                    <path d="M124.3869,71.7577 C124.3869,99.3797 103.5099,122.1177 76.6849,125.0647 C74.7379,125.2797 72.7689,125.3867 70.7689,125.3867 C41.1469,125.3867 17.1389,101.3797 17.1389,71.7577 C17.1389,42.1467 41.1469,18.1387 70.7689,18.1387 C72.7689,18.1387 74.7379,18.2467 76.6849,18.4617 C103.5099,21.4087 124.3869,44.1467 124.3869,71.7577" id="Fill-6" fill="#CCE3FF"></path>
                    <path d="M124.3869,71.7577 C124.3869,99.3797 103.5099,122.1177 76.6849,125.0647 C49.8479,122.1177 28.9709,99.3797 28.9709,71.7577 C28.9709,44.1467 49.8479,21.4087 76.6849,18.4617 C103.5099,21.4087 124.3869,44.1467 124.3869,71.7577" id="Fill-8" fill="#ECF6FF"></path>
                    <path d="M73.089,41.9427 L90.464,79.8377" id="Stroke-10" stroke="#CCE3FF" stroke-width="8"></path>
                    <path d="M92.1193,63.951 L54.0593,105.321" id="Stroke-12" stroke="#CCE3FF" stroke-width="8"></path>
                </g>
            </g>
        </g>
    </g>
</svg>