<?xml version="1.0" encoding="UTF-8"?>
<svg width="1720px" height="1101px" viewBox="0 0 1720 1101" version="1.1" xmlns="http://www.w3.org/2000/svg" xmlns:xlink="http://www.w3.org/1999/xlink">
    <!-- Generator: Sketch 53.2 (72643) - https://sketchapp.com -->
    <title>Illustration 8</title>
    <desc>Created with Sketch.</desc>
    <defs>
        <path d="M70.3433036,114.832143 L69.4950893,85.5151786 C69.4950893,85.5151786 105.116518,88.3517857 112.736161,84.3928571 C112.736161,84.3928571 122.049554,36.4044643 110.942411,9.82946429 L110.717411,8.79375 L35.5450893,1.42108547e-14 L30.8220564,42.5437116 C28.2899135,35.0740688 7.90044643,27.2008929 2.43794643,37.8973214 C-9.40044643,61.075 32.928125,76.68125 32.928125,76.68125 L28.6299107,115.184821" id="path-1"></path>
        <path d="M211.1347,7.46495894 C213.6987,1.63734018 227.1677,2.84217094e-14 227.1677,2.84217094e-14 C227.1677,2.84217094e-14 248.6627,23.9208739 250.5867,27.5743196 C252.5097,31.2257771 256.0677,49.3110792 255.8987,52.8849941 C255.7287,56.4569208 244.6437,72.5131935 244.6437,72.5131935 C237.7657,70.8838065 242.2577,62.5917273 242.2577,62.5917273 C242.2577,62.5917273 236.0967,67.6280147 233.5357,67.5435132 C209.4147,66.7491994 210.7067,54.9418592 211.2777,53.4635806 C212.5587,50.1431701 218.9967,53.9397713 218.9967,53.9397713 C218.9967,53.9397713 203.8017,24.1366012 211.1347,7.46495894 Z M40.0707,18.892639 C40.0707,18.892639 42.6757,24.3981581 45.0117,31.0707915 C47.3467,37.7434249 46.3757,41.826337 51.4287,52.3084953 C57.1637,64.2063018 46.9047,59.300246 43.2277,54.1058912 C40.3567,50.0528032 40.6827,44.5741258 36.9607,42.1176185 C35.7137,44.1078765 32.8627,46.9540848 31.2737,64.119812 C30.9877,67.1986478 32.3837,77.185727 32.3837,77.185727 C32.4147,80.178073 32.7977,86.4182578 29.3917,87.3716331 C28.5477,87.6072431 27.4487,86.6747446 27.4487,86.6747446 C27.4487,86.6747446 27.7787,90.5787123 24.2967,91.3571199 C22.9277,91.6623194 20.2097,83.2310613 20.2097,83.2310613 C20.2097,83.2310613 19.7957,87.5118062 17.1957,87.9879968 C16.4607,88.1231991 7.7827,63.6943223 7.7827,63.6943223 L8.3047,69.211771 L9.4557,74.8634279 C9.4557,74.8634279 9.3637,77.9044865 6.9207,78.4423135 C5.9507,78.6560525 4.0887,73.5829821 2.3437,67.6151903 C-0.3703,58.3279821 -0.3153,51.348161 0.4827,44.4081053 C1.4477,36.0215833 1.5767,30.809334 5.3097,20.5260026 L40.0707,18.892639 Z" id="path-3"></path>
        <path d="M248.9687,198.969638 L205.4487,223.047585 L194.7487,202.44911 L195.0187,174.951339 L131.5087,174.951339 L124.4687,174.941397 L62.0287,174.941397 L61.0987,141.082157 L49.7687,209.000459 L0.0287,211.336676 C0.0287,211.336676 -0.9513,140.603978 8.5187,99.6853856 C14.5487,73.6191686 44.0087,25.1849164 71.9087,8.53315689 C76.3687,5.86887537 82.2887,3.99990176 88.8987,2.70752639 C91.3087,2.23034164 93.8087,1.83268768 96.3587,1.50462317 C121.5987,-1.74619795 152.1487,1.51456452 152.1487,1.51456452 C154.5687,2.38940323 156.8387,3.25430059 158.9587,4.1291393 C160.2487,4.65603079 161.4787,5.18292229 162.6587,5.70981378 C164.2787,6.43553226 165.7987,7.15130938 167.2287,7.87702786 L167.3087,7.91679326 C187.5487,18.1265587 190.4387,28.5550337 196.8187,41.6686672 C204.9987,58.4486701 213.4687,109.994565 213.4687,109.994565 L248.9687,198.969638 Z" id="path-5"></path>
        <path d="M62.4047845,22.6881803 L48.1505,65.5748279 L15.6739278,20.8313054 L0.3298,20.2215985 L7.9698,0.000894721408 L34.8898,1.2823346 L45.5298,18.7989915 L56.3498,2.30629355 L63.5198,2.64429941 L66.8798,22.8659974 L62.4047845,22.6881803 Z" id="path-7"></path>
        <path d="M0.0922,19.2661355 L7.8352,0.276170674 L20.8762,12.1849126 L0.0922,19.2661355 Z M28.8525,13.0576636 L41.3235,2.85783959 L45.5405,20.5584114 L28.8525,13.0576636 Z" id="path-9"></path>
        <path d="M221.7225,17.0660475 L221.4365,43.3427868 C221.4365,43.3427868 276.6185,52.622394 295.3245,75.1177757 L185.3845,75.1177757 L189.9905,1.42108547e-14 L221.7225,17.0660475 Z M45.6834,11.048036 L45.3804,42.3026638 C45.3804,42.3026638 69.9944,45.7344505 80.0124,74.8686815 L0.3274,74.8686815 L8.2964,40.5747852 L11.4144,9.31216718 L45.6834,11.048036 Z" id="path-11"></path>
        <path d="M181.9901,7.52396261 L213.7221,17.7034649 L213.4361,43.9802042 L179.4321,42.3492066 L181.9901,7.52396261 Z M4.0789,0.904090022 L37.6829,11.6858529 L37.3809,42.9404807 L0.2959,41.2126021 L4.0789,0.904090022 Z" id="path-13"></path>
        <path d="M166.721949,80.196041 L145.228,287.480552 L87.426,287.480552 L97.208,80.196041 L56.217,80.196041 C25.169,80.196041 -4.26325641e-14,55.339558 -4.26325641e-14,24.6762043 L-4.26325641e-14,0.000499386888 L92.9802,0.000499386888 L284.6572,0.000499386888 C324.8472,0.000499386888 355.9482,35.1073976 350.9752,74.8645866 L323.2092,287.480552 L264.4192,287.480552 L267.1262,80.196041 L166.721949,80.196041 Z" id="path-15"></path>
        <path d="M21.0670129,65.5210363 C25.1290129,72.0080363 19.4650129,80.5550363 17.1500129,85.5490363 C16.3670129,87.2660363 14.6320129,110.323036 13.8900129,110.975036 C11.0090129,113.502036 46.9370129,120.209036 46.9370129,120.209036 L49.2810129,91.1660363 C59.5070129,91.7560363 71.5090129,91.2150363 78.1000129,86.8320363 C97.7350129,73.7720363 98.8980129,28.4880363 98.5770129,26.2230363 L82.1090129,7.80103632 C82.1090129,7.80103632 57.2750129,-3.66696368 53.4960129,1.20603632 C46.5830129,10.1310363 30.4050129,50.0640363 18.6930129,45.5070363 C18.6930129,45.5070363 20.1700129,33.0910363 9.80701287,33.1060363 C2.08501287,33.1180363 -0.00598713479,39.3120363 1.28652075e-05,42.8890363 C0.0170128652,54.9660363 15.6120129,56.7820363 21.0670129,65.5210363" id="path-17"></path>
        <path d="M403.7734,106.0509 C403.7734,106.0509 448.7844,85.0139 473.6634,92.9259 L395.7064,145.5529 L384.5074,115.0089 L403.7734,106.0509 Z M60.458,26.293 L33.42,50.144 C33.42,50.144 34.864,64.145 33.971,80.201 C32.679,103.444 28.047,125.99 28.047,125.99 L0,42.744 L53.232,-1.13686838e-13 L60.458,26.293 Z" id="path-19"></path>
        <path d="M193.784261,10.267357 L217.2905,0 L226.5305,0 L230.459908,13.0080387 L255.22,14.8583 C255.0792,11.3736882 253.638209,31.4687219 246.479378,65.9752758 L307.2505,266.939 L381.7705,513.37 L362.5105,522.33 C362.5105,522.33 298.6905,385.769 245.2205,266.939 C232.570781,238.809625 220.501037,211.681206 209.991201,187.591607 C193.494495,229.164594 171.038247,274.519583 140.494,319.2393 C79.758,408.1613 11.42,457.4653 11.42,457.4653 L0.9,432.1773 C0.9,432.1773 142.59,316.1483 171.623,8.6113 L193.784261,10.267357 Z" id="path-21"></path>
        <path d="M236.7002,266.9394 L0.1712,266.9394 C0.1712,266.9394 16.2902,148.6494 45.1602,70.2294 C64.3102,18.2104 81.5512,3.6204 87.2612,0.0004 L169.8812,0.0004 C171.6712,4.1094 188.8412,44.4194 207.4402,124.1694 C230.9712,225.0194 236.7002,266.9394 236.7002,266.9394" id="path-23"></path>
        <path d="M237.805743,89.7954261 C242.77008,95.6631506 248.271881,102.323441 249.1296,104.0091 C250.7436,107.1801 253.7296,122.8771 253.5866,125.9781 C253.4446,129.0791 244.1436,143.0151 244.1436,143.0151 C238.3716,141.6011 242.1416,134.4041 242.1416,134.4041 C242.1416,134.4041 236.9726,138.7751 234.8226,138.7021 C214.5826,138.0121 215.6676,127.7641 216.1456,126.4811 C217.2206,123.5991 222.6236,126.8941 222.6236,126.8941 C222.6236,126.8941 212.355764,106.063703 214.694932,91.3315741 L186.1585,39.84 C196.0085,33.85 206.8285,27.27 215.4985,22.01 L237.805743,89.7954261 L237.805743,89.7954261 Z M32.7211724,80.7108793 L39.5878,102.6704 C39.5878,102.6704 40.3448,107.7314 40.4788,113.6504 C40.6128,119.5694 40.5418,123.1574 43.8588,132.2944 C46.1698,138.6614 37.0128,136.0644 34.6868,132.4224 C32.2878,128.6664 32.2588,114.0744 27.5018,116.5714 C22.7448,119.0674 20.0338,133.5274 19.7558,147.3694 C19.7118,149.5434 17.9478,151.1764 16.7478,151.7034 C14.7998,152.5584 12.8878,143.8224 12.8878,143.8224 C12.8878,143.8224 11.6358,146.7334 8.7998,145.2424 C7.7958,144.7144 5.2208,138.6644 5.2208,138.6644 C5.2208,138.6644 3.0768,135.6124 2.1058,132.3204 C0.3918,126.5084 -0.4622,115.9124 0.2548,112.8774 C1.95249125,105.699819 5.40200683,93.6112147 9.05805194,87.1126938 C9.04030991,85.6131002 8.51554178,39.1920524 11.0585,0 L46.7385,9.75 L32.7211724,80.7108793 L32.7211724,80.7108793 Z" id="path-25"></path>
        <path d="M204.4988,156.9195 C195.8288,162.1795 185.0088,168.7595 175.1588,174.7495 L166.0288,157.9995 L165.0688,149.4995 L78.2488,148.2195 C78.2488,148.2195 78.9988,140.1295 77.1588,128.4395 C74.7388,113.1495 62.0888,95.6695 62.0888,95.6695 L39.6188,125.0495 L35.7388,144.6595 L0.0588,134.9095 C1.5688,122.9595 2.8688,111.4795 6.3088,101.7395 C19.5788,64.0695 43.2488,21.5395 62.1588,9.6195 C81.6188,-2.6405 99.1588,0.5895 115.4388,1.4495 C143.5788,2.9195 157.4888,2.6295 170.0688,14.1795 C196.3088,38.2595 195.5188,129.1995 195.5188,129.1995 L204.4988,156.9195 Z" id="path-27"></path>
        <path d="M8.18607014,13.2848049 L10.0179,0 L53.7069,6.023 L52.4392012,15.2193023 C60.6711027,16.5201287 65.1676,18.0415 65.1676,18.0415 L56.8396,79.3445 L0.0296,13.4215 C0.0296,13.4215 2.58006351,13.3248661 8.18607014,13.2848049 L8.18607014,13.2848049 Z" id="path-29"></path>
    </defs>
    <g id="Scene" stroke="none" stroke-width="1" fill="none" fill-rule="evenodd">
        <g id="Illustration-8" transform="translate(-22.000000, -142.000000)">
            <g id="Background-Object-/-Tree-/-3" transform="translate(1031.000000, 417.000000)">
                <g id="Group-12" transform="translate(234.000000, 30.000000)">
                    <path d="M476.9312,238.9651 C476.9312,370.3901 370.3902,476.9301 238.9652,476.9301 C107.5402,476.9301 0.9992,370.3901 0.9992,238.9651 C0.9992,107.5401 107.5402,1.0001 238.9652,1.0001 C370.3902,1.0001 476.9312,107.5401 476.9312,238.9651" id="Fill-1" fill="#ECF6FF"></path>
                    <path d="M238.9654,170.1907 L238.9654,656.9197" id="Stroke-4" stroke="#B6D4FF" stroke-width="8"></path>
                    <path d="M238.9654,395.8709 L291.9394,342.8979" id="Stroke-6" stroke="#B6D4FF" stroke-width="8"></path>
                    <path d="M240.9654,236.8621 L268.2414,209.5861" id="Stroke-8" stroke="#B6D4FF" stroke-width="8"></path>
                    <path d="M238.9654,316.8392 L188.1964,266.0712" id="Stroke-10" stroke="#B6D4FF" stroke-width="8"></path>
                </g>
            </g>
            <g id="Background-Object-/-Tree-/-5" transform="translate(255.000000, 113.000000)">
                <g id="Group-12" transform="translate(300.000000, 186.000000)">
                    <path d="M344.2196,520.1799 C344.2196,634.7199 269.4696,698.6199 172.1106,698.6199 C74.7496,698.6199 -0.0004,634.7199 -0.0004,520.1799 C-0.0004,279.0199 109.8506,0.9999 172.1106,0.9999 C234.3696,0.9999 344.2196,279.0199 344.2196,520.1799" id="Fill-1" fill="#CCE3FF"></path>
                    <path d="M172.1102,349.8098 L172.1102,878.4798" id="Stroke-4" stroke="#ECF6FF" stroke-width="8" stroke-linecap="square"></path>
                    <path d="M174.1669,629.8703 L235.0819,568.9553" id="Stroke-6" stroke="#ECF6FF" stroke-width="8" stroke-linecap="square"></path>
                    <path d="M167.0106,513.8073 L117.1646,463.9613" id="Stroke-8" stroke="#ECF6FF" stroke-width="8" stroke-linecap="square"></path>
                    <path d="M175.1102,435.7233 L213.1622,397.6703" id="Stroke-10" stroke="#ECF6FF" stroke-width="8" stroke-linecap="square"></path>
                </g>
            </g>
            <g id="Background-Object-/-Sofa-/-4" transform="translate(446.000000, 390.000000)">
                <g id="Group-17" transform="translate(254.000000, 426.000000)">
                    <polygon id="Fill-1" fill="#CCE3FF" points="708.0219 201.2463 750.4589 398.9253 778.5319 398.9253 736.0949 201.2463"></polygon>
                    <polygon id="Fill-2" fill="#D7EBFF" points="25.785 201.245 752.422 201.245 752.422 170.666 25.785 170.666"></polygon>
                    <polygon id="Fill-3" fill="#D7EBFF" points="598.347 311.987 740.018 311.987 740.018 281.407 598.347 281.407"></polygon>
                    <polygon id="Fill-4" fill="#CCE3FF" points="175.9212 0 144.0752 170.666 182.5062 170.666 214.3522 0"></polygon>
                    <polygon id="Fill-5" fill="#CCE3FF" points="729.8244 0 697.9784 170.666 736.4084 170.666 768.2544 0"></polygon>
                    <polygon id="Fill-6" fill="#B6D4FF" points="582.025 201.246 752.422 201.246 752.422 170.667 582.025 170.667"></polygon>
                    <polygon id="Fill-7" fill="#CCE3FF" points="806.5814 111.25 800.8844 141.836 762.4474 141.836 768.1554 111.25"></polygon>
                    <polygon id="Fill-8" fill="#D7EBFF" points="768.1556 111.25 762.4476 141.836 115.7106 141.836 121.4186 111.25"></polygon>
                    <polygon id="Fill-9" fill="#CCE3FF" points="816.9573 55.627 811.2603 86.202 772.8233 86.202 778.5313 55.627"></polygon>
                    <polygon id="Fill-10" fill="#D7EBFF" points="778.5316 55.627 772.8236 86.202 126.0866 86.202 131.7946 55.627"></polygon>
                    <polygon id="Fill-11" fill="#CCE3FF" points="788.9067 0.0036 783.2107 30.5796 821.6357 30.5796 827.3327 0.0036"></polygon>
                    <polygon id="Fill-12" fill="#D7EBFF" points="142.1802 0.0036 136.4722 30.5796 783.2102 30.5796 788.9072 0.0036"></polygon>
                    <polygon id="Fill-13" fill="#CCE3FF" points="598.347 201.2463 555.91 398.9253 583.984 398.9253 626.42 201.2463"></polygon>
                    <polygon id="Fill-14" fill="#CCE3FF" points="152.1117 201.2454 194.5487 398.9244 222.6207 398.9244 180.1847 201.2454"></polygon>
                    <polygon id="Fill-15" fill="#D7EBFF" points="42.436 311.986 184.108 311.986 184.108 281.407 42.436 281.407"></polygon>
                    <polygon id="Fill-16" fill="#CCE3FF" points="42.4359 201.2454 -0.0001 398.9244 28.0739 398.9244 70.5089 201.2454"></polygon>
                </g>
            </g>
            <g id="Background-Object-/-Tree-/-1" transform="translate(37.000000, 479.000000)">
                <g id="Group-10" transform="translate(329.000000, 94.000000)">
                    <path d="M286.0377,248.8296 C286.0377,354.7606 242.2217,450.9706 143.0187,450.9706 C43.8157,450.9706 -0.0003,354.7606 -0.0003,248.8296 C-0.0003,124.5666 74.9647,0.9996 143.0187,0.9996 C211.0727,0.9996 286.0377,124.5666 286.0377,248.8296" id="Fill-1" fill="#ECF6FF"></path>
                    <path d="M143.0192,225.9854 L143.0192,527.6604" id="Stroke-4" stroke="#DCEEFF" stroke-width="8" stroke-linecap="square"></path>
                    <path d="M146.0192,363.8711 L184.7282,320.4071" id="Stroke-6" stroke="#DCEEFF" stroke-width="8" stroke-linecap="square"></path>
                    <path d="M137.3141,304.8643 L98.6041,261.3993" id="Stroke-8" stroke="#DCEEFF" stroke-width="8" stroke-linecap="square"></path>
                </g>
            </g>
            <g id="Background-Object-/-Streetlight-/-2" transform="translate(1202.000000, 0.000000)">
                <g id="Group-13" transform="translate(414.000000, 142.000000)">
                    <path d="M62.7844,36.9655 L53.2474,36.9655 C48.6594,36.9655 44.9394,40.6845 44.9394,45.2735 L44.9394,733.0755 L71.0924,733.0755 L71.0924,45.2735 C71.0924,40.6845 67.3724,36.9655 62.7844,36.9655" id="Fill-1" fill="#D7EBFF"></path>
                    <polygon id="Fill-3" fill="#CCE3FF" points="37.096 796.341 78.937 796.341 78.937 725.406 37.096 725.406"></polygon>
                    <polygon id="Fill-5" fill="#D7EBFF" points="25.739 964.991 90.292 964.991 90.292 757.678 25.739 757.678"></polygon>
                    <path d="M84.9231,937.527 L31.1101,937.527 C20.2341,937.527 11.4171,946.343 11.4171,957.219 L11.4171,965.871 L104.6141,965.871 L104.6141,957.219 C104.6141,946.343 95.7981,937.527 84.9231,937.527" id="Fill-6" fill="#CCE3FF"></path>
                    <path d="M90.2873,755.7277 L25.7453,755.7277 C20.3953,755.7277 16.0583,760.0637 16.0583,765.4137 L16.0583,766.6067 C16.0583,771.9567 20.3953,776.2927 25.7453,776.2927 L90.2873,776.2927 C95.6373,776.2927 99.9733,771.9567 99.9733,766.6067 L99.9733,765.4137 C99.9733,760.0637 95.6373,755.7277 90.2873,755.7277" id="Fill-7" fill="#CCE3FF"></path>
                    <path d="M58.0158,-0.0003 L58.0158,-0.0003 C48.4008,-0.0003 40.6058,7.7947 40.6058,17.4097 L40.6058,19.5557 C40.6058,29.1707 48.4008,36.9657 58.0158,36.9657 C67.6318,36.9657 75.4258,29.1707 75.4258,19.5557 L75.4258,17.4097 C75.4258,7.7947 67.6318,-0.0003 58.0158,-0.0003" id="Fill-8" fill="#CCE3FF"></path>
                    <path d="M83.7551,203.0294 L32.2771,203.0294 C26.9281,203.0294 22.5911,207.3654 22.5911,212.7154 L22.5911,213.9084 C22.5911,219.2584 26.9281,223.5944 32.2771,223.5944 L83.7551,223.5944 C89.1041,223.5944 93.4411,219.2584 93.4411,213.9084 L93.4411,212.7154 C93.4411,207.3654 89.1041,203.0294 83.7551,203.0294" id="Fill-9" fill="#CCE3FF"></path>
                    <path d="M76.7268,223.5944 L39.3048,223.5944 C35.7928,223.5944 32.9458,226.4414 32.9458,229.9534 L32.9458,230.7374 C32.9458,234.2484 35.7928,237.0954 39.3048,237.0954 L76.7268,237.0954 C80.2398,237.0954 83.0858,234.2484 83.0858,230.7374 L83.0858,229.9534 C83.0858,226.4414 80.2398,223.5944 76.7268,223.5944" id="Fill-10" fill="#CCE3FF"></path>
                    <polygon id="Fill-11" fill="#ECF6FF" points="107.4465 66.7633 79.1735 203.0283 36.8715 203.0283 8.5855 66.7633"></polygon>
                    <polygon id="Fill-12" fill="#CCE3FF" points="116.0324 73.9855 103.6354 49.5955 12.3964 49.5955 0.0004 73.9855"></polygon>
                </g>
            </g>
            <g id="Person-/-Man-/-1" transform="translate(1240.500000, 991.500000) scale(-1, 1) translate(-1240.500000, -991.500000) translate(901.000000, 477.000000)">
                <g id="Man-/-Head-/-1" transform="translate(245.000000, 69.000000)">
                    <g id="Group-29" transform="translate(27.000000, 0.000000)">
                        <path d="M39.8623214,14.5148214 C41.7846429,24.2639286 35.44,33.7255357 25.6908929,35.6478571 C15.9417857,37.5710714 6.47928571,31.2264286 4.55696429,21.4773214 C2.63464286,11.7273214 8.97928571,2.26571429 18.7283929,0.343392857 C28.4775,-1.57892857 37.94,4.76571429 39.8623214,14.5148214" id="Fill-1" fill="#2437A8"></path>
                        <g id="Face-color" transform="translate(11.607143, 77.160268)">
                            <mask id="mask-2" fill="white">
                                <use xlink:href="#path-1"></use>
                            </mask>
                            <use id="Mask" fill="#E576C6" xlink:href="#path-1"></use>
                            <g id="Colors-/-Skin-/-Rose" mask="url(#mask-2)" fill="#E576C6" fill-rule="nonzero">
                                <g transform="translate(0.000000, 8.554018)" id="Color">
                                    <rect x="0" y="0" width="116" height="108"></rect>
                                </g>
                            </g>
                        </g>
                        <polygon id="Fill-6" fill="#000000" opacity="0.397786458" points="81.1020536 162.675089 57.0815179 157.524196 80.9859821 173.674196"></polygon>
                        <polygon id="Fill-8" fill="#405FD3" points="100.915804 114.766786 109.215804 135.061429 99.2675893 135.188214"></polygon>
                        <path d="M91.451875,120.53375 C91.9465179,123.266786 90.1313393,125.882857 87.3991964,126.376607 C84.6661607,126.87125 82.0500893,125.056964 81.5554464,122.323929 C81.0608036,119.590893 82.876875,116.975714 85.6090179,116.481071 C88.3420536,115.986429 90.9572321,117.800714 91.451875,120.53375" id="Fill-10" fill="#0D0B6D"></path>
                        <path d="M117.558304,120.53375 C118.052946,123.266786 116.237768,125.882857 113.505625,126.376607 C110.772589,126.87125 108.156518,125.056964 107.661875,122.323929 C107.167232,119.590893 108.983304,116.975714 111.715446,116.481071 C114.448482,115.986429 117.063661,117.800714 117.558304,120.53375" id="Fill-12" fill="#0D0B6D"></path>
                        <g id="Group-17" transform="translate(90.178571, 140.558929)">
                            <path d="M0.416160714,0.375803571 C0.416160714,0.375803571 3.89294643,6.01419643 10.7795536,5.53651786" id="Fill-14" fill="#FFFFFF"></path>
                            <path d="M0.416160714,0.375803571 C0.416160714,0.375803571 3.89294643,6.01419643 10.7795536,5.53651786" id="Stroke-16" stroke="#252535" stroke-width="4"></path>
                        </g>
                        <path d="M45.5583785,123.271551 C42.1111799,118.829414 38.2713615,115.888102 34.800761,113.945079 L35.6186607,96.9619643 L70.9302679,90.8039286 C68.0393439,110.271964 55.241688,119.22977 45.5583785,123.271551 Z" id="Combined-Shape" fill="#19141E"></path>
                        <path d="M8.95669643,91.6828571 C8.95669643,91.6828571 -3.07455357,48.5141071 31.5504464,24.6908929 C74.4075893,-4.79660714 124.013839,72.6748214 124.013839,72.6748214" id="Fill-22" fill="#CE3D29"></path>
                        <path d="M0.131964286,96.6463393 L3.34892857,114.695446 C4.15785714,119.240089 8.47482143,122.286518 13.0283929,121.526696 L130.112321,101.987411 C135.098036,101.155268 138.234643,96.1499107 136.807857,91.3008036 L130.364107,69.3972321 C129.128393,65.1954464 124.8775,62.641875 120.587321,63.523125 L6.73017857,86.916875 C2.25785714,87.835625 -0.668928571,92.1508036 0.131964286,96.6463393" id="Fill-24" fill="#2437A8"></path>
                        <polyline id="Fill-27" fill="#2437A8" points="6.95303571 72.6264286 26.78875 45.3871429 57.0816071 60.8166071 74.50125 34.7183929 105.589643 49.2058929"></polyline>
                    </g>
                </g>
                <g id="Man-/-Body-/-1" transform="translate(186.000000, 212.000000)">
                    <g id="Group-24" transform="translate(20.000000, 30.818182)">
                        <g id="Hands" transform="translate(0.000000, 209.451498)">
                            <mask id="mask-4" fill="white">
                                <use xlink:href="#path-3"></use>
                            </mask>
                            <use id="Mask" fill="#E576C6" xlink:href="#path-3"></use>
                            <g id="Colors-/-Skin-/-Rose" mask="url(#mask-4)" fill="#E576C6" fill-rule="nonzero">
                                <g transform="translate(0.000000, 11.246449)" id="Color">
                                    <rect x="0" y="0" width="256" height="81"></rect>
                                </g>
                            </g>
                        </g>
                        <path d="M223.9228,230.988735 C223.9228,230.988735 227.3078,243.349808 238.9238,247.202081 C242.9858,248.548139 241.9708,264.446345 251.9268,262.544565" id="Stroke-4" stroke="#000000" stroke-width="3" opacity="0.147205171"></path>
                        <g id="Sweater" transform="translate(0.000000, 18.888563)">
                            <mask id="mask-6" fill="white">
                                <use xlink:href="#path-5"></use>
                            </mask>
                            <use id="Mask" fill="#2F2F3D" xlink:href="#path-5"></use>
                            <g id="Colors-/-Wear-/-Dark-Grey" mask="url(#mask-6)" fill="#2F2F3D" fill-rule="nonzero">
                                <g transform="translate(-8.000000, 0.000000)" id="Color">
                                    <rect x="0" y="0" width="265" height="223"></rect>
                                </g>
                            </g>
                        </g>
                        <g id="T-shirt" transform="translate(94.000000, 0.000000)">
                            <mask id="mask-8" fill="white">
                                <use xlink:href="#path-7"></use>
                            </mask>
                            <use id="Mask" fill="#FCBDA4" xlink:href="#path-7"></use>
                            <g id="Colors-/-Wear-/-Cream" mask="url(#mask-8)" fill="#FCBDA4" fill-rule="nonzero">
                                <g transform="translate(-1.000000, -2.982405)" id="Color">
                                    <rect x="0" y="0" width="70" height="70"></rect>
                                </g>
                            </g>
                        </g>
                        <g id="T-shirt-shadow" transform="translate(114.000000, 5.964809)">
                            <mask id="mask-10" fill="white">
                                <use xlink:href="#path-9"></use>
                            </mask>
                            <use id="Mask" fill="#EA847A" xlink:href="#path-9"></use>
                            <g id="Colors-/-Wear-/-Dark-Cream" mask="url(#mask-10)" fill="#EA847A" fill-rule="nonzero">
                                <g transform="translate(-13.000000, -28.829912)" id="Color">
                                    <rect x="0" y="0" width="70" height="70"></rect>
                                </g>
                            </g>
                        </g>
                        <polyline id="Stroke-20" stroke="#000000" stroke-width="5" opacity="0.201218378" points="60.1908 168.053434 66.7588 120.969217 87.0998 89.5217481"></polyline>
                        <path d="M195.019,193.83682 L199.366,119.116647" id="Stroke-22" stroke="#000000" stroke-width="5" opacity="0.20296224"></path>
                    </g>
                </g>
                <g id="Man-/-Legs-/-1" transform="translate(53.000000, 249.000000)">
                    <g id="Group-15" transform="translate(215.000000, 182.233240)">
                        <g id="Shoes" transform="translate(84.000000, 259.320225)">
                            <mask id="mask-12" fill="white">
                                <use xlink:href="#path-11"></use>
                            </mask>
                            <use id="Mask" fill="#0D0B6D" xlink:href="#path-11"></use>
                            <g id="Colors-/-Wear-/-Dark-Plum" mask="url(#mask-12)" fill="#0D0B6D" fill-rule="nonzero">
                                <g transform="translate(-4.000000, 37.315587)" id="Color">
                                    <rect x="0" y="0" width="299" height="45"></rect>
                                </g>
                            </g>
                        </g>
                        <g id="Skin-legs" transform="translate(92.000000, 258.682408)">
                            <mask id="mask-14" fill="white">
                                <use xlink:href="#path-13"></use>
                            </mask>
                            <use id="Mask" fill="#CF3E83" xlink:href="#path-13"></use>
                            <g id="Colors-/-Skin-/-Pink" mask="url(#mask-14)" fill="#CF3E83" fill-rule="nonzero">
                                <g transform="translate(-10.000000, -1.997548)" id="Color">
                                    <rect x="0" y="0" width="233" height="60"></rect>
                                </g>
                            </g>
                        </g>
                        <g id="Pants" transform="translate(-0.000200, 0.000000)">
                            <mask id="mask-16" fill="white">
                                <use xlink:href="#path-15"></use>
                            </mask>
                            <use id="Mask" fill="#18181C" xlink:href="#path-15"></use>
                            <g id="Colors-/-Wear-/-Cream" mask="url(#mask-16)" fill="#FCBDA4" fill-rule="nonzero">
                                <g transform="translate(0.000200, -11.949721)" id="Color">
                                    <rect x="0" y="0" width="351" height="308"></rect>
                                </g>
                            </g>
                        </g>
                        <g id="Overlay" transform="translate(-0.000200, 0.000499)" fill="#FFFFFF" opacity="0.101632254">
                            <path d="M-4.26325641e-14,-2.84217094e-14 L126.186,-2.84217094e-14 C152.254,-2.84217094e-14 172.635,22.2087337 170.078,47.8302774 L145.228,287.480052 L87.426,287.480052 L97.208,80.1955416 L56.217,80.1955416 C25.169,80.1955416 -4.26325641e-14,55.3390586 -4.26325641e-14,24.6757049 L-4.26325641e-14,-2.84217094e-14 Z" id="Mask"></path>
                        </g>
                    </g>
                </g>
            </g>
            <g id="Person-/-Girl-/-6" transform="translate(0.000000, 352.000000)">
                <g id="Girl-/-Head-/-6" transform="translate(111.000000, -10.000000)">
                    <g id="Group-23" transform="translate(71.000000, 49.000000)">
                        <path d="M178.076,146.4052 L0.046,146.4052 C0.046,146.4052 -1.844,117.7192 18.616,94.2772 C24.536,87.4912 25.476,81.5672 25.316,75.0652 C25.176,69.4722 24.236,63.4432 24.966,56.0612 C29.326,24.9722 53.506,0.9992 87.596,0.9992 C117.716,0.9992 147.515,19.6102 155.756,45.4712 C161.087,62.2012 160.531,71.8192 158.83,84.9872 C155.6,110.0062 170.369,110.1522 176.882,127.2362 C181.32,138.8782 178.076,146.4052 178.076,146.4052" id="Fill-1" fill="#FFE8C0"></path>
                        <path d="M95.2615,133.79 C95.2615,133.79 82.3305,134.172 76.8195,131.162 L94.5745,142.309 L95.2615,133.79 Z" id="Fill-4" fill="#CF3E83"></path>
                        <g id="Face-color" transform="translate(45.980587, 42.624464)">
                            <mask id="mask-18" fill="white">
                                <use xlink:href="#path-17"></use>
                            </mask>
                            <use id="Mask" fill="#E576C6" xlink:href="#path-17"></use>
                            <g id="Colors-/-Skin-/-Rose" mask="url(#mask-18)" fill="#E576C6" fill-rule="nonzero">
                                <g transform="translate(13.019413, 25.375536)" id="Color">
                                    <rect x="0" y="0" width="86" height="98"></rect>
                                </g>
                            </g>
                        </g>
                        <polygon id="Fill-9" fill="#405FD3" points="123.3704 88.1088 130.7704 106.0498 122.1854 105.8768"></polygon>
                        <path d="M115.492,88.8872 C115.308,92.4712 113.2,95.2632 110.784,95.1242 C108.368,94.9852 106.559,91.9672 106.743,88.3832 C106.928,84.7992 109.036,82.0062 111.451,82.1462 C113.867,82.2852 115.677,85.3032 115.492,88.8872" id="Fill-11" fill="#0D0B6D"></path>
                        <path d="M138.179,88.3144 C137.994,91.8984 135.887,94.6904 133.471,94.5514 C131.055,94.4124 129.246,91.3944 129.43,87.8104 C129.615,84.2264 131.722,81.4344 134.138,81.5734 C136.554,81.7124 138.363,84.7314 138.179,88.3144" id="Fill-13" fill="#0D0B6D"></path>
                        <path d="M120.6629,41.8462 C120.0449,46.0982 120.2169,50.2992 121.0689,54.2932 C121.1859,54.7922 121.3019,55.3092 121.4489,55.8122 C122.3419,59.1842 123.7189,62.3902 125.5149,65.3332 C130.3629,73.2582 138.2789,79.3002 147.8969,81.6892 C148.3899,81.8092 148.8749,81.9192 149.3719,82.0112 L151.2509,69.0712 L151.2419,69.0692 C151.3099,68.6662 151.3679,68.2722 151.4259,67.8682 C153.7459,51.8962 148.1649,38.1912 140.4009,25.2442 C138.9579,22.8352 137.0449,21.5312 135.3139,19.3152 C130.2049,22.3552 128.2789,23.8152 125.2169,28.9702 C122.9259,32.8122 121.3449,37.1512 120.6629,41.8462" id="Fill-15" fill="#FFE8C0"></path>
                        <path d="M120.0794,114.4702 C120.0794,114.4702 114.4854,116.2752 108.8794,110.0432" id="Stroke-17" stroke="#1C295E" stroke-width="3"></path>
                        <path d="M95.24,133.7895 C95.24,133.7895 82.31,134.1715 76.798,131.1615 L94.553,142.3085 L95.24,133.7895 Z" id="Fill-19" fill="#000000" opacity="0.39750744"></path>
                        <path d="M131.5633,74.7026 C109.1533,116.9346 82.9873,85.5986 71.8933,102.7286 C60.2013,120.7836 86.7463,126.6626 86.7463,146.4056 L11.3963,146.4056 L57.4963,104.0536 L30.8263,72.0396 C30.8263,72.0396 43.7763,50.2506 62.0663,43.3226 C103.3363,27.6886 159.1433,22.7266 131.5633,74.7026" id="Fill-21" fill="#FFE8C0"></path>
                    </g>
                </g>
                <g id="Girl-/-Legs-/-6" transform="translate(22.000000, 286.000000)">
                    <g id="Group-14" transform="translate(0.000000, 52.000000)">
                        <g id="Shoes" transform="translate(0.000000, 407.322100)">
                            <mask id="mask-20" fill="white">
                                <use xlink:href="#path-19"></use>
                            </mask>
                            <use id="Mask" fill="#0D0B6D" xlink:href="#path-19"></use>
                            <g id="Colors-/-Wear-/-Dark-Plum" mask="url(#mask-20)" fill="#0D0B6D" fill-rule="nonzero">
                                <g transform="translate(-2.000000, 21.677900)" id="Color">
                                    <rect x="0" y="0" width="476" height="124"></rect>
                                </g>
                            </g>
                        </g>
                        <g id="Skin-color" transform="translate(22.000000, 0.000000)">
                            <mask id="mask-22" fill="white">
                                <use xlink:href="#path-21"></use>
                            </mask>
                            <use id="Mask" fill="#E576C6" xlink:href="#path-21"></use>
                            <g id="Colors-/-Skin-/-Rose" mask="url(#mask-22)" fill="#E576C6" fill-rule="nonzero">
                                <g transform="translate(-1.000000, 267.000000)" id="Color">
                                    <rect x="0" y="0" width="398" height="255"></rect>
                                </g>
                            </g>
                        </g>
                        <g id="Skirt" transform="translate(113.000000, 0.000000)">
                            <mask id="mask-24" fill="white">
                                <use xlink:href="#path-23"></use>
                            </mask>
                            <use id="Mask" fill="#FCBDA4" xlink:href="#path-23"></use>
                            <g id="Colors-/-Wear-/-Dark-Cyan" mask="url(#mask-24)" fill="#1E9DBC" fill-rule="nonzero">
                                <g transform="translate(-1.000000, 0.000000)" id="Color">
                                    <rect x="0" y="0" width="238" height="270"></rect>
                                </g>
                            </g>
                        </g>
                    </g>
                </g>
                <g id="Girl-/-Body-/-6" transform="translate(120.000000, 169.000000)">
                    <g id="Group-21" transform="translate(10.000000, 9.000000)">
                        <g id="Skin-color" transform="translate(0.000000, 147.909300)">
                            <mask id="mask-26" fill="white">
                                <use xlink:href="#path-25"></use>
                            </mask>
                            <use id="Mask" fill="#E576C6" xlink:href="#path-25"></use>
                            <g id="Colors-/-Skin-/-Rose" mask="url(#mask-26)" fill="#E576C6" fill-rule="nonzero">
                                <g transform="translate(0.000000, 0.090700)" id="Color">
                                    <rect x="0" y="0" width="254" height="152"></rect>
                                </g>
                            </g>
                        </g>
                        <path d="M226.7566,246.6793 C226.7566,246.6793 229.5966,257.4083 239.3436,260.7513 C242.7526,261.9203 241.9016,275.7203 250.2546,274.0693" id="Stroke-3" stroke="#000000" stroke-width="3" opacity="0.146065848"></path>
                        <g id="Sweater-color" transform="translate(11.000000, 13.000000)">
                            <mask id="mask-28" fill="white">
                                <use xlink:href="#path-27"></use>
                            </mask>
                            <use id="Mask" fill="#72A065" xlink:href="#path-27"></use>
                            <g id="Colors-/-Wear-/-Dark-Grey" mask="url(#mask-28)" fill="#2F2F3D" fill-rule="nonzero">
                                <g transform="translate(-5.000000, 0.000000)" id="Color">
                                    <rect x="0" y="0" width="209" height="175"></rect>
                                </g>
                            </g>
                        </g>
                        <path d="M175.2722,162.2662 C178.4802,121.5232 200.6852,112.9082 184.6852,67.2162" id="Stroke-13" stroke="#000000" stroke-width="3" opacity="0.203264509"></path>
                        <g id="Neck-color" transform="translate(99.000000, 0.000000)">
                            <mask id="mask-30" fill="white">
                                <use xlink:href="#path-29"></use>
                            </mask>
                            <use id="Mask" fill="#2437A8" xlink:href="#path-29"></use>
                            <g id="Colors-/-Wear-/-Dark-Cyan" mask="url(#mask-30)" fill="#1E9DBC" fill-rule="nonzero">
                                <g transform="translate(-7.000000, 0.000000)" id="Color">
                                    <rect x="0" y="0" width="72" height="79"></rect>
                                </g>
                            </g>
                        </g>
                        <path d="M91.7517,81.1783 L73.0847,108.6653" id="Stroke-17" stroke="#000000" stroke-width="3" opacity="0.203264509"></path>
                    </g>
                </g>
            </g>
        </g>
    </g>
</svg>