<?xml version="1.0" encoding="UTF-8"?>
<svg width="1590px" height="999px" viewBox="0 0 1590 999" version="1.1" xmlns="http://www.w3.org/2000/svg" xmlns:xlink="http://www.w3.org/1999/xlink">
    <!-- Generator: Sketch 53.2 (72643) - https://sketchapp.com -->
    <title>Illustration 18</title>
    <desc>Created with Sketch.</desc>
    <defs>
        <path d="M215.391,107.69 C215.391,115.3 214.601,122.73 213.09,129.9 C202.861,178.72 159.561,195.38 107.691,195.38 C48.22,195.38 4.26325641e-14,167.17 4.26325641e-14,107.69 C4.26325641e-14,48.21 48.22,5.68434189e-14 107.691,5.68434189e-14 C148.58,5.68434189e-14 184.151,22.78 202.391,56.35 C210.68,71.61 215.391,89.1 215.391,107.69" id="path-1"></path>
        <path d="M45.8354489,0.594517892 C58.4286635,11.4276038 77.0676542,21.5010228 98.9482254,28.3499916 C97.5548773,43.1748106 92.929673,68.7260585 78.9772,78.0071 C72.3862,82.3901 60.3832,82.9301 50.1582,82.3401 L47.8132,111.3831 L17.4202,99.4801 C17.4202,99.4801 25.0062,64.1821 20.9442,57.6951 C15.4892,48.9561 0.8942,46.1401 0.8772,34.0631 C0.8712,30.4861 2.9622,24.2931 10.6832,24.2811 C21.0472,24.2661 19.5702,36.6821 19.5702,36.6821 C29.1038477,40.390715 38.8217002,14.9870254 45.8354489,0.594517892 Z" id="path-3"></path>
        <path d="M237.081915,77.3175527 C236.421545,70.8498676 236.163366,63.1115789 238.218675,60.3401 C241.989675,55.2541 260.634675,39.8791 260.634675,39.8791 L261.628651,52.7095408 L266.042175,37.647 C266.042175,37.647 270.929751,39.0955322 275.661175,41.5710695 C279.882456,43.779694 283.887405,46.9616308 285.637175,48.205 C288.144175,49.987 280.856175,77.405 275.661175,82.339 C272.094114,85.7254772 261.576703,88.3514801 255.335378,89.6647351 C243.414798,108.915679 211.644654,157.015479 194.093175,153.0472 C175.859175,148.9252 158.942175,85.1872 158.942175,85.1872 L189.697175,70.2052 L203.088175,111.4782 L237.081915,77.3175527 L237.081915,77.3175527 Z M28.0950538,216.999658 L35.5805864,236.143683 C35.5805864,236.143683 36.7177293,241.072206 37.3532313,246.897025 C37.9878079,252.721924 38.2315929,256.265208 42.0886342,265.005202 C44.7766303,271.095531 36.0779726,269.276493 33.6111477,265.874052 C31.0678545,262.365044 29.7814976,247.981695 25.5942765,250.82776 C21.4070555,253.673824 20.1453645,268.149952 21.0820655,281.819774 C21.2288694,283.96676 19.7381029,285.71954 18.6721425,286.337358 C16.9430528,287.338061 14.4198925,278.87876 14.4198925,278.87876 C14.4198925,278.87876 13.5123718,281.851176 10.7590057,280.60979 C9.78427671,280.170509 6.8803087,274.415003 6.8803087,274.415003 C6.8803087,274.415003 4.63180216,271.578622 3.44919664,268.411545 C1.36158696,262.820072 -0.342766516,252.442253 0.0590974091,249.392871 C1.00821472,242.206222 3.14389163,230.076137 5.95130582,223.356332 C4.29393215,206.089183 -2.05957468,136.764647 1.4453069,123.59567 C5.45661263,108.527289 13.3166331,88.1080879 13.3166331,88.1080879 L43.4769073,105.846708 L30.5473626,133.449214 L28.0950538,216.999658 L28.0950538,216.999658 Z M132.335775,1.776 C132.335775,1.776 140.389775,7.468 146.405775,17.646 C154.638775,31.57 150.334775,43.583 137.667775,43.603 C124.106775,43.626 108.542775,39.01 101.981775,18.47 C98.6627753,8.08 95.5277753,-1.98951966e-13 95.5277753,-1.98951966e-13 L132.335775,1.776 Z" id="path-5"></path>
        <path d="M32.8798492,27.7759519 C29.0390623,25.2709217 24.3469975,22.5836207 22.4736,23.0206 C20.1871258,23.5539315 24.4292812,29.5989243 27.4610971,33.5105582 C22.5634122,35.4758485 16.0709901,38.4184914 15.034,40.5682 C14.3155273,42.0576133 17.1219542,42.544235 20.5989417,42.6100235 C17.3993856,44.1444441 14.6073476,45.8030842 13.9579,47.1502 C13.1258516,48.8750588 17.0212144,49.2550258 21.2107558,49.1939731 C17.5108429,50.882156 14.0442997,52.8007061 13.3104,54.3221 C12.0718575,56.8911451 21.3199865,56.4767063 26.4072873,56.0652765 L25.094,61.8052 C24.723,63.4302 23.243,64.5582 21.577,64.4852 L3.475,63.6942 C1.321,63.6002 -0.221,61.5762 0.26,59.4742 L13.086,3.4162 C13.458,1.7912 14.937,0.6642 16.602,0.7362 L34.705,1.5272 C36.859,1.6222 38.4,3.6462 37.92,5.7472 L32.8798492,27.7759519 Z" id="path-7"></path>
        <path d="M102.630318,1.1280359 L90.4991,0.5427 C90.4991,0.5427 93.6341,8.6227 96.9531,19.0127 C103.5141,39.5527 119.0781,44.1687 132.6391,44.1457 C145.3061,44.1257 149.6101,32.1127 141.3771,18.1887 C136.078299,9.22407368 129.198456,3.73960374 127.633398,2.55934582 C143.628039,3.64068783 153.587872,5.64885073 162.811,14.2997 C180.372,30.7707 194.592,61.1347 200.439,91.1327 L168.348,105.4537 L156.918,149.6207 L72.933,148.3407 C72.933,148.3407 73.668,140.2507 71.857,128.5607 C69.498,113.2707 60.982,101.8607 60.982,101.8607 L52.535,114.7007 L0,83.7307 C17.199,52.3677 41.189,20.0297 57.184,9.7397 C68.4838099,2.46731608 78.8297714,0.641925166 88.9390687,0.5427 C93.5362515,0.497577555 98.1518563,0.8103254 102.630318,1.1280359 Z" id="path-9"></path>
        <path d="M31.3264,1.567 L55.6614,0.347 L58.2624,31.066 L0.2424,31.066 C12.9424,6.089 31.3264,1.567 31.3264,1.567 Z M170.5217,1.4899 C170.5217,1.4899 216.3237,13.4969 233.5417,31.3539 L151.1147,31.5019 L153.3567,0.9629 L170.5217,1.4899 Z" id="path-11"></path>
        <path d="M39.157651,305.02023 C34.1785861,310.23968 24.5793285,317.796171 10.5576,318.0741 C-2.20609993,318.32758 21.1235105,302.313866 25.1772814,299.592646 L0.9426,29.501 L64.6196,0 L44.8726,306.068 L39.157651,305.02023 L39.157651,305.02023 Z M168.506074,302.732863 L201.3357,316.9812 C181.216411,319.183727 161.012319,310.773854 150.590985,305.4593 L144.0866,305.4593 L84.1926,39.6123 L138.9626,37.0553 C138.9626,37.0553 144.7046,97.0933 151.2996,162.6893 C158.651622,235.802875 166.62158,290.225442 168.506074,302.732863 Z" id="path-13"></path>
        <path d="M57.3,-2.84217094e-14 C57.3,-2.84217094e-14 40.327,8.116 25.558,52.166 C5.791,111.124 -7.531753e-13,289.705 -7.531753e-13,289.705 L190.332,289.705 L141.283,1.28 L57.3,-2.84217094e-14 Z" id="path-15"></path>
        <path d="M128.641208,89.2192455 L128.641208,99.8350858 C128.641208,108.200754 121.878409,114.982354 113.535935,114.982354 L64.7796039,114.982354 C56.4381234,114.982354 49.6753247,108.200754 49.6753247,99.8350858 L49.6753247,87.6716418 L44.7077922,87.6716418 L44.7077922,141.263253 C50.7677264,137.513987 57.2169998,135.492537 63.9063117,135.492537 C63.9727407,135.492537 64.039146,135.492737 64.1055275,135.493135 L115.901556,135.493135 C115.967937,135.492737 116.034342,135.492537 116.100771,135.492537 C122.872197,135.492537 129.397596,137.563803 135.522134,141.401781 L135.522134,89.2192455 L128.641208,89.2192455 L128.641208,89.2192455 Z M128.641208,71.2864097 L144.463693,71.2864097 C149.401979,71.2864097 153.405251,75.3008117 153.405251,80.2528276 L153.405251,159.117817 C169.517223,181.937917 180.007083,219.152166 180.007083,261.185776 C180.007083,330.60478 151.396083,386.880011 116.100771,386.880011 C115.251999,386.880011 114.407091,386.847466 113.566353,386.782975 L66.4407315,386.782975 C65.5999928,386.847466 64.7550845,386.880011 63.9063117,386.880011 C28.6119935,386.880011 9.09494702e-13,330.60478 9.09494702e-13,261.185776 C9.09494702e-13,219.079148 10.5267013,181.80864 26.6862799,158.999023 L26.6862799,261.185776 C26.6862799,265.195623 29.3111433,268.590696 32.9318395,269.737436 C35.0480536,299.661505 48.1097988,322.697396 63.9056162,322.697396 C81.1787201,322.697396 95.1802071,295.157541 95.1802071,261.185776 C95.1802071,227.214011 81.1787201,199.675153 63.9056162,199.675153 C56.6694063,199.675153 50.0069798,204.509384 44.7077921,212.625541 L44.7077922,251.852731 L64.0444091,251.852731 C68.9826955,251.852731 72.9859675,255.867133 72.9859675,260.819149 C72.9859675,265.771165 68.9826955,269.785567 64.0444091,269.785567 L35.7662338,269.785567 C30.8279474,269.785567 26.8246753,265.771165 26.8246753,260.819149 L26.8246753,78.7052239 C26.8246753,73.753208 30.8279474,69.738806 35.7662338,69.738806 L49.6753247,69.738806 L49.6753247,15.1472687 C49.6753247,6.78160075 56.4381234,0 64.7796039,0 L113.535935,0 C121.878409,0 128.641208,6.78160075 128.641208,15.1472687 L128.641208,71.2864097 Z" id="path-17"></path>
        <path d="M343.6259,83.3717522 L343.6259,131.4752 C343.6259,153.3052 325.7649,171.1672 303.9339,171.1672 L117.4209,171.1672 C95.5899,171.1672 77.7289,153.3052 77.7289,131.4752 L77.7289,79.6391228 C56.571115,78.6872865 39.7099,61.2326913 39.7099,39.84 C39.7099,17.837 57.5469,0 79.5499,0 C87.2205082,0 94.3848081,2.16779203 100.463579,5.92415549 C105.612645,3.47107418 111.363975,2.0962 117.4209,2.0962 L303.9339,2.0962 C310.658375,2.0962 317.006181,3.7908316 322.571354,6.77413054 C323.416726,6.46970727 324.278064,6.19156286 325.1547,5.9409 C346.3097,-0.1091 368.3637,12.1369 374.4117,33.2919 C380.4607,54.4479 368.2157,76.5009 347.0607,82.5499 C345.917503,82.8767825 344.77168,83.1502396 343.6259,83.3717522 L343.6259,83.3717522 Z M385.042234,403.963592 C390.464181,410.716065 393.565959,419.380517 393.1983,428.7121 C392.6683,442.1691 385.0613,453.6721 374.1043,459.7801 C369.7783,462.1921 364.5763,458.8771 364.7823,453.9281 C364.7843,453.8931 364.7853,453.8581 364.7873,453.8221 C365.4413,437.2161 356.8293,423.3961 345.5483,422.9511 C339.6693,422.7191 334.2243,426.1631 330.2683,431.8621 C326.7993,436.8611 319.0113,434.5741 318.8153,428.4931 C318.7723,427.1511 318.8003,425.7921 318.9033,424.4211 C319.585275,415.338415 323.580617,407.176232 329.634415,401.085768 C316.238137,391.641254 307.423113,376.073706 307.3639,358.5297 L307.0019,250.6257 C306.9059,221.8857 330.3419,198.2927 359.0809,198.1957 C387.8209,198.0997 411.4149,221.5347 411.5109,250.2747 L411.8729,358.1787 C411.939019,377.768253 401.071038,394.967293 385.042221,403.9636 L385.042234,403.963592 Z M41.5392234,405.099337 C23.306258,398.026419 9.71945301,380.950575 8.1745,360.2404 L0.1455,252.6354 C-1.9935,223.9744 19.7075,198.7754 48.3675,196.6374 C77.0275,194.4984 102.2265,216.1984 104.3655,244.8594 L112.3935,352.4644 C113.736447,370.458885 105.682897,387.088319 92.4091153,397.503039 C101.591392,404.022451 107.749478,414.584819 108.1728,426.4992 C108.2218,427.8732 108.1958,429.2322 108.0998,430.5712 C107.6638,436.6402 99.7938,438.6182 96.5238,433.4872 C92.7948,427.6362 87.4898,423.9802 81.6068,423.9802 C70.3178,423.9802 61.1668,437.4502 61.1668,454.0702 L61.1668,454.1762 C61.1788,459.1292 55.8498,462.2372 51.6208,459.6562 C40.9138,453.1212 33.7668,441.3272 33.7668,427.8602 C33.7668,419.287184 36.6664655,411.391143 41.5392234,405.099337 L41.5392234,405.099337 Z M176.508,212.3007 L176.508,189.3007 L244.847,189.3007 L244.847,212.3007 L176.508,212.3007 Z" id="path-19"></path>
        <path d="M73.7526,96.4496 L20.875,96.4496 C9.394,96.4496 -3.41060513e-13,87.0556 -3.41060513e-13,75.5746 L-3.41060513e-13,61.5016 C-3.41060513e-13,50.0206 9.394,40.6266 20.875,40.6266 L154.211,40.6266 C165.692,40.6266 175.086,50.0206 175.086,61.5016 L175.086,75.5746 C175.086,87.0556 165.692,96.4496 154.211,96.4496 L104.1116,96.4496 L104.1116,138.326 L73.7526,138.326 L73.7526,96.4496 Z M81.6138,10.538 C81.6138,16.358 76.8958,21.077 71.0758,21.077 C65.2558,21.077 60.5368,16.358 60.5368,10.538 C60.5368,4.718 65.2558,0 71.0758,0 C76.8958,0 81.6138,4.718 81.6138,10.538 Z" id="path-21"></path>
    </defs>
    <g id="Scene" stroke="none" stroke-width="1" fill="none" fill-rule="evenodd">
        <g id="Illustration-18" transform="translate(-313.000000, -194.000000)">
            <g id="Background-Object-/-Lamp" transform="translate(736.000000, 367.000000)">
                <g id="Group-17" transform="translate(263.000000, 31.000000)">
                    <path d="M285.5502,183.9348 C285.5502,183.9348 289.5062,163.3308 303.0192,164.6508 C331.2102,167.4068 296.6812,257.9848 354.6912,263.8018 C412.6992,269.6178 418.7242,178.8818 418.7242,178.8818" id="Stroke-1" stroke="#CCE3FF" stroke-width="7"></path>
                    <path d="M287.6352,123.6199 L287.6352,653.3189" id="Stroke-3" stroke="#DCEEFF" stroke-width="15"></path>
                    <path d="M418.7241,178.8816 L72.5541,29.6646" id="Stroke-5" stroke="#DCEEFF" stroke-width="15"></path>
                    <path d="M220.9682,653.3191 L354.3022,653.3191 L354.3022,646.7551 C354.3022,638.2661 347.4202,631.3841 338.9312,631.3841 L236.3382,631.3841 C227.8502,631.3841 220.9682,638.2661 220.9682,646.7551 L220.9682,653.3191 Z" id="Fill-7" fill="#DCEEFF"></path>
                    <polygon id="Fill-10" fill="#B6D4FF" points="0.0004 105.7766 113.4424 130.4736 117.1104 98.7766 9.8414 75.4236"></polygon>
                    <path d="M50.7094,58.2908 L84.5304,65.6538 L94.1864,21.3058 C96.1164,12.4368 90.4914,3.6808 81.6224,1.7498 L79.9194,1.3788 C71.0504,-0.5522 62.2944,5.0728 60.3634,13.9428 L50.7094,58.2908 Z" id="Fill-12" fill="#B6D4FF"></path>
                    <polygon id="Fill-15" fill="#B6D4FF" points="117.1108 98.7766 83.4568 54.6436 58.7968 49.2746 9.8408 75.4236"></polygon>
                </g>
            </g>
            <g id="Background-Object-/-Closet-/-2" transform="translate(1152.000000, 0.000000)">
                <g id="Group-45" transform="translate(195.000000, 194.000000)">
                    <path d="M411.1961,153.2466 L393.5071,153.2466 C378.2411,153.2466 365.8661,140.8716 365.8661,125.6056 L365.8661,79.1076 C365.8661,74.5106 369.5921,70.7846 374.1891,70.7846 L430.5131,70.7846 C435.1111,70.7846 438.8381,74.5106 438.8381,79.1076 L438.8381,125.6056 C438.8381,140.8716 426.4631,153.2466 411.1961,153.2466" id="Fill-1" fill="#DCEEFF"></path>
                    <polygon id="Fill-3" fill="#DCEEFF" points="383.433 112.015 421.27 112.015 421.27 37.504 383.433 37.504"></polygon>
                    <path d="M201.3543,105.5513 L201.3543,105.5513 C201.3543,112.4553 206.9513,118.0513 213.8553,118.0513 L326.3243,118.0513 L326.3243,93.0513 L213.8553,93.0513 C206.9513,93.0513 201.3543,98.6473 201.3543,105.5513" id="Fill-5" fill="#CCE3FF"></path>
                    <path d="M276.9998,105.5513 L276.9998,105.5513 C276.9998,109.5483 280.2388,112.7883 284.2358,112.7883 L326.0218,112.7883 C326.1888,112.7883 326.3238,112.6533 326.3238,112.4873 L326.3238,98.6153 C326.3238,98.4493 326.1888,98.3143 326.0218,98.3143 L284.2358,98.3143 C280.2388,98.3143 276.9998,101.5543 276.9998,105.5513" id="Fill-6" fill="#DCEEFF"></path>
                    <path d="M185.6571,118.0518 L185.6571,143.0528 L308.4161,143.0528 C315.3201,143.0528 320.9171,137.4558 320.9171,130.5518 C320.9171,123.6488 315.3201,118.0518 308.4161,118.0518 L185.6571,118.0518 Z" id="Fill-7" fill="#CCE3FF"></path>
                    <path d="M185.6571,123.3853 L185.6571,137.7193 L236.1311,137.7193 C240.0901,137.7193 243.2981,134.5103 243.2981,130.5523 C243.2981,126.5933 240.0901,123.3853 236.1311,123.3853 L185.6571,123.3853 Z" id="Fill-8" fill="#DCEEFF"></path>
                    <path d="M232.8192,77.8086 L240.8032,-0.0004 L265.7702,-0.0004 L273.7552,77.8086 C274.5912,85.9626 268.1932,93.0506 259.9972,93.0506 L246.5772,93.0506 C238.3812,93.0506 231.9822,85.9626 232.8192,77.8086" id="Fill-9" fill="#DCEEFF"></path>
                    <polygon id="Fill-10" fill="#E6F4FF" points="27.875 813.794 398.228 813.794 398.228 154.225 27.875 154.225"></polygon>
                    <polygon id="Fill-11" fill="#E6F4FF" points="27.876 861.077 49.2 861.077 49.2 154.225 27.876 154.225"></polygon>
                    <polygon id="Fill-12" fill="#B6D4FF" points="49.2 861.077 70.523 861.077 70.523 813.794 49.2 813.794"></polygon>
                    <polygon id="Fill-13" fill="#B6D4FF" points="179.01 861.077 200.333 861.077 200.333 813.794 179.01 813.794"></polygon>
                    <polygon id="Fill-14" fill="#B6D4FF" points="398.229 861.077 419.552 861.077 419.552 813.794 398.229 813.794"></polygon>
                    <polygon id="Fill-15" fill="#C5E0FC" points="485.392 861.077 506.715 861.077 506.715 813.794 485.392 813.794"></polygon>
                    <polygon id="Fill-16" fill="#E6F4FF" points="376.905 861.077 398.228 861.077 398.228 154.225 376.905 154.225"></polygon>
                    <polygon id="Fill-17" fill="#B6D4FF" points="506.715 861.73 528.038 861.73 528.038 813.794 506.715 813.794"></polygon>
                    <polygon id="Fill-18" fill="#C5E0FC" points="157.687 861.077 179.01 861.077 179.01 813.794 157.687 813.794"></polygon>
                    <polygon id="Fill-19" fill="#CCE3FF" points="49.199 784.52 198.919 784.52 198.919 657.95 49.199 657.95"></polygon>
                    <polygon id="Fill-20" fill="#CCE3FF" points="227.189 784.521 376.909 784.521 376.909 657.951 227.189 657.951"></polygon>
                    <polygon id="Fill-21" fill="#CCE3FF" points="49.199 629.681 198.919 629.681 198.919 503.121 49.199 503.121"></polygon>
                    <polygon id="Fill-22" fill="#CCE3FF" points="227.189 629.681 376.909 629.681 376.909 503.121 227.189 503.121"></polygon>
                    <polygon id="Fill-23" fill="#CCE3FF" points="49.2 474.849 376.905 474.849 376.905 348.285 49.2 348.285"></polygon>
                    <polygon id="Fill-24" fill="#B6D4FF" points="49.2 474.849 150.579 474.849 150.579 348.285 49.2 348.285"></polygon>
                    <polygon id="Fill-25" fill="#CCE3FF" points="49.2 320.015 376.905 320.015 376.905 193.451 49.2 193.451"></polygon>
                    <polygon id="Fill-26" fill="#B6D4FF" points="49.2 320.015 150.579 320.015 150.579 193.451 49.2 193.451"></polygon>
                    <polygon id="Fill-27" fill="#B6D4FF" points="398.228 813.794 528.038 813.794 528.038 154.225 398.228 154.225"></polygon>
                    <path d="M393.9793,163.6851 L19.6923,163.6851 C8.8163,163.6851 0.0003,154.8681 0.0003,143.9931 L0.0003,142.8081 L393.9793,142.8081 L393.9793,163.6851 Z" id="Fill-28" fill="#E6F4FF"></path>
                    <path d="M535.9998,163.6851 L393.9788,163.6851 L393.9788,142.8081 L555.6918,142.8081 L555.6918,143.9931 C555.6918,154.8681 546.8758,163.6851 535.9998,163.6851" id="Fill-29" fill="#B6D4FF"></path>
                    <polygon id="Fill-30" fill="#CCE3FF" points="27.875 172.818 398.228 172.818 398.228 163.685 27.875 163.685"></polygon>
                    <polygon id="Fill-31" fill="#DCEEFF" points="122.624 320.015 142.748 320.015 142.748 243.141 122.624 243.141"></polygon>
                    <polygon id="Fill-32" fill="#CCE3FF" points="102.5 320.015 122.624 320.015 122.624 243.141 102.5 243.141"></polygon>
                    <polygon id="Fill-33" fill="#CCE3FF" points="142.748 320.015 162.872 320.015 162.872 243.141 142.748 243.141"></polygon>
                    <path d="M215.8924,320.0147 L162.8714,320.0147 L162.8714,243.1407 L215.8924,243.1407 C218.7244,243.1407 221.0214,245.4367 221.0214,248.2687 L221.0214,314.8867 C221.0214,317.7187 218.7244,320.0147 215.8924,320.0147" id="Fill-34" fill="#B6D4FF"></path>
                    <polygon id="Fill-35" fill="#CCE3FF" points="171.489 261.952 212.404 261.952 212.404 254.341 171.489 254.341"></polygon>
                    <polygon id="Fill-36" fill="#CCE3FF" points="180.606 273.695 203.287 273.695 203.287 266.084 180.606 266.084"></polygon>
                    <path d="M340.4158,430.7305 L340.4158,432.3685 C340.4158,439.8865 334.3198,445.9825 326.8018,445.9825 L208.8468,445.9825 L208.8468,417.1165 L326.8018,417.1165 C334.3198,417.1165 340.4158,423.2115 340.4158,430.7305" id="Fill-37" fill="#B6D4FF"></path>
                    <path d="M260.7752,431.0752 L260.7752,432.0232 C260.7752,436.3762 257.2472,439.9052 252.8932,439.9052 L209.0102,439.9052 C208.9202,439.9052 208.8462,439.8322 208.8462,439.7412 L208.8462,423.3572 C208.8462,423.2662 208.9202,423.1932 209.0102,423.1932 L252.8932,423.1932 C257.2472,423.1932 260.7752,426.7222 260.7752,431.0752" id="Fill-38" fill="#DCEEFF"></path>
                    <path d="M356.9422,445.9825 L356.9422,474.8485 L228.1532,474.8485 C220.6342,474.8485 214.5392,468.7535 214.5392,461.2345 L214.5392,459.5965 C214.5392,452.0785 220.6342,445.9825 228.1532,445.9825 L356.9422,445.9825 Z" id="Fill-39" fill="#B6D4FF"></path>
                    <path d="M356.9422,452.1407 L356.9422,468.6917 L304.0622,468.6917 C299.7522,468.6917 296.2562,465.1967 296.2562,460.8847 L296.2562,459.9467 C296.2562,455.6357 299.7522,452.1407 304.0622,452.1407 L356.9422,452.1407 Z" id="Fill-40" fill="#DCEEFF"></path>
                    <path d="M160.6991,667.9512 L87.4191,667.9512 C81.8951,667.9512 77.4181,663.4732 77.4181,657.9502 L170.7001,657.9502 C170.7001,663.4732 166.2221,667.9512 160.6991,667.9512" id="Fill-41" fill="#B6D4FF"></path>
                    <path d="M338.6893,667.9512 L265.4083,667.9512 C259.8853,667.9512 255.4083,663.4732 255.4083,657.9502 L348.6903,657.9502 C348.6903,663.4732 344.2123,667.9512 338.6893,667.9512" id="Fill-42" fill="#B6D4FF"></path>
                    <path d="M338.6893,513.1211 L265.4083,513.1211 C259.8853,513.1211 255.4083,508.6431 255.4083,503.1211 L348.6903,503.1211 C348.6903,508.6431 344.2123,513.1211 338.6893,513.1211" id="Fill-43" fill="#B6D4FF"></path>
                    <path d="M160.6991,513.1211 L87.4191,513.1211 C81.8951,513.1211 77.4181,508.6431 77.4181,503.1211 L170.7001,503.1211 C170.7001,508.6431 166.2221,513.1211 160.6991,513.1211" id="Fill-44" fill="#B6D4FF"></path>
                </g>
            </g>
            <g id="Background-Object-/-Bedside-table-/-3" transform="translate(937.500000, 882.000000) scale(-1, 1) translate(-937.500000, -882.000000) translate(465.000000, 524.000000)">
                <g id="Group-34" transform="translate(198.000000, 182.000000)">
                    <path d="M368.0634,150.1539 L298.9344,150.1539 L298.9344,10.7219 C298.9344,4.7999 303.7354,0.0009 309.6574,0.0009 L357.3404,0.0009 C363.2624,0.0009 368.0634,4.7999 368.0634,10.7219 L368.0634,150.1539 Z" id="Fill-1" fill="#CCE3FF"></path>
                    <path d="M458.1825,132.1119 C458.1825,138.9719 455.7325,145.2619 451.6525,150.1519 L408.3025,150.1519 C404.2225,145.2619 401.7725,138.9719 401.7725,132.1119 C401.7725,116.5319 414.4025,103.9019 429.9825,103.9019 C445.5525,103.9019 458.1825,116.5319 458.1825,132.1119" id="Fill-3" fill="#DCEEFF"></path>
                    <polygon id="Fill-5" fill="#DCEEFF" points="420.235 112.112 439.721 112.112 439.721 95.496 420.235 95.496"></polygon>
                    <polygon id="Fill-7" fill="#DCEEFF" points="415.105 95.496 444.849 95.496 444.849 86.881 415.105 86.881"></polygon>
                    <polygon id="Fill-8" fill="#B6D4FF" points="418.4843 150.1539 376.8553 150.1539 397.6703 117.6049"></polygon>
                    <polygon id="Fill-9" fill="#B6D4FF" points="298.934 131.879 368.063 131.879 368.063 50.214 298.934 50.214"></polygon>
                    <polygon id="Fill-10" fill="#B6D4FF" points="308.986 144.625 332.704 144.625 332.704 139.086 308.986 139.086"></polygon>
                    <polygon id="Fill-11" fill="#B6D4FF" points="298.934 16.701 368.063 16.701 368.063 14.831 298.934 14.831"></polygon>
                    <path d="M515.1796,303.6929 L515.1796,351.4419" id="Fill-12" fill="#CCE3FF"></path>
                    <path d="M515.1796,303.6929 L515.1796,351.4419" id="Stroke-13" stroke="#CCE3FF" stroke-width="11"></path>
                    <path d="M439.4872,303.6929 L439.4872,351.4419" id="Fill-15" fill="#CCE3FF"></path>
                    <path d="M439.4872,303.6929 L439.4872,351.4419" id="Stroke-16" stroke="#CCE3FF" stroke-width="11"></path>
                    <path d="M109.6415,303.6929 L109.6415,351.4419" id="Fill-18" fill="#CCE3FF"></path>
                    <path d="M109.6415,303.6929 L109.6415,351.4419" id="Stroke-19" stroke="#CCE3FF" stroke-width="11"></path>
                    <path d="M33.9491,303.6929 L33.9491,351.4419" id="Fill-21" fill="#CCE3FF"></path>
                    <path d="M33.9491,303.6929 L33.9491,351.4419" id="Stroke-22" stroke="#CCE3FF" stroke-width="11"></path>
                    <polygon id="Fill-24" fill="#DCEEFF" points="0 303.693 406.154 303.693 406.154 150.154 0 150.154"></polygon>
                    <polygon id="Fill-25" fill="#CCE3FF" points="23.384 286.578 192.82 286.578 192.82 167.193 23.384 167.193"></polygon>
                    <polygon id="Fill-26" fill="#CCE3FF" points="213.332 286.578 382.769 286.578 382.769 167.193 213.332 167.193"></polygon>
                    <polygon id="Fill-27" fill="#B6D4FF" points="406.155 303.693 548.513 303.693 548.513 150.154 406.155 150.154"></polygon>
                    <path d="M100.3124,112.6519 L100.3124,112.6529 C100.3124,119.5559 105.9094,125.1529 112.8134,125.1529 L225.2824,125.1529 L225.2824,100.1519 L112.8134,100.1519 C105.9094,100.1519 100.3124,105.7489 100.3124,112.6519" id="Fill-28" fill="#CCE3FF"></path>
                    <path d="M175.9579,112.6519 L175.9579,112.6529 C175.9579,116.6489 179.1979,119.8889 183.1939,119.8889 L224.9809,119.8889 C225.1469,119.8889 225.2819,119.7549 225.2819,119.5889 L225.2819,105.7159 C225.2819,105.5499 225.1469,105.4159 224.9809,105.4159 L183.1939,105.4159 C179.1979,105.4159 175.9579,108.6559 175.9579,112.6519" id="Fill-29" fill="#DCEEFF"></path>
                    <path d="M84.6151,125.1529 L84.6151,150.1539 L207.3741,150.1539 C214.2781,150.1539 219.8751,144.5569 219.8751,137.6539 C219.8751,130.7499 214.2781,125.1529 207.3741,125.1529 L84.6151,125.1529 Z" id="Fill-30" fill="#CCE3FF"></path>
                    <path d="M84.6151,130.4859 L84.6151,144.8209 L135.0891,144.8209 C139.0481,144.8209 142.2571,141.6119 142.2571,137.6539 C142.2571,133.6949 139.0481,130.4859 135.0891,130.4859 L84.6151,130.4859 Z" id="Fill-31" fill="#DCEEFF"></path>
                    <path d="M142.8465,167.1929 L142.8465,167.1929 C142.8465,176.3129 135.4535,183.7059 126.3335,183.7059 L89.8705,183.7059 C80.7515,183.7059 73.3585,176.3129 73.3585,167.1929 L142.8465,167.1929 Z" id="Fill-32" fill="#B6D4FF"></path>
                    <path d="M332.7958,167.1929 L332.7958,167.1929 C332.7958,176.3129 325.4018,183.7059 316.2818,183.7059 L279.8198,183.7059 C270.6998,183.7059 263.3068,176.3129 263.3068,167.1929 L332.7958,167.1929 Z" id="Fill-33" fill="#B6D4FF"></path>
                </g>
            </g>
            <g id="Background-Object-/-Ladder" transform="translate(472.500000, 745.000000) scale(-1, 1) translate(-472.500000, -745.000000) translate(0.000000, 387.000000)">
                <g id="Group-39" transform="translate(314.000000, 45.000000)">
                    <path d="M42.7692,624.2056 L93.0772,0.2056" id="Stroke-1" stroke="#CCE3FF" stroke-width="18"></path>
                    <path d="M295.7341,624.2056 L245.4261,0.2056" id="Stroke-3" stroke="#CCE3FF" stroke-width="18"></path>
                    <path d="M60.1897,26.6832 L272.5797,26.6832" id="Stroke-5" stroke="#CCE3FF" stroke-width="18"></path>
                    <path d="M45.7692,163.2984 L286.9992,163.2984" id="Stroke-7" stroke="#CCE3FF" stroke-width="18"></path>
                    <path d="M34.3845,326.9908 L298.3845,326.9908" id="Stroke-9" stroke="#CCE3FF" stroke-width="18"></path>
                    <path d="M15.0002,474.6832 L317.7692,474.6832" id="Stroke-11" stroke="#CCE3FF" stroke-width="18"></path>
                    <path d="M212.2761,274.7598 L142.4941,274.7598 C139.3321,274.7598 136.7691,272.1968 136.7691,269.0358 L136.7691,159.3048 C136.7691,156.1438 139.3321,153.5808 142.4941,153.5808 L212.2761,153.5808 C215.4371,153.5808 218.0001,156.1438 218.0001,159.3048 L218.0001,269.0358 C218.0001,272.1968 215.4371,274.7598 212.2761,274.7598" id="Fill-14" fill="#CCE3FF"></path>
                    <path d="M165.6599,427.3804 L95.8789,427.3804 C92.7169,427.3804 90.1539,424.8174 90.1539,421.6554 L90.1539,322.5404 C90.1539,319.3794 92.7169,316.8164 95.8789,316.8164 L165.6599,316.8164 C168.8219,316.8164 171.3849,319.3794 171.3849,322.5404 L171.3849,421.6554 C171.3849,424.8174 168.8219,427.3804 165.6599,427.3804" id="Fill-16" fill="#CCE3FF"></path>
                    <path d="M24.7692,624.2056 L75.0772,0.2056" id="Stroke-18" stroke="#DCEEFF" stroke-width="30"></path>
                    <path d="M277.7341,624.2056 L227.4261,0.2056" id="Stroke-20" stroke="#DCEEFF" stroke-width="30"></path>
                    <path d="M45.1897,26.6832 L257.5797,26.6832" id="Stroke-22" stroke="#DCEEFF" stroke-width="18"></path>
                    <path d="M30.7692,163.2984 L271.9992,163.2984" id="Stroke-24" stroke="#DCEEFF" stroke-width="18"></path>
                    <path d="M19.3845,326.9908 L283.3845,326.9908" id="Stroke-26" stroke="#DCEEFF" stroke-width="18"></path>
                    <path d="M0.0002,474.6832 L302.7692,474.6832" id="Stroke-28" stroke="#DCEEFF" stroke-width="18"></path>
                    <path d="M153.2312,393.7305 L84.3072,393.7305 C80.9092,393.7305 78.1542,390.9755 78.1542,387.5765 L78.1542,322.9705 C78.1542,319.5715 80.9092,316.8155 84.3072,316.8155 L159.3842,316.8155 L159.3842,387.5765 C159.3842,390.9755 156.6292,393.7305 153.2312,393.7305" id="Fill-30" fill="#ECF6FF"></path>
                    <polygon id="Fill-32" fill="#DCEEFF" points="78.154 380.611 159.384 380.611 159.384 360.246 78.154 360.246"></polygon>
                    <path d="M165.3825,316.8213 C162.0715,316.8213 159.3825,319.5013 159.3825,322.8213 L159.3825,316.8213 L165.3825,316.8213 Z" id="Fill-34" fill="#ECF6FF"></path>
                    <path d="M199.8464,237.8794 L130.9234,237.8794 C127.5244,237.8794 124.7694,235.1244 124.7694,231.7254 L124.7694,159.7344 C124.7694,156.3354 127.5244,153.5804 130.9234,153.5804 L205.9994,153.5804 L205.9994,231.7254 C205.9994,235.1244 203.2444,237.8794 199.8464,237.8794" id="Fill-35" fill="#ECF6FF"></path>
                    <polygon id="Fill-36" fill="#DCEEFF" points="124.77 223.501 206 223.501 206 214.171 124.77 214.171"></polygon>
                    <polygon id="Fill-37" fill="#DCEEFF" points="124.77 205.06 206 205.06 206 195.73 124.77 195.73"></polygon>
                    <path d="M211.9978,153.586 C208.6878,153.586 205.9978,156.523 205.9978,160.162 L205.9978,153.586 L211.9978,153.586 Z" id="Fill-38" fill="#ECF6FF"></path>
                </g>
            </g>
            <g id="Person-/-Girl-/-4" transform="translate(490.000000, 249.000000)">
                <g id="Girl-/-Head-/-4" transform="translate(96.000000, 20.000000)">
                    <g id="Group-21" transform="translate(35.000000, 6.000000)">
                        <g id="Hair-color" transform="translate(0.999500, -0.000300)">
                            <mask id="mask-2" fill="white">
                                <use xlink:href="#path-1"></use>
                            </mask>
                            <use id="Mask" fill="#EACB47" xlink:href="#path-1"></use>
                            <g id="Colors-/-Skin-/-Robot-Blue" mask="url(#mask-2)" fill="#405FD3" fill-rule="nonzero">
                                <g transform="translate(0.000500, 0.000300)" id="Color">
                                    <rect x="0" y="0" width="215" height="215"></rect>
                                </g>
                            </g>
                        </g>
                        <path d="M127.1581,179.3401 C127.1581,179.3401 114.2271,179.7221 108.7161,176.7111 L126.4711,187.8591 L127.1581,179.3401 Z" id="Fill-4" fill="#CF3E83"></path>
                        <g id="Face-color" transform="translate(77.000000, 97.000000)">
                            <mask id="mask-4" fill="white">
                                <use xlink:href="#path-3"></use>
                            </mask>
                            <use id="Combined-Shape" fill="#5E93D1" xlink:href="#path-3"></use>
                            <g id="Colors-/-Skin-/-Rose" mask="url(#mask-4)" fill="#E576C6" fill-rule="nonzero">
                                <g transform="translate(-2.000000, -27.000000)" id="Color">
                                    <rect x="0" y="0" width="101" height="143"></rect>
                                </g>
                            </g>
                        </g>
                        <polygon id="Fill-9" fill="#2437A8" points="155.2665 133.6589 162.6665 151.5989 154.0815 151.4269"></polygon>
                        <path d="M147.3885,134.4372 C147.2035,138.0212 145.0965,140.8132 142.6805,140.6742 C140.2645,140.5352 138.4555,137.5172 138.6395,133.9332 C138.8245,130.3492 140.9325,127.5562 143.3475,127.6952 C145.7635,127.8352 147.5735,130.8532 147.3885,134.4372" id="Fill-11" fill="#1D1D23"></path>
                        <path d="M170.0751,133.8645 C169.8901,137.4485 167.7831,140.2405 165.3671,140.1015 C162.9511,139.9625 161.1421,136.9445 161.3271,133.3605 C161.5121,129.7765 163.6191,126.9835 166.0351,127.1235 C168.4511,127.2625 170.2601,130.2805 170.0751,133.8645" id="Fill-13" fill="#1D1D23"></path>
                        <path d="M151.9755,160.0203 C151.9755,160.0203 146.3815,161.8253 140.7765,155.5933" id="Stroke-15" stroke="#24242B" stroke-width="3"></path>
                        <path d="M127.1366,179.3396 C127.1366,179.3396 114.2056,179.7216 108.6946,176.7116 L126.4496,187.8586 L127.1366,179.3396 Z" id="Fill-17" fill="#000000" opacity="0.399018787"></path>
                    </g>
                </g>
                <g id="Girl-/-Body-/-4" transform="translate(105.000000, 199.000000)">
                    <g id="Group-39" transform="translate(21.000000, 21.000000)">
                        <g id="Skin-color" transform="translate(0.950225, 0.542700)">
                            <mask id="mask-6" fill="white">
                                <use xlink:href="#path-5"></use>
                            </mask>
                            <use id="Mask" fill="#E576C6" xlink:href="#path-5"></use>
                            <g id="Colors-/-Skin-/-Rose" mask="url(#mask-6)" fill="#E576C6" fill-rule="nonzero">
                                <g transform="translate(0.049775, 0.457300)" id="Color">
                                    <rect x="0" y="0" width="285" height="286"></rect>
                                </g>
                            </g>
                        </g>
                        <path d="M277.189584,42.5024069 C274.412117,40.9101116 271.769005,39.7184402 270.4736,40.0206 C268.207192,40.5492511 272.355327,46.4932493 275.381003,50.4070872 L275.346823,50.5564743 C270.463004,52.5214591 264.062945,55.4351689 263.034,57.5682 C262.315527,59.0576133 265.121954,59.544235 268.598942,59.6100235 C265.399386,61.1444441 262.607348,62.8030842 261.9579,64.1502 C261.125852,65.8750588 265.021214,66.2550258 269.210756,66.1939731 C265.510843,67.882156 262.0443,69.8007061 261.3104,71.3221 C260.37508,73.262186 265.420242,73.5008102 270.137602,73.3241747 L268.9251,78.6236 C268.5541,80.2486 267.0741,81.3766 265.4081,81.3036 L247.3061,80.5116 C245.1521,80.4176 243.6101,78.3946 244.0911,76.2926 L256.9171,20.2346 C257.2891,18.6096 258.7681,17.4816 260.4331,17.5546 L278.5361,18.3456 C280.6901,18.4406 282.2311,20.4636 281.7511,22.5656 L277.189584,42.5024069 L277.189584,42.5024069 Z" id="Path" fill="#020101"></path>
                        <g id="Phone-color" transform="translate(248.000000, 17.000000)">
                            <mask id="mask-8" fill="white">
                                <use xlink:href="#path-7"></use>
                            </mask>
                            <use id="Mask" fill="#5E93D1" xlink:href="#path-7"></use>
                            <g id="Colors-/-Wear-/-Lignt-Blue" mask="url(#mask-8)" fill="#5E93D1" fill-rule="nonzero">
                                <g transform="translate(0.000000, -1.000000)" id="Color">
                                    <rect x="0" y="0" width="38" height="68"></rect>
                                </g>
                            </g>
                        </g>
                        <path d="M265.7538,25.1634 C265.3318,27.0004 264.2488,28.3054 263.3338,28.0764 C262.4198,27.8474 262.0198,26.1724 262.4408,24.3354 C262.8628,22.4974 263.9468,21.1934 264.8608,21.4224 C265.7758,21.6514 266.1758,23.3264 265.7538,25.1634" id="Fill-20" fill="#020101"></path>
                        <path d="M263.6366,34.6703 C263.2146,36.5073 262.1316,37.8123 261.2166,37.5833 C260.3016,37.3543 259.9026,35.6793 260.3236,33.8423 C260.7456,32.0043 261.8286,30.7003 262.7436,30.9293 C263.6586,31.1583 264.0586,32.8333 263.6366,34.6703" id="Fill-22" fill="#020101"></path>
                        <g id="T-shirt-color" transform="translate(5.978900, 0.000000)">
                            <mask id="mask-10" fill="white">
                                <use xlink:href="#path-9"></use>
                            </mask>
                            <use id="Mask" fill="#5E93D1" xlink:href="#path-9"></use>
                            <g id="Colors-/-Wear-/-Yellow" mask="url(#mask-10)" fill="#F6B852" fill-rule="nonzero">
                                <g transform="translate(0.021100, -3.000000)" id="Color">
                                    <rect x="0" y="0" width="200" height="153"></rect>
                                </g>
                            </g>
                        </g>
                        <path d="M163.2724,150.3885 C166.4804,109.6455 187.6854,100.0305 171.6854,54.3375" id="Stroke-31" stroke="#000000" stroke-width="3" opacity="0.20296224"></path>
                        <path d="M133.286,2.3187 C133.286,2.3187 141.34,8.0107 147.356,18.1887 C155.589,32.1127 151.285,44.1257 138.618,44.1457 C125.057,44.1687 109.493,39.5527 102.932,19.0127 C99.613,8.6227 96.478,0.5427 96.478,0.5427" id="Stroke-35" stroke="#000000" stroke-width="3" opacity="0.202055432"></path>
                        <path d="M88.5311,73.3378 L69.0441,102.8628" id="Stroke-37" stroke="#000000" stroke-width="3" opacity="0.20296224"></path>
                    </g>
                </g>
                <g id="Girl-/-Legs-/-5" transform="translate(7.000000, 316.000000)">
                    <g id="Group-17" transform="translate(142.000000, 51.000000)">
                        <g id="Shoes" transform="translate(23.000000, 545.000000)">
                            <mask id="mask-12" fill="white">
                                <use xlink:href="#path-11"></use>
                            </mask>
                            <use id="Mask" fill="#0D0B6D" xlink:href="#path-11"></use>
                            <g id="Colors-/-Wear-/-Dark-Plum" mask="url(#mask-12)" fill="#0D0B6D" fill-rule="nonzero">
                                <g transform="translate(-5.000000, -2.000000)" id="Color">
                                    <rect x="0" y="0" width="239" height="34"></rect>
                                </g>
                            </g>
                        </g>
                        <g id="Skin-color" transform="translate(33.000000, 244.553300)">
                            <mask id="mask-14" fill="white">
                                <use xlink:href="#path-13"></use>
                            </mask>
                            <use id="Mask" fill="#E576C6" xlink:href="#path-13"></use>
                            <g id="Colors-/-Skin-/-Rose" mask="url(#mask-14)" fill="#E576C6" fill-rule="nonzero">
                                <g transform="translate(-10.000000, 45.446700)" id="Color">
                                    <rect x="0" y="0" width="211" height="273"></rect>
                                </g>
                            </g>
                        </g>
                        <g id="Skirt-color" transform="translate(0.000000, -0.000400)">
                            <mask id="mask-16" fill="white">
                                <use xlink:href="#path-15"></use>
                            </mask>
                            <use id="Mask" fill="#2F2F3D" xlink:href="#path-15"></use>
                            <g id="Colors-/-Wear-/-Dark-Cream" mask="url(#mask-16)" fill="#EA847A" fill-rule="nonzero">
                                <g transform="translate(0.000000, 0.000400)" id="Color">
                                    <rect x="0" y="0" width="190" height="295"></rect>
                                </g>
                            </g>
                        </g>
                    </g>
                </g>
            </g>
            <g id="Person-/-Robot-/-2" transform="translate(1418.000000, 873.000000) scale(-1, 1) translate(-1418.000000, -873.000000) translate(1143.000000, 394.000000)">
                <g id="Robot-/-Legs-/-3" transform="translate(51.000000, 389.000000)">
                    <g id="Group-13" transform="translate(117.233766, 22.914179)">
                        <g id="Legs-color">
                            <mask id="mask-18" fill="white">
                                <use xlink:href="#path-17"></use>
                            </mask>
                            <use id="Mask" fill="#6CA1FF" fill-rule="nonzero" xlink:href="#path-17"></use>
                            <g id="Colors-/-Skin-/-Violet" mask="url(#mask-18)" fill="#A47EF1" fill-rule="nonzero">
                                <g transform="translate(0.000000, -8.966418)" id="Color">
                                    <rect x="0" y="0" width="180" height="401"></rect>
                                </g>
                            </g>
                        </g>
                        <path d="M33.0898636,269.377 C33.9348937,269.642476 34.8338997,269.785567 35.7662338,269.785567 L64.0444091,269.785567 C68.9826955,269.785567 72.9859675,265.771165 72.9859675,260.819149 C72.9859675,255.867133 68.9826955,251.852731 64.0444091,251.852731 L44.7077922,251.852731 L44.7077922,212.44103 C50.0315838,204.182124 56.7529679,199.253731 64.0593117,199.253731 C81.3324156,199.253731 95.3339026,226.79259 95.3339026,260.764354 C95.3339026,294.736119 81.3324156,322.275974 64.0593117,322.275974 C48.2742281,322.275974 35.2195021,299.27138 33.0898642,269.377008 L33.0898636,269.377 Z" id="Path" fill="#19141E"></path>
                        <polygon id="Fill-10" fill="#19141E" points="49.4120455 57.9330224 128.377929 57.9330224 128.377929 30.812597 49.4120455 30.812597"></polygon>
                        <g id="Overlay" transform="translate(26.824675, 69.738806)" fill="#000000" opacity="0.395763579">
                            <path d="M109.29581,71.7421908 C109.028501,71.5619539 108.75712,71.3810237 108.481669,71.1994 L108.481669,19.9253731 L101.337662,19.9253731 L101.337662,1.99253731 L117.423228,1.99253731 C122.361514,1.99253731 126.364786,6.00693935 126.364786,10.9589552 C126.507122,45.3716974 126.579044,71.2467813 126.580552,88.5842069 C126.088575,87.9357193 125.591765,87.3003168 125.090248,86.6782526 C124.711137,86.1558619 124.340783,85.6412072 124.00021,85.272911 C123.911822,85.1773277 123.826036,85.0837012 123.742628,84.991883 C141.713281,107.237557 153.654802,146.599113 153.654802,191.44697 C153.654802,260.865974 125.043802,317.141205 89.7484907,317.141205 C88.8997178,317.141205 88.0548101,317.10866 87.2140725,317.044169 L40.0884508,317.044169 C74.2079489,314.426942 101.460343,259.196556 101.460343,191.44697 C101.460343,122.158623 72.9559516,65.9656103 37.7532468,65.7537313 L89.5492749,65.7543291 C89.6156564,65.7539307 89.6820617,65.7537313 89.7484907,65.7537313 C96.5663573,65.7537313 103.134811,67.8535054 109.29581,71.7421908 L109.29581,71.7421908 Z M119.751768,80.4388546 C120.230509,80.9404434 120.705623,81.4536621 121.177011,81.978319 C120.756887,81.4889323 120.307687,80.992744 119.751768,80.4388546 L119.751768,80.4388546 Z M17.8831169,182.113925 L37.2197338,182.113925 C42.1580201,182.113925 46.1612922,186.128327 46.1612922,191.080343 C46.1612922,196.032359 42.1580201,200.046761 37.2197338,200.046761 L8.94155844,200.046761 C4.00327207,200.046761 -1.20792265e-13,196.032359 -1.20792265e-13,191.080343 L-1.20792265e-13,8.96641791 C-1.20792265e-13,4.01440204 4.00327207,2.84217094e-13 8.94155844,2.84217094e-13 L37.2197338,2.84217094e-13 C42.1580201,2.84217094e-13 46.1612922,4.01440204 46.1612922,8.96641791 C46.1612922,13.9184338 42.1580201,17.9328358 37.2197338,17.9328358 L17.8831169,17.9328358 L17.8831169,182.113925 Z" id="Shape"></path>
                        </g>
                    </g>
                </g>
                <g id="Robot-/-Body-/-2" transform="translate(46.000000, 202.000000)">
                    <g id="Group-25" transform="translate(3.000000, 0.000000)">
                        <path d="M354.8008,211.4785 L331.5308,40.8695" id="Stroke-1" stroke="#19141E" stroke-width="27" stroke-linecap="round"></path>
                        <polygon id="Fill-9" fill="#19141E" points="138.122 190.4228 283.232 190.4228 305.36 166.6018 115.994 166.6018"></polygon>
                        <path d="M51.8213,205.8071 L76.3523,35.3741" id="Stroke-11" stroke="#19141E" stroke-width="27" stroke-linecap="round"></path>
                        <g id="Body-color" transform="translate(0.000000, 0.999300)">
                            <mask id="mask-20" fill="white">
                                <use xlink:href="#path-19"></use>
                            </mask>
                            <use id="Mask" fill="#6CA1FF" xlink:href="#path-19"></use>
                            <g id="Colors-/-Skin-/-Violet" mask="url(#mask-20)" fill="#A47EF1" fill-rule="nonzero">
                                <g transform="translate(-3.000000, 0.000700)" id="Color">
                                    <rect x="0" y="0" width="412" height="462"></rect>
                                </g>
                            </g>
                        </g>
                        <g id="Overlay" transform="translate(13.303755, 1.000000)" fill="#000000" opacity="0.394763765">
                            <path d="M94.8690449,426.4985 C94.9180449,427.8725 94.8920449,429.2315 94.7960449,430.5705 C94.3600449,436.6395 86.4900449,438.6175 83.2200449,433.4865 C79.4910449,427.6355 74.1860449,423.9795 68.3030449,423.9795 C57.0140449,423.9795 47.8630449,437.4495 47.8630449,454.0695 L47.8630449,454.1755 C47.8750449,459.1285 42.5460449,462.2365 38.3170449,459.6555 C27.6100449,453.1205 20.4630449,441.3265 20.4630449,427.8595 C20.4630449,406.9295 37.7460449,390.0345 58.8290449,390.6675 C78.2530449,391.2505 94.1790449,407.0785 94.8690449,426.4985 Z M277.526245,83.72 C277.526245,109.22 258.965245,130.38 234.616245,134.44 C234.265245,134.38 233.925245,134.32 233.576245,134.25 C209.736245,129.79 191.696245,108.86 191.696245,83.72 C191.696245,58.58 209.736245,37.65 233.576245,33.19 C233.925245,33.12 234.265245,33.06 234.616245,33 C258.965245,37.06 277.526245,58.22 277.526245,83.72 Z M196.084845,83.7886 C196.084845,100.2406 209.420845,113.5766 225.872845,113.5766 C242.324845,113.5766 255.660845,100.2406 255.660845,83.7886 C255.660845,67.3366 242.324845,53.9996 225.872845,53.9996 C209.420845,53.9996 196.084845,67.3366 196.084845,83.7886 Z M26.1962449,39.84 C26.1962449,17.837 44.0332449,-4.54747351e-13 66.0362449,-4.54747351e-13 C88.0392449,-4.54747351e-13 105.876245,17.837 105.876245,39.84 C105.876245,61.843 88.0392449,79.68 66.0362449,79.68 C44.0332449,79.68 26.1962449,61.843 26.1962449,39.84 Z M35.8085449,32.4553 C35.8085449,43.1293 44.4615449,51.7823 55.1355449,51.7823 C65.8095449,51.7823 74.4625449,43.1293 74.4625449,32.4553 C74.4625449,21.7813 65.8095449,13.1283 55.1355449,13.1283 C44.4615449,13.1283 35.8085449,21.7813 35.8085449,32.4553 Z M309.196245,6.87904083 C310.041617,6.57461756 310.902955,6.29647315 311.779591,6.04581029 C332.934591,-0.00418971 354.988591,12.2418103 361.036591,33.3968103 C367.085591,54.5528103 354.840591,76.6058103 333.685591,82.6548103 C332.542394,82.9816928 331.396571,83.2551499 330.250791,83.4766625 L330.250791,41.8931103 C330.250791,26.7865855 321.698398,13.581018 309.196245,6.87904083 Z M371.736873,403.768186 C377.15882,410.520659 380.260598,419.185111 379.892939,428.516694 C379.362939,441.973694 371.755939,453.476694 360.798939,459.584694 C356.472939,461.996694 351.270939,458.681694 351.476939,453.732694 C351.478939,453.697694 351.479939,453.662694 351.481939,453.626694 C352.135939,437.020694 343.523939,423.200694 332.242939,422.755694 C326.363939,422.523694 320.918939,425.967694 316.962939,431.666694 C313.493939,436.665694 305.705939,434.378694 305.509939,428.297694 C305.466939,426.955694 305.494939,425.596694 305.597939,424.225694 C306.279914,415.143009 310.275255,406.980826 316.329054,400.890362 C302.932776,391.445848 294.117751,375.8783 294.058539,358.334294 L293.696539,250.430294 C293.600539,221.690294 317.036539,198.097294 345.775539,198.000294 C374.515539,197.904294 398.109539,221.339294 398.205539,250.079294 L398.567539,357.983294 C398.633658,377.572847 387.765676,394.771886 371.73686,403.768194 L371.736873,403.768186 Z M164.405245,124.9751 C164.405245,119.3251 168.986245,114.7441 174.636245,114.7441 C180.287245,114.7441 184.867245,119.3251 184.867245,124.9751 C184.867245,130.6251 180.287245,135.2061 174.636245,135.2061 C168.986245,135.2061 164.405245,130.6251 164.405245,124.9751 Z M134.834845,124.9751 C134.834845,119.3251 139.415845,114.7441 145.064845,114.7441 C150.715845,114.7441 155.296845,119.3251 155.296845,124.9751 C155.296845,130.6251 150.715845,135.2061 145.064845,135.2061 C139.415845,135.2061 134.834845,130.6251 134.834845,124.9751 Z M0.0311449428,260.6279 C-0.405855057,254.9939 3.80714494,250.0739 9.44114494,249.6369 C15.0751449,249.2009 19.9961449,253.4139 20.4321449,259.0469 C20.8691449,264.6809 16.6551449,269.6009 11.0221449,270.0379 C5.38814494,270.4739 0.468144943,266.2609 0.0311449428,260.6279 Z M2.21864494,288.8511 C1.78164494,283.2171 5.99464494,278.2971 11.6276449,277.8601 C17.2616449,277.4241 22.1826449,281.6371 22.6186449,287.2701 C23.0556449,292.9041 18.8426449,297.8241 13.2086449,298.2611 C7.57464494,298.6971 2.65564494,294.4841 2.21864494,288.8511 Z M4.45794494,317.7568 C4.02094494,312.1238 8.23394494,307.2028 13.8679449,306.7658 C19.5019449,306.3298 24.4219449,310.5428 24.8579449,316.1758 C25.2949449,321.8098 21.0819449,326.7308 15.4489449,327.1668 C9.81494494,327.6038 4.89494494,323.3908 4.45794494,317.7568 Z M162.696245,212 L162.696245,189 L231.696245,189 L231.696245,212 L162.696245,212 Z" id="Shape"></path>
                        </g>
                        <path d="M247.6798,135.5061 C272.0288,131.4461 290.5898,110.2861 290.5898,84.7861 C290.5898,59.2861 272.0288,38.1261 247.6798,34.0661 C250.4398,33.6061 253.2788,33.3661 256.1698,33.3661 C284.5688,33.3661 307.5898,56.3861 307.5898,84.7861 C307.5898,113.1861 284.5688,136.2061 256.1698,136.2061 C253.2788,136.2061 250.4398,135.9661 247.6798,135.5061 L247.6798,135.5061 Z" id="Path" fill="#19141E"></path>
                    </g>
                </g>
                <g id="Robot-/-Head-/-3" transform="translate(159.000000, 30.000000)">
                    <g id="Group-15" transform="translate(0.000000, 37.000000)">
                        <path d="M72.728,12.4228 C72.728,12.4228 90.19,23.9718 92.111,43.9528" id="Stroke-1" stroke="#19141E" stroke-width="5" stroke-linecap="round"></path>
                        <g id="Face-color" transform="translate(0.000400, 0.000000)">
                            <mask id="mask-22" fill="white">
                                <use xlink:href="#path-21"></use>
                            </mask>
                            <use id="Mask" fill="#6CA1FF" xlink:href="#path-21"></use>
                            <g id="Colors-/-Skin-/-Violet" mask="url(#mask-22)" fill="#A47EF1" fill-rule="nonzero">
                                <g transform="translate(20.999600, 0.000000)" id="Color">
                                    <rect x="0" y="0" width="154" height="141"></rect>
                                </g>
                            </g>
                        </g>
                        <g id="Overlay" transform="translate(73.753000, 96.326000)" fill="#000000" opacity="0.399042039">
                            <polygon id="Fill-5" points="1.93622895e-13 42 30.359 42 30.359 0 1.93622895e-13 0"></polygon>
                        </g>
                        <polygon id="Fill-7" fill="#000000" opacity="0.400367374" points="73.7534 124.7416 104.1124 114.7416 104.1124 96.1576 73.7534 96.1576"></polygon>
                        <path d="M20.8749,96.4496 L20.8749,96.4496 C9.3939,96.4496 -9.99999993e-05,87.0556 -9.99999993e-05,75.5746 L-9.99999993e-05,61.5016 C-9.99999993e-05,50.0206 9.3939,40.6266 20.8749,40.6266 C32.3559,40.6266 41.7499,50.0206 41.7499,61.5016 L41.7499,75.5746 C41.7499,87.0556 32.3559,96.4496 20.8749,96.4496" id="Fill-9" fill="#19141E"></path>
                        <path d="M53.6152,68.5385 C53.6152,77.3775 60.7812,84.5435 69.6202,84.5435 C78.4602,84.5435 85.6262,77.3775 85.6262,68.5385 C85.6262,59.6985 78.4602,52.5325 69.6202,52.5325 C60.7812,52.5325 53.6152,59.6985 53.6152,68.5385" id="Fill-10" fill="#FFFFFF"></path>
                        <path d="M64.3408,66.2895 C64.3408,70.3505 67.6328,73.6425 71.6938,73.6425 C75.7548,73.6425 79.0468,70.3505 79.0468,66.2895 C79.0468,62.2285 75.7548,58.9365 71.6938,58.9365 C67.6328,58.9365 64.3408,62.2285 64.3408,66.2895" id="Fill-11" fill="#19141E"></path>
                        <path d="M131.665,68.5385 C131.665,77.3775 138.831,84.5435 147.671,84.5435 C156.511,84.5435 163.677,77.3775 163.677,68.5385 C163.677,59.6985 156.511,52.5325 147.671,52.5325 C138.831,52.5325 131.665,59.6985 131.665,68.5385" id="Fill-12" fill="#FFFFFF"></path>
                        <path d="M142.3906,66.2895 C142.3906,70.3505 145.6826,73.6425 149.7436,73.6425 C153.8046,73.6425 157.0966,70.3505 157.0966,66.2895 C157.0966,62.2285 153.8046,58.9365 149.7436,58.9365 C145.6826,58.9365 142.3906,62.2285 142.3906,66.2895" id="Fill-13" fill="#19141E"></path>
                        <polyline id="Fill-14" fill="#19141E" points="104.9877 57.5678 119.3037 68.4308 104.9877 79.5088"></polyline>
                    </g>
                </g>
            </g>
        </g>
    </g>
</svg>