<?xml version="1.0" encoding="UTF-8"?>
<svg width="1212px" height="1105px" viewBox="0 0 1212 1105" version="1.1" xmlns="http://www.w3.org/2000/svg" xmlns:xlink="http://www.w3.org/1999/xlink">
    <!-- Generator: Sketch 53.2 (72643) - https://sketchapp.com -->
    <title>Illustration 11</title>
    <desc>Created with Sketch.</desc>
    <defs>
        <path d="M70.1608956,112.544 L69.3141719,83.3573333 C69.3141719,83.3573333 104.835611,86.1813333 112.434755,82.24 C112.434755,82.24 121.721115,34.4648889 110.64515,8.008 L110.420782,6.97688889 L35.4603605,0 L30.445259,40.0920877 C27.9202239,32.6556432 7.89331667,25.3022222 2.44525965,35.9511111 C-9.35901228,59.0257778 32.8507421,74.5626667 32.8507421,74.5626667 L28.564593,112.895111" id="path-1"></path>
        <path d="M169.034089,15.8122012 L168.750947,40.1573525 C168.750947,40.1573525 223.327012,48.7542871 241.827611,69.5982795 L133.095174,69.5982795 L137.649538,5.68434189e-14 L169.034089,15.8122012 Z M42.8064065,13.760994 L42.5242688,41.1064245 C42.5242688,41.1064245 65.5109571,44.1077035 74.8676858,69.5985795 L0.447604858,69.5985795 L7.890617,39.5947877 L12.7160745,34.7989398 L42.8064065,13.760994 Z" id="path-3"></path>
        <path d="M129.759926,2.05030743 L161.144476,11.484041 L160.861334,35.8281925 L127.230727,34.3165557 L129.759926,2.05030743 Z M6.54539271,5.68434189e-14 L37.9289393,9.43273386 L34.6346559,36.7771646 L-6.75015599e-14,35.2655277 L6.54539271,5.68434189e-14 Z" id="path-5"></path>
        <path d="M81.0664092,460.375198 L85.9927449,460.375198 L82.9805992,488.503441 L1.13686838e-13,488.503441 L3.01214575,460.375198 L8.50254354,460.375198 L70.287919,0.000399903926 L109.106217,0.000254263778 L203.521739,0 L195.681345,460.875278 L199.913603,460.875278 L199.913603,488.003761 L116.934008,488.003761 L116.934008,460.875278 L121.629467,460.875278 L116.932892,288.034025 L81.0664092,460.375198 Z" id="path-7"></path>
        <path d="M211.1304,7.46495894 C213.6944,1.63734018 227.1634,0 227.1634,0 C227.1634,0 248.6584,23.9208739 250.5824,27.5733255 C252.5054,31.2257771 256.0634,49.3110792 255.8944,52.884 C255.7244,56.4569208 244.6394,72.5131935 244.6394,72.5131935 C237.7614,70.8838065 242.2534,62.5917273 242.2534,62.5917273 C242.2534,62.5917273 236.0924,67.6280147 233.5314,67.5435132 C209.4104,66.7482053 210.7024,54.9418592 211.2734,53.4635806 C212.5544,50.1431701 218.9924,53.9397713 218.9924,53.9397713 C218.9924,53.9397713 203.7974,24.1366012 211.1304,7.46495894 Z M40.6001,18.870271 C40.6001,18.870271 42.6721,22.4093912 45.0071,29.0820246 C47.3431,35.7546581 46.3711,39.8375701 51.4241,50.3197284 C57.1591,62.2175349 46.9011,57.310485 43.2231,52.1171243 C40.3521,48.0640364 40.6781,42.5843648 36.9561,40.1298457 C35.7091,42.1201038 32.8591,44.9653179 31.2691,62.1320393 C30.9841,65.2098809 32.3801,75.1969601 32.3801,75.1969601 C32.4101,78.1893062 32.7931,84.4294909 29.3881,85.3818721 C28.5431,85.6194704 27.4441,84.6859777 27.4441,84.6859777 C27.4441,84.6859777 27.7741,88.5909396 24.2921,89.3683531 C22.9241,89.6735525 20.2051,81.2422944 20.2051,81.2422944 C20.2051,81.2422944 19.7911,85.5240334 17.1911,85.9992299 C16.4561,86.1344323 7.7791,61.7065496 7.7791,61.7065496 L8.3011,67.2239982 L9.4521,72.874661 C9.4521,72.874661 9.3601,75.9157196 6.9161,76.4545408 C5.9461,76.6682798 4.0841,71.5942152 2.3401,65.6264235 C-0.3749,56.3382211 -0.3199,49.3603883 0.4781,42.4193384 C1.4431,34.0328164 1.6971,30.8058545 5.4301,20.521529 L40.6001,18.870271 Z" id="path-9"></path>
        <path d="M28.8108868,18.7196692 L33.2877,9.94134897e-05 L52.7477,1.20300264 L66.1277,17.6658765 L74.8277,2.5550261 L81.0377,2.94273871 L82.9669478,20.4201449 C114.340796,32.3838194 117.028859,44.0589358 124.51,59.4178522 C132.685,76.2018317 122.705,192.697541 122.705,192.697541 L7.10542736e-15,187.074714 C7.10542736e-15,187.074714 16.627,19.9844974 27.518,18.8491953 C27.9479822,18.8043328 28.3790008,18.7611727 28.8108868,18.7196692 Z" id="path-11"></path>
        <path d="M36.7689,284.600441 L45.5056152,245.036292 C47.1866281,246.257823 48.3592983,247.037887 49.0236257,247.376486 C51.528862,248.653371 52.5506322,248.023704 52.7832031,246.976263 C53.0333721,245.849563 51.8445478,242.831323 49.7689,237.647025 C49.3545478,236.612107 48.8364888,235.080197 48.214723,233.051296 L66.2849,151.667705 L64.0989,131.990793 L49.7689,208.857304 L0.0289,211.193521 C0.0289,211.193521 -0.9511,140.460823 8.5189,99.5422302 C14.5489,73.4760132 48.4339,24.1659282 64.0229,13.8726554 C70.6399,9.50343255 99.8289,0.963813783 99.8289,0.963813783 C99.8289,0.963813783 107.2759,19.4308636 107.5299,44.9244589 C108.0839,100.596013 102.4429,289.953858 102.4429,289.953858 L36.7689,284.600441 Z M205.4492,222.904131 L198.6792,208.867941 L200.5192,286.439293 L177.1092,289.19404 C177.1092,289.19404 160.1872,78.7018821 158.4032,49.3739085 C156.4032,16.4919026 156.0392,4.01550968 155.4992,2.63366217 C155.4992,2.62372082 155.4892,2.61377947 155.4892,2.61377947 C155.4892,2.61377947 187.9072,13.9429408 198.6692,31.734973 C204.2342,40.9366856 213.4692,109.851111 213.4692,109.851111 L248.9692,198.826184 L205.4492,222.904131 Z" id="path-13"></path>
        <path d="M31.6982,121.258212 L2.1632,58.8762475 C-1.1978,51.7761361 0.5002,43.3269836 6.3482,38.0570745 L8.7242,35.9157079 L8.5692,35.6472915 C3.7462,27.3204176 5.6612,16.7507754 13.1042,10.6209396 L24.8292,0.963913196 C24.8292,0.963913196 31.8832,24.5090041 32.1662,36.1274587 C32.5682,52.6370569 31.6982,121.258212 31.6982,121.258212 Z M88.7407,120.667497 L80.4897,2.6139783 L95.7077,14.8269255 C102.0257,19.8980076 105.0107,28.0240663 103.4647,35.9483155 L103.0537,38.0568757 L103.9707,38.8273302 C110.8827,44.6350663 113.4007,54.1211015 110.2727,62.5623009 L88.7407,120.667497 Z" id="path-15"></path>
    </defs>
    <g id="Scene" stroke="none" stroke-width="1" fill="none" fill-rule="evenodd">
        <g id="Illustration-11" transform="translate(-300.000000, -142.000000)">
            <g id="Background-Object-/-Cloud-/-4" transform="translate(207.000000, 23.000000)" fill="#ECF6FF">
                <g id="Group-3" transform="translate(324.000000, 124.000000)">
                    <path d="M352.0838,101.7836 L-0.0002,101.7836 C-0.0002,101.7836 33.1688,53.4086 60.4378,52.6516 C92.9818,51.7486 107.6358,87.5346 138.8878,87.5346 C170.1468,87.5346 191.0748,0.0006 248.9318,0.0006 C310.6948,0.0006 352.0838,101.7836 352.0838,101.7836" id="Fill-1"></path>
                </g>
            </g>
            <g id="Background-Object-/-Tree-/-2" transform="translate(687.000000, 27.000000)">
                <g id="Group-14" transform="translate(268.000000, 174.000000)">
                    <path d="M44.3983,463.981 C38.0693,445.031 3.3793,448.239 3.3743,395.398 C3.3653,315.836 112.9383,324.917 119.3993,264.97 C125.8613,205.024 55.4513,206.456 53.2713,155.894 C51.0913,105.331 104.6303,1 185.8613,1 C249.9133,1 196.8623,81.502 248.5543,117.502 C300.2473,153.502 359.2863,107.382 388.5053,163.992 C428.7543,241.97 325.8353,335.62 335.9893,395.398 C346.1433,455.177 406.4763,441.043 408.3233,506.725 C410.1693,572.408 322.5273,583.967 330.7843,640.289 C335.9893,675.793 391.4543,663.939 394.3633,733.947 C396.8273,793.22 206.2593,866.563 63.1063,745.947 C-80.0477,625.33 68.5553,536.308 44.3983,463.981" id="Fill-1" fill="#CCE3FF"></path>
                    <path d="M202.1757,320.4083 L202.1757,902.9363" id="Stroke-4" stroke="#ECF6FF" stroke-width="8" stroke-linecap="square"></path>
                    <path d="M205.1757,714.8292 L280.0297,639.9752" id="Stroke-6" stroke="#ECF6FF" stroke-width="8" stroke-linecap="square"></path>
                    <path d="M206.1757,501.6133 L244.2287,463.5613" id="Stroke-8" stroke="#ECF6FF" stroke-width="8" stroke-linecap="square"></path>
                    <path d="M198.1757,586.3292 L138.4877,526.6412" id="Stroke-10" stroke="#ECF6FF" stroke-width="8" stroke-linecap="square"></path>
                    <path d="M199.5536,402.0377 L170.5526,373.0377" id="Stroke-12" stroke="#ECF6FF" stroke-width="8" stroke-linecap="square"></path>
                </g>
            </g>
            <g id="Background-Object-/-Tree-/-5" transform="translate(0.000000, 40.000000)">
                <g id="Group-12" transform="translate(300.000000, 186.000000)">
                    <path d="M344.2196,520.1799 C344.2196,634.7199 269.4696,698.6199 172.1106,698.6199 C74.7496,698.6199 -0.0004,634.7199 -0.0004,520.1799 C-0.0004,279.0199 109.8506,0.9999 172.1106,0.9999 C234.3696,0.9999 344.2196,279.0199 344.2196,520.1799" id="Fill-1" fill="#CCE3FF"></path>
                    <path d="M172.1102,349.8098 L172.1102,878.4798" id="Stroke-4" stroke="#ECF6FF" stroke-width="8" stroke-linecap="square"></path>
                    <path d="M174.1669,629.8703 L235.0819,568.9553" id="Stroke-6" stroke="#ECF6FF" stroke-width="8" stroke-linecap="square"></path>
                    <path d="M167.0106,513.8073 L117.1646,463.9613" id="Stroke-8" stroke="#ECF6FF" stroke-width="8" stroke-linecap="square"></path>
                    <path d="M175.1102,435.7233 L213.1622,397.6703" id="Stroke-10" stroke="#ECF6FF" stroke-width="8" stroke-linecap="square"></path>
                </g>
            </g>
            <g id="Background-Object-/-Tree-/-3" transform="translate(297.000000, 425.000000)">
                <g id="Group-12" transform="translate(234.000000, 30.000000)">
                    <path d="M476.9312,238.9651 C476.9312,370.3901 370.3902,476.9301 238.9652,476.9301 C107.5402,476.9301 0.9992,370.3901 0.9992,238.9651 C0.9992,107.5401 107.5402,1.0001 238.9652,1.0001 C370.3902,1.0001 476.9312,107.5401 476.9312,238.9651" id="Fill-1" fill="#ECF6FF"></path>
                    <path d="M238.9654,170.1907 L238.9654,656.9197" id="Stroke-4" stroke="#B6D4FF" stroke-width="8"></path>
                    <path d="M238.9654,395.8709 L291.9394,342.8979" id="Stroke-6" stroke="#B6D4FF" stroke-width="8"></path>
                    <path d="M240.9654,236.8621 L268.2414,209.5861" id="Stroke-8" stroke="#B6D4FF" stroke-width="8"></path>
                    <path d="M238.9654,316.8392 L188.1964,266.0712" id="Stroke-10" stroke="#B6D4FF" stroke-width="8"></path>
                </g>
            </g>
            <g id="Background-Object-/-Streetlight-/-2" transform="translate(982.000000, 0.000000)">
                <g id="Group-13" transform="translate(414.000000, 142.000000)">
                    <path d="M62.7844,36.9655 L53.2474,36.9655 C48.6594,36.9655 44.9394,40.6845 44.9394,45.2735 L44.9394,733.0755 L71.0924,733.0755 L71.0924,45.2735 C71.0924,40.6845 67.3724,36.9655 62.7844,36.9655" id="Fill-1" fill="#D7EBFF"></path>
                    <polygon id="Fill-3" fill="#CCE3FF" points="37.096 796.341 78.937 796.341 78.937 725.406 37.096 725.406"></polygon>
                    <polygon id="Fill-5" fill="#D7EBFF" points="25.739 964.991 90.292 964.991 90.292 757.678 25.739 757.678"></polygon>
                    <path d="M84.9231,937.527 L31.1101,937.527 C20.2341,937.527 11.4171,946.343 11.4171,957.219 L11.4171,965.871 L104.6141,965.871 L104.6141,957.219 C104.6141,946.343 95.7981,937.527 84.9231,937.527" id="Fill-6" fill="#CCE3FF"></path>
                    <path d="M90.2873,755.7277 L25.7453,755.7277 C20.3953,755.7277 16.0583,760.0637 16.0583,765.4137 L16.0583,766.6067 C16.0583,771.9567 20.3953,776.2927 25.7453,776.2927 L90.2873,776.2927 C95.6373,776.2927 99.9733,771.9567 99.9733,766.6067 L99.9733,765.4137 C99.9733,760.0637 95.6373,755.7277 90.2873,755.7277" id="Fill-7" fill="#CCE3FF"></path>
                    <path d="M58.0158,-0.0003 L58.0158,-0.0003 C48.4008,-0.0003 40.6058,7.7947 40.6058,17.4097 L40.6058,19.5557 C40.6058,29.1707 48.4008,36.9657 58.0158,36.9657 C67.6318,36.9657 75.4258,29.1707 75.4258,19.5557 L75.4258,17.4097 C75.4258,7.7947 67.6318,-0.0003 58.0158,-0.0003" id="Fill-8" fill="#CCE3FF"></path>
                    <path d="M83.7551,203.0294 L32.2771,203.0294 C26.9281,203.0294 22.5911,207.3654 22.5911,212.7154 L22.5911,213.9084 C22.5911,219.2584 26.9281,223.5944 32.2771,223.5944 L83.7551,223.5944 C89.1041,223.5944 93.4411,219.2584 93.4411,213.9084 L93.4411,212.7154 C93.4411,207.3654 89.1041,203.0294 83.7551,203.0294" id="Fill-9" fill="#CCE3FF"></path>
                    <path d="M76.7268,223.5944 L39.3048,223.5944 C35.7928,223.5944 32.9458,226.4414 32.9458,229.9534 L32.9458,230.7374 C32.9458,234.2484 35.7928,237.0954 39.3048,237.0954 L76.7268,237.0954 C80.2398,237.0954 83.0858,234.2484 83.0858,230.7374 L83.0858,229.9534 C83.0858,226.4414 80.2398,223.5944 76.7268,223.5944" id="Fill-10" fill="#CCE3FF"></path>
                    <polygon id="Fill-11" fill="#ECF6FF" points="107.4465 66.7633 79.1735 203.0283 36.8715 203.0283 8.5855 66.7633"></polygon>
                    <polygon id="Fill-12" fill="#CCE3FF" points="116.0324 73.9855 103.6354 49.5955 12.3964 49.5955 0.0004 73.9855"></polygon>
                </g>
            </g>
            <g id="Person-/-Man-/-2" transform="translate(522.000000, 288.000000)">
                <g id="Man-/-Head-/-4" transform="translate(245.000000, 69.000000)">
                    <g id="Group-29" transform="translate(0.000000, 41.000000)">
                        <path d="M153.229564,54.3756444 L50.0468009,56.9889778 L49.9675596,55.3356444 L48.7388754,30.0378667 L47.8031167,10.7845333 C47.5003974,4.61564444 52.6742263,-0.424355556 58.8434675,0.0289777778 L141.815266,6.10897778 C147.015805,6.48231111 151.101625,10.6778667 151.359827,15.8689778 L151.805003,24.9623111 L153.033687,50.4289778 L153.229564,54.3756444 Z" id="Fill-1" fill="#2437A8"></path>
                        <path d="M153.033954,50.4285333 C138.111673,52.4285333 120.704423,54.0018667 102.09698,54.8996444 C83.0790855,55.8240889 65.2453575,55.9218667 49.9669364,55.3352 L48.7382522,30.0374222 C63.8831206,27.9752 81.6456206,26.3485333 100.671529,25.4329778 C119.280752,24.5352 136.749436,24.4196444 151.80527,24.9618667 L153.033954,50.4285333 Z" id="Fill-3" fill="#5E93D1"></path>
                        <g id="Face-color" transform="translate(38.285088, 37.908889)">
                            <mask id="mask-2" fill="white">
                                <use xlink:href="#path-1"></use>
                            </mask>
                            <use id="Mask" fill="#E576C6" xlink:href="#path-1"></use>
                            <g id="Colors-/-Skin-/-Rose" mask="url(#mask-2)" fill="#E576C6" fill-rule="nonzero">
                                <g transform="translate(0.000000, 0.313333)" id="Color">
                                    <rect x="0" y="0" width="116" height="113"></rect>
                                </g>
                            </g>
                        </g>
                        <polygon id="Fill-8" fill="#000000" opacity="0.398111979" points="107.599082 121.265778 83.6468623 116.137778 107.484226 132.216"></polygon>
                        <polygon id="Fill-10" fill="#405FD3" points="127.358104 73.5704889 135.634806 93.7749333 125.714517 93.9011556"></polygon>
                        <path d="M117.920741,79.3118222 C118.413105,82.0327111 116.603912,84.6371556 113.878548,85.1287111 C111.153184,85.6211556 108.545346,83.8149333 108.052092,81.0940444 C107.558838,78.3731556 109.368921,75.7696 112.093395,75.2771556 C114.818759,74.7847111 117.427487,76.5909333 117.920741,79.3118222" id="Fill-12" fill="#0D0B6D"></path>
                        <path d="M143.953889,79.3118222 C144.446253,82.0327111 142.63706,84.6371556 139.911696,85.1287111 C137.186332,85.6211556 134.578494,83.8149333 134.085239,81.0940444 C133.591985,78.3731556 135.402068,75.7696 138.126542,75.2771556 C140.851906,74.7847111 143.460634,76.5909333 143.953889,79.3118222" id="Fill-14" fill="#0D0B6D"></path>
                        <g id="Group-19" transform="translate(116.635965, 99.248000)">
                            <path d="M0.430039474,0.374133333 C0.430039474,0.374133333 3.89617544,5.98746667 10.7634518,5.51191111" id="Fill-16" fill="#FFFFFF"></path>
                            <path d="M0.430039474,0.374133333 C0.430039474,0.374133333 3.89617544,5.98746667 10.7634518,5.51191111" id="Stroke-18" stroke="#252535" stroke-width="4"></path>
                        </g>
                        <path d="M152.919258,60.7742547 L151.739295,54.7077333 C149.703062,46.6375111 88.5047947,49.7184 88.5047947,49.7184 L89.3390535,60.5726222 L88.30967,65.760701 C38.7905407,67.1771803 0.364891294,62.8577143 0.00258201754,55.3985778 C-0.392733772,47.2599111 44.6768276,38.4661333 100.668323,35.7559111 C156.658929,33.0465778 202.369543,37.4474667 202.764858,45.5861333 C203.028543,51.0270557 182.973053,56.7611635 152.919278,60.774252 Z" id="Combined-Shape" fill="#2437A8"></path>
                        <path d="M77.2344315,90.5346666 C77.159477,90.3641479 77.0808021,90.1908269 76.9983452,90.0146667 C69.1812924,73.3127598 55.47689,69.8397098 51.6936079,69.1859288 C51.0475164,63.7802527 50.554657,59.4601778 50.554657,59.4601778 C49.9501088,52.0735111 88.5040825,49.7179556 88.5040825,49.7179556 C88.5040825,49.7179556 92.2675956,84.5117333 89.8903588,87.4806222 C88.4113337,89.3309602 83.2079527,90.1869814 77.2344315,90.5346666 Z" id="Combined-Shape" fill="#19141E"></path>
                    </g>
                </g>
                <g id="Man-/-Legs-/-2" transform="translate(53.000000, 249.000000)">
                    <g id="Group-28" transform="translate(145.000000, 182.233240)">
                        <g id="Shoes" transform="translate(6.024291, 458.092147)">
                            <mask id="mask-4" fill="white">
                                <use xlink:href="#path-3"></use>
                            </mask>
                            <use id="Mask" fill="#0D0B6D" xlink:href="#path-3"></use>
                            <g id="Colors-/-Wear-/-Blue" mask="url(#mask-4)" fill="#2437A8" fill-rule="nonzero">
                                <g transform="translate(0.000000, 36.788962)" id="Color">
                                    <rect x="0" y="0" width="242" height="33"></rect>
                                </g>
                            </g>
                        </g>
                        <g id="Legs" transform="translate(13.914105, 462.420807)">
                            <mask id="mask-6" fill="white">
                                <use xlink:href="#path-5"></use>
                            </mask>
                            <use id="Mask" fill="#CF3E83" xlink:href="#path-5"></use>
                            <g id="Colors-/-Skin-/-Pink" mask="url(#mask-6)" fill="#CF3E83" fill-rule="nonzero">
                                <g transform="translate(0.142575, 18.463664)" id="Color">
                                    <rect x="0" y="0" width="161" height="19"></rect>
                                </g>
                            </g>
                        </g>
                        <g id="Pants" transform="translate(1.003547, 0.000000)">
                            <mask id="mask-8" fill="white">
                                <use xlink:href="#path-7"></use>
                            </mask>
                            <use id="Mask" fill="#2F2F3D" xlink:href="#path-7"></use>
                            <g id="Colors-/-Wear-/-Black" mask="url(#mask-8)" fill="#19141E" fill-rule="nonzero">
                                <g transform="translate(0.000502, 0.000000)" id="Color">
                                    <rect x="0" y="0" width="203" height="489"></rect>
                                </g>
                            </g>
                        </g>
                        <polygon id="Fill-15" fill="#000000" opacity="0.200358073" points="116.547148 304.012563 151.122565 81.1261101 119.681788 368.391097"></polygon>
                    </g>
                </g>
                <g id="Man-/-Body-/-2" transform="translate(186.000000, 212.000000)">
                    <g id="Group-25" transform="translate(21.000000, 30.818182)">
                        <g id="Hands" transform="translate(0.000000, 208.312319)">
                            <mask id="mask-10" fill="white">
                                <use xlink:href="#path-9"></use>
                            </mask>
                            <use id="Mask" fill="#E576C6" xlink:href="#path-9"></use>
                            <g id="Colors-/-Skin-/--Light-Blue" mask="url(#mask-10)" fill="#E576C6" fill-rule="nonzero">
                                <g transform="translate(-9.000000, 16.362168)" id="Color">
                                    <rect x="0" y="0" width="265" height="73"></rect>
                                </g>
                            </g>
                        </g>
                        <path d="M223.9184,229.849456 C223.9184,229.849456 227.3034,242.210529 238.9194,246.061808 C242.9814,247.408861 241.9664,263.307066 251.9224,261.405286" id="Stroke-4" stroke="#000000" stroke-width="3" opacity="0.150646391"></path>
                        <g id="High-Shirt" transform="translate(72.309600, 0.000000)">
                            <mask id="mask-12" fill="white">
                                <use xlink:href="#path-11"></use>
                            </mask>
                            <use id="Mask" fill="#EFEFEF" xlink:href="#path-11"></use>
                            <g id="Colors-/-Wear-/-White" mask="url(#mask-12)" fill="#EFEFEF" fill-rule="nonzero">
                                <g transform="translate(26.690400, 0.000000)" id="Color">
                                    <rect x="0" y="0" width="69" height="198"></rect>
                                </g>
                            </g>
                        </g>
                        <path d="M192.5244,192.895672 L198.2794,100.764221" id="Stroke-8" stroke="#12173A" stroke-width="5"></path>
                        <g id="Coat" transform="translate(0.000000, 17.894428)">
                            <mask id="mask-14" fill="white">
                                <use xlink:href="#path-13"></use>
                            </mask>
                            <use id="Mask" fill="#CE3D29" xlink:href="#path-13"></use>
                            <g id="Colors-/-Wear-/-Black" mask="url(#mask-14)" fill="#19141E" fill-rule="nonzero">
                                <rect id="Color" x="0" y="0" width="249" height="290"></rect>
                            </g>
                        </g>
                        <g id="Lapel" transform="translate(75.000000, 17.894428)">
                            <mask id="mask-16" fill="white">
                                <use xlink:href="#path-15"></use>
                            </mask>
                            <use id="Mask" fill="#3C3C42" xlink:href="#path-15"></use>
                            <g id="Colors-/-Wear-/-White" mask="url(#mask-16)" fill="#EFEFEF" fill-rule="nonzero">
                                <rect id="Color" x="0" y="0" width="112" height="124"></rect>
                            </g>
                        </g>
                        <polyline id="Stroke-23" stroke="#000000" stroke-width="5" opacity="0.19749814" points="63.8638 151.146381 66.7548 136.792067 81.3778 109.948437"></polyline>
                    </g>
                </g>
            </g>
        </g>
    </g>
</svg>