<?xml version="1.0" encoding="UTF-8"?>
<svg width="1975px" height="1090px" viewBox="0 0 1975 1090" version="1.1" xmlns="http://www.w3.org/2000/svg" xmlns:xlink="http://www.w3.org/1999/xlink">
    <!-- Generator: Sketch 53.2 (72643) - https://sketchapp.com -->
    <title>Illustration 6</title>
    <desc>Created with Sketch.</desc>
    <defs>
        <path d="M108.368738,483.612783 L110.845122,460.7208 L125.390156,325.8612 C126.105481,319.2312 132.016845,314.4412 138.613728,315.1612 L189.521001,320.7312 C196.107949,321.4512 200.866845,327.4012 200.15152,334.0312 L186.371625,461.760832 C204.195061,465.880884 217.488109,481.94085 217.498044,501.1308 L217.498044,501.1518 L217.498044,513.3108 L105.162265,513.3108 L3.77298193e-12,513.3108 L1.31142857,501.1308 L5.68285714,460.7208 L20.2278916,325.8612 C20.9432162,319.2312 26.8545799,314.4412 33.451463,315.1612 L84.3587357,320.7312 C90.9456838,321.4512 95.7045799,327.4012 94.9892552,334.0312 L81.2093598,461.760832 C93.2027795,464.533221 103.144854,472.711964 108.368738,483.612783 Z M56.5366155,58.3918012 C48.8172607,52.6264875 43.7786472,43.4010735 43.744389,33.0386 C43.6857721,15.6076 57.8064799,1.2986 75.1242916,1.2406 L146.311019,0.9996 C163.628831,0.9416 177.844915,15.1546 177.902538,32.5846 C177.961155,50.0146 163.839454,64.3236 146.522636,64.3826 L79.3565666,64.6090415 L79.4800777,39.8266879 C79.5117309,33.4754932 74.4221633,28.3010048 68.1122101,28.2691447 C61.8022569,28.2372845 56.6613691,33.3601174 56.6297158,39.7113121 L56.5366155,58.3918012 Z M92.6882942,247.3105 C92.6882942,263.1905 79.8978916,276.0635 64.1220019,276.0635 C48.3451188,276.0635 35.5547162,263.1905 35.5547162,247.3105 C35.5547162,231.4305 48.3451188,218.5575 64.1220019,218.5575 C79.8978916,218.5575 92.6882942,231.4305 92.6882942,247.3105 Z M197.731736,247.3105 C197.731736,263.1905 184.941333,276.0635 169.165444,276.0635 C153.38856,276.0635 140.598158,263.1905 140.598158,247.3105 C140.598158,231.4305 153.38856,218.5575 169.165444,218.5575 C184.941333,218.5575 197.731736,231.4305 197.731736,247.3105 Z" id="path-1"></path>
        <path d="M253.929236,251.799746 L242.739164,261.788854 C242.227555,261.215736 241.419496,260.248435 240.412149,258.939366 C238.764812,256.798617 237.122145,254.428321 235.581599,251.873929 C231.421919,244.976727 228.717641,237.996318 228.24512,231.063732 C227.609807,221.742761 231.195621,213.455547 239.381416,207.482697 C247.574511,201.504437 256.114171,200.99006 263.422529,205.697687 C268.633083,209.054028 272.648834,214.620937 275.95263,221.787731 C277.621038,225.406945 279.001729,229.227383 280.12669,233.040781 C280.51939,234.37196 280.85356,235.61208 281.131192,236.733468 C281.303342,237.428805 281.421801,237.946981 281.488122,238.2598 L266.814278,241.3708 C266.781963,241.218378 266.701001,240.864225 266.570794,240.338303 C266.344497,239.424259 266.067504,238.396326 265.739656,237.284986 C264.805908,234.11976 263.664553,230.961574 262.33038,228.067405 C260.112179,223.25555 257.62252,219.804215 255.299696,218.307984 C253.367375,217.063293 251.549278,217.172804 248.222944,219.599932 C244.332618,222.438548 242.915296,225.714137 243.210398,230.043706 C243.493567,234.198208 245.389126,239.091116 248.426411,244.127264 C249.655325,246.164937 250.979938,248.076295 252.29988,249.791587 C252.756394,250.384837 253.17599,250.906963 253.546075,251.34998 C253.751808,251.596256 253.883716,251.748754 253.929236,251.799746 Z M68.6986403,108.235995 L68.0091,109.5992 C61.8591,121.7562 46.8831,126.6712 34.7271,120.5222 L32.6781,119.4862 C20.5221,113.3372 15.6071,98.3602 21.7561,86.2032 L56.5461,17.4242 C61.2258369,8.17053024 71.0216366,3.1128431 80.7946813,3.9367343 C85.4132311,2.04400652 90.4603371,0.9994 95.7395,0.9994 L163.4325,0.9994 C172.944886,0.9994 181.704031,4.39097585 188.560203,10.0246428 C197.600329,12.0281686 205.185559,19.0394483 207.4044,28.6193 L224.8024,103.7083 C227.8764,116.9793 219.5334,130.3533 206.2624,133.4283 L204.0254,133.9463 C191.385285,136.875119 178.651729,129.445725 174.811787,117.264982 C171.203503,118.352485 167.382957,118.9374 163.4325,118.9374 L95.7395,118.9374 C85.3175085,118.9374 75.7999275,114.866413 68.6986403,108.235995 L68.6986403,108.235995 Z M16.0359453,258.704077 L1.06205467,259.588723 C1.05197991,259.418193 1.0396332,259.150041 1.02818916,258.791811 C0.839021591,252.870341 1.37320748,245.787861 3.28966459,238.793157 C7.35953697,223.938897 16.7509104,214.322653 32.1425997,214.929228 C40.810895,215.271139 47.280032,218.887862 50.7385689,225.321582 C53.4322024,230.332396 53.9768029,236.351918 53.0285151,243.165805 C52.4377429,247.410777 51.2786279,251.820742 49.720391,256.272551 C48.9308553,258.528216 48.0868056,260.655049 47.2398108,262.598922 C46.7216956,263.788009 46.3068527,264.673479 46.0465563,265.197732 L32.6114437,258.527068 C32.6384626,258.472651 32.7108486,258.322793 32.8220735,258.085387 C33.0202967,257.662285 33.2446168,257.166858 33.4885047,256.607129 C34.1942466,254.987435 34.9029337,253.201689 35.5626188,251.317 C36.817351,247.73229 37.7335428,244.246549 38.1717004,241.098184 C39.2942982,233.031799 37.7516703,230.162136 31.5516599,229.917583 C24.3556321,229.633993 20.1807253,233.908865 17.7564863,242.756877 C16.9397517,245.737802 16.426692,248.999125 16.1748403,252.33829 C15.9997949,254.659122 15.9694429,256.713356 16.0205409,258.312864 C16.0275731,258.532991 16.0337026,258.666116 16.0359453,258.704077 Z" id="path-3"></path>
        <path d="M123.48623,13.5778193 C124.48534,5.91634114 131.037432,0 138.9713,0 C147.5953,0 154.5873,6.992 154.5873,15.617 C154.5873,24.242 147.5953,31.234 138.9713,31.234 C132.663123,31.234 127.228471,27.493833 124.763958,22.1101112 L113.873,13.7774518 L99.0533846,25.1159226 L84.2447538,13.7782053 L69.4317538,25.1162053 L54.6228153,13.7782524 L39.8109384,25.1161581 L31.6350272,18.857399 C30.143362,25.9273567 23.8695507,31.234 16.3556,31.234 C7.7306,31.234 0.7386,24.242 0.7386,15.617 C0.7386,6.992 7.7306,0 16.3556,0 C23.3866976,0 29.3319195,4.64653764 31.2891568,11.0364205 L39.8110616,17.5600419 L54.6231847,6.22194762 L69.4322462,17.5599947 L84.2452462,6.22199475 L99.0546154,17.5602774 L113.873,6.22274823 L123.48623,13.5778193 Z M133.3299,158.5838 L20.9199,158.5838 C11.9699,158.5838 4.7149,151.3288 4.7149,142.3788 L4.7149,68.1228 C4.7149,59.1728 11.9699,51.9168 20.9199,51.9168 L133.3299,51.9168 C142.2799,51.9168 149.5349,59.1728 149.5349,68.1228 L149.5349,142.3788 C149.5349,151.3288 142.2799,158.5838 133.3299,158.5838 Z M122.8524,173.282 L31.3964,173.282 C27.3384,173.282 24.0474,169.992 24.0474,165.933 C24.0474,161.874 27.3384,158.584 31.3964,158.584 L122.8524,158.584 C126.9114,158.584 130.2014,161.874 130.2014,165.933 C130.2014,169.992 126.9114,173.282 122.8524,173.282 Z" id="path-5"></path>
        <path d="M22.2501265,67.3600641 C26.6501265,73.6230641 25.4411265,82.2460641 23.3941265,87.3560641 C22.7041265,89.1110641 18.3901265,103.749064 17.6841265,104.439064 C14.9401265,107.115064 50.9801265,120.601064 50.9801265,120.601064 L51.7831265,91.4740641 C62.0261265,91.5220641 73.9831265,90.3470641 80.3331265,85.6200641 C99.2491265,71.5390641 98.0111265,26.2570641 97.5701265,24.0120641 L80.1491265,6.48806412 C80.1491265,6.48806412 54.7431265,-3.64793588 51.2271265,1.41806412 C44.7961265,10.6960641 30.7561265,51.4310641 18.8191265,47.5000641 C18.8191265,47.5000641 19.6371265,35.0240641 9.28912647,35.5880641 C1.57912647,36.0080641 -0.180873534,42.3040641 0.014126466,45.8760641 C0.671126466,57.9350641 16.3411265,58.9220641 22.2501265,67.3600641" id="path-7"></path>
        <path d="M219.6679,6.8336 C221.8189,1.7746 233.1209,0.3546 233.1209,0.3546 C233.1209,0.3546 251.1579,21.1166 252.7719,24.2876 C254.3859,27.4576 257.3709,43.1546 257.2289,46.2566 C257.0859,49.3576 247.7849,63.2926 247.7849,63.2926 C242.0139,61.8796 245.7829,54.6826 245.7829,54.6826 C245.7829,54.6826 240.6139,59.0536 238.4649,58.9796 C218.2249,58.2906 219.3089,48.0416 219.7879,46.7586 C220.8629,43.8766 226.2649,47.1726 226.2649,47.1726 C226.2649,47.1726 213.5149,21.3036 219.6679,6.8336 Z M37.7289,0.8595 L41.7329,25.7545 C41.7329,25.7545 41.7579,30.8715 41.0429,36.7485 C40.3289,42.6255 39.7449,46.1665 41.7199,55.6845 C43.0969,62.3165 34.4049,58.4365 32.6239,54.4985 C30.7879,50.4375 32.8479,35.9925 27.7819,37.7815 C22.7159,39.5715 17.9639,53.4945 15.7079,67.1545 C15.3539,69.3005 13.3739,70.6645 12.1099,71.0145 C10.0609,71.5815 9.4179,62.6615 9.4179,62.6615 C9.4179,62.6615 7.7619,65.3635 5.1689,63.4815 C4.2509,62.8155 2.5689,56.4595 2.5689,56.4595 C2.5689,56.4595 0.8829,53.1315 0.3929,49.7355 C-0.4711,43.7375 0.1989,33.1275 1.3439,30.2275 C4.1159,23.2035 9.4399,11.3485 14.0669,5.5765 C18.6449,-0.1345 26.6539,5.9755 37.7289,0.8595 Z" id="path-9"></path>
        <path d="M100.809258,20.791676 L103.6756,0 L147.3656,6.024 L144.983008,23.3023816 C157.808141,24.5408977 166.538942,27.0439576 174.7088,34.5449 C200.9488,58.6349 202.8788,148.8149 202.8788,148.8149 L230.6088,243.5649 L207.7888,246.4249 C207.7888,246.4249 169.5888,195.8049 161.1488,168.5849 L82.8988,168.5849 C82.8988,168.5849 83.6388,160.4949 81.7988,148.8049 C79.3788,133.5149 70.6888,122.1149 70.6888,122.1149 L54.9688,141.4549 L27.7288,237.9349 L2.6988,242.4249 C2.6988,242.4249 -4.8112,163.5549 10.3788,120.4849 C23.6588,82.8149 47.8888,41.9049 66.8088,29.9849 C78.8196128,22.414074 90.1020776,20.7539258 100.809258,20.791676 Z" id="path-11"></path>
        <path d="M176.3622,11.415 L241.0842,38.71 C258.6682,54.81 274.1082,60.689 252.9652,69.066 C227.7782,79.047 190.5912,45.067 190.5912,45.067 C163.9772,43.404 176.3622,11.415 176.3622,11.415 Z M12.5336,3.038 L31.0486,0 C31.0486,0 46.0096,42.366 49.7426,73.934 C52.0316,93.284 58.2566,110.446 40.7316,108.1 C15.9716,104.783 10.2656,55.477 7.4976,53.534 C4.5706,51.479 -0.0344,25.372 0.3146,22.62 C0.6626,19.869 12.5336,3.038 12.5336,3.038 Z" id="path-13"></path>
        <path d="M111.441863,6.66228174 C128.971322,4.91287266 147.257612,15.2086106 152.5252,34.9493677 C175.918961,122.610316 210.596632,256.057087 215.191336,275.388317 L256.737,310.648868 C256.737,310.648868 252.321,317.270868 241.283,318.374868 C230.245,319.478868 191.777,285.103868 191.777,285.103868 L192.090995,284.879844 L107.85433,110.061558 C83.0594688,189.855187 55.8705998,277.075107 52.0234752,288.270431 C56.829621,307.342095 62.7301176,337.263785 52.7811,338.378668 C38.1371,340.019668 25.5501,290.891668 25.5501,290.891668 L25.6946632,290.773018 L49.552,82.5285677 L-8.52651283e-14,68.1085677 L21.365,24.2065677 L75.889,2.74656773 C88.736156,-2.3104285 101.643881,-0.0242517427 111.441863,6.66228174 Z" id="path-15"></path>
        <path d="M34.0712,0.0001 C34.0712,0.0001 -10.9508,46.6991 2.5132,86.2891 C16.9472,128.7281 155.4392,122.9921 155.4392,122.9921 C155.4392,122.9921 182.4472,58.7201 252.7702,54.6281 L120.0912,1.3811 L34.0712,0.0001 Z" id="path-17"></path>
    </defs>
    <g id="Scene" stroke="none" stroke-width="1" fill="none" fill-rule="evenodd">
        <g id="Illustration-6" transform="translate(-283.000000, -175.000000)">
            <g id="Background-Object-/-Cycle" transform="translate(0.000000, 226.000000)">
                <g id="Group-39" transform="translate(299.000000, 404.000000)">
                    <g id="Group-5" transform="translate(0.000000, 147.854000)" stroke="#DCEEFF" stroke-width="7">
                        <path d="M143.0827,0.8349 L143.0827,286.9999" id="Stroke-1"></path>
                        <path d="M286.1647,143.9179 L-0.0003,143.9179" id="Stroke-3"></path>
                    </g>
                    <path d="M244.2575,190.5971 L41.9075,392.9461" id="Stroke-6" stroke="#DCEEFF" stroke-width="7"></path>
                    <path d="M244.2575,392.9457 L41.9075,190.5967" id="Stroke-7" stroke="#DCEEFF" stroke-width="7"></path>
                    <g id="Group-12" transform="translate(453.000000, 150.854000)" stroke="#DCEEFF" stroke-width="7">
                        <path d="M167.0768,0.1689 L115.5978,281.6659" id="Stroke-8"></path>
                        <path d="M282.0856,166.6572 L0.5886,115.1782" id="Stroke-10"></path>
                    </g>
                    <path d="M712.0622,210.4487 L476.6122,373.0947" id="Stroke-13" stroke="#DCEEFF" stroke-width="7"></path>
                    <path d="M675.6608,409.4965 L513.0138,174.0465" id="Stroke-14" stroke="#DCEEFF" stroke-width="7"></path>
                    <g id="Group-38" transform="translate(0.000000, 0.854000)">
                        <path d="M541.9792,290.9179 C541.9792,319.6529 565.2742,342.9469 594.0092,342.9469 C622.7452,342.9469 646.0392,319.6529 646.0392,290.9179 C646.0392,262.1829 622.7452,238.8879 594.0092,238.8879 C565.2742,238.8879 541.9792,262.1829 541.9792,290.9179" id="Fill-15" fill="#DCEEFF"></path>
                        <path d="M541.9792,290.9179 C541.9792,319.6529 565.2742,342.9469 594.0092,342.9469 C622.7452,342.9469 646.0392,319.6529 646.0392,290.9179 C646.0392,262.1829 622.7452,238.8879 594.0092,238.8879 C565.2742,238.8879 541.9792,262.1829 541.9792,290.9179 Z" id="Stroke-17" stroke="#CCE3FF" stroke-width="16"></path>
                        <path d="M117.9479,290.9179 C117.9479,304.7989 129.2009,316.0519 143.0829,316.0519 C156.9639,316.0519 168.2169,304.7989 168.2169,290.9179 C168.2169,277.0359 156.9639,265.7829 143.0829,265.7829 C129.2009,265.7829 117.9479,277.0359 117.9479,290.9179" id="Fill-19" fill="#DCEEFF"></path>
                        <path d="M117.9479,290.9179 C117.9479,304.7989 129.2009,316.0519 143.0829,316.0519 C156.9639,316.0519 168.2169,304.7989 168.2169,290.9179 C168.2169,277.0359 156.9639,265.7829 143.0829,265.7829 C129.2009,265.7829 117.9479,277.0359 117.9479,290.9179 Z" id="Stroke-21" stroke="#CCE3FF" stroke-width="16"></path>
                        <path d="M450.9265,290.9179 C450.9265,369.9389 514.9875,433.9999 594.0095,433.9999 C673.0315,433.9999 737.0915,369.9389 737.0915,290.9179 C737.0915,211.8959 673.0315,147.8349 594.0095,147.8349 C514.9875,147.8349 450.9265,211.8959 450.9265,290.9179 Z" id="Stroke-23" stroke="#B6D4FF" stroke-width="14"></path>
                        <path d="M-0.0003,290.9179 C-0.0003,369.9389 64.0607,433.9999 143.0827,433.9999 C222.1047,433.9999 286.1647,369.9389 286.1647,290.9179 C286.1647,211.8959 222.1047,147.8349 143.0827,147.8349 C64.0607,147.8349 -0.0003,211.8959 -0.0003,290.9179 Z" id="Stroke-25" stroke="#B6D4FF" stroke-width="14"></path>
                        <polyline id="Stroke-27" stroke="#DCEEFF" stroke-width="15" stroke-linejoin="bevel" points="480.736 54.0722 411.091 290.9182 190.864 99.8482 468.812 96.8882 594.009 290.9182 411.091 290.9182"></polyline>
                        <polyline id="Stroke-29" stroke="#DCEEFF" stroke-width="15" points="303.5085 13.4238 216.7915 13.4238 143.0825 292.6788"></polyline>
                        <path d="M433.9352,68.3281 L516.9052,77.1831 C525.8602,78.1391 533.7412,71.9211 533.7412,63.9001 L533.7412,55.0461 C533.7412,47.6571 527.0052,41.6681 518.6982,41.6681 L435.7272,41.6681 C427.4192,41.6681 420.6842,47.6571 420.6842,55.0461 C420.6842,61.8171 426.3742,67.5211 433.9352,68.3281" id="Fill-31" fill="#CCE3FF"></path>
                        <polyline id="Stroke-33" stroke="#CCE3FF" stroke-width="13" points="407.4333 290.9179 407.4333 354.0589 433.3793 354.0589 381.4683 354.0589"></polyline>
                        <polygon id="Fill-35" fill="#CCE3FF" points="252.292 26.432 309.741 26.432 309.741 0.146 252.292 0.146"></polygon>
                        <path d="M179.5153,108.291 L151.9363,113.639 L151.9363,64.576 L179.5153,69.925 C187.3633,71.446 193.0303,78.318 193.0303,86.312 L193.0303,91.903 C193.0303,99.897 187.3633,106.77 179.5153,108.291" id="Fill-37" fill="#CCE3FF"></path>
                    </g>
                </g>
            </g>
            <g id="Background-Object-/-Window-/-4" transform="translate(195.000000, 108.000000)">
                <g id="Group-36" transform="translate(87.000000, 87.000000)">
                    <path d="M302.0142,61.7179 L302.0142,438.2489" id="Stroke-1" stroke="#B6D4FF" stroke-width="18"></path>
                    <path d="M492.773,61.7179 L492.773,438.2489" id="Stroke-2" stroke="#B6D4FF" stroke-width="18"></path>
                    <path d="M126.0044,61.7179 L126.0044,438.2489" id="Stroke-3" stroke="#B6D4FF" stroke-width="18"></path>
                    <polygon id="Fill-4" fill="#B6D4FF" points="660.109 447.418 678.251 447.418 678.251 52.547 660.109 52.547"></polygon>
                    <path d="M110.086,447.418 L668.114,447.418 L668.114,52.547 L110.086,52.547 L110.086,447.418 Z M127.086,430.418 L651.114,430.418 L651.114,69.547 L127.086,69.547 L127.086,430.418 Z" id="Fill-5" fill="#DCEEFF"></path>
                    <polygon id="Fill-6" fill="#CCE3FF" points="93.784 465.611 637.336 465.611 637.336 447.417 93.784 447.417"></polygon>
                    <polygon id="Fill-7" fill="#B6D4FF" points="637.335 465.611 682.883 465.611 682.883 447.417 637.335 447.417"></polygon>
                    <path d="M293.7203,57.5968 L293.7203,442.3698" id="Stroke-8" stroke="#DCEEFF" stroke-width="16"></path>
                    <path d="M484.4791,57.5968 L484.4791,442.3698" id="Stroke-9" stroke="#DCEEFF" stroke-width="16"></path>
                    <path d="M119.5611,249.9825 L653.0231,249.9825" id="Stroke-10" stroke="#DCEEFF" stroke-width="16"></path>
                    <path d="M185.399,541.5719 C185.399,372.1439 97.858,211.4259 97.858,211.4259 L67.914,211.4259 L67.914,541.5719 L185.399,541.5719 Z" id="Fill-11" fill="#CCE3FF"></path>
                    <path d="M185.399,11.067 C185.399,113.89 97.858,211.426 97.858,211.426 L67.914,211.426 L67.914,11.067 L185.399,11.067 Z" id="Fill-13" fill="#CCE3FF"></path>
                    <polygon id="Fill-15" fill="#ECF6FF" points="110.6177 225.8688 56.9987 228.1958 56.9987 199.6008 110.6177 201.9278"></polygon>
                    <path d="M594.3873,541.5719 C594.3873,372.1439 678.4573,211.4259 678.4573,211.4259 L707.2153,211.4259 L707.2153,541.5719 L594.3873,541.5719 Z" id="Fill-17" fill="#CCE3FF"></path>
                    <path d="M594.3873,11.067 C594.3873,113.89 678.4573,211.426 678.4573,211.426 L707.2153,211.426 L707.2153,11.067 L594.3873,11.067 Z" id="Fill-19" fill="#CCE3FF"></path>
                    <polygon id="Fill-21" fill="#ECF6FF" points="665.3101 225.8688 715.4171 228.1958 715.4171 199.5998 665.3101 201.9278"></polygon>
                    <polygon id="Fill-23" fill="#CCE3FF" points="18.569 26.073 752.215 26.073 752.215 11.067 18.569 11.067"></polygon>
                    <path d="M420.0464,420.6422 L420.0464,420.6422 C414.2484,420.6422 409.5044,415.8982 409.5044,410.1012 L409.5044,316.3242 C409.5044,310.5272 414.2484,305.7832 420.0464,305.7832 C425.8444,305.7832 430.5874,310.5272 430.5874,316.3242 L430.5874,410.1012 C430.5874,415.8982 425.8444,420.6422 420.0464,420.6422" id="Fill-25" fill="#CCE3FF"></path>
                    <path d="M392.9468,357.4806 L417.0618,357.4806 C420.1818,357.4806 422.7358,354.9276 422.7358,351.8076 L422.7358,351.5236 C422.7358,348.4036 420.1818,345.8516 417.0618,345.8516 L392.9468,345.8516 C389.8268,345.8516 387.2738,348.4036 387.2738,351.5236 L387.2738,351.8076 C387.2738,354.9276 389.8268,357.4806 392.9468,357.4806" id="Fill-26" fill="#CCE3FF"></path>
                    <path d="M394.1578,357.4806 L394.1568,357.4806 C390.3718,357.4806 387.2738,354.3826 387.2738,350.5966 L387.2738,330.7186 C387.2738,326.9326 390.3718,323.8346 394.1568,323.8346 L394.1578,323.8346 C397.9428,323.8346 401.0408,326.9326 401.0408,330.7186 L401.0408,350.5966 C401.0408,354.3826 397.9428,357.4806 394.1578,357.4806" id="Fill-27" fill="#CCE3FF"></path>
                    <path d="M448.8062,388.5489 L426.1922,388.5489 C423.0722,388.5489 420.5192,385.9959 420.5192,382.8759 L420.5192,379.4559 C420.5192,376.3359 423.0722,373.7829 426.1922,373.7829 L448.8062,373.7829 C451.9262,373.7829 454.4792,376.3359 454.4792,379.4559 L454.4792,382.8759 C454.4792,385.9959 451.9262,388.5489 448.8062,388.5489" id="Fill-28" fill="#CCE3FF"></path>
                    <path d="M447.4088,388.5489 L448.3648,388.5489 C451.7268,388.5489 454.4788,385.7979 454.4788,382.4339 L454.4788,360.4159 C454.4788,357.0529 451.7268,354.3009 448.3648,354.3009 L447.4088,354.3009 C444.0468,354.3009 441.2948,357.0529 441.2948,360.4159 L441.2948,382.4339 C441.2948,385.7979 444.0468,388.5489 447.4088,388.5489" id="Fill-29" fill="#CCE3FF"></path>
                    <polygon id="Fill-30" fill="#B6D4FF" points="392.3355 400.6422 451.5825 400.6422 445.3275 447.3212 398.5905 447.3212"></polygon>
                    <path d="M520.8824,415.5035 C514.7844,425.7485 518.1484,438.9965 528.3934,445.0945 C538.6384,451.1915 551.8864,447.8285 557.9834,437.5835 C564.0804,427.3385 560.7184,414.0905 550.4734,407.9935 C540.2284,401.8955 526.9804,405.2585 520.8824,415.5035" id="Fill-31" fill="#B6D4FF"></path>
                    <path d="M528.1382,397.545 C530.5622,404.656 538.3232,408.445 538.3232,408.445 C538.3232,408.445 542.1542,400.706 539.7312,393.595 C537.3072,386.484 529.5462,382.694 529.5462,382.694 C529.5462,382.694 525.7152,390.434 528.1382,397.545" id="Fill-32" fill="#B6D4FF"></path>
                    <polygon id="Fill-33" fill="#CCE3FF" points="36.1392 18.5699 18.5702 36.1399 0.9992 18.5699 18.5702 1.0009"></polygon>
                    <polygon id="Fill-34" fill="#CCE3FF" points="769.7847 20.3854 752.2157 37.9554 734.6457 20.3854 752.2157 2.8154"></polygon>
                </g>
            </g>
            <g id="Background-Object-/-Door-/-2" transform="translate(831.000000, 29.000000)">
                <g id="Group-15" transform="translate(272.000000, 206.000000)">
                    <polygon id="Fill-1" fill="#DCEEFF" points="0 837.923 388.308 837.923 388.308 1 0 1"></polygon>
                    <polygon id="Fill-2" fill="#CCE3FF" points="46.154 837.923 355.077 837.923 355.077 37.923 46.154 37.923"></polygon>
                    <polygon id="Fill-3" fill="#DCEEFF" points="86.769 528.149 314.461 528.149 314.461 78.538 86.769 78.538"></polygon>
                    <polygon id="Fill-4" fill="#DCEEFF" points="86.769 801.615 314.461 801.615 314.461 661.82 86.769 661.82"></polygon>
                    <polygon id="Fill-5" fill="#DCEEFF" points="86.769 636.103 314.461 636.103 314.461 553.073 86.769 553.073"></polygon>
                    <path d="M68.0984,405.0391 L109.8464,405.0391" id="Stroke-6" stroke="#B6D4FF" stroke-width="9"></path>
                    <path d="M79.8894,405.0391 C79.8894,411.5511 74.6104,416.8291 68.0984,416.8291 C61.5864,416.8291 56.3074,411.5511 56.3074,405.0391 C56.3074,398.5271 61.5864,393.2481 68.0984,393.2481 C74.6104,393.2481 79.8894,398.5271 79.8894,405.0391" id="Fill-7" fill="#B6D4FF"></path>
                    <path d="M79.8894,446.587 C79.8894,453.099 74.6104,458.378 68.0984,458.378 C61.5864,458.378 56.3074,453.099 56.3074,446.587 C56.3074,440.075 61.5864,434.797 68.0984,434.797 C74.6104,434.797 79.8894,440.075 79.8894,446.587" id="Fill-9" fill="#B6D4FF"></path>
                    <polygon id="Fill-11" fill="#B6D4FF" points="388.308 837.923 400.923 837.923 400.923 1 388.308 1"></polygon>
                    <polygon id="Fill-13" fill="#B6D4FF" points="33.538 837.923 46.154 837.923 46.154 37.923 33.538 37.923"></polygon>
                </g>
            </g>
            <g id="Background-Object-/-Closet-/-1" transform="translate(1614.000000, 0.000000)">
                <g id="Group-36" transform="translate(302.000000, 174.000000)">
                    <polygon id="Fill-1" fill="#DCEEFF" points="0 900.576 26.534 900.576 26.534 814.374 0 814.374"></polygon>
                    <polygon id="Fill-2" fill="#DCEEFF" points="221.017 900.576 247.551 900.576 247.551 814.374 221.017 814.374"></polygon>
                    <polygon id="Fill-3" fill="#B6D4FF" points="94.112 900.576 120.645 900.576 120.645 814.374 94.112 814.374"></polygon>
                    <polygon id="Fill-4" fill="#B6D4FF" points="315.128 900.576 341.662 900.576 341.662 814.374 315.128 814.374"></polygon>
                    <polygon id="Fill-5" fill="#B6D4FF" points="93.959 829.669 341.508 829.669 341.508 97.411 93.959 97.411"></polygon>
                    <polygon id="Fill-6" fill="#DCEEFF" points="0.499 829.669 248.05 829.669 248.05 97.411 0.499 97.411"></polygon>
                    <path d="M168.9657,47.6177 C168.9657,68.6577 157.8507,87.1177 141.1787,97.4107 L79.9747,97.4107 C63.3017,87.1177 52.1867,68.6577 52.1867,47.6177 C52.1867,37.8267 54.5957,28.6087 58.8417,20.5137 L162.3117,20.5137 C166.5567,28.6087 168.9657,37.8267 168.9657,47.6177" id="Fill-7" fill="#DCEEFF"></path>
                    <polygon id="Fill-9" fill="#DCEEFF" points="184.488 97.398 209.723 97.398 209.723 1 184.488 1"></polygon>
                    <polygon id="Fill-11" fill="#CCE3FF" points="159.252 97.398 184.487 97.398 184.487 1 159.252 1"></polygon>
                    <polygon id="Fill-12" fill="#CCE3FF" points="209.723 97.398 234.958 97.398 234.958 1 209.723 1"></polygon>
                    <path d="M302.748,97.398 L234.958,97.398 L234.958,1 L302.748,1 C305.58,1 307.876,3.295 307.876,6.128 L307.876,92.27 C307.876,95.102 305.58,97.398 302.748,97.398" id="Fill-13" fill="#B6D4FF"></path>
                    <polygon id="Fill-14" fill="#CCE3FF" points="257.197 39.314 285.638 39.314 285.638 29.769 257.197 29.769"></polygon>
                    <polygon id="Fill-15" fill="#CCE3FF" points="22.659 805.54 225.985 805.54 225.985 594.779 22.659 594.779"></polygon>
                    <polygon id="Fill-16" fill="#B6D4FF" points="22.66 805.54 92.807 805.54 92.807 594.779 22.66 594.779"></polygon>
                    <polygon id="Fill-17" fill="#CCE3FF" points="22.659 568.624 225.985 568.624 225.985 357.864 22.659 357.864"></polygon>
                    <polygon id="Fill-18" fill="#B6D4FF" points="22.66 568.624 92.807 568.624 92.807 357.864 22.66 357.864"></polygon>
                    <polygon id="Fill-19" fill="#CCE3FF" points="22.659 331.708 225.985 331.708 225.985 120.948 22.659 120.948"></polygon>
                    <polygon id="Fill-20" fill="#B6D4FF" points="22.66 331.708 92.807 331.708 92.807 120.948 22.66 120.948"></polygon>
                    <polygon id="Fill-21" fill="#DCEEFF" points="71.343 805.54 91.467 805.54 91.467 728.666 71.343 728.666"></polygon>
                    <polygon id="Fill-22" fill="#CCE3FF" points="51.219 805.54 71.343 805.54 71.343 728.666 51.219 728.666"></polygon>
                    <polygon id="Fill-23" fill="#CCE3FF" points="91.467 805.54 111.591 805.54 111.591 728.666 91.467 728.666"></polygon>
                    <path d="M164.6112,805.5396 L111.5902,805.5396 L111.5902,728.6656 L164.6112,728.6656 C167.4442,728.6656 169.7402,730.9616 169.7402,733.7936 L169.7402,800.4106 C169.7402,803.2436 167.4442,805.5396 164.6112,805.5396" id="Fill-24" fill="#B6D4FF"></path>
                    <polygon id="Fill-25" fill="#CCE3FF" points="120.208 747.476 161.123 747.476 161.123 739.865 120.208 739.865"></polygon>
                    <polygon id="Fill-26" fill="#CCE3FF" points="129.325 759.219 152.006 759.219 152.006 751.608 129.325 751.608"></polygon>
                    <path d="M141.7811,299.0679 C140.2211,312.1779 133.5811,323.7379 123.8821,331.7079 L60.4511,331.7079 C50.7521,323.7379 44.1111,312.1779 42.5421,299.0679 L141.7811,299.0679 Z" id="Fill-27" fill="#DCEEFF"></path>
                    <path d="M141.7811,271.8199 C138.8291,296.5969 117.7391,315.8199 92.1631,315.8199 C66.5861,315.8199 45.4971,296.5969 42.5441,271.8199 L141.7811,271.8199 Z" id="Fill-28" fill="#DCEEFF"></path>
                    <path d="M141.7811,244.6119 C140.2211,257.7219 133.5811,269.2819 123.8821,277.2519 L60.4511,277.2519 C50.7521,269.2819 44.1111,257.7219 42.5421,244.6119 L141.7811,244.6119 Z" id="Fill-29" fill="#DCEEFF"></path>
                    <path d="M141.7811,217.3629 C138.8291,242.1409 117.7391,261.3639 92.1631,261.3639 C66.5861,261.3639 45.4971,242.1409 42.5441,217.3629 L141.7811,217.3629 Z" id="Fill-30" fill="#DCEEFF"></path>
                    <path d="M109.1054,517.9938 C109.1054,537.2888 107.0484,554.9368 103.6184,568.6238 L67.6744,568.6238 C64.2514,554.9368 62.1864,537.2888 62.1864,517.9938" id="Fill-31" fill="#ECF6FF"></path>
                    <path d="M107.327,526.4723 C115.477,528.0813 120.78,535.9933 119.171,544.1433 C117.561,552.2933 109.65,557.5963 101.5,555.9873" id="Stroke-32" stroke="#ECF6FF" stroke-width="8"></path>
                    <path d="M181.1054,517.9938 C181.1054,537.2888 179.0484,554.9368 175.6184,568.6238 L139.6744,568.6238 C136.2514,554.9368 134.1864,537.2888 134.1864,517.9938" id="Fill-33" fill="#ECF6FF"></path>
                    <path d="M171.535,526.4723 C179.685,528.0813 184.988,535.9933 183.379,544.1433 C181.769,552.2933 173.858,557.5963 165.708,555.9873" id="Stroke-34" stroke="#ECF6FF" stroke-width="8"></path>
                </g>
            </g>
            <g id="Background-Object-/-Chair-/-3" transform="translate(1304.000000, 614.000000)">
                <g id="Group-16" transform="translate(334.000000, 122.000000)">
                    <polygon id="Fill-1" fill="#CCE3FF" points="125.0019 256.1002 71.1309 472.8852 83.7159 472.8852 137.5879 256.1002"></polygon>
                    <path d="M188.5812,363.4749 L218.3822,258.3009" id="Stroke-2" stroke="#B6D4FF" stroke-width="7"></path>
                    <path d="M165.2619,258.3011 L242.9119,363.1821" id="Stroke-3" stroke="#B6D4FF" stroke-width="7"></path>
                    <path d="M165.2619,258.3011 L53.9039,362.0101" id="Fill-4" fill="#FFFFFF"></path>
                    <path d="M165.2619,258.3011 L53.9039,362.0101" id="Stroke-5" stroke="#B6D4FF" stroke-width="7"></path>
                    <polygon id="Fill-7" fill="#CCE3FF" points="211.8168 255.9697 264.9118 472.8847 277.3148 472.8847 224.2208 255.9697"></polygon>
                    <path d="M78.2687,258.3011 L188.5807,362.0101" id="Stroke-8" stroke="#B6D4FF" stroke-width="7"></path>
                    <polygon id="Fill-9" fill="#DCEEFF" points="71.8605 256.1002 17.9895 472.8852 30.5745 472.8852 84.4455 256.1002"></polygon>
                    <polygon id="Fill-10" fill="#DCEEFF" points="158.7618 256.1002 212.6328 472.8852 225.2178 472.8852 171.3468 256.1002"></polygon>
                    <path d="M0.0002,231.9407 L0.0002,233.6007 C0.0002,247.4507 11.2292,258.6697 25.0702,258.6697 L221.4392,258.6697 C251.7292,258.6697 275.0402,230.8607 270.8592,199.7007 L248.6892,26.0807 C246.7702,11.7007 234.9392,1.0007 220.9602,1.0007 L162.7602,1.0007 C148.7902,1.0007 136.9602,11.7007 135.0302,26.0807 L112.8592,199.7007 C112.6892,200.9407 112.5702,202.1797 112.5002,203.4107 L112.3802,203.3907 C112.3802,203.3907 108.2802,231.9407 70.1602,231.9407 L0.0002,231.9407 Z" id="Fill-11" fill="#DCEEFF"></path>
                    <path d="M210.0627,230.9505 L81.6927,230.9505 C109.1427,225.9295 112.3827,203.3905 112.3827,203.3905 L112.5017,203.4105 C112.5727,202.1805 112.6927,200.9405 112.8627,199.7005 L135.0327,26.0805 C136.9617,11.7005 148.7917,1.0005 162.7627,1.0005 L218.9617,1.0005 C226.6327,1.0005 233.0637,2.5295 238.8007,7.6665 L259.4827,171.9805 C263.6627,203.1405 240.3527,230.9505 210.0627,230.9505" id="Fill-13" fill="#ECF6FF"></path>
                </g>
            </g>
            <g id="Person-/-Robot-/-4" transform="translate(811.000000, 346.000000)">
                <g id="Robot-/-Legs-/-4" transform="translate(51.000000, 337.000000)">
                    <g id="Group-35" transform="translate(91.402597, 14.000000)">
                        <path d="M168.066526,257.4883 L155.051591,378.1243" id="Stroke-1" stroke="#19141E" stroke-width="23" stroke-linecap="round"></path>
                        <path d="M66.2709565,257.4883 L53.2560214,378.1243" id="Stroke-2" stroke="#19141E" stroke-width="23" stroke-linecap="round"></path>
                        <path d="M149.573197,41.2251 L167.583483,241.0781" id="Stroke-3" stroke="#19141E" stroke-width="23" stroke-linecap="round"></path>
                        <path d="M56.6295171,39.7113121 C56.6611704,33.3601174 61.8020582,28.2372845 68.1120114,28.2691447 C74.4219646,28.3010048 79.5115322,33.4754932 79.479879,39.8266879 L78.4863725,239.172688 C78.4547192,245.523883 73.3138314,250.646715 67.0038782,250.614855 C60.6939251,250.582995 55.6043574,245.408507 55.6360106,239.057312 L56.6295171,39.7113121 Z" id="Stroke-8" fill="#19141E" fill-rule="nonzero"></path>
                        <g id="Legs-color" transform="translate(-0.000199, 0.000000)">
                            <mask id="mask-2" fill="white">
                                <use xlink:href="#path-1"></use>
                            </mask>
                            <use id="Mask" fill="#6CA1FF" xlink:href="#path-1"></use>
                            <g id="Colors-/-Skin-/-Rose" mask="url(#mask-2)" fill="#E576C6" fill-rule="nonzero">
                                <g transform="translate(0.000199, 0.000000)" id="Color">
                                    <rect x="0" y="0" width="218" height="514"></rect>
                                </g>
                            </g>
                        </g>
                        <path d="M112.259249,501.041221 C112.255999,494.76422 110.831545,488.822106 108.292208,483.523204 L110.768592,460.631221 L125.313626,325.771621 C126.028951,319.141621 131.940314,314.351621 138.537197,315.071621 L189.44447,320.641621 C196.031418,321.361621 200.790314,327.311621 200.07499,333.941621 L186.295094,461.671253 C204.118531,465.791305 217.411579,481.851271 217.421514,501.041221 L217.421514,513.221221 L-1.49213975e-13,513.221221 L1.31142857,501.041221 L112.259249,501.041221 Z" id="Path" fill="#000000" opacity="0.39718192"></path>
                        <path d="M197.714747,247.253 C197.714747,263.133 184.924344,276.006 169.148455,276.006 C153.371571,276.006 140.581169,263.133 140.581169,247.253 C140.581169,231.373 153.371571,218.5 169.148455,218.5 C184.924344,218.5 197.714747,231.373 197.714747,247.253" id="Fill-23" fill="#000000" opacity="0.401204427"></path>
                        <path d="M45.2507435,342.306 C45.2507435,346.893 41.5568864,350.611 36.9996721,350.611 C32.4424578,350.611 28.7476071,346.893 28.7476071,342.306 C28.7476071,337.719 32.4424578,334 36.9996721,334 C41.5568864,334 45.2507435,337.719 45.2507435,342.306 Z M42.3343052,369.3905 C42.3343052,373.9775 38.6404481,377.6965 34.0832338,377.6965 C29.5260195,377.6965 25.8311688,373.9775 25.8311688,369.3905 C25.8311688,364.8035 29.5260195,361.0855 34.0832338,361.0855 C38.6404481,361.0855 42.3343052,364.8035 42.3343052,369.3905 Z" id="Shape" fill="#000000" opacity="0.596656436"></path>
                        <path d="M36.6136948,471.926 C36.6136948,477.961 31.753461,482.853 25.7586429,482.853 C19.7628312,482.853 14.9025974,477.961 14.9025974,471.926 C14.9025974,465.892 19.7628312,461 25.7586429,461 C31.753461,461 36.6136948,465.892 36.6136948,471.926" id="Fill-25" fill="#000000" opacity="0.396019345"></path>
                    </g>
                </g>
                <g id="Robot-/-Body-/-4" transform="translate(46.000000, 152.000000)">
                    <g id="Group-18" transform="translate(74.000000, 65.000000)">
                        <path d="M199.8381,113.6274 L244.6701,210.4384" id="Stroke-1" stroke="#19141E" stroke-width="16" stroke-linecap="round"></path>
                        <polygon id="Fill-8" fill="#19141E" points="112.201 135 146.971 135 146.971 107 112.201 107"></polygon>
                        <path d="M31.3176,220.4594 L40.9346,114.9144" id="Stroke-12" stroke="#19141E" stroke-width="16" stroke-linecap="round"></path>
                        <g id="Body-color">
                            <mask id="mask-4" fill="white">
                                <use xlink:href="#path-3"></use>
                            </mask>
                            <use id="Mask" fill="#6CA1FF" fill-rule="nonzero" xlink:href="#path-3"></use>
                            <g id="Colors-/-Skin-/-Rose" mask="url(#mask-4)" fill="#E576C6" fill-rule="nonzero">
                                <g transform="translate(-1.000000, -1.000000)" id="Color">
                                    <rect x="0" y="0" width="282" height="279"></rect>
                                </g>
                            </g>
                        </g>
                        <path d="M130.3557,80.2821 L163.5857,80.2821 C170.1867,80.2821 175.5857,74.8821 175.5857,68.2821 L175.5857,48.7951 C175.5857,42.1951 170.1867,36.7951 163.5857,36.7951 L130.3557,36.7951 C123.7547,36.7951 118.3557,42.1951 118.3557,48.7951 L118.3557,68.2821 C118.3557,74.8821 123.7547,80.2821 130.3557,80.2821" id="Fill-11" fill="#19141E"></path>
                        <g id="Overlay" transform="translate(1.000000, 4.000000)" fill="#000000" fill-rule="nonzero" opacity="0.399181548">
                            <path d="M252.75567,247.263185 L241.565599,257.252293 C241.053989,256.679175 240.245931,255.711874 239.238583,254.402805 C237.591246,252.262056 235.94858,249.89176 234.408034,247.337368 C230.248354,240.440166 227.544076,233.459757 227.071554,226.527171 C226.436241,217.2062 230.022055,208.918986 238.20785,202.946136 C246.400946,196.967876 254.940605,196.453499 262.248963,201.161126 C267.459517,204.517467 271.475268,210.084376 274.779064,217.25117 C276.447473,220.870383 277.828164,224.690822 278.953124,228.50422 C279.345825,229.835399 279.679995,231.075518 279.957626,232.196907 C280.129776,232.892244 280.248235,233.41042 280.314556,233.723239 L265.640713,236.834239 C265.608398,236.681816 265.527435,236.327664 265.397229,235.801742 C265.170932,234.887698 264.893939,233.859765 264.566091,232.748425 C263.632342,229.583199 262.490987,226.425013 261.156814,223.530844 C258.938613,218.718989 256.448955,215.267654 254.12613,213.771423 C252.193809,212.526732 250.375713,212.636243 247.049378,215.063371 C243.159053,217.901987 241.741731,221.177576 242.036832,225.507145 C242.320001,229.661647 244.215561,234.554555 247.252845,239.590703 C248.48176,241.628376 249.806372,243.539734 251.126314,245.255026 C251.582828,245.848276 252.002424,246.370402 252.37251,246.813419 C252.578243,247.059695 252.710151,247.212192 252.75567,247.263185 Z M189.505724,104.356526 C188.480766,108.411615 190.143011,112.829754 193.896413,115.130357 C198.519413,117.963357 204.563413,116.512357 207.396413,111.889357 C210.229413,107.266357 208.778413,101.222357 204.155413,98.3893572 C201.382923,96.6903599 198.099356,96.532506 195.304023,97.6752965 C199.721018,91.278749 202.313713,83.5378627 202.313713,75.2207572 L202.313713,36.6677572 C202.313713,24.3495788 196.626492,13.2950505 187.748417,6 C196.788543,8.00352582 204.373772,15.0148055 206.592613,24.5946572 L223.990613,99.6836572 C227.064613,112.954657 218.721613,126.328657 205.450613,129.403657 L203.213613,129.921657 C190.573498,132.850476 177.839943,125.421082 174,113.240339 C179.841319,111.479807 185.126355,108.402117 189.505724,104.356526 L189.505724,104.356526 Z M55.4416368,13.5746117 C61.5896368,1.41761173 76.5676368,-3.49738827 88.7236368,2.65161173 L90.7716368,3.68761173 C102.927637,9.83661173 107.843637,24.8136117 101.694637,36.9706117 L66.9046368,105.749612 C60.7546368,117.906612 45.7786368,122.821612 33.6226368,116.672612 L31.5736368,115.636612 C19.4176368,109.487612 14.5026368,94.5106117 20.6516368,82.3536117 L55.4416368,13.5746117 Z M54.2473368,94.7729117 C55.8143368,89.5829117 52.8793368,84.1039117 47.6893368,82.5359117 C42.4993368,80.9679117 37.0203368,83.9029117 35.4523368,89.0939117 C33.8843368,94.2839117 36.8203368,99.7619117 42.0103368,101.330912 C47.2003368,102.897912 52.6793368,99.9629117 54.2473368,94.7729117 Z M86.8938368,30.2309117 C88.4618368,25.0409117 85.5258368,19.5629117 80.3358368,17.9939117 C75.1458368,16.4259117 69.6668368,19.3619117 68.0988368,24.5519117 C66.5308368,29.7419117 69.4668368,35.2199117 74.6568368,36.7889117 C79.8468368,38.3569117 85.3258368,35.4209117 86.8938368,30.2309117 Z M15.0435035,254.801975 L0.0696128003,255.68662 C0.0595380417,255.516091 0.0471913351,255.247938 0.0357472979,254.889708 C-0.153420274,248.968239 0.38076561,241.885759 2.29722272,234.891055 C6.36709511,220.036795 15.7584685,210.42055 31.1501578,211.027125 C39.8184532,211.369037 46.2875901,214.985759 49.746127,221.41948 C52.4397605,226.430293 52.984361,232.449816 52.0360732,239.263703 C51.445301,243.508675 50.286186,247.91864 48.7279492,252.370448 C47.9384134,254.626114 47.0943638,256.752946 46.247369,258.696819 C45.7292537,259.885906 45.3144109,260.771377 45.0541144,261.295629 L31.6190019,254.624966 C31.6460207,254.570548 31.7184067,254.420691 31.8296316,254.183285 C32.0278549,253.760182 32.2521749,253.264755 32.4960629,252.705027 C33.2018047,251.085332 33.9104918,249.299586 34.5701769,247.414897 C35.8249091,243.830187 36.741101,240.344447 37.1792585,237.196082 C38.3018563,229.129696 36.7592284,226.260033 30.559218,226.01548 C23.3631903,225.73189 19.1882834,230.006763 16.7640444,238.854774 C15.9473099,241.8357 15.4342502,245.097023 15.1823984,248.436188 C15.007353,250.75702 14.9770011,252.811254 15.028099,254.410762 C15.0351312,254.630889 15.0412607,254.764013 15.0435035,254.801975 Z" id="Shape"></path>
                        </g>
                        <g id="Overlay-parts" transform="translate(36.000000, 21.550000)" fill="#000000" opacity="0.601771763">
                            <path d="M19.2171225,77.2011225 C17.6491225,82.3911225 12.1701225,85.3261225 6.98012252,83.7591225 C1.79012252,82.1901225 -1.14587748,76.7121225 0.42212252,71.5221225 C1.99012252,66.3311225 7.46912252,63.3961225 12.6591225,64.9641225 C17.8491225,66.5321225 20.7841225,72.0111225 19.2171225,77.2011225 Z M51.8636225,12.6591225 C50.2956225,17.8491225 44.8166225,20.7851225 39.6266225,19.2171225 C34.4366225,17.6481225 31.5006225,12.1701225 33.0686225,6.98012252 C34.6366225,1.79012252 40.1156225,-1.14587748 45.3056225,0.42212252 C50.4956225,1.99112252 53.4316225,7.46912252 51.8636225,12.6591225 Z M172.388167,94.3978904 C169.555167,99.0208904 163.511167,100.47189 158.888167,97.6388904 C154.266167,94.8058904 152.815167,88.7618904 155.648167,84.1388904 C158.480167,79.5168904 164.524167,78.0648904 169.147167,80.8978904 C173.770167,83.7308904 175.221167,89.7748904 172.388167,94.3978904 Z" id="Shape"></path>
                        </g>
                    </g>
                </g>
                <g id="Robot-/-Head-/-4" transform="translate(159.000000, 40.000000)">
                    <g id="Group-24" transform="translate(-3.000000, 16.000000)">
                        <path d="M160.971,97.1281 L160.971,27.2821" id="Stroke-1" stroke="#19141E" stroke-width="7"></path>
                        <path d="M167.2562,126.7741 L138.3762,126.7741 L138.3762,83.7271 L167.2562,83.7271 C179.0942,83.7271 188.7792,93.4121 188.7792,105.2501 C188.7792,117.0881 179.0942,126.7741 167.2562,126.7741" id="Fill-5" fill="#19141E"></path>
                        <g id="Face-color" transform="translate(22.000000, -0.000100)">
                            <mask id="mask-6" fill="white">
                                <use xlink:href="#path-5"></use>
                            </mask>
                            <use id="Mask" fill="#6CA1FF" xlink:href="#path-5"></use>
                            <g id="Colors-/-Skin-/-Rose" mask="url(#mask-6)" fill="#E576C6" fill-rule="nonzero">
                                <g transform="translate(-1.000000, 0.000100)" id="Color">
                                    <rect x="0" y="0" width="156" height="173"></rect>
                                </g>
                            </g>
                        </g>
                        <g id="Overlay" transform="translate(46.047400, 6.221848)" fill="#000000">
                            <polygon id="Stroke-21" fill-rule="nonzero" opacity="0.404366629" points="30.5754153 7.55630476 15.7635384 18.8942105 7.58809805 12.6955108 7.20296621 4.78755179 15.7636616 11.3380943 30.5757847 -3.55271368e-15 45.3848462 11.3380471 60.1978462 4.71243264e-05 75.0072154 11.3383298 89.8256 0.000800608925 99.3069 7.55550415 100.883752 15.9392852 89.8256 7.55550415 75.0059846 18.893975 60.1973538 7.55625763 45.3843538 18.8942576"></polygon>
                            <path d="M98.805,167.060052 L7.349,167.060052 C3.291,167.060052 -6.82121026e-13,163.770052 -6.82121026e-13,159.711052 C-6.82121026e-13,155.652052 3.291,152.362052 7.349,152.362052 L98.805,152.362052 C102.864,152.362052 106.154,155.652052 106.154,159.711052 C106.154,163.770052 102.864,167.060052 98.805,167.060052" id="Fill-9" opacity="0.39562407"></path>
                        </g>
                        <path d="M21.5238,126.7741 L50.4028,126.7741 L50.4028,83.7271 L21.5238,83.7271 C9.6858,83.7271 -0.0002,93.4121 -0.0002,105.2501 C-0.0002,117.0881 9.6858,126.7741 21.5238,126.7741" id="Fill-11" fill="#19141E"></path>
                        <path d="M160.971,105.2501 C160.971,121.7101 150.311,135.0541 137.162,135.0541 C124.013,135.0541 113.354,121.7101 113.354,105.2501 C113.354,88.7901 124.013,75.4461 137.162,75.4461 C150.311,75.4461 160.971,88.7901 160.971,105.2501" id="Fill-14" fill="#19141E"></path>
                        <polygon id="Fill-16" fill="#19141E" points="125.974 135.054 137.162 135.054 137.162 75.446 125.974 75.446"></polygon>
                        <path d="M149.7825,105.2501 C149.7825,121.7101 139.1235,135.0541 125.9735,135.0541 C112.8245,135.0541 102.1655,121.7101 102.1655,105.2501 C102.1655,88.7901 112.8245,75.4461 125.9735,75.4461 C139.1235,75.4461 149.7825,88.7901 149.7825,105.2501" id="Fill-18" fill="#FFFFFF"></path>
                        <path d="M138.1624,103.2501 C138.1624,109.0441 134.4104,113.7421 129.7814,113.7421 C125.1524,113.7421 121.4004,109.0441 121.4004,103.2501 C121.4004,97.4561 125.1524,92.7581 129.7814,92.7581 C134.4104,92.7581 138.1624,97.4561 138.1624,103.2501" id="Fill-19" fill="#19141E"></path>
                        <path d="M38.3553,97.1281 L38.3553,30.5" id="Stroke-20" stroke="#19141E" stroke-width="7"></path>
                    </g>
                </g>
            </g>
            <g id="Person-/-Girl-/-7" transform="translate(1684.000000, 913.500000) scale(-1, 1) translate(-1684.000000, -913.500000) translate(1429.000000, 441.000000)">
                <g id="Girl-/-Head-/7" transform="translate(19.000000, 55.000000)">
                    <g id="Group-26" transform="translate(57.000000, 51.000000)">
                        <path d="M173.2319,70.2387 C174.4059,98.5207 189.3679,115.4687 190.7649,141.8637 C192.5629,175.8127 173.0949,172.2247 174.5699,200.0837 C175.3349,214.5217 46.7159,249.3747 10.4679,203.9757 C-12.7921,174.8437 10.2789,171.2117 8.1869,131.6877 C6.1149,92.5627 34.2819,86.6897 33.1899,66.0627 C31.7369,38.6137 53.7879,2.0407 89.7869,0.1277 C133.6329,-2.2013 171.4569,27.4927 173.2319,70.2387" id="Fill-1" fill="#19141E"></path>
                        <path d="M107.685,136.644 C107.685,136.644 94.793,137.711 89.129,134.996 L107.45,145.187 L107.685,136.644 Z" id="Fill-4" fill="#CF3E83"></path>
                        <g id="Face-color" transform="translate(55.902174, 45.169636)">
                            <mask id="mask-8" fill="white">
                                <use xlink:href="#path-7"></use>
                            </mask>
                            <use id="Mask" fill="#72A065" xlink:href="#path-7"></use>
                            <g id="Colors-/-Skin-/-Yellow" mask="url(#mask-8)" fill="#F6B852" fill-rule="nonzero">
                                <g transform="translate(0.097826, 4.830364)" id="Color">
                                    <rect x="0" y="0" width="98" height="119"></rect>
                                </g>
                            </g>
                        </g>
                        <polygon id="Fill-8" fill="#125475" points="133.434 91.2856 141.774 108.8086 133.192 109.0916"></polygon>
                        <path d="M125.6078,92.4799 C125.6138,96.0689 123.6568,98.9689 121.2368,98.9579 C118.8168,98.9469 116.8508,96.0279 116.8448,92.4399 C116.8388,88.8509 118.7958,85.9509 121.2158,85.9619 C123.6358,85.9729 125.6018,88.8919 125.6078,92.4799" id="Fill-10" fill="#0D0B6D"></path>
                        <path d="M148.2323,90.7065 C148.2383,94.2955 146.2813,97.1955 143.8613,97.1845 C141.4413,97.1735 139.4753,94.2545 139.4693,90.6665 C139.4633,87.0775 141.4203,84.1775 143.8403,84.1885 C146.2603,84.1995 148.2263,87.1185 148.2323,90.7065" id="Fill-12" fill="#0D0B6D"></path>
                        <path d="M130.1967,47.5336 C130.4307,51.8246 131.4277,55.9086 133.0507,59.6556 C133.2657,60.1206 133.4807,60.6056 133.7237,61.0696 C135.2647,64.1996 137.2477,67.0706 139.5897,69.6006 C145.9057,76.4126 154.8587,80.7726 164.7597,81.2166 C165.2667,81.2376 165.7637,81.2496 166.2697,81.2416 L165.5577,68.1846 L165.5477,68.1846 C165.5347,67.7766 165.5137,67.3786 165.4907,66.9706 C164.6127,50.8556 158.1137,36.3526 147.9467,25.1936 C146.0567,23.1156 144.0337,21.1616 141.8997,19.3306 C137.4917,23.3206 134.1037,28.3536 132.1197,34.0116 C130.6327,38.2306 129.9387,42.7966 130.1967,47.5336" id="Fill-14" fill="#19141E"></path>
                        <path d="M131.5434,117.7841 C131.5434,117.7841 126.0534,119.8831 120.1254,113.9561" id="Stroke-16" stroke="#1C295E" stroke-width="3"></path>
                        <path d="M74.7216,92.6699 C74.7216,92.6699 98.8636,100.2499 135.2766,45.1149 C171.6896,-10.0191 53.2686,41.1459 53.2686,41.1459 L77.9296,67.6709 L74.7216,92.6699 Z" id="Fill-18" fill="#19141E"></path>
                        <path d="M107.664,136.645 C107.664,136.645 94.772,137.711 89.108,134.997 L107.429,145.188 L107.664,136.645 Z" id="Fill-20" fill="#000000" opacity="0.396995908"></path>
                        <path d="M58.7797,150.976 C58.7797,150.976 68.1837,147.632 74.2647,148.064 L76.7027,140.656 C76.7027,140.656 50.2397,141.466 50.3957,141.509 C50.5517,141.552 58.7797,150.976 58.7797,150.976" id="Fill-22" fill="#240040"></path>
                        <path d="M79.4428,114.9565 C79.4428,114.9565 99.7388,161.3325 20.0358,173.2695" id="Fill-24" fill="#19141E"></path>
                    </g>
                </g>
                <g id="Girl-/-Body-/-7" transform="translate(28.000000, 234.000000)">
                    <g id="Group-21" transform="translate(6.000000, 9.000000)">
                        <path d="M220.9442,249.9679 C220.9442,249.9679 182.1112,187.9069 180.1732,172.5149 C178.1202,156.2049 179.9622,135.1459 179.9622,135.1459 L206.1852,119.5349 L212.8202,158.3539 L241.1172,247.1659" id="Fill-1" fill="#E576C6"></path>
                        <g id="Skin-color" transform="translate(0.000000, 235.000000)">
                            <mask id="mask-10" fill="white">
                                <use xlink:href="#path-9"></use>
                            </mask>
                            <use id="Mask" fill="#E576C6" xlink:href="#path-9"></use>
                            <g id="Colors-/-Skin-/-Yellow" mask="url(#mask-10)" fill="#F6B852" fill-rule="nonzero">
                                <g transform="translate(-2.000000, 0.000000)" id="Color">
                                    <rect x="0" y="0" width="259" height="71"></rect>
                                </g>
                            </g>
                        </g>
                        <path d="M230.3983,254.0479 C230.3983,254.0479 233.2383,264.7769 242.9853,268.1199 C246.3943,269.2889 245.5423,283.0879 253.8963,281.4379" id="Stroke-5" stroke="#000000" stroke-width="3" opacity="0.152413504"></path>
                        <path d="M12.6991,237.9814 C12.6991,237.9814 11.4701,153.472999 17.1851,139.556897 C22.9001,125.639855 33.2431,106.9814 33.2431,106.9814 L63.9201,126.24956 L47.4661,151.281257 L36.1251,236.657712" id="Fill-10" fill="#E576C6"></path>
                        <g id="Sweater-color" transform="translate(10.000000, -0.000300)">
                            <mask id="mask-12" fill="white">
                                <use xlink:href="#path-11"></use>
                            </mask>
                            <use id="Mask" fill="#C83820" xlink:href="#path-11"></use>
                            <g id="Colors-/-Wear-/-Dark-Cyan" mask="url(#mask-12)" fill="#1E9DBC" fill-rule="nonzero">
                                <g transform="translate(-2.000000, 0.000300)" id="Color">
                                    <rect x="0" y="0" width="234" height="246"></rect>
                                </g>
                            </g>
                        </g>
                        <path d="M178.9135,169.6349 C182.1215,128.8919 204.3265,120.2769 188.3265,74.5849" id="Stroke-14" stroke="#000000" stroke-width="3" opacity="0.195893787"></path>
                        <path d="M100.1727,92.5846 L80.6857,122.1096" id="Stroke-19" stroke="#000000" stroke-width="3" opacity="0.195893787"></path>
                    </g>
                </g>
                <g id="Girl-/-Legs-/-7" transform="translate(-70.000000, 351.000000)">
                    <g id="Group-18" transform="translate(164.000000, 51.000000)">
                        <g id="Shoes" transform="translate(128.000000, 313.028000)">
                            <mask id="mask-14" fill="white">
                                <use xlink:href="#path-13"></use>
                            </mask>
                            <use id="Mask" fill="#0D0B6D" xlink:href="#path-13"></use>
                            <g id="Colors-/-Wear-/-Dark-Grey" mask="url(#mask-14)" fill="#2F2F3D" fill-rule="nonzero">
                                <g transform="translate(-7.000000, 2.972000)" id="Color">
                                    <rect x="0" y="0" width="270" height="105"></rect>
                                </g>
                            </g>
                        </g>
                        <g id="Skin-color" transform="translate(112.347800, 41.089432)">
                            <mask id="mask-16" fill="white">
                                <use xlink:href="#path-15"></use>
                            </mask>
                            <use id="Mask" fill="#E576C6" xlink:href="#path-15"></use>
                            <g id="Colors-/-Skin-/-Yellow" mask="url(#mask-16)" fill="#F6B852" fill-rule="nonzero">
                                <g transform="translate(15.652200, 13.910568)" id="Color">
                                    <rect x="0" y="0" width="253" height="326"></rect>
                                </g>
                            </g>
                        </g>
                        <path d="M220.1977,151.1656 C220.1977,151.1656 243.3337,89.9806 240.0517,69.8786 C236.7697,49.7756 214.1237,45.2626 214.1237,45.2626" id="Stroke-10" stroke="#000000" stroke-width="3" opacity="0.20265997"></path>
                        <g id="Skirt-color">
                            <mask id="mask-18" fill="white">
                                <use xlink:href="#path-17"></use>
                            </mask>
                            <use id="Mask" fill="#2B2A38" xlink:href="#path-17"></use>
                            <g id="Colors-/-Wear-/-Dark-Grey" mask="url(#mask-18)" fill="#2F2F3D" fill-rule="nonzero">
                                <rect id="Color" x="0" y="0" width="257" height="129"></rect>
                            </g>
                        </g>
                    </g>
                </g>
            </g>
            <g id="Background-Object-/-Picture-/-5" transform="translate(1469.000000, 138.000000)">
                <g id="Group-8" transform="translate(146.000000, 92.000000)">
                    <polygon id="Fill-1" fill="#DCEEFF" points="11.971 165.94 207.049 165.94 207.049 0.5 11.971 0.5"></polygon>
                    <polygon id="Stroke-2" stroke="#DCEEFF" stroke-width="5" points="11.971 165.94 207.049 165.94 207.049 0.5 11.971 0.5"></polygon>
                    <polygon id="Fill-4" fill="#FFFFFF" points="0.5 166.162 195.578 166.162 195.578 0.722 0.5 0.722"></polygon>
                    <polygon id="Stroke-5" stroke="#DCEEFF" stroke-width="5" points="0.5 166.162 195.578 166.162 195.578 0.722 0.5 0.722"></polygon>
                    <polygon id="Fill-7" fill="#DCEEFF" points="33.726 131.983 159.573 131.983 159.573 34.457 33.726 34.457"></polygon>
                </g>
            </g>
            <g id="Background-Object-/-Picture-/-6" transform="translate(1405.000000, 286.000000)">
                <g id="Group-8" transform="translate(209.000000, 130.000000)">
                    <polygon id="Fill-1" fill="#DCEEFF" points="5.766 89.2303 81.884 89.2303 81.884 0.5003 5.766 0.5003"></polygon>
                    <polygon id="Stroke-2" stroke="#DCEEFF" stroke-width="5" points="5.766 89.2303 81.884 89.2303 81.884 0.5003 5.766 0.5003"></polygon>
                    <polygon id="Fill-4" fill="#FFFFFF" points="0.5 89.2303 78.035 89.2303 78.035 0.5003 0.5 0.5003"></polygon>
                    <polygon id="Stroke-5" stroke="#DCEEFF" stroke-width="5" points="0.5 89.2303 78.035 89.2303 78.035 0.5003 0.5 0.5003"></polygon>
                    <polygon id="Fill-7" fill="#CCE3FF" points="18.852 66.1413 56.11 66.1413 56.11 23.4273 18.852 23.4273"></polygon>
                </g>
            </g>
        </g>
    </g>
</svg>