<?xml version="1.0" encoding="UTF-8"?>
<svg width="2174px" height="1134px" viewBox="0 0 2174 1134" version="1.1" xmlns="http://www.w3.org/2000/svg" xmlns:xlink="http://www.w3.org/1999/xlink">
    <!-- Generator: Sketch 53.2 (72643) - https://sketchapp.com -->
    <title>Illustration 20</title>
    <desc>Created with Sketch.</desc>
    <defs>
        <path d="M70.1608956,112.544 L69.3141719,83.3573333 C69.3141719,83.3573333 104.835611,86.1813333 112.434755,82.24 C112.434755,82.24 121.721115,34.4648889 110.64515,8.008 L110.420782,6.97688889 L35.4603605,0 L30.445259,40.0920877 C27.9202239,32.6556432 7.89331667,25.3022222 2.44525965,35.9511111 C-9.35901228,59.0257778 32.8507421,74.5626667 32.8507421,74.5626667 L28.564593,112.895111" id="path-1"></path>
        <path d="M176.494742,15.5938155 L176.21498,39.6052348 C176.21498,39.6052348 230.139583,48.0839714 248.419345,68.6403967 L140.985813,68.6403967 L145.485813,7.10542736e-14 L176.494742,15.5938155 Z M41.8541667,13.5717961 L41.5744048,40.5402721 C41.5744048,40.5402721 64.2867063,43.5022589 73.531746,68.6406925 L-6.31088724e-30,68.6406925 L7.35416667,39.0494185 L10.2321429,12.0730544 L41.8541667,13.5717961 Z" id="path-3"></path>
        <path d="M138.212004,2.02310406 L169.220933,11.3261486 L168.942163,35.3365818 L135.712996,33.8457283 L138.212004,2.02310406 Z M3.57132937,5.68434189e-14 L34.5802579,9.30403055 L34.3014881,36.2715206 L0.0802579365,34.780667 L3.57132937,5.68434189e-14 Z" id="path-5"></path>
        <path d="M128.561716,115.403553 L55.7939484,474.499642 L0.000297619048,474.499642 L66.7364087,0 L126.170833,0 L198.730357,0 L194.137103,472.665656 L177.014087,472.912159 L144.414881,473.395306 L144.295833,473.395306 L135.982341,473.513628 L128.561716,115.403553 Z" id="path-7"></path>
        <path d="M211.130837,7.46495894 C213.693837,1.63634604 227.163837,7.10542736e-15 227.163837,7.10542736e-15 C227.163837,7.10542736e-15 248.658837,23.9208739 250.581837,27.5733255 C252.505837,31.2257771 256.063837,49.3110792 255.894837,52.884 C255.724837,56.4569208 244.639837,72.5121994 244.639837,72.5121994 C237.761837,70.8828123 242.253837,62.5917273 242.253837,62.5917273 C242.253837,62.5917273 236.092837,67.6280147 233.530837,67.5435132 C209.409837,66.7482053 210.701837,54.9408651 211.273837,53.4635806 C212.554837,50.142176 218.992837,53.9397713 218.992837,53.9397713 C218.992837,53.9397713 203.796837,24.135607 211.130837,7.46495894 Z M36.0674367,12.272993 L40.4404367,20.5740194 C40.4404367,20.5740194 42.6714367,24.3974622 45.0074367,31.0700956 C47.3424367,37.7437232 46.3724367,41.8256411 51.4244367,52.3077994 C57.1594367,64.2056059 46.9014367,59.2995501 43.2224367,54.1061894 C40.3524367,50.0521073 40.6774367,44.5734299 36.9564367,42.1179167 C35.7094367,44.1071806 32.8594367,46.9533889 31.2694367,64.1201103 C30.9844367,67.1979519 32.3794367,77.1850311 32.3794367,77.1850311 C32.4104367,80.1783713 32.7944367,86.4175619 29.3874367,87.3709372 C28.5434367,87.6065472 27.4444367,86.6740487 27.4444367,86.6740487 C27.4444367,86.6740487 27.7744367,90.5790106 24.2934367,91.356424 C22.9234367,91.6616235 20.2064367,83.2303654 20.2064367,83.2303654 C20.2064367,83.2303654 19.7914367,87.5121044 17.1914367,87.988295 C16.4564367,88.1225032 7.77843666,63.6946205 7.77843666,63.6946205 L8.30043666,69.2120692 L9.45243666,74.862732 C9.45243666,74.862732 9.35943666,77.9047848 6.91643666,78.4426117 C5.94643666,78.6563507 4.08443666,73.5822862 2.33943666,67.6144944 C-0.374563343,58.3272862 -0.319563343,51.3484592 0.478436657,44.4084035 C1.44343666,36.0208874 1.01343666,33.2045032 4.74743666,22.9191836 C6.28843666,18.6762158 9.64443666,12.2640457 11.4234367,9.53017478 L36.0674367,12.272993 Z" id="path-9"></path>
        <path d="M99.8287643,19.1332139 L101.0246,0.000497067449 L156.5736,3.42926833 L155.489458,20.7861793 C186.662701,32.7214633 189.355509,44.3784548 196.8197,59.7025724 C204.9937,76.4865519 213.4687,128.030458 213.4687,128.030458 L248.9687,217.005531 L205.4487,241.083479 L194.7467,220.478045 L195.0147,192.981267 L62.0297,192.977291 L61.0997,159.117056 L49.7697,227.036352 L0.0297,229.37257 C0.0297,229.37257 -0.9553,158.637883 8.5157,117.718297 C14.5447,91.6530739 44.0047,43.2198158 71.9007,26.5650739 C78.7125057,22.4975534 88.9379497,20.269279 99.8287643,19.1332139 Z" id="path-11"></path>
        <path d="M51.9466148,198.998687 C51.9915724,198.998288 52.0365667,198.998089 52.0815974,198.998089 C62.6485325,198.998089 71.2135519,209.977966 71.2135519,223.522238 C71.2135519,237.066086 62.6490693,248.044703 52.0825909,248.045391 L41.5613571,248.045989 L41.5613571,248.036454 C31.236564,247.682221 22.951987,236.842927 22.951987,223.522238 C22.951987,210.20155 31.236564,199.361291 41.5613571,199.007027 L41.5613571,198.998687 L41.9479529,198.998687 C41.9929146,198.998288 42.0379131,198.998089 42.0829481,198.998089 C42.127983,198.998089 42.1729815,198.998288 42.2179433,198.998687 L51.9466148,198.998687 Z M141.528599,198.998687 C141.573561,198.998288 141.618559,198.998089 141.663594,198.998089 C152.229536,198.998089 160.795549,209.977966 160.795549,223.522238 C160.795549,237.066298 152.229804,248.045047 141.664091,248.045391 L131.142857,248.045989 L131.142857,248.036419 C120.818494,247.681526 112.533487,236.8425 112.533487,223.522238 C112.533487,210.201977 120.818494,199.361986 131.142857,199.007061 L131.142857,198.998687 L131.530446,198.998687 C131.575408,198.998288 131.620407,198.998089 131.665442,198.998089 C131.710476,198.998089 131.755475,198.998288 131.800437,198.998687 L141.528599,198.998687 Z M53.020163,28.1145022 C45.3095591,28.1145022 39.0017864,21.7891925 39.0017864,14.0571515 C39.0017864,6.32610672 45.3095591,-0.000199253731 53.020163,-0.000199253731 L116.182338,-0.000199253731 C123.891949,-0.000199253731 130.200715,6.32610672 130.200715,14.0571515 C130.200715,21.7891925 123.891949,28.1145022 116.182338,28.1145022 L53.020163,28.1145022 Z M79.3277182,492.744415 L0.0001987013,492.744415 L12.5332831,460.556968 L79.3277182,492.744415 Z M194.060729,492.744415 L114.73321,492.744415 L127.266294,460.556968 L194.060729,492.744415 Z" id="path-13"></path>
        <path d="M63.2864225,124.414983 C62.9836006,124.422447 62.6798586,124.4262 62.3752401,124.4262 C42.3332401,124.4262 26.0862401,108.1782 26.0862401,88.1362 C26.0862401,68.0942 42.3332401,51.8462 62.3752401,51.8462 C66.6561128,51.8462 70.7638923,52.5874802 74.5772167,53.9486787 C92.4590984,21.7727795 126.794705,0 166.21564,0 C203.820064,0 236.7965,19.8110686 255.278377,49.5649887 C258.943845,48.3195218 262.872653,47.644 266.95924,47.644 C287.00124,47.644 303.24924,63.892 303.24924,83.934 C303.24924,102.995881 288.551543,118.624862 269.870921,120.107891 C262.449455,170.699186 218.869255,209.539 166.21564,209.539 C115.068219,209.539 72.4815646,172.886952 63.2864225,124.414983 L63.2864225,124.414983 Z M0.0755400901,224.623 C-1.02545991,209.875 10.0385401,197.028 24.7865401,195.927 L61.8375401,193.163 C76.5855401,192.062 89.4325401,203.126 90.5325401,217.873 L96.8345401,302.329 C97.9345401,317.077 86.8715401,329.924 72.1245401,331.025 L35.0725401,333.79 C20.3245401,334.89 7.47754009,323.826 6.37754009,309.079 L0.0755400901,224.623 Z M241.71514,217.9819 C241.79314,203.1929 253.84614,191.2689 268.63414,191.3479 L305.78814,191.5449 C320.57614,191.6249 332.50114,203.6769 332.42214,218.4649 L331.97114,303.1539 C331.89314,317.9429 319.84014,329.8679 305.05214,329.7889 L267.89814,329.5909 C253.11014,329.5119 241.18514,317.4599 241.26414,302.6709 L241.71514,217.9819 Z" id="path-15"></path>
        <path d="M42.0938,139.5387 C19.2058,139.5387 0.4788,120.8117 0.4788,97.9237 L0.4788,75.4617 C0.4788,52.5737 19.2058,33.8467 42.0938,33.8467 L46.0938,33.8467 C68.9828,33.8467 87.7098,52.5737 87.7098,75.4617 L87.7098,97.9237 C87.7098,120.8117 68.9828,139.5387 46.0938,139.5387 L42.0938,139.5387 Z M68.3248,10.3849 C68.3248,4.6499 72.9738,0.0009 78.7098,0.0009 C84.4448,0.0009 89.0948,4.6499 89.0948,10.3849 C89.0948,16.1199 84.4448,20.7699 78.7098,20.7699 C72.9738,20.7699 68.3248,16.1199 68.3248,10.3849 Z" id="path-17"></path>
    </defs>
    <g id="Scene" stroke="none" stroke-width="1" fill="none" fill-rule="evenodd">
        <g id="Illustration-20" transform="translate(-183.000000, -105.000000)">
            <g id="Background-Object-/-Window-/-5" transform="translate(543.000000, 84.000000)">
                <g id="Group-31" transform="translate(252.000000, 41.000000)">
                    <polygon id="Fill-1" fill="#ECF6FF" points="75.781 620.211 105.449 620.211 105.449 61.715 75.781 61.715"></polygon>
                    <polygon id="Fill-2" fill="#B6D4FF" points="373.314 634.654 382.912 634.654 382.912 48.551 373.314 48.551"></polygon>
                    <path d="M265.0217,48.7503 L265.0217,340.9633" id="Stroke-3" stroke="#DCEEFF" stroke-width="15"></path>
                    <path d="M166.8205,48.7503 L166.8205,340.9633" id="Stroke-4" stroke="#DCEEFF" stroke-width="15"></path>
                    <path d="M373.3137,341.6028 L96.2527,341.6028" id="Stroke-5" stroke="#DCEEFF" stroke-width="15"></path>
                    <path d="M59.62,634.654 L373.314,634.654 L373.314,48.552 L59.62,48.552 L59.62,634.654 Z M88.619,605.654 L344.314,605.654 L344.314,77.551 L88.619,77.551 L88.619,605.654 Z" id="Fill-6" fill="#DCEEFF"></path>
                    <polygon id="Fill-7" fill="#ECF6FF" points="51.74 605.704 381.193 605.704 381.193 592.461 51.74 592.461"></polygon>
                    <polygon id="Fill-8" fill="#B6D4FF" points="381.192 605.704 389.325 605.704 389.325 592.461 381.192 592.461"></polygon>
                    <path d="M275.7424,521.4314 C278.5004,545.3974 269.5304,565.8744 269.5304,565.8744 C269.5304,565.8744 256.0894,547.4964 253.3314,523.5304 C250.5724,499.5654 259.5424,479.0874 259.5424,479.0874 C259.5424,479.0874 272.9834,497.4664 275.7424,521.4314" id="Fill-9" fill="#D2E9FC"></path>
                    <path d="M200.2551,540.1716 C199.3941,564.2806 187.4591,583.1836 187.4591,583.1836 C187.4591,583.1836 176.9211,563.0006 177.7821,538.8916 C178.6431,514.7836 190.5771,495.8796 190.5771,495.8796 C190.5771,495.8796 201.1161,516.0636 200.2551,540.1716" id="Fill-11" fill="#D2E9FC"></path>
                    <path d="M269.923,540.6604 C281.916,562.1894 281.573,584.2054 281.573,584.2054 C281.573,584.2054 261.784,571.3164 249.79,549.7874 C237.797,528.2594 238.14,506.2434 238.14,506.2434 C238.14,506.2434 257.929,519.1314 269.923,540.6604" id="Fill-13" fill="#D2E9FC"></path>
                    <path d="M286.8068,524.0032 C283.7398,547.9382 270.0608,566.1742 270.0608,566.1742 C270.0608,566.1742 261.3558,545.6042 264.4228,521.6692 C267.4908,497.7332 281.1688,479.4982 281.1688,479.4982 C281.1688,479.4982 289.8738,500.0682 286.8068,524.0032" id="Fill-15" fill="#D2E9FC"></path>
                    <path d="M296.7922,541.3025 C286.9162,563.6895 268.4422,578.0795 268.4422,578.0795 C268.4422,578.0795 265.9802,556.1745 275.8562,533.7865 C285.7322,511.4005 304.2062,497.0095 304.2062,497.0095 C304.2062,497.0095 306.6672,518.9155 296.7922,541.3025" id="Fill-17" fill="#D2E9FC"></path>
                    <polygon id="Fill-19" fill="#DCEEFF" points="0 21.249 434.29 21.249 434.29 1 0 1"></polygon>
                    <polygon id="Fill-21" fill="#B6D4FF" points="430.658 21.249 440.933 21.249 440.933 1 430.658 1"></polygon>
                    <polygon id="Fill-22" fill="#B6D4FF" points="430.526 145.98 436.907 145.98 436.907 132.984 430.526 132.984"></polygon>
                    <polygon id="Fill-23" fill="#DCEEFF" points="11.143 132.984 425.836 132.984 425.836 21.25 11.143 21.25"></polygon>
                    <polygon id="Fill-24" fill="#CCE3FF" points="4.405 145.98 431.958 145.98 431.958 132.984 4.405 132.984"></polygon>
                    <polygon id="Fill-25" fill="#B6D4FF" points="11.143 38.24 425.836 38.24 425.836 21.249 11.143 21.249"></polygon>
                    <polygon id="Fill-26" fill="#B6D4FF" points="243.2863 547.7971 299.9743 547.7971 293.9893 592.4611 249.2703 592.4611"></polygon>
                    <path d="M192.5852,546.5066 C202.4912,567.6396 200.5672,589.1846 200.5672,589.1846 C200.5672,589.1846 182.5802,576.4646 172.6742,555.3306 C162.7672,534.1966 164.6902,512.6526 164.6902,512.6526 C164.6902,512.6526 182.6782,525.3726 192.5852,546.5066" id="Fill-27" fill="#D2E9FC"></path>
                    <path d="M207.5314,556.8337 C198.7804,578.4787 181.4994,592.1827 181.4994,592.1827 C181.4994,592.1827 178.4074,570.7937 187.1594,549.1487 C195.9114,527.5047 213.1914,513.7997 213.1914,513.7997 C213.1914,513.7997 216.2834,535.1887 207.5314,556.8337" id="Fill-28" fill="#D2E9FC"></path>
                    <polygon id="Fill-29" fill="#B6D4FF" points="168.674 557.9793 212.44 557.9793 207.819 592.4603 173.295 592.4603"></polygon>
                </g>
            </g>
            <g id="Background-Object-/-Window-/-5" transform="translate(1399.000000, 84.000000)">
                <g id="Group-31" transform="translate(252.000000, 41.000000)">
                    <polygon id="Fill-1" fill="#ECF6FF" points="75.781 620.211 105.449 620.211 105.449 61.715 75.781 61.715"></polygon>
                    <polygon id="Fill-2" fill="#B6D4FF" points="373.314 634.654 382.912 634.654 382.912 48.551 373.314 48.551"></polygon>
                    <path d="M265.0217,48.7503 L265.0217,340.9633" id="Stroke-3" stroke="#DCEEFF" stroke-width="15"></path>
                    <path d="M166.8205,48.7503 L166.8205,340.9633" id="Stroke-4" stroke="#DCEEFF" stroke-width="15"></path>
                    <path d="M373.3137,341.6028 L96.2527,341.6028" id="Stroke-5" stroke="#DCEEFF" stroke-width="15"></path>
                    <path d="M59.62,634.654 L373.314,634.654 L373.314,48.552 L59.62,48.552 L59.62,634.654 Z M88.619,605.654 L344.314,605.654 L344.314,77.551 L88.619,77.551 L88.619,605.654 Z" id="Fill-6" fill="#DCEEFF"></path>
                    <polygon id="Fill-7" fill="#ECF6FF" points="51.74 605.704 381.193 605.704 381.193 592.461 51.74 592.461"></polygon>
                    <polygon id="Fill-8" fill="#B6D4FF" points="381.192 605.704 389.325 605.704 389.325 592.461 381.192 592.461"></polygon>
                    <path d="M275.7424,521.4314 C278.5004,545.3974 269.5304,565.8744 269.5304,565.8744 C269.5304,565.8744 256.0894,547.4964 253.3314,523.5304 C250.5724,499.5654 259.5424,479.0874 259.5424,479.0874 C259.5424,479.0874 272.9834,497.4664 275.7424,521.4314" id="Fill-9" fill="#D2E9FC"></path>
                    <path d="M200.2551,540.1716 C199.3941,564.2806 187.4591,583.1836 187.4591,583.1836 C187.4591,583.1836 176.9211,563.0006 177.7821,538.8916 C178.6431,514.7836 190.5771,495.8796 190.5771,495.8796 C190.5771,495.8796 201.1161,516.0636 200.2551,540.1716" id="Fill-11" fill="#D2E9FC"></path>
                    <path d="M269.923,540.6604 C281.916,562.1894 281.573,584.2054 281.573,584.2054 C281.573,584.2054 261.784,571.3164 249.79,549.7874 C237.797,528.2594 238.14,506.2434 238.14,506.2434 C238.14,506.2434 257.929,519.1314 269.923,540.6604" id="Fill-13" fill="#D2E9FC"></path>
                    <path d="M286.8068,524.0032 C283.7398,547.9382 270.0608,566.1742 270.0608,566.1742 C270.0608,566.1742 261.3558,545.6042 264.4228,521.6692 C267.4908,497.7332 281.1688,479.4982 281.1688,479.4982 C281.1688,479.4982 289.8738,500.0682 286.8068,524.0032" id="Fill-15" fill="#D2E9FC"></path>
                    <path d="M296.7922,541.3025 C286.9162,563.6895 268.4422,578.0795 268.4422,578.0795 C268.4422,578.0795 265.9802,556.1745 275.8562,533.7865 C285.7322,511.4005 304.2062,497.0095 304.2062,497.0095 C304.2062,497.0095 306.6672,518.9155 296.7922,541.3025" id="Fill-17" fill="#D2E9FC"></path>
                    <polygon id="Fill-19" fill="#DCEEFF" points="0 21.249 434.29 21.249 434.29 1 0 1"></polygon>
                    <polygon id="Fill-21" fill="#B6D4FF" points="430.658 21.249 440.933 21.249 440.933 1 430.658 1"></polygon>
                    <polygon id="Fill-22" fill="#B6D4FF" points="430.526 145.98 436.907 145.98 436.907 132.984 430.526 132.984"></polygon>
                    <polygon id="Fill-23" fill="#DCEEFF" points="11.143 132.984 425.836 132.984 425.836 21.25 11.143 21.25"></polygon>
                    <polygon id="Fill-24" fill="#CCE3FF" points="4.405 145.98 431.958 145.98 431.958 132.984 4.405 132.984"></polygon>
                    <polygon id="Fill-25" fill="#B6D4FF" points="11.143 38.24 425.836 38.24 425.836 21.249 11.143 21.249"></polygon>
                    <polygon id="Fill-26" fill="#B6D4FF" points="243.2863 547.7971 299.9743 547.7971 293.9893 592.4611 249.2703 592.4611"></polygon>
                    <path d="M192.5852,546.5066 C202.4912,567.6396 200.5672,589.1846 200.5672,589.1846 C200.5672,589.1846 182.5802,576.4646 172.6742,555.3306 C162.7672,534.1966 164.6902,512.6526 164.6902,512.6526 C164.6902,512.6526 182.6782,525.3726 192.5852,546.5066" id="Fill-27" fill="#D2E9FC"></path>
                    <path d="M207.5314,556.8337 C198.7804,578.4787 181.4994,592.1827 181.4994,592.1827 C181.4994,592.1827 178.4074,570.7937 187.1594,549.1487 C195.9114,527.5047 213.1914,513.7997 213.1914,513.7997 C213.1914,513.7997 216.2834,535.1887 207.5314,556.8337" id="Fill-28" fill="#D2E9FC"></path>
                    <polygon id="Fill-29" fill="#B6D4FF" points="168.674 557.9793 212.44 557.9793 207.819 592.4603 173.295 592.4603"></polygon>
                </g>
            </g>
            <g id="Background-Object-/-Clock" transform="translate(1189.000000, 0.000000)">
                <g id="Group-14" transform="translate(172.000000, 104.000000)">
                    <path d="M155.4015,71.763 C155.4015,110.844 123.7195,142.526 84.6375,142.526 C45.5565,142.526 13.8755,110.844 13.8755,71.763 C13.8755,32.681 45.5565,1 84.6375,1 C123.7195,1 155.4015,32.681 155.4015,71.763" id="Fill-1" fill="#CCE3FF"></path>
                    <path d="M141.5265,71.763 C141.5265,110.844 109.8435,142.526 70.7625,142.526 C31.6815,142.526 0.0005,110.844 0.0005,71.763 C0.0005,32.681 31.6815,1 70.7625,1 C109.8435,1 141.5265,32.681 141.5265,71.763" id="Fill-4" fill="#DCEEFF"></path>
                    <path d="M124.3869,71.7577 C124.3869,99.3797 103.5099,122.1177 76.6849,125.0647 C74.7379,125.2797 72.7689,125.3867 70.7689,125.3867 C41.1469,125.3867 17.1389,101.3797 17.1389,71.7577 C17.1389,42.1467 41.1469,18.1387 70.7689,18.1387 C72.7689,18.1387 74.7379,18.2467 76.6849,18.4617 C103.5099,21.4087 124.3869,44.1467 124.3869,71.7577" id="Fill-6" fill="#CCE3FF"></path>
                    <path d="M124.3869,71.7577 C124.3869,99.3797 103.5099,122.1177 76.6849,125.0647 C49.8479,122.1177 28.9709,99.3797 28.9709,71.7577 C28.9709,44.1467 49.8479,21.4087 76.6849,18.4617 C103.5099,21.4087 124.3869,44.1467 124.3869,71.7577" id="Fill-8" fill="#ECF6FF"></path>
                    <path d="M73.089,41.9427 L90.464,79.8377" id="Stroke-10" stroke="#CCE3FF" stroke-width="8"></path>
                    <path d="M92.1193,63.951 L54.0593,105.321" id="Stroke-12" stroke="#CCE3FF" stroke-width="8"></path>
                </g>
            </g>
            <g id="Background-Object-/-Bedside-table-/-3" transform="translate(967.000000, 566.000000)">
                <g id="Group-34" transform="translate(198.000000, 182.000000)">
                    <path d="M368.0634,150.1539 L298.9344,150.1539 L298.9344,10.7219 C298.9344,4.7999 303.7354,0.0009 309.6574,0.0009 L357.3404,0.0009 C363.2624,0.0009 368.0634,4.7999 368.0634,10.7219 L368.0634,150.1539 Z" id="Fill-1" fill="#CCE3FF"></path>
                    <path d="M458.1825,132.1119 C458.1825,138.9719 455.7325,145.2619 451.6525,150.1519 L408.3025,150.1519 C404.2225,145.2619 401.7725,138.9719 401.7725,132.1119 C401.7725,116.5319 414.4025,103.9019 429.9825,103.9019 C445.5525,103.9019 458.1825,116.5319 458.1825,132.1119" id="Fill-3" fill="#DCEEFF"></path>
                    <polygon id="Fill-5" fill="#DCEEFF" points="420.235 112.112 439.721 112.112 439.721 95.496 420.235 95.496"></polygon>
                    <polygon id="Fill-7" fill="#DCEEFF" points="415.105 95.496 444.849 95.496 444.849 86.881 415.105 86.881"></polygon>
                    <polygon id="Fill-8" fill="#B6D4FF" points="418.4843 150.1539 376.8553 150.1539 397.6703 117.6049"></polygon>
                    <polygon id="Fill-9" fill="#B6D4FF" points="298.934 131.879 368.063 131.879 368.063 50.214 298.934 50.214"></polygon>
                    <polygon id="Fill-10" fill="#B6D4FF" points="308.986 144.625 332.704 144.625 332.704 139.086 308.986 139.086"></polygon>
                    <polygon id="Fill-11" fill="#B6D4FF" points="298.934 16.701 368.063 16.701 368.063 14.831 298.934 14.831"></polygon>
                    <path d="M515.1796,303.6929 L515.1796,351.4419" id="Fill-12" fill="#CCE3FF"></path>
                    <path d="M515.1796,303.6929 L515.1796,351.4419" id="Stroke-13" stroke="#CCE3FF" stroke-width="11"></path>
                    <path d="M439.4872,303.6929 L439.4872,351.4419" id="Fill-15" fill="#CCE3FF"></path>
                    <path d="M439.4872,303.6929 L439.4872,351.4419" id="Stroke-16" stroke="#CCE3FF" stroke-width="11"></path>
                    <path d="M109.6415,303.6929 L109.6415,351.4419" id="Fill-18" fill="#CCE3FF"></path>
                    <path d="M109.6415,303.6929 L109.6415,351.4419" id="Stroke-19" stroke="#CCE3FF" stroke-width="11"></path>
                    <path d="M33.9491,303.6929 L33.9491,351.4419" id="Fill-21" fill="#CCE3FF"></path>
                    <path d="M33.9491,303.6929 L33.9491,351.4419" id="Stroke-22" stroke="#CCE3FF" stroke-width="11"></path>
                    <polygon id="Fill-24" fill="#DCEEFF" points="0 303.693 406.154 303.693 406.154 150.154 0 150.154"></polygon>
                    <polygon id="Fill-25" fill="#CCE3FF" points="23.384 286.578 192.82 286.578 192.82 167.193 23.384 167.193"></polygon>
                    <polygon id="Fill-26" fill="#CCE3FF" points="213.332 286.578 382.769 286.578 382.769 167.193 213.332 167.193"></polygon>
                    <polygon id="Fill-27" fill="#B6D4FF" points="406.155 303.693 548.513 303.693 548.513 150.154 406.155 150.154"></polygon>
                    <path d="M100.3124,112.6519 L100.3124,112.6529 C100.3124,119.5559 105.9094,125.1529 112.8134,125.1529 L225.2824,125.1529 L225.2824,100.1519 L112.8134,100.1519 C105.9094,100.1519 100.3124,105.7489 100.3124,112.6519" id="Fill-28" fill="#CCE3FF"></path>
                    <path d="M175.9579,112.6519 L175.9579,112.6529 C175.9579,116.6489 179.1979,119.8889 183.1939,119.8889 L224.9809,119.8889 C225.1469,119.8889 225.2819,119.7549 225.2819,119.5889 L225.2819,105.7159 C225.2819,105.5499 225.1469,105.4159 224.9809,105.4159 L183.1939,105.4159 C179.1979,105.4159 175.9579,108.6559 175.9579,112.6519" id="Fill-29" fill="#DCEEFF"></path>
                    <path d="M84.6151,125.1529 L84.6151,150.1539 L207.3741,150.1539 C214.2781,150.1539 219.8751,144.5569 219.8751,137.6539 C219.8751,130.7499 214.2781,125.1529 207.3741,125.1529 L84.6151,125.1529 Z" id="Fill-30" fill="#CCE3FF"></path>
                    <path d="M84.6151,130.4859 L84.6151,144.8209 L135.0891,144.8209 C139.0481,144.8209 142.2571,141.6119 142.2571,137.6539 C142.2571,133.6949 139.0481,130.4859 135.0891,130.4859 L84.6151,130.4859 Z" id="Fill-31" fill="#DCEEFF"></path>
                    <path d="M142.8465,167.1929 L142.8465,167.1929 C142.8465,176.3129 135.4535,183.7059 126.3335,183.7059 L89.8705,183.7059 C80.7515,183.7059 73.3585,176.3129 73.3585,167.1929 L142.8465,167.1929 Z" id="Fill-32" fill="#B6D4FF"></path>
                    <path d="M332.7958,167.1929 L332.7958,167.1929 C332.7958,176.3129 325.4018,183.7059 316.2818,183.7059 L279.8198,183.7059 C270.6998,183.7059 263.3068,176.3129 263.3068,167.1929 L332.7958,167.1929 Z" id="Fill-33" fill="#B6D4FF"></path>
                </g>
            </g>
            <g id="Background-Object-/-Sofa-/-3" transform="translate(667.500000, 872.000000) scale(-1, 1) translate(-667.500000, -872.000000) translate(0.000000, 247.000000)">
                <g id="Group-20" transform="translate(182.000000, 398.000000)">
                    <polygon id="Fill-1" fill="#B6D4FF" points="230.641 331.179 795.016 331.179 795.016 197.507 230.641 197.507"></polygon>
                    <path d="M388.9745,225.7942 L795.8625,225.7942 C817.0405,225.7942 834.7145,209.6232 836.5915,188.5272 L849.3165,45.5142 C851.4445,21.5952 832.5995,1.0002 808.5865,1.0002 L401.6985,1.0002 C380.5195,1.0002 362.8455,17.1712 360.9685,38.2672 L348.2455,181.2802 C346.1175,205.1992 364.9605,225.7942 388.9745,225.7942" id="Fill-2" fill="#B6D4FF"></path>
                    <path d="M54.0741,396.1243 L212.4351,396.1243 C235.8591,396.1243 254.2611,376.0683 252.2491,352.7293 L239.1391,200.6783 C237.3581,180.0153 220.0651,164.1493 199.3261,164.1493 L40.9651,164.1493 C17.5401,164.1493 -0.8619,184.2053 1.1501,207.5433 L14.2601,359.5953 C16.0421,380.2583 33.3341,396.1243 54.0741,396.1243" id="Fill-4" fill="#B6D4FF"></path>
                    <path d="M266.5546,225.7942 L718.5836,225.7942 C739.7626,225.7942 757.4366,209.6232 759.3136,188.5272 L772.0366,45.5142 C774.1646,21.5952 755.3216,1.0002 731.3076,1.0002 L279.2786,1.0002 C258.0996,1.0002 240.4256,17.1712 238.5486,38.2672 L225.8246,181.2802 C223.6976,205.1992 242.5406,225.7942 266.5546,225.7942" id="Fill-7" fill="#DCEEFF"></path>
                    <polygon id="Fill-9" fill="#CCE3FF" points="70.794 396.124 761.033 396.124 761.033 326.122 70.794 326.122"></polygon>
                    <path d="M165.0292,326.1219 L650.6622,326.1219 C674.7812,326.1219 694.3332,306.5699 694.3332,282.4519 C694.3332,258.3339 674.7812,238.7819 650.6622,238.7819 L165.0292,238.7819 C140.9112,238.7819 121.3592,258.3339 121.3592,282.4519 C121.3592,306.5699 140.9112,326.1219 165.0292,326.1219" id="Fill-11" fill="#DCEEFF"></path>
                    <polygon id="Fill-12" fill="#B6D4FF" points="892.204 452.8401 908.768 452.8401 901.768 396.1241 871.204 396.1241"></polygon>
                    <polygon id="Fill-13" fill="#B6D4FF" points="749.8456 452.8401 766.4086 452.8401 759.4086 396.1241 728.8456 396.1241"></polygon>
                    <polygon id="Fill-14" fill="#B6D4FF" points="73.4091 452.8401 56.8461 452.8401 63.8461 396.1241 94.4091 396.1241"></polygon>
                    <polygon id="Fill-15" fill="#B6D4FF" points="215.7684 452.8401 199.2044 452.8401 206.2044 396.1241 236.7684 396.1241"></polygon>
                    <path d="M54.0741,396.1243 L77.8031,396.1243 C101.2281,396.1243 119.6301,376.0683 117.6181,352.7293 L104.5091,200.6783 C102.7271,180.0153 85.4341,164.1493 64.6941,164.1493 L40.9651,164.1493 C17.5401,164.1493 -0.8619,184.2053 1.1501,207.5433 L14.2601,359.5953 C16.0421,380.2583 33.3341,396.1243 54.0741,396.1243" id="Fill-16" fill="#CCE3FF"></path>
                    <path d="M737.8876,396.1243 L916.2486,396.1243 C936.9886,396.1243 954.2816,380.2583 956.0626,359.5953 L969.1716,207.5433 C971.1846,184.2053 952.7836,164.1493 929.3586,164.1493 L750.9966,164.1493 C730.2576,164.1493 712.9646,180.0153 711.1836,200.6783 L698.0746,352.7293 C696.0616,376.0683 714.4626,396.1243 737.8876,396.1243" id="Fill-17" fill="#B6D4FF"></path>
                    <path d="M737.8876,396.1243 L761.6166,396.1243 C782.3576,396.1243 799.6506,380.2583 801.4316,359.5953 L814.5406,207.5433 C816.5526,184.2053 798.1516,164.1493 774.7266,164.1493 L750.9966,164.1493 C730.2576,164.1493 712.9646,180.0153 711.1836,200.6783 L698.0746,352.7293 C696.0616,376.0683 714.4626,396.1243 737.8876,396.1243" id="Fill-18" fill="#CCE3FF"></path>
                </g>
            </g>
            <g id="Background-Object-/-Chair-/-5" transform="translate(1596.000000, 527.000000)">
                <g id="Group-14" transform="translate(185.000000, 143.000000)">
                    <polygon id="Fill-1" fill="#B6D4FF" points="480.8133 340.6099 518.5573 429.3129 535.6733 429.3129 512.9663 336.2619"></polygon>
                    <polygon id="Fill-2" fill="#B6D4FF" points="288 340.6099 325.743 429.3129 342.859 429.3129 320.152 336.2619"></polygon>
                    <polygon id="Fill-3" fill="#B6D4FF" points="0 429.313 17.116 429.313 54.859 340.61 22.707 336.262"></polygon>
                    <polygon id="Fill-4" fill="#B6D4FF" points="192.8133 429.313 209.9293 429.313 247.6733 340.61 215.5203 336.262"></polygon>
                    <path d="M21.0471,133.0201 L21.0471,347.8001 L244.2601,348.2771 L280.9671,135.8161 L21.0471,133.0201 Z M38.0471,150.2041 L260.8161,152.6001 L229.9501,331.2471 L38.0471,330.8371 L38.0471,150.2041 Z" id="Fill-5" fill="#B6D4FF"></path>
                    <polygon id="Fill-6" fill="#CCE3FF" points="313.9578 0.9994 253.9588 348.2774 515.7078 348.2774 575.7088 0.9994"></polygon>
                    <polygon id="Fill-7" fill="#DCEEFF" points="243.5724 0.9994 183.5724 348.2774 442.1474 348.2774 502.1474 0.9994"></polygon>
                    <path d="M179.4611,348.2774 L487.2551,348.2774 C502.9691,348.2774 515.7081,335.5384 515.7081,319.8234 L515.7081,254.2474 C515.7081,238.5324 502.9691,225.7934 487.2551,225.7934 L179.4611,225.7934 C163.7461,225.7934 151.0071,238.5324 151.0071,254.2474 L151.0071,319.8234 C151.0071,335.5384 163.7461,348.2774 179.4611,348.2774" id="Fill-8" fill="#CCE3FF"></path>
                    <polygon id="Fill-10" fill="#DCEEFF" points="19.891 348.277 292.495 348.277 292.495 225.793 19.891 225.793"></polygon>
                    <path d="M292.4953,133.0201 L292.4953,347.8001 L515.7083,348.2771 L552.4163,135.8161 L292.4953,133.0201 Z M309.4953,150.2041 L532.2643,152.6001 L501.3983,331.2471 L309.4953,330.8371 L309.4953,150.2041 Z" id="Fill-12" fill="#B6D4FF"></path>
                </g>
            </g>
            <g id="Person-/-Man-/-4" transform="translate(532.000000, 289.000000)">
                <g id="Man-/-Head-/-4" transform="translate(245.000000, 69.000000)">
                    <g id="Group-29" transform="translate(0.000000, 41.000000)">
                        <path d="M153.229564,54.3756444 L50.0468009,56.9889778 L49.9675596,55.3356444 L48.7388754,30.0378667 L47.8031167,10.7845333 C47.5003974,4.61564444 52.6742263,-0.424355556 58.8434675,0.0289777778 L141.815266,6.10897778 C147.015805,6.48231111 151.101625,10.6778667 151.359827,15.8689778 L151.805003,24.9623111 L153.033687,50.4289778 L153.229564,54.3756444 Z" id="Fill-1" fill="#2437A8"></path>
                        <path d="M153.033954,50.4285333 C138.111673,52.4285333 120.704423,54.0018667 102.09698,54.8996444 C83.0790855,55.8240889 65.2453575,55.9218667 49.9669364,55.3352 L48.7382522,30.0374222 C63.8831206,27.9752 81.6456206,26.3485333 100.671529,25.4329778 C119.280752,24.5352 136.749436,24.4196444 151.80527,24.9618667 L153.033954,50.4285333 Z" id="Fill-3" fill="#5E93D1"></path>
                        <g id="Face-color" transform="translate(38.285088, 37.908889)">
                            <mask id="mask-2" fill="white">
                                <use xlink:href="#path-1"></use>
                            </mask>
                            <use id="Mask" fill="#E576C6" xlink:href="#path-1"></use>
                            <g id="Colors-/-Skin-/-Rose" mask="url(#mask-2)" fill="#E576C6" fill-rule="nonzero">
                                <g transform="translate(0.000000, 0.313333)" id="Color">
                                    <rect x="0" y="0" width="116" height="113"></rect>
                                </g>
                            </g>
                        </g>
                        <polygon id="Fill-8" fill="#000000" opacity="0.398111979" points="107.599082 121.265778 83.6468623 116.137778 107.484226 132.216"></polygon>
                        <polygon id="Fill-10" fill="#405FD3" points="127.358104 73.5704889 135.634806 93.7749333 125.714517 93.9011556"></polygon>
                        <path d="M117.920741,79.3118222 C118.413105,82.0327111 116.603912,84.6371556 113.878548,85.1287111 C111.153184,85.6211556 108.545346,83.8149333 108.052092,81.0940444 C107.558838,78.3731556 109.368921,75.7696 112.093395,75.2771556 C114.818759,74.7847111 117.427487,76.5909333 117.920741,79.3118222" id="Fill-12" fill="#0D0B6D"></path>
                        <path d="M143.953889,79.3118222 C144.446253,82.0327111 142.63706,84.6371556 139.911696,85.1287111 C137.186332,85.6211556 134.578494,83.8149333 134.085239,81.0940444 C133.591985,78.3731556 135.402068,75.7696 138.126542,75.2771556 C140.851906,74.7847111 143.460634,76.5909333 143.953889,79.3118222" id="Fill-14" fill="#0D0B6D"></path>
                        <g id="Group-19" transform="translate(116.635965, 99.248000)">
                            <path d="M0.430039474,0.374133333 C0.430039474,0.374133333 3.89617544,5.98746667 10.7634518,5.51191111" id="Fill-16" fill="#FFFFFF"></path>
                            <path d="M0.430039474,0.374133333 C0.430039474,0.374133333 3.89617544,5.98746667 10.7634518,5.51191111" id="Stroke-18" stroke="#252535" stroke-width="4"></path>
                        </g>
                        <path d="M152.919258,60.7742547 L151.739295,54.7077333 C149.703062,46.6375111 88.5047947,49.7184 88.5047947,49.7184 L89.3390535,60.5726222 L88.30967,65.760701 C38.7905407,67.1771803 0.364891294,62.8577143 0.00258201754,55.3985778 C-0.392733772,47.2599111 44.6768276,38.4661333 100.668323,35.7559111 C156.658929,33.0465778 202.369543,37.4474667 202.764858,45.5861333 C203.028543,51.0270557 182.973053,56.7611635 152.919278,60.774252 Z" id="Combined-Shape" fill="#2437A8"></path>
                        <path d="M77.2344315,90.5346666 C77.159477,90.3641479 77.0808021,90.1908269 76.9983452,90.0146667 C69.1812924,73.3127598 55.47689,69.8397098 51.6936079,69.1859288 C51.0475164,63.7802527 50.554657,59.4601778 50.554657,59.4601778 C49.9501088,52.0735111 88.5040825,49.7179556 88.5040825,49.7179556 C88.5040825,49.7179556 92.2675956,84.5117333 89.8903588,87.4806222 C88.4113337,89.3309602 83.2079527,90.1869814 77.2344315,90.5346666 Z" id="Combined-Shape" fill="#19141E"></path>
                    </g>
                </g>
                <g id="Man-/-Legs-/-4" transform="translate(53.000000, 249.000000)">
                    <g id="Group-17" transform="translate(149.000000, 186.216480)">
                        <g id="Shoes" transform="translate(0.662996, 445.047100)">
                            <mask id="mask-4" fill="white">
                                <use xlink:href="#path-3"></use>
                            </mask>
                            <use id="Mask" fill="#0D0B6D" xlink:href="#path-3"></use>
                            <g id="Colors-/-Wear-/-Blue" mask="url(#mask-4)" fill="#2437A8" fill-rule="nonzero">
                                <g transform="translate(0.329067, 34.155830)" id="Color">
                                    <rect x="0" y="0" width="248" height="35"></rect>
                                </g>
                            </g>
                        </g>
                        <g id="Legs-skin" transform="translate(7.936508, 449.315260)">
                            <mask id="mask-6" fill="white">
                                <use xlink:href="#path-5"></use>
                            </mask>
                            <use id="Mask" fill="#CF3E83" xlink:href="#path-5"></use>
                            <g id="Colors-/-Skin-/-Pink" mask="url(#mask-6)" fill="#CF3E83" fill-rule="nonzero">
                                <g transform="translate(0.000000, 18.055499)" id="Color">
                                    <rect x="0" y="0" width="170" height="18"></rect>
                                </g>
                            </g>
                        </g>
                        <g id="Pants" transform="translate(0.000000, -0.000099)">
                            <mask id="mask-8" fill="white">
                                <use xlink:href="#path-7"></use>
                            </mask>
                            <use id="Mask" fill="#2F2F3D" xlink:href="#path-7"></use>
                            <g id="Colors-/-Wear-/-Dark-Grey" mask="url(#mask-8)" fill="#2F2F3D" fill-rule="nonzero">
                                <g transform="translate(0.000000, 0.000099)" id="Color">
                                    <rect x="0" y="0" width="198" height="474"></rect>
                                </g>
                            </g>
                        </g>
                        <polygon id="Fill-15" fill="#000000" opacity="0.200892857" points="128.761706 112.742547 141.313294 57.1885313 131.868849 225.612585"></polygon>
                    </g>
                </g>
                <g id="Man-/-Body-/-4" transform="translate(186.000000, 212.000000)">
                    <g id="Group-17" transform="translate(19.000000, 30.818182)">
                        <g id="Hands" transform="translate(0.999963, 208.596940)">
                            <mask id="mask-10" fill="white">
                                <use xlink:href="#path-9"></use>
                            </mask>
                            <use id="Mask" fill="#E576C6" xlink:href="#path-9"></use>
                            <g id="Colors-/-Skin-/-Rose" mask="url(#mask-10)" fill="#E576C6" fill-rule="nonzero">
                                <g transform="translate(0.000037, 12.101008)" id="Color">
                                    <rect x="0" y="0" width="256" height="80"></rect>
                                </g>
                            </g>
                        </g>
                        <path d="M224.9179,230.134176 C224.9179,230.134176 228.3029,242.494255 239.9199,246.346528 C243.9809,247.693581 242.9669,263.591786 252.9229,261.690006" id="Stroke-4" stroke="#000000" stroke-width="3" opacity="0.145089286"></path>
                        <g id="Sweater" transform="translate(1.000000, 0.000000)">
                            <mask id="mask-12" fill="white">
                                <use xlink:href="#path-11"></use>
                            </mask>
                            <use id="Mask" fill="#72A065" xlink:href="#path-11"></use>
                            <g id="Colors-/-Wear-/-Dark-Cream" mask="url(#mask-12)" fill="#EA847A" fill-rule="nonzero">
                                <g transform="translate(-6.000000, 0.000000)" id="Color">
                                    <rect x="0" y="0" width="255" height="242"></rect>
                                </g>
                            </g>
                        </g>
                        <polyline id="Stroke-11" stroke="#000000" stroke-width="5" opacity="0.203543527" points="62.3095 166.766328 71.4635 119.248668 94.1055 81.1146475"></polyline>
                        <path d="M194.0146,193.180293 L198.3396,123.940786" id="Stroke-13" stroke="#000000" stroke-width="5" opacity="0.198800223"></path>
                    </g>
                </g>
            </g>
            <g id="Person-/-Robot-/-2" transform="translate(1870.000000, 813.000000) scale(-1, 1) translate(-1870.000000, -813.000000) translate(1595.000000, 334.000000)">
                <g id="Robot-/-Legs-/-2" transform="translate(51.000000, 389.000000)">
                    <g id="Group-27" transform="translate(121.207792, 22.914179)">
                        <path d="M119.679183,22.4224209 L137.689469,221.529701" id="Stroke-1" stroke="#19141E" stroke-width="16" stroke-linecap="round"></path>
                        <path d="M137.689866,239.513645 L130.200814,468.400391" id="Stroke-6" stroke="#19141E" stroke-width="16" stroke-linecap="round"></path>
                        <path d="M48.0957487,20.9722522 L47.1022422,219.573428" id="Stroke-8" stroke="#19141E" stroke-width="16" stroke-linecap="round"></path>
                        <path d="M47.1022422,228.069208 L20.3798981,474.836984" id="Stroke-10" stroke="#19141E" stroke-width="16" stroke-linecap="round"></path>
                        <g id="Legs-color">
                            <mask id="mask-14" fill="white">
                                <use xlink:href="#path-13"></use>
                            </mask>
                            <use id="Mask" fill="#6CA1FF" xlink:href="#path-13"></use>
                            <g id="Colors-/-Skin-/-Rose" mask="url(#mask-14)" fill="#E576C6" fill-rule="nonzero">
                                <g transform="translate(0.000000, -0.996269)" id="Color">
                                    <rect x="0" y="0" width="194" height="508"></rect>
                                </g>
                            </g>
                        </g>
                        <path d="M130.875604,247.893555 C120.551241,247.538661 112.266234,236.699635 112.266234,223.379373 C112.266234,210.059112 120.551241,199.219121 130.875604,198.864196 L130.875604,198.855822 L131.263193,198.855822 C131.308155,198.855423 131.353153,198.855224 131.398188,198.855224 C131.443223,198.855224 131.488222,198.855423 131.533183,198.855822 L141.261346,198.855822 C141.306307,198.855423 141.351306,198.855224 141.396341,198.855224 C151.962282,198.855224 160.528295,209.835101 160.528295,223.379373 C160.528295,236.923433 151.962551,247.902182 141.396838,247.902526 L130.875604,247.903124 L130.875604,247.893555 Z M118.851692,223.379373 C118.851692,231.307679 123.134698,237.735604 128.417172,237.735604 C133.70064,237.735604 137.982653,231.307679 137.982653,223.379373 C137.982653,215.450071 133.70064,209.022146 128.417172,209.022146 C123.134698,209.022146 118.851692,215.450071 118.851692,223.379373 Z M41.4600195,247.993216 C31.1352263,247.638983 22.8506494,236.799688 22.8506494,223.479 C22.8506494,210.158312 31.1352263,199.318053 41.4600195,198.963789 L41.4600195,198.955449 L41.8466152,198.955449 C41.8915769,198.95505 41.9365755,198.954851 41.9816104,198.954851 C42.0266453,198.954851 42.0716439,198.95505 42.1166056,198.955449 L51.8452772,198.955449 C51.8902347,198.95505 51.9352291,198.954851 51.9802597,198.954851 C62.5471948,198.954851 71.1122143,209.934728 71.1122143,223.479 C71.1122143,237.022848 62.5477317,248.001465 51.9812532,248.002153 L41.4600195,248.002751 L41.4600195,247.993216 L41.4600195,247.993216 Z M29.4356104,223.479 C29.4356104,231.407306 33.7186169,237.835231 39.0010909,237.835231 C44.2845584,237.835231 48.5665714,231.407306 48.5665714,223.479 C48.5665714,215.549698 44.2845584,209.121772 39.0010909,209.121772 C33.7186169,209.121772 29.4356104,215.549698 29.4356104,223.479 Z" id="Shape" fill="#000000" opacity="0.403041295"></path>
                        <path d="M29.4574675,223.573646 C29.4574675,231.501951 33.740474,237.929877 39.0229481,237.929877 C44.3064156,237.929877 48.5884286,231.501951 48.5884286,223.573646 C48.5884286,215.644343 44.3064156,209.216418 39.0229481,209.216418 C33.740474,209.216418 29.4574675,215.644343 29.4574675,223.573646" id="Fill-26" fill="#000000" opacity="0.602887835"></path>
                        <path d="M118.922727,223.374392 C118.922727,231.302698 123.205734,237.730623 128.488208,237.730623 C133.771675,237.730623 138.053688,231.302698 138.053688,223.374392 C138.053688,215.44509 133.771675,209.017164 128.488208,209.017164 C123.205734,209.017164 118.922727,215.44509 118.922727,223.374392" id="Fill-22" fill="#000000" opacity="0.603864397"></path>
                        <polygon id="Fill-14" fill="#000000" opacity="0.395879836" points="79.3275195 492.961701 6.82121026e-13 492.961701 12.5330844 460.774254"></polygon>
                        <polygon id="Fill-16" fill="#000000" opacity="0.395879836" points="194.060531 492.961701 114.733011 492.961701 127.266095 460.774254"></polygon>
                    </g>
                </g>
                <g id="Robot-/-Body-/-3" transform="translate(46.000000, 202.000000)">
                    <g id="Group-24" transform="translate(40.000000, 3.000000)">
                        <polyline id="Stroke-1" stroke="#19141E" stroke-width="15" points="43.0783 388.3777 22.0043 365.5247 52.5573 326.2587 89.2383 358.0817 76.0093 386.0207"></polyline>
                        <polyline id="Stroke-3" stroke="#19141E" stroke-width="15" points="271.9357 386.494 253.0447 361.807 287.0677 325.506 320.6777 360.555 304.9447 387.165"></polyline>
                        <path d="M287.4435,221.7064 L272.2985,110.6684" id="Stroke-5" stroke="#19141E" stroke-width="27" stroke-linecap="round"></path>
                        <path d="M45.5598,218.3235 L61.5258,107.4015" id="Stroke-13" stroke="#19141E" stroke-width="27" stroke-linecap="round"></path>
                        <path d="M224.007,156.4217 L180.89,156.4217 C174.465,156.4217 169.257,151.2137 169.257,144.7887 L169.257,101.6717 C169.257,95.2477 174.465,90.0397 180.89,90.0397 L224.007,90.0397 C230.431,90.0397 235.639,95.2477 235.639,101.6717 L235.639,144.7887 C235.639,151.2137 230.431,156.4217 224.007,156.4217" id="Fill-17" fill="#19141E"></path>
                        <path d="M213.007,156.4217 L180.89,156.4217 C174.465,156.4217 169.257,151.2137 169.257,144.7887 L169.257,101.6717 C169.257,95.2477 174.465,90.0397 180.89,90.0397 L213.007,90.0397 C219.431,90.0397 224.639,95.2477 224.639,101.6717 L224.639,144.7887 C224.639,151.2137 219.431,156.4217 213.007,156.4217" id="Fill-18" fill="#405FD3"></path>
                        <g id="Body-color" transform="translate(-0.000140, 18.460800)">
                            <mask id="mask-16" fill="white">
                                <use xlink:href="#path-15"></use>
                            </mask>
                            <use id="Mask" fill="#6CA1FF" xlink:href="#path-15"></use>
                            <g id="Colors-/-Skin-/-Rose" mask="url(#mask-16)" fill="#E576C6" fill-rule="nonzero">
                                <g transform="translate(0.000140, 7.539200)" id="Color">
                                    <rect x="0" y="0" width="332" height="326"></rect>
                                </g>
                            </g>
                        </g>
                        <polygon id="Fill-11" fill="#19141E" points="126.21 26.461 206.223 26.461 206.223 -5.68434189e-14 126.21 -5.68434189e-14"></polygon>
                        <path d="M213.007,156.4217 C219.431,156.4217 224.639,151.2137 224.639,144.7887 L224.639,101.6717 C224.639,95.2477 219.431,90.0397 213.007,90.0397 L224.007,90.0397 C230.431,90.0397 235.639,95.2477 235.639,101.6717 L235.639,144.7887 C235.639,151.2137 230.431,156.4217 224.007,156.4217 L213.007,156.4217 Z" id="Path" fill="#19141E"></path>
                        <g id="Overlay" transform="translate(16.000000, 66.500000)">
                            <path d="M-1.77458048e-12,174.9087 L6.652,259.3887 L-1.77458048e-12,174.9087 Z M16.4882,173.5 L23.1402,257.98 L16.4882,173.5 Z" id="Shape" stroke="#000000" stroke-width="9" opacity="0.401762463" stroke-linecap="round" stroke-linejoin="round"></path>
                            <path d="M197.05,89.882 L164.933,89.882 C158.508,89.882 153.3,84.674 153.3,78.249 L153.3,35.132 C153.3,28.708 158.508,23.5 164.933,23.5 L197.05,23.5 C203.474,23.5 208.682,28.708 208.682,35.132 L208.682,78.249 C208.682,84.674 203.474,89.882 197.05,89.882 Z M170.427,53.355 C175.081,53.355 178.855,49.582 178.855,44.927 C178.855,40.273 175.081,36.5 170.427,36.5 C165.773,36.5 162,40.273 162,44.927 C162,49.582 165.773,53.355 170.427,53.355 Z M194.3763,53.355 C199.0303,53.355 202.8043,49.582 202.8043,44.927 C202.8043,40.273 199.0303,36.5 194.3763,36.5 C189.7223,36.5 185.9483,40.273 185.9483,44.927 C185.9483,49.582 189.7223,53.355 194.3763,53.355 Z M170.427,77.7129 C175.081,77.7129 178.855,73.9399 178.855,69.2849 C178.855,64.6309 175.081,60.8579 170.427,60.8579 C165.773,60.8579 162,64.6309 162,69.2849 C162,73.9399 165.773,77.7129 170.427,77.7129 Z" id="Shape" fill="#000000" opacity="0.397763207"></path>
                            <path d="M9,39.79 C9,59.832 25.247,76.08 45.289,76.08 C65.331,76.08 81.579,59.832 81.579,39.79 C81.579,19.748 65.331,3.5 45.289,3.5 C25.247,3.5 9,19.748 9,39.79" id="Fill-14" fill="#000000" opacity="0.404203869"></path>
                            <path d="M226.45139,170.13439 L226.00039,254.82339 C225.92139,269.61239 237.84639,281.66439 252.63439,281.74339 L289.78839,281.94139 C304.57639,282.02039 316.62939,270.09539 316.70739,255.30639 L317.15839,170.61739 C317.23739,155.82939 305.31239,143.77739 290.52439,143.69739 L253.37039,143.50039 C238.58239,143.42139 226.52939,155.34539 226.45139,170.13439" id="Fill-16" fill="#000000" opacity="0.398763021"></path>
                            <path d="M239,1.9209887 C242.665468,0.675521796 246.594276,-2.84217094e-14 250.680863,-2.84217094e-14 C270.722863,-2.84217094e-14 286.970863,16.248 286.970863,36.29 C286.970863,55.3518808 272.273166,70.9808615 253.592544,72.4638908 C254.326941,67.4575846 254.707263,62.3362048 254.707263,57.126 C254.707263,36.8671246 248.957206,17.9510652 239,1.9209887 L239,1.9209887 Z" id="Path" fill="#000000" opacity="0.397856213"></path>
                            <path d="M170.427,77.705 C175.081,77.705 178.855,73.932 178.855,69.277 C178.855,64.623 175.081,60.85 170.427,60.85 C165.773,60.85 162,64.623 162,69.277 C162,73.932 165.773,77.705 170.427,77.705" id="Fill-19" fill="#000000" opacity="0.59812128"></path>
                        </g>
                    </g>
                </g>
                <g id="Robot-/-Head-/-1" transform="translate(159.000000, 30.000000)">
                    <g id="Group-23" transform="translate(44.000000, 27.000000)">
                        <path d="M97.859,95.3082 L111.21,95.3082 C116.519,95.3082 120.863,90.9642 120.863,85.6542 C120.863,80.3452 116.519,76.0002 111.21,76.0002 L97.859,76.0002 C92.549,76.0002 88.205,80.3452 88.205,85.6542 C88.205,90.9642 92.549,95.3082 97.859,95.3082" id="Fill-1" fill="#19141E"></path>
                        <path d="M45.6570924,113.554324 C47.6723508,108.098803 55.317156,104.878188 62.7322428,106.360879 C70.1473297,107.84357 74.5247556,113.468103 72.5094973,118.923624 L62.3429076,146.445676 C60.3276492,151.901197 59.6503906,153.464844 50.5,153.464844 C46.6263673,153.464844 40.7197266,153.464844 37.378418,153.464844 C32.5987291,153.464844 31.1309687,150.376192 35.4905027,141.076376 L45.6570924,113.554324 Z" id="Stroke-4" fill="#19141E" fill-rule="nonzero"></path>
                        <g id="Face-color" transform="translate(15.000000, 0.000000)">
                            <mask id="mask-18" fill="white">
                                <use xlink:href="#path-17"></use>
                            </mask>
                            <use id="Mask" fill="#6CA1FF" xlink:href="#path-17"></use>
                            <g id="Colors-/-Skin-/-Rose" mask="url(#mask-18)" fill="#E576C6" fill-rule="nonzero">
                                <g transform="translate(0.000000, -3.000000)" id="Color">
                                    <rect x="0" y="0" width="89" height="144"></rect>
                                </g>
                            </g>
                        </g>
                        <path d="M89.536855,19.8975041 C82.7284711,25.82627 78.8529409,32.3824358 77.6838159,41.3125355 C77.4687367,42.9553705 75.9625995,44.1127952 74.3197645,43.8977159 C72.6769295,43.6826367 71.5195048,42.1764995 71.7345841,40.5336645 C73.0809673,30.249617 77.4933825,22.6313602 84.9403068,15.9501028 C86.0412606,17.6813582 87.6407879,19.06456 89.536855,19.8975041 Z" id="Path" fill="#19141E" fill-rule="nonzero"></path>
                        <path d="M72.7184,78.3805 C73.2424,81.3465 71.2634,84.1745 68.2974,84.6985 C65.3324,85.2225 62.5034,83.2435 61.9794,80.2775 C61.4554,77.3125 63.4344,74.4835 66.4004,73.9595 C69.3654,73.4355 72.1954,75.4145 72.7184,78.3805" id="Fill-12" fill="#19141E"></path>
                        <path d="M101.0284,78.4967 C101.5524,81.4627 99.5724,84.2907 96.6074,84.8147 C93.6414,85.3387 90.8134,83.3597 90.2894,80.3937 C89.7654,77.4287 91.7444,74.5997 94.7104,74.0757 C97.6754,73.5517 100.5044,75.5317 101.0284,78.4967" id="Fill-14" fill="#19141E"></path>
                        <g id="Overlay" transform="translate(78.068700, 72.492300)" fill="#000000" opacity="0.403971354">
                            <polygon id="Fill-16" points="1.051 0 14.811 21.834 7.531753e-13 22.192"></polygon>
                        </g>
                        <path d="M9.6539,93.2423 L22.6069,93.2423 L22.6069,73.9343 L9.6539,73.9343 C4.3439,73.9343 -9.99999993e-05,78.2793 -9.99999993e-05,83.5883 C-9.99999993e-05,88.8983 4.3439,93.2423 9.6539,93.2423" id="Fill-18" fill="#19141E"></path>
                        <path d="M76.3214,104.8707 C69.7694,105.9807 63.6444,102.2387 62.9794,98.3167" id="Stroke-21" stroke="#19141E" stroke-width="4"></path>
                    </g>
                </g>
            </g>
        </g>
    </g>
</svg>